<svg xmlns="http://www.w3.org/2000/svg" xmlns:xlink="http://www.w3.org/1999/xlink" width="49.642" height="49.658" viewBox="0 0 49.642 49.658"><defs><filter id="a" x="0" y="0" width="49.642" height="49.658" filterUnits="userSpaceOnUse"><feOffset dy="3" input="SourceAlpha"/><feGaussianBlur stdDeviation="3" result="b"/><feFlood flood-opacity="0.161"/><feComposite operator="in" in2="b"/><feComposite in="SourceGraphic"/></filter></defs><g transform="matrix(1, 0, 0, 1, 0, 0)" filter="url(#a)"><path d="M2.538,21.985a8.529,8.529,0,0,1,2.974-.522,8.368,8.368,0,0,1,5.553,1.993L6.1,28.424a16.787,16.787,0,0,1-3.56-6.439m20.915-7.642a10.519,10.519,0,0,0,10.094,1.709,13.472,13.472,0,0,1,.095,1.772A15.979,15.979,0,0,1,32.5,23.282a15.332,15.332,0,0,1-2.737,4.825L19.751,18.124l3.7-3.781M12.711,25.165a8.4,8.4,0,0,1,1.028,7.942,16.267,16.267,0,0,1-5.933-3.053l4.9-4.889m5.411-5.411L28.1,29.769A15.143,15.143,0,0,1,16.049,33.55a11.217,11.217,0,0,0,.506-3.417,11.037,11.037,0,0,0-.664-3.449,12.788,12.788,0,0,0-1.55-3.227l3.781-3.7m-5.347,2.025a10.592,10.592,0,0,0-5.11-2.516,10.857,10.857,0,0,0-5.569.348A13.964,13.964,0,0,1,2,17.824a15.979,15.979,0,0,1,1.139-5.458A15.332,15.332,0,0,1,5.876,7.54L16.413,18.124l-3.639,3.655M23.453,11.068a8.2,8.2,0,0,1-1.471-8.527A13.858,13.858,0,0,1,25.352,4a19.7,19.7,0,0,1,3.069,2.1l-4.968,4.968m9.651,2.61a8.824,8.824,0,0,1-7.942-1.044l4.889-4.825a17.048,17.048,0,0,1,3.053,5.87M18.122,16.416,7.537,5.879A15.159,15.159,0,0,1,19.609,2.1a10.748,10.748,0,0,0-.522,3.417,11.436,11.436,0,0,0,.775,3.86,9.786,9.786,0,0,0,1.914,3.4Z" transform="translate(7 4)" fill="#fff"/></g></svg>