<svg xmlns="http://www.w3.org/2000/svg" width="30" height="29" viewBox="0 0 30 29"><path d="M30.518,18.488a6.9,6.9,0,0,1-2.771,5.947l1.129,2.243a2.639,2.639,0,0,1,.088,2.183,2.592,2.592,0,0,1-1.554,1.506l-1.158.376a2.368,2.368,0,0,1-.792.136,2.45,2.45,0,0,1-1.936-.964l-3.109-3.764A7.7,7.7,0,0,1,16.838,24.5a7.448,7.448,0,0,1-2.2.346,6.278,6.278,0,0,1-3.666-1.189,7.493,7.493,0,0,1-2.375.331,8.394,8.394,0,0,1-3.373-.678A6.185,6.185,0,0,1,1.661,17.87a6.071,6.071,0,0,1,.513-3.177,5.333,5.333,0,0,1-.1-3.508A6.693,6.693,0,0,1,4.916,7.813a5.832,5.832,0,0,1,5.865-4.065A6.6,6.6,0,0,1,19.33,3.19a7.369,7.369,0,0,1,1.906-.256A6.292,6.292,0,0,1,26.369,5.4a7.2,7.2,0,0,1,5.249,6.73,8.083,8.083,0,0,1-1.261,4.713,8.767,8.767,0,0,1,.161,1.641m-7.332-2.123a1.643,1.643,0,0,1,1.5,1.611,1.486,1.486,0,0,1-1.466,1.506h-.924a7.8,7.8,0,0,1-2.375,3.448c.367.136.748.211,1.129.316,7.522-.105,6.642-4.818,6.642-4.893A3.843,3.843,0,0,0,23.744,14.6a1.506,1.506,0,0,1,0-3.011,7.562,7.562,0,0,1,4.883,1.957,8.126,8.126,0,0,0,.117-1.34c-.088-1.867-.909-3.493-4.208-3.809-1.833-4.457-6.452-1.987-6.452-.6h0a2.439,2.439,0,0,0,.367,1.129,1.506,1.506,0,0,1,0,3.011h0a3.383,3.383,0,0,1-2.1-.843,5.269,5.269,0,0,1-2.346.843h0a1.418,1.418,0,0,1-1.569-1.355,1.449,1.449,0,0,1,1.29-1.656c.235-.03,1.378-.211,1.378-1.159h0a4.2,4.2,0,0,1,1-2.7c-1.349-.376-2.8.12-4.267,1.942-2.7-.437-3.8-.06-4.6,2.876-1.393.708-2.126,1.2-2.449,2.71a8.421,8.421,0,0,1,4.722.376,1.536,1.536,0,0,1,.865,1.942,1.461,1.461,0,0,1-1.892.888,4.367,4.367,0,0,0-3.373-.09c-.469.407-.469,1.25-.469,1.912A3.273,3.273,0,0,0,6.1,20.385a5.23,5.23,0,0,0,2.507.6,9.191,9.191,0,0,1-.572-1.22,1.573,1.573,0,0,1,.938-1.987,1.512,1.512,0,0,1,1.936.964,4.576,4.576,0,0,0,3.842,3.087,5.49,5.49,0,0,0,4.678-3.207c.337-2.078,1.965-2.258,3.754-2.258m2.933,11.247-.909-1.957-1.041.241,1.466,1.882.484-.166M19.3,14.648A1.492,1.492,0,0,0,17.967,13.1a3.858,3.858,0,0,0-2.83,1.009A4.546,4.546,0,0,0,13.9,17.4a1.467,1.467,0,1,0,2.933,0,1.972,1.972,0,0,1,.337-1.144.956.956,0,0,1,.631-.226A1.4,1.4,0,0,0,19.3,14.648Z" transform="translate(-1.626 -1.879)" fill="#fff"/></svg>