<svg xmlns="http://www.w3.org/2000/svg" width="30" height="28" viewBox="0 0 30 28"><path d="M6.333,15.5l2.5-7.875H27.167l2.5,7.875m-2.5,8.75a2.628,2.628,0,1,1,2.5-2.625,2.565,2.565,0,0,1-2.5,2.625m-18.333,0a2.628,2.628,0,0,1,0-5.25,2.628,2.628,0,0,1,0,5.25m20.7-17.5A2.509,2.509,0,0,0,27.167,5H8.833A2.509,2.509,0,0,0,6.467,6.75L3,17.25v14A1.71,1.71,0,0,0,4.667,33H6.333A1.71,1.71,0,0,0,8,31.25V29.5H28v1.75A1.71,1.71,0,0,0,29.667,33h1.667A1.71,1.71,0,0,0,33,31.25v-14Z" transform="translate(-3 -5)" fill="#fff"/></svg>