<svg xmlns="http://www.w3.org/2000/svg" width="26.096" height="26.096" viewBox="0 0 26.096 26.096"><g transform="translate(-265 -618)"><path d="M13.048,0A13.048,13.048,0,1,0,26.1,13.048,13.063,13.063,0,0,0,13.048,0Zm0,24.685A11.661,11.661,0,0,1,1.779,15.957H24.317A11.658,11.658,0,0,1,13.048,24.685ZM2.207,8.816a11.643,11.643,0,0,1,21.34-.784q.184.385.341.784Zm16.615,3.571a1.411,1.411,0,1,1-1.411-1.411A1.411,1.411,0,0,1,18.822,12.387Zm-8.728,0a1.411,1.411,0,1,1-1.411-1.411A1.411,1.411,0,0,1,10.094,12.387Z" transform="translate(265 618)" fill="#fff"/><rect width="4.89" height="1.411" transform="translate(275.878 626.137) rotate(-165.682)" fill="#fff"/><rect width="1.411" height="4.89" transform="translate(280.218 626.138) rotate(-104.318)" fill="#fff"/><path d="M145.412,190.446a4.859,4.859,0,0,1,3.269.714l.756-1.191a6.265,6.265,0,0,0-9.319,3.34l1.341.439A4.894,4.894,0,0,1,145.412,190.446Z" transform="translate(137.234 445.672)" fill="#fff"/></g></svg>