<svg id="graduation" xmlns="http://www.w3.org/2000/svg" width="53.145" height="53.145" viewBox="0 0 53.145 53.145">
  <path id="Path_116" data-name="Path 116" d="M125.357,181v10.9l-17.23,7.785L91,191.9V181Zm0,0" transform="translate(-81.554 -162.213)" fill="#5a5a5a"/>
  <path id="Path_117" data-name="Path 117" d="M273.23,181v10.9L256,199.684V181Zm0,0" transform="translate(-229.428 -162.213)" fill="#444"/>
  <path id="Path_118" data-name="Path 118" d="M455.114,136v24.911H452V137.557Zm0,0" transform="translate(-405.083 -121.883)" fill="#fdbf00"/>
  <path id="Path_119" data-name="Path 119" d="M468.557,136v24.911H467V136.778Zm0,0" transform="translate(-418.526 -121.883)" fill="#ff9f00"/>
  <path id="Path_120" data-name="Path 120" d="M426.671,354.7,422,359.37v11.657h9.342V359.37Zm0,0" transform="translate(-378.197 -317.882)" fill="#ffd400"/>
  <path id="Path_121" data-name="Path 121" d="M471.671,359.37v11.657H467V354.7Zm0,0" transform="translate(-418.526 -317.882)" fill="#fdbf00"/>
  <path id="Path_122" data-name="Path 122" d="M53.145,14.117,26.572,28.129,0,14.117,26.572,0Zm0,0" fill="#6e6e6e"/>
  <path id="Path_123" data-name="Path 123" d="M282.572,14.117,256,28.129V0Zm0,0" transform="translate(-229.428)" fill="#5a5a5a"/>
  <path id="Path_124" data-name="Path 124" d="M202.228,91C198.74,91,196,93.055,196,95.671s2.74,4.671,6.228,4.671,6.228-2.055,6.228-4.671S205.716,91,202.228,91Zm0,0" transform="translate(-175.656 -81.554)" fill="#ffd400"/>
  <path id="Path_125" data-name="Path 125" d="M262.228,95.671c0,2.616-2.74,4.671-6.228,4.671V91C259.488,91,262.228,93.055,262.228,95.671Zm0,0" transform="translate(-229.428 -81.554)" fill="#fdbf00"/>
</svg>
