<svg xmlns="http://www.w3.org/2000/svg" width="19.244" height="28.125" viewBox="0 0 19.244 28.125"><g transform="translate(-139.791 -621)"><path d="M129.117,408.818l-.109-.97a6.416,6.416,0,0,1-2.72-.282l-.306.927a7.252,7.252,0,0,0,3.136.324Zm0,0" transform="translate(21.467 238.3)" fill="#fff"/><path d="M188.192,198.159a6.3,6.3,0,0,1-1.858,4.486,6.374,6.374,0,0,1-1.049.848l.53.82a7.321,7.321,0,0,0-2.616-13.349l-.179.96A6.345,6.345,0,0,1,188.192,198.159Zm0,0" transform="translate(-32.092 441.686)" fill="#fff"/><path d="M2.065,11.354.787,12.632a.488.488,0,0,0-.052.629L2,15.035A9.274,9.274,0,1,0,6.641,10.4L4.867,9.129a.488.488,0,0,0-.628.052L2.76,10.659,1.9,9.97a1.159,1.159,0,0,1,.722-2.064H9.087a2.14,2.14,0,0,0,2.138-2.138V5.7l.8.317a.488.488,0,0,0,.663-.383l.2-1.367,1.085-.856a.488.488,0,0,0,0-.766l-1.083-.856-.2-1.367a.488.488,0,0,0-.663-.383l-1.286.51L9.453.034A.488.488,0,0,0,8.79.417l-.2,1.367L7.506,2.64a.488.488,0,0,0,0,.766l1.083.856.2,1.367a.488.488,0,0,0,.663.383l.8-.316v.073A1.163,1.163,0,0,1,9.087,6.93H2.625a2.134,2.134,0,0,0-1.335,3.8Zm2.57-1.19,1.67,1.193a.487.487,0,0,0,.5.041A8.3,8.3,0,1,1,3,15.2a.488.488,0,0,0-.041-.5L1.769,13.03ZM9.667,4.877l-.138-.947a.49.49,0,0,0-.181-.313L8.6,3.023l.752-.593a.488.488,0,0,0,.181-.313l.138-.947.889.355a.49.49,0,0,0,.361,0l.889-.355.138.947a.489.489,0,0,0,.181.313l.752.593-.752.592a.49.49,0,0,0-.181.313l-.138.947-.889-.354a.487.487,0,0,0-.361,0Zm0,0" transform="translate(139.304 621.001)" fill="#fff"/></g></svg>