<svg xmlns="http://www.w3.org/2000/svg" width="159.904" height="65.023" viewBox="0 0 159.904 65.023">
  <g id="Group_4438" data-name="Group 4438" transform="translate(0)">
    <g id="Group_4101" data-name="Group 4101" transform="translate(0 0)">
      <path id="Path_3079" data-name="Path 3079" d="M92.165,36.89h29.27A30.929,30.929,0,0,0,92.165,4.378V36.89Z" transform="translate(-58.032 -2.757)" fill="none"/>
      <path id="Path_3080" data-name="Path 3080" d="M28.724,13.322l23.5,23.5V4.306A30.85,30.85,0,0,0,28.724,13.322Z" transform="translate(-18.086 -2.685)" fill="none"/>
      <path id="Path_3081" data-name="Path 3081" d="M112.418,112.419a30.819,30.819,0,0,0,9.016-20.253H92.165Z" transform="translate(-58.032 -58.033)" fill="none"/>
      <path id="Path_3082" data-name="Path 3082" d="M36.816,52.219l-23.5-23.5A30.855,30.855,0,0,0,4.3,52.219Z" transform="translate(-2.684 -18.086)" fill="none"/>
      <path id="Path_3083" data-name="Path 3083" d="M92.165,92.166v29.269a30.815,30.815,0,0,0,20.253-9.016L92.165,92.166Z" transform="translate(-58.032 -58.033)" fill="none"/>
      <path id="Path_3084" data-name="Path 3084" d="M92.165,92.166Z" transform="translate(-58.032 -58.033)" fill="none"/>
      <path id="Path_3085" data-name="Path 3085" d="M4.376,92.166a30.93,30.93,0,0,0,32.512,29.269V92.166Z" transform="translate(-2.755 -58.033)" fill="none"/>
      <path id="Path_3086" data-name="Path 3086" d="M113.533,9.591A32.385,32.385,0,0,0,92.165.109V1.69A30.929,30.929,0,0,1,121.434,34.2h1.581A32.424,32.424,0,0,0,113.533,9.591Z" transform="translate(-58.032 -0.069)" fill="#48bc97"/>
      <path id="Path_3087" data-name="Path 3087" d="M146.852,112.419l1.115,1.116a32.392,32.392,0,0,0,9.482-21.368h-1.581A30.82,30.82,0,0,1,146.852,112.419Z" transform="translate(-92.466 -58.033)" fill="#fade2d"/>
      <path id="Path_3088" data-name="Path 3088" d="M50.322,1.622V.041A32.427,32.427,0,0,0,25.711,9.522l1.116,1.115A30.849,30.849,0,0,1,50.322,1.622Z" transform="translate(-16.189 0)" fill="#ee2c68"/>
      <path id="Path_3089" data-name="Path 3089" d="M10.638,26.827,9.522,25.712A32.428,32.428,0,0,0,.041,50.323H1.621A30.854,30.854,0,0,1,10.638,26.827Z" transform="translate(0 -16.19)" fill="#7e4b9e"/>
      <path id="Path_3090" data-name="Path 3090" d="M92.165,155.867v1.581a32.385,32.385,0,0,0,21.369-9.482l-1.115-1.116A30.815,30.815,0,0,1,92.165,155.867Z" transform="translate(-58.032 -92.466)" fill="#f26a34"/>
      <path id="Path_3091" data-name="Path 3091" d="M10.706,112.419A30.82,30.82,0,0,1,1.689,92.166H.109A32.51,32.51,0,0,0,34.2,123.016v-1.581A30.85,30.85,0,0,1,10.706,112.419Z" transform="translate(-0.069 -58.033)" fill="#00b7c1"/>
    </g>
    <path id="Path_3092" data-name="Path 3092" d="M69.129,41.283H39.219v3.043H57.976a15.637,15.637,0,1,1-1.015-8.4h11.5a26.62,26.62,0,1,0,.688,6.006C69.145,41.717,69.134,41.5,69.129,41.283Z" transform="translate(-10.008 -9.64)" fill="#fff"/>
    <path id="Path_3093" data-name="Path 3093" d="M244.8,105.408h-9.32l-1.5,4.361h-6.957l9.553-25.1H243.7l9.554,25.1H246.3Zm-1.73-4.96-2.931-8.355-2.928,8.355Z" transform="translate(-142.946 -53.313)" fill="#fff"/>
    <path id="Path_3094" data-name="Path 3094" d="M290.861,84.67l6.059,15.279,6.091-15.279h7.09l-10.586,25.1h-5.192L283.77,84.67Z" transform="translate(-178.677 -53.313)" fill="#fff"/>
    <path id="Path_3095" data-name="Path 3095" d="M356.721,96.03A12.932,12.932,0,0,1,364.993,83.8a15.951,15.951,0,0,1,11.2,0,13.241,13.241,0,0,1,4.412,2.812,12.9,12.9,0,0,1,2.879,4.211,13.682,13.682,0,0,1,0,10.419,12.9,12.9,0,0,1-2.879,4.211,13.2,13.2,0,0,1-4.412,2.811,15.94,15.94,0,0,1-11.2,0,12.976,12.976,0,0,1-8.272-12.232Zm6.824,0a6.7,6.7,0,0,0,.565,2.763,7.035,7.035,0,0,0,1.532,2.2,6.929,6.929,0,0,0,2.246,1.448,7.383,7.383,0,0,0,5.426,0,7.105,7.105,0,0,0,2.264-1.448,6.856,6.856,0,0,0,1.548-2.2,7.028,7.028,0,0,0,0-5.526,6.846,6.846,0,0,0-1.548-2.2,7.129,7.129,0,0,0-2.264-1.448,7.393,7.393,0,0,0-5.426,0,6.933,6.933,0,0,0-2.246,1.448,7.043,7.043,0,0,0-1.532,2.2A6.694,6.694,0,0,0,363.545,96.03Z" transform="translate(-224.611 -52.123)" fill="#fff"/>
    <path id="Path_3096" data-name="Path 3096" d="M178.265,99.483a6.952,6.952,0,0,0,4.077-2.414,7.366,7.366,0,0,0,1.384-4.643,8.608,8.608,0,0,0-.517-3,6.9,6.9,0,0,0-4.112-4.144,9.953,9.953,0,0,0-3.661-.616h-6.356a34.205,34.205,0,0,1-3.73,16.514c-.021-.029-.044-.054-.066-.082v8.666h6.525v-9.653l6.225,9.653h8.121ZM176,95.089a4.754,4.754,0,0,1-2.963.8h-1.232V89.7h1.232a4.761,4.761,0,0,1,2.963.8,3.073,3.073,0,0,1,0,4.595Z" transform="translate(-104.071 -53.313)" fill="#fff"/>
  </g>
</svg>
