<svg xmlns="http://www.w3.org/2000/svg" xmlns:xlink="http://www.w3.org/1999/xlink" width="48" height="48" viewBox="0 0 48 48"><defs><filter id="a" x="0" y="0" width="48" height="48" filterUnits="userSpaceOnUse"><feOffset dy="3" input="SourceAlpha"/><feGaussianBlur stdDeviation="3" result="b"/><feFlood flood-opacity="0.161"/><feComposite operator="in" in2="b"/><feComposite in="SourceGraphic"/></filter></defs><g transform="matrix(1, 0, 0, 1, 0, 0)" filter="url(#a)"><path d="M32,3V23.833a5.686,5.686,0,0,1-5.526,5.833,5.686,5.686,0,0,1-5.526-5.833A5.686,5.686,0,0,1,26.474,18a5.145,5.145,0,0,1,2.368.567V8.783l-15.789,3.55V27.167A5.686,5.686,0,0,1,7.526,33,5.686,5.686,0,0,1,2,27.167a5.686,5.686,0,0,1,5.526-5.833,5.145,5.145,0,0,1,2.368.567V8Z" transform="translate(7 3)" fill="#fff"/></g></svg>