<svg xmlns="http://www.w3.org/2000/svg" xmlns:xlink="http://www.w3.org/1999/xlink" width="375" height="216.99" viewBox="0 0 375 216.99">
  <defs>
    <linearGradient id="linear-gradient" x1="0.5" x2="0.5" y2="1" gradientUnits="objectBoundingBox">
      <stop offset="0" stop-color="#ff989b"/>
      <stop offset="1" stop-color="#ff5177"/>
    </linearGradient>
    <clipPath id="clip-path">
      <path id="Path_592" data-name="Path 592" d="M0,0H375V216.99H0Z" transform="translate(704 93)" fill="url(#linear-gradient)"/>
    </clipPath>
    <clipPath id="clip-path-2">
      <rect id="Rectangle_121" data-name="Rectangle 121" width="266.555" height="380.8" fill="none"/>
    </clipPath>
  </defs>
  <g id="Group_313" data-name="Group 313" transform="translate(-286 -408)">
    <path id="Path_591" data-name="Path 591" d="M0,0H375V216.99H0Z" transform="translate(286 408)" fill="url(#linear-gradient)"/>
    <g id="Mask_Group_4" data-name="Mask Group 4" transform="translate(-418 315)" clip-path="url(#clip-path)">
      <g id="Group_312" data-name="Group 312" transform="translate(687.59 386.508) rotate(-90)" opacity="0.498">
        <g id="Group_311" data-name="Group 311" transform="translate(45.336 10.15)" clip-path="url(#clip-path-2)">
          <path id="Path_547" data-name="Path 547" d="M82.112,90.687a66.323,66.323,0,0,1-33.294-8.974A66.58,66.58,0,0,0,82.112,24.09a66.56,66.56,0,0,0,33.294,57.623A66.3,66.3,0,0,1,82.112,90.687Z" transform="translate(-15.504 109.273)" fill="#ff5749"/>
          <path id="Path_548" data-name="Path 548" d="M85.592,111.536a66.42,66.42,0,0,1-24.31-90.927,66.525,66.525,0,0,0,57.623,33.3h0v66.6A66.394,66.394,0,0,1,85.592,111.536Z" transform="translate(14.31 79.45)" fill="#ff753b"/>
          <path id="Path_549" data-name="Path 549" d="M53.237,50.44a67.055,67.055,0,0,1,24.31-24.329,66.375,66.375,0,0,1,33.313-8.984V83.743A66.525,66.525,0,0,1,53.237,50.44Z" transform="translate(22.354 49.619)" fill="#ff6642"/>
          <path id="Path_550" data-name="Path 550" d="M93.645,85.747a67.055,67.055,0,0,0-24.31,24.329,66.3,66.3,0,0,0-8.984,33.3,66.206,66.206,0,0,0-8.993-33.3,66.179,66.179,0,0,0,8.993-33.3v-.01a66.232,66.232,0,0,0-8.993-33.3,66.117,66.117,0,0,0,8.993-33.294A66.234,66.234,0,0,0,69.335,43.46a66.909,66.909,0,0,0,24.31,24.329,66.27,66.27,0,0,0,33.313,8.974A66.375,66.375,0,0,0,93.645,85.747Z" transform="translate(6.257 -10.017)" fill="#ff5749"/>
          <path id="Path_551" data-name="Path 551" d="M118.9,61.766A66.537,66.537,0,0,0,61.282,95.06,66.409,66.409,0,0,1,85.592,4.143,66.558,66.558,0,0,1,118.9,61.766Z" transform="translate(14.31 -61.617)" fill="#ff753b"/>
          <path id="Path_552" data-name="Path 552" d="M77.547,67.789A66.909,66.909,0,0,1,53.237,43.46,66.537,66.537,0,0,1,110.86,10.166h0v66.6A66.27,66.27,0,0,1,77.547,67.789Z" transform="translate(22.354 -10.017)" fill="#ff6642"/>
          <path id="Path_553" data-name="Path 553" d="M78.649,111.536a66.421,66.421,0,0,1-33.313,8.974v-66.6a66.5,66.5,0,0,0,57.614-33.3,66.4,66.4,0,0,1-24.3,90.927Z" transform="translate(-45.335 79.45)" fill="#ff2b5d"/>
          <path id="Path_554" data-name="Path 554" d="M102.95,80.262a67.1,67.1,0,0,0-24.3-24.329,66.428,66.428,0,0,0-33.313-8.984,66.323,66.323,0,0,0,33.313-8.974,66.956,66.956,0,0,0,24.3-24.329,66.233,66.233,0,0,1,8.993,33.3v.01A66.179,66.179,0,0,1,102.95,80.262Z" transform="translate(-45.335 19.797)" fill="#ff4850"/>
          <path id="Path_555" data-name="Path 555" d="M45.336,83.743V17.127a66.428,66.428,0,0,1,33.313,8.984,67.1,67.1,0,0,1,24.3,24.329A66.5,66.5,0,0,1,45.336,83.743Z" transform="translate(-45.335 49.619)" fill="#ff3a56"/>
          <path id="Path_556" data-name="Path 556" d="M102.95,103.113A66.509,66.509,0,0,0,45.336,69.819V3.2a66.759,66.759,0,0,1,66.607,66.616A66.117,66.117,0,0,1,102.95,103.113Z" transform="translate(-45.335 -69.67)" fill="#ff3a56"/>
          <path id="Path_557" data-name="Path 557" d="M78.649,67.789a66.323,66.323,0,0,1-33.313,8.974v-66.6A66.509,66.509,0,0,1,102.95,43.46,66.956,66.956,0,0,1,78.649,67.789Z" transform="translate(-45.335 -10.017)" fill="#ff2b5d"/>
          <path id="Path_558" data-name="Path 558" d="M96.05,90.687a66.323,66.323,0,0,1-33.294-8.974A66.58,66.58,0,0,0,96.05,24.09a66.537,66.537,0,0,0,33.313,57.623A66.421,66.421,0,0,1,96.05,90.687Z" transform="translate(103.905 109.273)" fill="#ff922e"/>
          <path id="Path_559" data-name="Path 559" d="M99.549,111.536A66.407,66.407,0,0,1,75.22,20.609a66.537,66.537,0,0,0,57.623,33.3h0v66.6A66.3,66.3,0,0,1,99.549,111.536Z" transform="translate(133.719 79.45)" fill="#ffaf21"/>
          <path id="Path_560" data-name="Path 560" d="M67.175,50.44A66.731,66.731,0,0,1,124.8,17.127V83.743A66.537,66.537,0,0,1,67.175,50.44Z" transform="translate(141.764 49.619)" fill="#ffbe1a"/>
          <path id="Path_561" data-name="Path 561" d="M92.577,85.747a66.934,66.934,0,0,1,24.32,24.329,66.2,66.2,0,0,1,8.984,33.3,66.2,66.2,0,0,1,8.984-33.3,66.171,66.171,0,0,1-8.984-33.3v-.01a66.224,66.224,0,0,1,8.984-33.3,66.109,66.109,0,0,1-8.984-33.294,66.047,66.047,0,0,1-8.993,33.294,66.69,66.69,0,0,1-24.31,24.329,66.262,66.262,0,0,1-33.3,8.974A66.366,66.366,0,0,1,92.577,85.747Z" transform="translate(74.074 -10.017)" fill="#ffa127"/>
          <path id="Path_562" data-name="Path 562" d="M132.843,61.766A66.537,66.537,0,0,0,75.22,95.06,66.4,66.4,0,0,1,99.539,4.143,66.549,66.549,0,0,1,132.843,61.766Z" transform="translate(133.719 -61.617)" fill="#ffaf21"/>
          <path id="Path_563" data-name="Path 563" d="M91.495,67.789A66.861,66.861,0,0,1,67.175,43.46,66.537,66.537,0,0,1,124.8,10.166h0v66.6A66.261,66.261,0,0,1,91.495,67.789Z" transform="translate(141.764 -10.017)" fill="#ffbe1a"/>
          <path id="Path_564" data-name="Path 564" d="M92.587,111.536a66.421,66.421,0,0,1-33.313,8.974v-66.6a66.5,66.5,0,0,0,57.623-33.3,66.42,66.42,0,0,1-24.31,90.927Z" transform="translate(74.074 79.45)" fill="#ff8335"/>
          <path id="Path_565" data-name="Path 565" d="M75.22,80.262a66.731,66.731,0,0,1,57.623-33.313,66.261,66.261,0,0,1-33.3-8.974A66.861,66.861,0,0,1,75.22,13.646a66.224,66.224,0,0,0-8.984,33.3v.01A66.171,66.171,0,0,0,75.22,80.262Z" transform="translate(133.719 19.797)" fill="#ffaf21"/>
          <path id="Path_566" data-name="Path 566" d="M59.274,83.743V17.127A66.731,66.731,0,0,1,116.9,50.44,66.5,66.5,0,0,1,59.274,83.743Z" transform="translate(74.074 49.619)" fill="#ff753b"/>
          <path id="Path_567" data-name="Path 567" d="M116.888,103.113A66.486,66.486,0,0,0,59.274,69.819V3.2a66.772,66.772,0,0,1,66.607,66.616A66.021,66.021,0,0,1,116.888,103.113Z" transform="translate(74.074 -69.67)" fill="#ff8335"/>
          <path id="Path_568" data-name="Path 568" d="M92.577,67.789a66.262,66.262,0,0,1-33.3,8.974v-66.6A66.486,66.486,0,0,1,116.888,43.46,66.69,66.69,0,0,1,92.577,67.789Z" transform="translate(74.074 -10.017)" fill="#ff753b"/>
          <path id="Path_569" data-name="Path 569" d="M96.082,29.053a66.333,66.333,0,0,1,33.284,8.964A66.547,66.547,0,0,0,96.082,95.65,66.553,66.553,0,0,0,62.769,38.017,66.386,66.386,0,0,1,96.082,29.053Z" transform="translate(104.017 151.792)" fill="#ffa127"/>
          <path id="Path_570" data-name="Path 570" d="M92.591,38.017a66.368,66.368,0,0,1,24.31,90.927A66.521,66.521,0,0,0,59.288,95.65h0v-66.6A66.325,66.325,0,0,1,92.591,38.017Z" transform="translate(74.194 151.792)" fill="#ff753b"/>
          <path id="Path_571" data-name="Path 571" d="M116.9,69.308A66.81,66.81,0,0,1,92.6,93.637a66.188,66.188,0,0,1-33.313,8.993V36.014A66.521,66.521,0,0,1,116.9,69.308Z" transform="translate(74.194 211.428)" fill="#ff8335"/>
          <path id="Path_572" data-name="Path 572" d="M92.6,93.637a66.81,66.81,0,0,0,24.3-24.329,66.177,66.177,0,0,0,9-33.294,66.155,66.155,0,0,0,8.974,33.294A66.209,66.209,0,0,0,125.9,102.63h0a66.156,66.156,0,0,0,8.974,33.294,66.111,66.111,0,0,0-8.974,33.3,66.749,66.749,0,0,0-66.616-66.6A66.188,66.188,0,0,0,92.6,93.637Z" transform="translate(74.194 211.428)" fill="#ffa127"/>
          <path id="Path_573" data-name="Path 573" d="M59.288,79.76a66.545,66.545,0,0,0,57.623-33.3A66.394,66.394,0,0,1,92.6,137.383,66.537,66.537,0,0,1,59.288,79.76Z" transform="translate(74.194 300.895)" fill="#ff8335"/>
          <path id="Path_574" data-name="Path 574" d="M92.6,51.961a66.711,66.711,0,0,1,24.31,24.31,66.545,66.545,0,0,1-57.623,33.3h0v-66.6A66.18,66.18,0,0,1,92.6,51.961Z" transform="translate(74.194 271.081)" fill="#ff753b"/>
          <path id="Path_575" data-name="Path 575" d="M99.535,38.017a66.386,66.386,0,0,1,33.313-8.964v66.6a66.537,66.537,0,0,0-57.623,33.294,66.446,66.446,0,0,1,24.31-90.927Z" transform="translate(133.848 151.792)" fill="#ffbe1a"/>
          <path id="Path_576" data-name="Path 576" d="M75.225,39.494a66.982,66.982,0,0,0,24.31,24.329,66.214,66.214,0,0,0,33.313,8.993A66.736,66.736,0,0,0,75.225,106.11a66.156,66.156,0,0,1-8.974-33.294h0A66.209,66.209,0,0,1,75.225,39.494Z" transform="translate(133.848 241.242)" fill="#ffbe1a"/>
          <path id="Path_577" data-name="Path 577" d="M124.812,36.014V102.63A66.214,66.214,0,0,1,91.5,93.637a66.982,66.982,0,0,1-24.31-24.329A66.537,66.537,0,0,1,124.812,36.014Z" transform="translate(141.884 211.428)" fill="#ffaf21"/>
          <path id="Path_578" data-name="Path 578" d="M75.225,46.457a66.545,66.545,0,0,0,57.623,33.3v66.607a66.538,66.538,0,0,1-57.623-99.91Z" transform="translate(133.848 300.895)" fill="#ffbe1a"/>
          <path id="Path_579" data-name="Path 579" d="M91.5,51.961a66.207,66.207,0,0,1,33.313-8.984v66.6a66.545,66.545,0,0,1-57.623-33.3A66.784,66.784,0,0,1,91.5,51.961Z" transform="translate(141.884 271.081)" fill="#ffaf21"/>
          <path id="Path_580" data-name="Path 580" d="M82.125,29.053a66.324,66.324,0,0,1,33.3,8.964,66.585,66.585,0,0,0-33.3,57.633A66.576,66.576,0,0,0,48.831,38.017,66.315,66.315,0,0,1,82.125,29.053Z" transform="translate(-15.393 151.792)" fill="#ff4850"/>
          <path id="Path_581" data-name="Path 581" d="M78.662,38.017a66.42,66.42,0,0,1,24.31,90.927A66.525,66.525,0,0,0,45.349,95.65h0v-66.6A66.413,66.413,0,0,1,78.662,38.017Z" transform="translate(-45.224 151.792)" fill="#ff3a56"/>
          <path id="Path_582" data-name="Path 582" d="M102.972,69.308a66.836,66.836,0,0,1-24.31,24.329,66.188,66.188,0,0,1-33.313,8.993V36.014A66.525,66.525,0,0,1,102.972,69.308Z" transform="translate(-45.224 211.428)" fill="#ff2b5d"/>
          <path id="Path_583" data-name="Path 583" d="M93.668,93.637A66.816,66.816,0,0,1,60.356,36.014a66.163,66.163,0,0,1-8.984,33.294,66.216,66.216,0,0,1,8.984,33.323h0a66.163,66.163,0,0,1-8.984,33.294,66.119,66.119,0,0,1,8.984,33.3,66.762,66.762,0,0,1,66.607-66.6A66.143,66.143,0,0,1,93.668,93.637Z" transform="translate(6.377 211.428)" fill="#ff4850"/>
          <path id="Path_584" data-name="Path 584" d="M45.349,79.76a66.522,66.522,0,0,0,57.623-33.3,66.42,66.42,0,0,1-24.31,90.926A66.557,66.557,0,0,1,45.349,79.76Z" transform="translate(-45.224 300.895)" fill="#ff3a56"/>
          <path id="Path_585" data-name="Path 585" d="M78.662,51.961a66.639,66.639,0,0,1,24.31,24.31,66.522,66.522,0,0,1-57.623,33.3h0v-66.6A66.18,66.18,0,0,1,78.662,51.961Z" transform="translate(-45.224 271.081)" fill="#ff2b5d"/>
          <path id="Path_586" data-name="Path 586" d="M85.614,38.017a66.351,66.351,0,0,1,33.3-8.964v66.6A66.509,66.509,0,0,0,61.3,128.944a66.394,66.394,0,0,1,24.31-90.927Z" transform="translate(14.421 151.792)" fill="#ff6642"/>
          <path id="Path_587" data-name="Path 587" d="M102.972,39.494a66.836,66.836,0,0,1-24.31,24.329,66.188,66.188,0,0,1-33.313,8.993,66.736,66.736,0,0,1,57.623,33.294,66.163,66.163,0,0,0,8.984-33.294h0A66.216,66.216,0,0,0,102.972,39.494Z" transform="translate(-45.224 241.242)" fill="#ff3a56"/>
          <path id="Path_588" data-name="Path 588" d="M110.865,36.014V102.63a66.143,66.143,0,0,1-33.294-8.993,66.644,66.644,0,0,1-24.32-24.329A66.509,66.509,0,0,1,110.865,36.014Z" transform="translate(22.474 211.428)" fill="#ff753b"/>
          <path id="Path_589" data-name="Path 589" d="M61.3,46.457a66.518,66.518,0,0,0,57.614,33.3v66.607A66.512,66.512,0,0,1,61.3,46.457Z" transform="translate(14.421 300.895)" fill="#ff753b"/>
          <path id="Path_590" data-name="Path 590" d="M77.571,51.961a66.136,66.136,0,0,1,33.294-8.984v66.6a66.518,66.518,0,0,1-57.614-33.3A66.448,66.448,0,0,1,77.571,51.961Z" transform="translate(22.474 271.081)" fill="#ff6642"/>
        </g>
      </g>
    </g>
  </g>
</svg>
