<svg xmlns="http://www.w3.org/2000/svg" xmlns:xlink="http://www.w3.org/1999/xlink" width="146.732" height="179.993" viewBox="0 0 146.732 179.993"><defs><linearGradient id="a" x1="30.086" y1="6.162" x2="31.316" y2="5.004" gradientUnits="objectBoundingBox"><stop offset="0.231" stop-color="#4fcfff"/><stop offset="0.705" stop-color="#3a7fef"/><stop offset="1" stop-color="#2f53e7"/></linearGradient><linearGradient id="b" x1="54.595" y1="-15.561" x2="55.705" y2="-16.809" xlink:href="#a"/><linearGradient id="c" x1="-13.421" y1="-10.321" x2="-12.178" y2="-11.41" xlink:href="#a"/></defs><g transform="translate(-508.332 -182.346)"><path d="M645.632,297.381l5.6-.483-14.871-19.365.352-.031-12.862-18.463,18.184-27.964,4.426-6.679-.606.036-5.2-10.407-4.2.3c-3.859-17.086-10.969-28.345-17.625-28.139l-13.082.674a5.968,5.968,0,0,0-1.74,0c-2.393.388-4.391,2.307-5.957,5.4-18.554-1.835-41.612.5-54.414,2.185-2.773-3.119-5.633-4.775-8.324-4.542l-13.021,1.388a5.794,5.794,0,0,0-1.732.1c-8.373,1.817-10.91,22.455-5.672,46.095a115.058,115.058,0,0,0,5.283,17.4l-1.7,3.742,2.691,7.882.859-.065-.231.473.433.409-2.925.216.341.64.7,11.188,1.737,3.278.905,12.661-4.009.03.031.024h0l1.733,16.789,22.827,46.356,105.8-17.533.776-14.466-.19-.241.145-.016-.407-.3-4.054-4.967V305.729l4.978-.43.205-8.3-5.183.439Zm.051,26.845-.051.009v-1.127Z" fill="#47190a"/><path d="M543.566,362.339a3.842,3.842,0,0,1-3.435-2.14L517.3,313.844a3.816,3.816,0,0,1-.37-1.295l-1.728-16.64a3.882,3.882,0,0,1,.151-1.755,3.825,3.825,0,0,1,3.519-2.643l-.552-7.784-1.368-2.563a3.757,3.757,0,0,1-.439-1.56l-.647-10.357a3.823,3.823,0,0,1,.693-4.378l-1.714-5.007a3.785,3.785,0,0,1,.136-2.819l1.036-2.277a119.569,119.569,0,0,1-4.868-16.451c-4.291-19.334-3.637-37.18,1.658-45.453a11.029,11.029,0,0,1,6.934-5.214,9.315,9.315,0,0,1,2.472-.2l12.691-1.354c.352-.028.636-.037.9-.037,3.141,0,6.244,1.463,9.253,4.351a314.758,314.758,0,0,1,37.992-2.656c4.625,0,8.963.164,12.929.475,2.483-3.61,5.323-4.808,7.414-5.147a9.421,9.421,0,0,1,2.483-.067l12.746-.657c.07,0,.31-.01.379-.01,8.23,0,15.92,10.612,20.408,27.925l.967-.069a3.842,3.842,0,0,1,3.7,2.106l4.424,8.844a3.966,3.966,0,0,1,1.283,1.327,3.828,3.828,0,0,1-.133,4.035l-4.425,6.677-16.758,25.774,11.384,16.342a3.745,3.745,0,0,1,.561,1.216l13.856,18.04a3.828,3.828,0,0,1,.47,3.878c-.043.086-.09.181-.131.261l-.17,6.7a3.841,3.841,0,0,1-3.5,3.721l-1.478.123v10.375l2.932,3.567a3.825,3.825,0,0,1,1.47,2.428,3.466,3.466,0,0,1,.1,1.1l-.781,14.472a3.818,3.818,0,0,1-3.19,3.578L544.2,362.288A4.3,4.3,0,0,1,543.566,362.339ZM524.485,311.08l21.263,43.179L645.7,337.7l.522-9.675c-.022,0-.043,0-.071,0a3.855,3.855,0,0,1-4.355-3.79v-1.127a3.885,3.885,0,0,1,.152-1.064,3.963,3.963,0,0,1-.152-1.063V305.729a3.834,3.834,0,0,1,3.5-3.819l1.568-.131.02-.6-.924.078a3.819,3.819,0,0,1-4.16-3.817,3.917,3.917,0,0,1,2.291-3.555L633.327,279.87a3.729,3.729,0,0,1-.717-1.548l-11.9-17.1a3.816,3.816,0,0,1-.074-4.273l21.051-32.288-3.313-6.639-1.65.113a3.806,3.806,0,0,1-4.006-2.975c-3.92-17.349-10.375-25.152-13.711-25.152l-13.061.673a3.763,3.763,0,0,1-.746-.031,1.7,1.7,0,0,0-.578-.009c-1.018.161-2.162,1.377-3.152,3.342a3.832,3.832,0,0,1-3.8,2.083c-4.361-.437-9.274-.647-14.617-.647a311.943,311.943,0,0,0-38.911,2.827A3.811,3.811,0,0,1,540.78,197c-1.862-2.091-3.673-3.288-4.971-3.288L522.7,195.1a3.9,3.9,0,0,1-.741,0,2.111,2.111,0,0,0-.59.032,3.947,3.947,0,0,0-2.1,1.85c-3.374,5.274-5.013,19.93-.633,39.661a111.084,111.084,0,0,0,5.1,16.815,3.84,3.84,0,0,1-.074,3.009l-1.068,2.346,1.5,4.394a5.393,5.393,0,0,1,1.756,5.37,3.812,3.812,0,0,1-2.2,2.3l.463,7.42,1.347,2.544a3.862,3.862,0,0,1,.447,1.525l.9,12.661a3.816,3.816,0,0,1-3.564,4.093Z" opacity="0.2"/><path d="M614.606,193.32s-15.334,2.282-16.5,7.191-1,29.869-1,29.869l5.655,20.563s9.1.822,9.586-.386c.506-1.216,14.8-21.654,14.8-21.654s3.128-9.348,2.337-9.82-7.062-18.365-7.062-18.365Z" fill="#ad4c00"/><path d="M638.544,226.9c-2.67-23.907-11.531-40.965-19.715-40.713l-13.9.722,5.867,12.477,4.268,8.316s5.248,18.872,5.552,19.011c.174.085,6.082.754,10.737,1.257.015.169.039.343.056.507C631.71,231.213,639.02,231.149,638.544,226.9Z" fill="#ffdb00"/><path d="M602.431,198.159c-3.58,15.477,5.91,45.189,5.91,45.189s-4.272,6.85-4.512,6.929c0,0-2.562-1.793-5.518-18.127s-3.894-25.981-3.894-25.981,2.492-9.336,2.807-9.336S602.431,198.159,602.431,198.159Z" fill="#ff6100"/><path d="M603.556,251.816c.746-.6,1.591-1.267,2.478-1.925a112.666,112.666,0,0,1-4.328-17.907c-2.855-17.727-1.6-32.671,2.809-33.382s10.293,13.083,13.16,30.806a118.329,118.329,0,0,1,1.506,15.422,20.575,20.575,0,0,1,2.683-1.176c1.727-.588,3.469-1.09,5.2-1.655.25-.08.5-.155.731-.234a119.677,119.677,0,0,0-1.432-13.755c-3.887-24.093-13.9-42.513-22.359-41.149s-12.17,22-8.281,46.093a113.16,113.16,0,0,0,5.4,21.014A31.538,31.538,0,0,1,603.556,251.816Z" fill="#ff8000"/><path d="M618.87,219.111s-4.5-24.081-12.238-25.618c-27.177-5.395-72.706,2.381-72.706,2.381s18.672,25.1,16.178,30.6,69.288-4.875,69.288-4.875Z" fill="#f70000"/><path d="M618.87,219.719s-4.5-22.44-12.238-23.87c-27.177-5.024-72.706,2.225-72.706,2.225S552.6,221.46,550.1,226.584s69.288-4.549,69.288-4.549Z" fill="#ce0000"/><path d="M618.87,221.02s-4.5-18.946-12.238-20.154c-27.177-4.246-72.706,1.873-72.706,1.873S552.6,222.486,550.1,226.81s69.288-3.83,69.288-3.83Z" fill="#770600" opacity="0.4"/><path d="M618.87,223.238s-4.5-12.993-12.238-13.828c-27.177-2.9-72.706,1.293-72.706,1.293s18.672,13.537,16.178,16.5,69.288-2.623,69.288-2.623Z" fill="#290100" opacity="0.4"/><path d="M532.579,195.355s-15.145,3.32-15.976,8.3,1.038,29.876,1.038,29.876l7.058,20.109s9.125.217,9.541-1.029S547.512,230,547.512,230s2.495-9.543,1.655-9.962c-.823-.407-8.292-17.836-8.292-17.836Z" fill="#ad4c00"/><path d="M524.38,200.936c-4.458,15.122,3.309,45.09,3.309,45.09s-4.658,6.525-4.9,6.589c0,0-2.462-1.923-4.473-18.259s-2.4-25.95-2.4-25.95,3.032-9.093,3.334-9.081S524.38,200.936,524.38,200.936Z" fill="#ff6100"/><path d="M557.295,229.133c-4.018-23.525-13.823-39.922-21.983-39.227l-13.835,1.475,6.56,12.041,4.729,8s6.308,18.4,6.611,18.514c.185.074,6.12.408,10.8.654.026.173.054.336.09.5C550.724,233.776,558.015,233.318,557.295,229.133Z" fill="#ffdb00"/><path d="M524.847,258.236a18.273,18.273,0,0,1,2.342-2.1,104.34,104.34,0,0,1-6.382-19.942c-3.854-17.385-3.45-32.264.916-33.2s11.019,12.383,14.877,29.776a116.144,116.144,0,0,1,2.39,15.383c1.645-2.187,2.938-4.761,5.078-6.564a17.982,17.982,0,0,1,2.751-1.9c-.418-2.856-.959-5.795-1.622-8.786-5.24-23.635-16.274-41.328-24.638-39.51s-10.91,22.455-5.672,46.095a108.2,108.2,0,0,0,7.825,23.223C523.412,259.845,524.127,259.011,524.847,258.236Z" fill="#ffb200"/><path d="M613.063,253.336s-10.736-21.622-8.091-29.1c2.64-7.462-63.167,2.029-63.167,2.029l-8.245,31.894Z" fill="#b12e00"/><path d="M616.173,263.809l2.7,56.837-70.111,6.435L527.6,271.071Z" fill="#b12e00"/><path d="M615.55,263.605l24.064,31.734-1.863,41.07s-23.031,1.454-22.822.623S615.55,263.605,615.55,263.605Z" fill="#b74a00"/><path d="M593.7,295.545c-1.316-.667-2.385-1.264-3.389-1.7-5.7-2.586-12.932.672-16.328,7.429-2.967,5.9-2.048,12.545,1.863,16.157,1.273,1.249,3.037,1.952,5.3,3.092,6.773,3.406,13.929-.008,17.4-6.906S600.477,298.941,593.7,295.545Z" stroke="#603813" stroke-miterlimit="10" stroke-width="0.428"/><path d="M598.542,313.62c-3.469,6.9-10.625,10.312-17.4,6.906-2.74-1.375-4.75-2.13-6.027-3.957-2.86-4.078-2.347-9.935.049-14.7,2.467-4.913,6.919-8.816,12.151-8.739,2.119.025,3.752,1.085,6.385,2.41C600.477,298.941,602.013,306.722,598.542,313.62Z" fill="#ffa905"/><path d="M594.774,311.726c-3.468,6.9-10.935,10.156-16.68,7.273s-7.574-10.819-4.109-17.722,10.938-10.153,16.674-7.269S598.239,304.827,594.774,311.726Z" fill="#ffe305"/><path d="M590.87,310.428c-2.432,4.83-7.406,7.233-11.108,5.381s-4.739-7.289-2.3-12.132,7.4-7.242,11.1-5.377S593.3,305.587,590.87,310.428Z" fill="#ffff05"/><path d="M590.769,309.714c-2.446,4.869-7.5,7.279-11.294,5.372s-4.885-7.4-2.432-12.272,7.5-7.273,11.3-5.369S593.224,304.848,590.769,309.714Z" fill="#ea9000"/><path d="M590.624,310.005c-2.371,4.714-7.107,7.119-10.579,5.367s-4.377-6.979-2.014-11.7c2.367-4.7,7.107-7.105,10.583-5.356S592.989,305.3,590.624,310.005Z" fill="#ffc005"/><path d="M590.438,309.668c-1.919,3.812-5.871,5.689-8.841,4.2s-3.833-5.793-1.921-9.605,5.88-5.688,8.85-4.191S592.352,305.863,590.438,309.668Z" fill="#ea9000"/><path d="M589.294,309.092c-1.916,3.813-5.75,5.75-8.566,4.339s-3.533-5.65-1.623-9.45,5.744-5.755,8.56-4.339S591.2,305.289,589.294,309.092Z" fill="#ffe305"/><path d="M583.938,296.052c-1.173.434-2.289.339-2.5-.211s.573-1.364,1.75-1.8,2.293-.343,2.5.211S585.118,295.616,583.938,296.052Z" fill="#fff"/><path d="M582.9,319.031c-.742.12-1.382-.075-1.443-.42s.5-.727,1.236-.846,1.377.068,1.436.418S583.63,318.912,582.9,319.031Z" fill="#fff"/><path d="M621.913,284.965c-1.316-.668-2.387-1.266-3.394-1.692-5.692-2.591-12.924.662-16.319,7.429-2.971,5.894-2.049,12.546,1.861,16.15,1.27,1.253,3.032,1.954,5.291,3.1,6.774,3.4,13.934,0,17.4-6.907S628.685,288.37,621.913,284.965Z" stroke="#603813" stroke-miterlimit="10" stroke-width="0.428"/><path d="M626.755,303.042c-3.469,6.907-10.629,10.308-17.4,6.907-2.738-1.383-4.744-2.134-6.027-3.961-2.853-4.078-2.338-9.936.051-14.694,2.469-4.914,6.922-8.809,12.154-8.742,2.115.029,3.758,1.09,6.383,2.413C628.685,288.37,630.22,296.145,626.755,303.042Z" fill="#ffa905"/><path d="M622.979,301.15c-3.462,6.9-10.937,10.155-16.669,7.265-5.747-2.892-7.584-10.816-4.11-17.713s10.93-10.163,16.67-7.279S626.452,294.25,622.979,301.15Z" fill="#ffe305"/><path d="M619.087,299.844c-2.44,4.835-7.41,7.246-11.115,5.38s-4.731-7.284-2.3-12.127,7.4-7.245,11.1-5.379S621.513,295.006,619.087,299.844Z" fill="#ffff05"/><path d="M618.983,299.137c-2.449,4.872-7.507,7.273-11.3,5.369s-4.875-7.4-2.422-12.272,7.506-7.277,11.291-5.369S621.431,294.27,618.983,299.137Z" fill="#ea9000"/><path d="M618.831,299.424c-2.365,4.712-7.1,7.118-10.574,5.364s-4.379-6.971-2.018-11.691c2.373-4.7,7.11-7.1,10.588-5.356S621.2,294.724,618.831,299.424Z" fill="#ffc005"/><path d="M618.649,299.1c-1.922,3.8-5.877,5.684-8.841,4.184s-3.832-5.79-1.914-9.6,5.873-5.683,8.847-4.189S620.56,295.285,618.649,299.1Z" fill="#ea9000"/><path d="M617.507,298.517c-1.922,3.8-5.75,5.748-8.561,4.33s-3.549-5.643-1.627-9.449,5.748-5.752,8.563-4.338S619.419,294.707,617.507,298.517Z" fill="#ffe305"/><path d="M612.151,285.474c-1.174.434-2.291.336-2.5-.217s.58-1.361,1.75-1.8,2.285-.334,2.5.228S613.333,285.033,612.151,285.474Z" fill="#fff"/><path d="M611.1,308.449c-.733.117-1.374-.074-1.436-.421s.5-.725,1.24-.843,1.375.065,1.436.419S611.843,308.33,611.1,308.449Z" fill="#fff"/><path d="M610.089,271.895c-1.315-.669-2.383-1.262-3.389-1.7-5.693-2.582-12.93.671-16.33,7.437-2.961,5.895-2.047,12.542,1.871,16.154,1.27,1.239,3.028,1.952,5.287,3.088,6.774,3.406,13.934,0,17.4-6.9S616.86,275.3,610.089,271.895Z" stroke="#603813" stroke-miterlimit="10" stroke-width="0.428"/><path d="M614.929,289.975c-3.467,6.9-10.627,10.307-17.4,6.9-2.736-1.376-4.738-2.125-6.021-3.952-2.856-4.073-2.348-9.936.043-14.7,2.474-4.912,6.916-8.813,12.158-8.742,2.111.03,3.752,1.086,6.381,2.412C616.86,275.3,618.4,283.079,614.929,289.975Z" fill="#ffa905"/><path d="M611.153,288.079c-3.459,6.9-10.927,10.152-16.672,7.273s-7.58-10.825-4.111-17.718,10.936-10.162,16.682-7.271C612.782,273.243,614.626,281.18,611.153,288.079Z" fill="#ffe305"/><path d="M607.259,286.775c-2.436,4.832-7.4,7.248-11.1,5.382s-4.732-7.287-2.31-12.122,7.4-7.245,11.111-5.384S609.692,281.938,607.259,286.775Z" fill="#ffff05"/><path d="M607.159,286.069c-2.445,4.869-7.512,7.272-11.3,5.362s-4.88-7.391-2.425-12.267,7.507-7.269,11.3-5.37S609.606,281.2,607.159,286.069Z" fill="#ea9000"/><path d="M607.007,286.361c-2.362,4.708-7.1,7.11-10.576,5.366s-4.375-6.978-2.014-11.692,7.109-7.105,10.588-5.359S609.376,281.655,607.007,286.361Z" fill="#ffc005"/><path d="M606.829,286.025c-1.918,3.806-5.877,5.688-8.844,4.19s-3.838-5.8-1.924-9.6,5.885-5.684,8.854-4.187S608.739,282.215,606.829,286.025Z" fill="#ea9000"/><path d="M605.685,285.445c-1.924,3.811-5.752,5.75-8.563,4.341s-3.543-5.65-1.623-9.463c1.9-3.8,5.744-5.745,8.553-4.332S607.591,281.639,605.685,285.445Z" fill="#ffe305"/><path d="M600.333,272.4c-1.178.435-2.293.349-2.5-.216s.572-1.355,1.744-1.794,2.291-.338,2.508.214C602.282,271.156,601.5,271.971,600.333,272.4Z" fill="#fff"/><path d="M599.278,295.379c-.736.121-1.373-.07-1.433-.426s.5-.721,1.232-.838,1.385.071,1.44.424S600.017,295.26,599.278,295.379Z" fill="#fff"/><path d="M641.591,295.55l-32.365,2.175,1.713,19.6-22.408.935L585.11,308l-35.47,2.954,2.8,23.181,1.707,16.643,86.664-14.468Z" fill="#ca2200"/><path d="M641.591,295.55,609.226,296.9l1.713,12.169-22.408.575-3.42-6.371-35.47,1.839,2.8,14.386,1.707,10.328,86.664-8.976Z" fill="#460b00" opacity="0.5"/><path d="M529.573,273.456c.775.462,22.867,36.553,22.867,37.025s-1.1,39.985-1.554,39.519-28.628-42.632-28.163-42.781S529.573,273.456,529.573,273.456Z" fill="#ca2200"/><path d="M532.565,309.513H527.12l-2.215-29.834h5.442Z" fill="#ff6100"/><path d="M521.484,274.182l2.215,31.178,3.63,8.2-2.223-32.216Z" fill="#ff7e00"/><rect width="9.931" height="6.543" transform="translate(525.973 311.033)" fill="#ff6100"/><path d="M532.564,306.634l-4.9.078-3.971-9.1h.029V295.3l-4.746.036.031.024h0l6.866,15.7h10.04Z" fill="#ffdb00"/><path d="M526.494,313.556l9.438.051,10.436,18.506-10.653.58Z" fill="#ffdb00"/><path d="M526.3,311.1l-7.295-15.74,1.733,16.789,22.827,46.355V343.854l-7.8-14.781-.048,3.619-9.22-19.137Z" fill="#ffb200"/><path d="M606.19,304.1l-4.119,2.88,8.707,11.357,4.281-4.669Z" fill="#ff7e00"/><path d="M623.642,327.388l-.19.02-69.916,9.9,4.349,12.064,74.47-14.515" fill="#ffdb00"/><path d="M540.775,308.1v28.412l4.452,6.531,6.017-4.877Z" fill="#ff7e00"/><path d="M632.872,327.906l-4.2-6.224V299.594l6.064,2.954Z" fill="#ff6100"/><path d="M557.264,343.315H544.973l-1.248-34.233h13.539Z" fill="#ffbf00"/><rect width="13.541" height="34.232" transform="translate(632.091 296.322)" fill="#ffbf00"/><path d="M557.264,324.644H544.973l-1.248-20.63h13.539Z" fill="#b12e00" opacity="0.1"/><rect width="13.541" height="20.632" transform="translate(632.091 296.322)" fill="#b12e00" opacity="0.1"/><path d="M606.19,293.992V304.1l7.941,9.718.7-16.1Z" fill="#ffb200"/><path d="M571.92,284.132c-1.316-.663-2.384-1.255-3.389-1.692-5.69-2.592-12.928.672-16.324,7.428-2.975,5.895-2.051,12.548,1.861,16.162,1.27,1.239,3.032,1.947,5.3,3.089,6.77,3.4,13.935,0,17.393-6.9S578.7,287.537,571.92,284.132Z" stroke="#603813" stroke-miterlimit="10" stroke-width="0.428"/><path d="M576.758,302.219c-3.458,6.9-10.623,10.3-17.393,6.9-2.747-1.382-4.746-2.125-6.031-3.954-2.854-4.078-2.346-9.938.05-14.7,2.468-4.908,6.918-8.811,12.153-8.739,2.113.033,3.762,1.083,6.383,2.41C578.7,287.537,580.23,295.31,576.758,302.219Z" fill="#ffa905"/><path d="M572.995,300.319c-3.476,6.9-10.942,10.155-16.684,7.271s-7.572-10.82-4.1-17.722,10.932-10.155,16.671-7.27S576.459,293.421,572.995,300.319Z" fill="#ffe305"/><path d="M569.092,299.018c-2.433,4.837-7.4,7.238-11.114,5.376-3.7-1.86-4.724-7.289-2.3-12.119s7.405-7.246,11.1-5.386S571.525,294.18,569.092,299.018Z" fill="#ffff05"/><path d="M569,298.31c-2.448,4.866-7.508,7.272-11.3,5.364s-4.883-7.4-2.437-12.273,7.506-7.272,11.3-5.366S571.435,293.438,569,298.31Z" fill="#ea9000"/><path d="M568.834,298.605c-2.363,4.7-7.1,7.108-10.57,5.363s-4.377-6.984-2.014-11.693,7.1-7.11,10.584-5.357S571.208,293.894,568.834,298.605Z" fill="#ffc005"/><path d="M568.655,298.266c-1.912,3.812-5.876,5.685-8.845,4.187s-3.833-5.793-1.916-9.6,5.875-5.692,8.849-4.2S570.574,294.452,568.655,298.266Z" fill="#ea9000"/><path d="M567.512,297.69c-1.916,3.8-5.748,5.743-8.569,4.339-2.806-1.421-3.533-5.655-1.62-9.462s5.745-5.757,8.556-4.333S569.428,293.878,567.512,297.69Z" fill="#ffe305"/><path d="M562.159,284.644c-1.175.431-2.294.342-2.495-.215s.569-1.363,1.743-1.806,2.29-.336,2.5.221S563.332,284.208,562.159,284.644Z" fill="#fff"/><path d="M561.115,307.623c-.736.114-1.386-.077-1.439-.427s.5-.72,1.236-.841,1.377.077,1.436.425S561.85,307.5,561.115,307.623Z" fill="#fff"/><path d="M602.071,306.984l-19.916,2.566,9.57,11.048,19.213-3.272Z" fill="#ff6100"/><path d="M606.5,320.6l-17.652,3.261-7-3.342-1.245-7.705,3.426-.772s3.338,5.681,3.422,5.91a37.508,37.508,0,0,0,4.74,3.03C592.425,320.981,606.5,320.6,606.5,320.6Z" fill="#b74a00"/><path d="M588.226,304.422l-47.142,4.507L541.5,319.1l41.485-4.256.723,5.13,5.141,3.889,23.645-2.96,4.719-5.441V308.2l33.4-2.9.2-8.3-39,3.318.213,11.564-2.65,4.045-17.428,2.022-3.1-2.951Z" fill="#ff9e00"/><path d="M541.5,319.1l-.155-.238-21-39.489-.729-11.625,21.471,41.184Z" fill="#ffb200"/><path d="M583.19,297.622l-31.531,2.7-16.18-26.968,80.59-6.533,17.734,25.2L606.013,294.1l5.8,6.218,39.418-3.421-28.521-37.131L519.3,267.542l21.783,41.387,47.089-4.465Z" fill="#ffdb00"/><path d="M623.233,321.733l5.5,7.939-.519,4.561-4.668-6.532Z" fill="#ff6100"/><path d="M540.719,329.053l-4.957.021,7.5,15.015,20.352-2.308-6.352-10.724v-.02l-.159,7.7-12.214.291Z" fill="#ffdb00"/><path d="M543.264,344.088l.3,14.42,105.8-17.533.775-14.466-21.621,2.956-.307,4.2-65.038,11.15.443-3.034Z" fill="#ff9e00"/><path d="M628.673,320.9l-5.44.833,5.5,7.939,21.408-3.163-4.613-5.656.158,3.373-13.635,1.71Z" fill="#ffdb00"/><path d="M542.227,341.181l1.037,2.907,20.118-2.593-1.765-2.9Z" fill="#ff0"/><path d="M627.483,333.515l-1.356-1.972-62.746,11.3-.21,1.969Z" fill="#ff0"/><path d="M628.517,329.465l21.576-3.213-1.66-1.25-20.334,3.63.631,1.04" fill="#ff0"/><path d="M611.815,300l38.481-3.524-1.346-1.971-38.172,3.943Z" fill="#ff0"/><path d="M585.989,302.8l.939.939-45.741,4.564-15.769-30.189,16.6,28.946Z" fill="#ff0"/><path d="M649.438,327.367l-.852,13.219-38.354,6.3,36.639-7.386Z" fill="#ffdb00"/><path d="M609.331,247.425,528.22,252l-1.868,11.61,95.423-7.678Z" fill="#ff8000"/><path d="M622.394,258.209l-6.637-1.033-6.426-9.751s21.158-30.494,21.777-30.288,12.237,8.506,12.237,8.506Z" fill="#ffb200"/><path d="M535.35,221.5l-16.876,37.128,2.691,7.882,24.063-36.093Z" fill="#ffb200"/><path d="M543.961,344.866l.469,12.761,20.614-3.425-18.677,1.164Z" fill="#ffdb00"/><path d="M636.917,218.382l-1.453-5.6-11.2.932,1.143,7.052Z" fill="#ffb200"/><path d="M555.813,223.256l-1.449-5.6-11.2.933,1.137,7.057Z" fill="#ffb200"/><path d="M539.423,231.867l-4.15-10.372,105.382-7.47,5.391,10.782Z" fill="#ffdb00"/><path d="M539.423,230.619l-18.258,35.89,102.477-7.683,22.82-34.43Zm74.719,24.317-76.582,4.72,12.081-21.721,78.983-4.2Z" fill="#ff6100"/><path d="M607.311,231.714,575.105,237l-4.207-7.935-5.6-9.648-4.512-6.686,38.429-2.18Z" fill="#ad0d00" opacity="0.2"/><path d="M610.493,238.049l3.039-3.368-6.652-26.231-4.375-2.79-28.879,2.286-3.122,3.367,4.934,27.694,4.488,2.777Z" fill="#ffdb00"/><path d="M608.733,236.732l2.754-3.054-5.951-23.835-3.971-2.531-26.325,2.08-2.82,3.064,4.57,25.14,4.071,2.528Z" fill="#ff8f00"/><path d="M578.014,236.293l3.481,2.118,2.561-.1-3.677-2.917Z" fill="#ff7300"/><path d="M578.508,210.477l-3.139,1.541-1.485,1.928a9.069,9.069,0,0,0,.782,1.158c.082-.006,3.478-1.3,3.478-1.3Z" fill="#ffc400"/><path d="M607.573,235.315l2.332-2.756L604.573,211l-3.441-2.3-22.624,1.775-2.381,2.764,4.32,22.741,3.511,2.292Z" fill="#ffdb00"/><path d="M587.665,218.975a5.547,5.547,0,0,0,5.8,4.111,3.946,3.946,0,0,0,3.793-4.866,5.346,5.346,0,0,0-5.778-4.115C588.479,214.342,587.145,216.494,587.665,218.975Z" fill="#ff7000"/><path d="M595.917,222.132c.168.262,4.6,8.834,4.6,8.834l-9.947,1.155.953-9.937Z" fill="#f95c00"/><path d="M597.886,230.336l2.746.667-10.133,1.14.15-1.162Z" fill="#ffe800"/><path d="M587.64,218.822a4.912,4.912,0,0,0,4.959,3.9,3.527,3.527,0,0,0,3.1-4.53,4.977,4.977,0,0,0-4.949-3.9A3.571,3.571,0,0,0,587.64,218.822Z" fill="#de4500"/><path d="M593.247,219.883c.141.265,4.857,10.537,4.857,10.537l-7.433,1.011L590.2,218.97Z" fill="#de4500"/><path d="M600.9,209.089l-21.876,2.019-1.85,2.435.475,2.548,2.369-.854.4-2.428,19.944-3.19Z" fill="#ff0"/><path d="M580.342,228.125l.849,7.755,3.25,1.694,5.108-.4-6.123-2.117Z" fill="#ff0"/><path d="M536.518,222.533l3.889,7.307-.773-5.907,30.49-3.419Z" fill="#ff0"/><path d="M609.95,216.931l30.342-1.557s3.576,7.939,3.42,7.462c-.156-.46-4.516-5.755-4.516-5.755Z" fill="#ff0"/><path d="M527.963,192.661a49.278,49.278,0,0,1,15.244,25.673A46.046,46.046,0,0,0,533.1,193.9l7-1.715Z" fill="#ff0"/><path d="M521.584,254.373,535.173,224.3l2.794,7.048-3.106-.829Z" fill="#ff9e00"/><path d="M633.6,212.417c-3.108-18.351-11.975-23.647-11.975-23.647l-8.713.467s8.809,2.879,11.2,5.448C627.112,197.9,633.6,212.417,633.6,212.417Z" fill="#ff0"/><path d="M622.632,264.967c-1.391-.49-2.528-.94-3.582-1.24-5.977-1.832-12.733,2.334-15.229,9.473-2.179,6.23-.4,12.708,3.942,15.785,1.418,1.069,3.257,1.545,5.642,2.376,7.155,2.5,13.824-1.8,16.365-9.1S629.79,267.46,622.632,264.967Z" stroke="#603813" stroke-miterlimit="10" stroke-width="0.428"/><path d="M629.77,282.262c-2.541,7.3-9.21,11.6-16.365,9.1-2.888-1.011-4.978-1.493-6.476-3.142-3.371-3.673-3.614-9.549-1.856-14.584,1.807-5.18,5.713-9.633,10.91-10.24,2.11-.241,3.871.6,6.649,1.572C629.79,267.46,632.321,274.977,629.77,282.262Z" fill="#ffa905"/><path d="M625.788,280.875c-2.547,7.291-9.531,11.487-15.6,9.36s-8.918-9.748-6.369-17.035,9.528-11.48,15.592-9.362S628.333,273.584,625.788,280.875Z" fill="#ffe305"/><path d="M621.749,280.089c-1.789,5.106-6.406,8.141-10.314,6.771s-5.637-6.619-3.858-11.719c1.785-5.118,6.4-8.147,10.32-6.786C621.806,269.732,623.536,274.977,621.749,280.089Z" fill="#ffff05"/><path d="M621.558,279.395c-1.795,5.151-6.506,8.189-10.5,6.788s-5.8-6.7-4-11.847,6.5-8.191,10.506-6.794S623.356,274.244,621.558,279.395Z" fill="#ea9000"/><path d="M621.454,279.713c-1.744,4.977-6.127,7.965-9.8,6.685s-5.244-6.36-3.5-11.338,6.123-7.963,9.8-6.679S623.19,274.73,621.454,279.713Z" fill="#ffc005"/><path d="M621.22,279.395c-1.4,4.027-5.084,6.4-8.231,5.3-3.131-1.091-4.537-5.251-3.131-9.274s5.086-6.389,8.225-5.295S622.632,275.368,621.22,279.395Z" fill="#ea9000"/><path d="M620.009,278.971c-1.4,4.03-4.957,6.443-7.924,5.411s-4.246-5.143-2.832-9.168c1.4-4.026,4.949-6.443,7.926-5.4S621.421,274.947,620.009,278.971Z" fill="#ffe305"/><path d="M613.015,266.727c-1.1.591-2.229.641-2.506.112s.4-1.423,1.5-2.007,2.228-.629,2.5-.106S614.124,266.137,613.015,266.727Z" fill="#fff"/><path d="M614.952,289.649c-.715.217-1.377.1-1.476-.231s.392-.783,1.115-.992,1.371-.109,1.478.231S615.663,289.444,614.952,289.649Z" fill="#fff"/><path d="M605.419,256.042c-1.4-.486-2.535-.937-3.586-1.238-5.984-1.829-12.738,2.337-15.229,9.483-2.179,6.22-.406,12.706,3.946,15.777,1.416,1.067,3.26,1.541,5.642,2.376,7.153,2.5,13.815-1.8,16.36-9.094S612.573,258.546,605.419,256.042Z" stroke="#603813" stroke-miterlimit="10" stroke-width="0.428"/><path d="M612.552,273.346c-2.545,7.3-9.207,11.6-16.36,9.094-2.888-1.008-4.982-1.489-6.488-3.136-3.359-3.676-3.611-9.557-1.852-14.587,1.815-5.192,5.721-9.629,10.918-10.242,2.1-.242,3.866.6,6.649,1.567C612.573,258.546,615.1,266.059,612.552,273.346Z" fill="#ffa905"/><path d="M608.567,271.953c-2.543,7.291-9.523,11.489-15.584,9.363s-8.925-9.745-6.379-17.029,9.526-11.49,15.6-9.372S611.122,264.666,608.567,271.953Z" fill="#ffe305"/><path d="M604.532,271.16c-1.785,5.11-6.4,8.147-10.316,6.779s-5.639-6.619-3.858-11.716c1.787-5.121,6.405-8.145,10.325-6.783S606.317,266.059,604.532,271.16Z" fill="#ffff05"/><path d="M604.339,270.476c-1.8,5.152-6.506,8.186-10.51,6.788s-5.795-6.71-4-11.859,6.5-8.176,10.51-6.778S606.14,265.338,604.339,270.476Z" fill="#ea9000"/><path d="M604.233,270.8c-1.74,4.97-6.129,7.957-9.8,6.676s-5.245-6.355-3.506-11.336,6.125-7.963,9.795-6.676S605.974,265.814,604.233,270.8Z" fill="#ffc005"/><path d="M604.011,270.476c-1.407,4.026-5.092,6.4-8.229,5.3s-4.551-5.242-3.148-9.268,5.093-6.4,8.23-5.3S605.413,266.457,604.011,270.476Z" fill="#ea9000"/><path d="M602.794,270.053c-1.408,4.024-4.961,6.441-7.926,5.4s-4.244-5.136-2.838-9.161,4.961-6.444,7.926-5.407S604.2,266.027,602.794,270.053Z" fill="#ffe305"/><path d="M595.8,257.808c-1.106.587-2.231.637-2.51.113s.392-1.427,1.5-2.01,2.234-.631,2.512-.116C597.573,256.33,596.9,257.229,595.8,257.808Z" fill="#fff"/><path d="M597.731,280.727c-.705.218-1.377.112-1.476-.227s.4-.787,1.117-.995,1.377-.11,1.479.227S598.448,280.519,597.731,280.727Z" fill="#fff"/><path d="M578.4,258.908c-1.437.378-2.627.638-3.666.982-5.974,1.849-9.229,9.085-7.29,16.4,1.693,6.381,6.8,10.741,12.12,10.843,1.771.091,3.562-.545,6.011-1.2,7.322-1.939,10.42-9.245,8.436-16.708S585.716,256.96,578.4,258.908Z" stroke="#603813" stroke-miterlimit="10" stroke-width="0.428"/><path d="M594.015,269.223c1.984,7.463-1.114,14.769-8.436,16.708-2.967.8-4.96,1.563-7.132,1.042-4.845-1.152-8.351-5.873-9.722-11.024-1.413-5.316-.665-11.185,3.3-14.607,1.6-1.385,3.53-1.68,6.383-2.434C585.716,256.96,592.03,261.762,594.015,269.223Z" fill="#ffa905"/><path d="M589.935,270.309c1.99,7.457-1.436,14.854-7.651,16.5s-12.85-3.059-14.836-10.522,1.446-14.854,7.657-16.506S587.954,262.844,589.935,270.309Z" fill="#ffe305"/><path d="M586.151,271.918c1.387,5.234-.724,10.338-4.732,11.4s-8.381-2.314-9.771-7.541.729-10.336,4.733-11.393S584.761,266.694,586.151,271.918Z" fill="#ffff05"/><path d="M585.608,271.461c1.407,5.271-.785,10.417-4.885,11.516-4.11,1.08-8.564-2.3-9.969-7.568s.8-10.422,4.89-11.511S584.212,266.191,585.608,271.461Z" fill="#ea9000"/><path d="M585.7,271.781c1.356,5.1-.6,10.03-4.357,11.024s-7.906-2.318-9.264-7.414.6-10.03,4.362-11.024S584.343,266.688,585.7,271.781Z" fill="#ffc005"/><path d="M585.337,271.644c1.094,4.123-.623,8.153-3.842,9s-6.706-1.789-7.8-5.9c-1.1-4.129.629-8.157,3.835-9.014C580.748,264.881,584.241,267.532,585.337,271.644Z" fill="#ea9000"/><path d="M584.1,271.977c1.088,4.117-.491,8.114-3.533,8.921s-6.4-1.871-7.489-5.994.485-8.113,3.528-8.924S583,267.861,584.1,271.977Z" fill="#ffe305"/><path d="M571.435,265.77c-.595,1.1-1.494,1.772-2.007,1.5-.534-.277-.482-1.4.105-2.5s1.485-1.781,2.017-1.505C572.066,263.544,572.021,264.661,571.435,265.77Z" fill="#fff"/><path d="M585.894,283.649c-.467.583-1.077.863-1.35.64s-.117-.867.361-1.445,1.076-.861,1.356-.647C586.532,282.427,586.378,283.079,585.894,283.649Z" fill="#fff"/><path d="M595.216,270.145c-1.481-.01-2.7-.077-3.793-.018-6.246.182-11.306,6.3-11.378,13.865-.065,6.6,3.7,12.162,8.8,13.67,1.681.564,3.576.424,6.113.445,7.574.069,12.5-6.143,12.572-13.866S602.794,270.213,595.216,270.145Z" stroke="#603813" stroke-miterlimit="10" stroke-width="0.428"/><path d="M607.534,284.241c-.074,7.723-5,13.935-12.572,13.866-3.067-.021-5.2.193-7.151-.886-4.367-2.4-6.49-7.883-6.443-13.22.051-5.5,2.32-10.959,7.051-13.2,1.908-.911,3.848-.688,6.8-.656C602.794,270.213,607.6,276.52,607.534,284.241Z" fill="#ffa905"/><path d="M603.315,284.2c-.074,7.722-5.341,13.933-11.765,13.87s-11.579-6.355-11.505-14.081,5.337-13.931,11.761-13.879S603.376,276.485,603.315,284.2Z" fill="#ffe305"/><path d="M599.235,284.749c-.049,5.424-3.453,9.771-7.6,9.731-4.133-.035-7.457-4.453-7.408-9.865s3.447-9.768,7.589-9.724S599.278,279.34,599.235,284.749Z" fill="#ffff05"/><path d="M598.835,284.164c-.047,5.451-3.529,9.838-7.775,9.8s-7.643-4.49-7.6-9.943,3.531-9.839,7.775-9.8S598.884,278.709,598.835,284.164Z" fill="#ea9000"/><path d="M598.827,284.49c-.039,5.275-3.24,9.512-7.129,9.479s-7-4.33-6.965-9.6,3.244-9.513,7.137-9.477S598.872,279.227,598.827,284.49Z" fill="#ffc005"/><path d="M598.515,284.269c-.036,4.262-2.766,7.695-6.09,7.663s-5.994-3.511-5.959-7.768,2.777-7.694,6.095-7.67S598.561,280.006,598.515,284.269Z" fill="#ea9000"/><path d="M597.227,284.258c-.037,4.262-2.619,7.689-5.767,7.667s-5.668-3.5-5.627-7.769,2.619-7.694,5.768-7.667S597.267,280,597.227,284.258Z" fill="#ffe305"/><path d="M586.675,274.9c-.856.913-1.9,1.325-2.34.913s-.084-1.476.783-2.383,1.9-1.316,2.336-.91S587.538,274,586.675,274.9Z" fill="#fff"/><path d="M595.868,295.993c-.6.432-1.269.546-1.474.256s.126-.87.74-1.3,1.267-.541,1.468-.246S596.477,295.564,595.868,295.993Z" fill="#fff"/><path d="M579.443,273.293c-1.316-.659-2.39-1.258-3.392-1.694-5.7-2.589-12.927.671-16.332,7.438-2.963,5.894-2.045,12.538,1.867,16.153,1.274,1.24,3.025,1.952,5.3,3.084,6.764,3.411,13.927,0,17.4-6.9S586.218,276.7,579.443,273.293Z" stroke="#603813" stroke-miterlimit="10" stroke-width="0.428"/><path d="M584.288,291.377c-3.476,6.9-10.639,10.308-17.4,6.9-2.742-1.376-4.751-2.12-6.028-3.954-2.859-4.071-2.35-9.936.043-14.7,2.473-4.908,6.92-8.815,12.154-8.741,2.118.034,3.753,1.088,6.389,2.41C586.218,276.7,587.753,284.479,584.288,291.377Z" fill="#ffa905"/><path d="M580.512,289.48c-3.469,6.9-10.94,10.151-16.676,7.267s-7.579-10.816-4.117-17.71,10.936-10.157,16.675-7.273S583.979,282.581,580.512,289.48Z" fill="#ffe305"/><path d="M576.6,288.176c-2.426,4.837-7.4,7.246-11.1,5.382s-4.745-7.289-2.312-12.124,7.4-7.243,11.107-5.386S579.039,283.337,576.6,288.176Z" fill="#ffff05"/><path d="M576.51,287.471c-2.45,4.866-7.508,7.274-11.3,5.374s-4.881-7.4-2.434-12.278,7.5-7.274,11.3-5.371S578.957,282.6,576.51,287.471Z" fill="#ea9000"/><path d="M576.363,287.763c-2.364,4.709-7.1,7.11-10.58,5.366s-4.376-6.979-2.014-11.7,7.108-7.109,10.578-5.356S578.727,283.057,576.363,287.763Z" fill="#ffc005"/><path d="M576.174,287.425c-1.909,3.812-5.869,5.68-8.844,4.188s-3.828-5.792-1.915-9.6,5.876-5.686,8.85-4.187S578.09,283.62,576.174,287.425Z" fill="#ea9000"/><path d="M575.029,286.852c-1.913,3.806-5.754,5.747-8.563,4.333s-3.539-5.647-1.62-9.452,5.741-5.751,8.551-4.334S576.945,283.045,575.029,286.852Z" fill="#ffe305"/><path d="M569.674,273.8c-1.169.434-2.289.346-2.492-.212s.571-1.361,1.745-1.8,2.3-.341,2.5.215S570.852,273.364,569.674,273.8Z" fill="#fff"/><path d="M568.635,296.782c-.746.116-1.385-.079-1.44-.417s.493-.73,1.234-.842,1.378.065,1.433.419S569.366,296.664,568.635,296.782Z" fill="#fff"/><path d="M565.647,267.725c-1.094-.988-1.971-1.842-2.828-2.528-4.811-3.987-12.655-2.747-17.707,2.883-4.4,4.917-5.26,11.568-2.432,16.084.9,1.535,2.41,2.68,4.291,4.375,5.641,5.065,13.444,3.654,18.6-2.1S571.287,272.777,565.647,267.725Z" stroke="#603813" stroke-miterlimit="10" stroke-width="0.428"/><path d="M565.574,286.443c-5.159,5.75-12.962,7.161-18.6,2.1-2.282-2.052-4.021-3.294-4.775-5.4-1.688-4.692.342-10.209,3.9-14.178,3.668-4.089,8.985-6.683,14.023-5.243,2.027.58,3.345,2.037,5.526,4C571.287,272.777,570.734,280.694,565.574,286.443Z" fill="#ffa905"/><path d="M562.434,283.62c-5.163,5.755-13.213,6.93-18,2.641s-4.479-12.432.676-18.181,13.226-6.925,18-2.639S567.594,277.871,562.434,283.62Z" fill="#ffe305"/><path d="M559.011,281.34c-3.616,4.032-9.048,5.048-12.128,2.28s-2.66-8.275.955-12.3,9.051-5.05,12.132-2.282S562.62,277.307,559.011,281.34Z" fill="#ffff05"/><path d="M559.1,280.628c-3.641,4.062-9.152,5.054-12.316,2.219s-2.761-8.42.879-12.475,9.153-5.055,12.315-2.219S562.743,276.571,559.1,280.628Z" fill="#ea9000"/><path d="M558.88,280.875c-3.519,3.927-8.719,5-11.618,2.4s-2.391-7.886,1.129-11.805,8.728-5,11.616-2.4S562.4,276.958,558.88,280.875Z" fill="#ffc005"/><path d="M558.789,280.505c-2.846,3.176-7.158,3.939-9.633,1.722s-2.18-6.6.674-9.767,7.16-3.942,9.637-1.725S561.633,277.332,558.789,280.505Z" fill="#ea9000"/><path d="M557.834,279.645c-2.848,3.17-7.054,4.038-9.395,1.935s-1.937-6.378.91-9.545,7.061-4.043,9.4-1.94S560.687,276.471,557.834,279.645Z" fill="#ffe305"/><path d="M556.09,265.648c-1.24.122-2.3-.263-2.35-.855s.908-1.169,2.156-1.287,2.3.274,2.355.878C558.308,264.967,557.343,265.541,556.09,265.648Z" fill="#fff"/><path d="M549.057,287.548c-.747-.077-1.317-.429-1.278-.779s.668-.57,1.409-.492,1.31.438,1.278.788S549.8,287.635,549.057,287.548Z" fill="#fff"/><path d="M521.165,266.509" fill="#ad0d00" opacity="0.3"/><path d="M521.793,266.917l21.573,19.925,93.348-9.34-12.861-18.463,21.984-33.807-34.225,1.239,2.7,8.5-3.816,3.074-30.567,3.735-4.488-2.777-.96-1.952-1.451-8.094L539,231.245Z" opacity="0.3"/><path d="M544.143,318.981l38.843-4.14.674,3.841-39.673,5.28Z" fill="#ad0d00" opacity="0.3"/><path d="M617.11,308.56l28.156-2.638.15,4.51-28.619,3.42Z" fill="#ad0d00" opacity="0.3"/><path d="M577.674,254.03l12.12,1.082,3.576,11.629-8.543,10.547-12.12-1.081-3.574-11.63Z" fill="#00009e" stroke="#00009e" stroke-linecap="round" stroke-linejoin="round" stroke-width="0.936"/><path d="M593.388,266.751l-5.453-2.112-4.865,5.963,1.791,6.662Z" fill="#4fcfff"/><path d="M589.831,255.107l-4.16,2.986,2.283,6.558,5.406,2.086Z" fill="#4ff8ff"/><path d="M583.079,270.594l1.769,6.71-12.142-1.1,3.438-6.224Z" fill="#0950e7"/><path d="M576.144,269.983l-3.431,6.229-3.593-11.618,5-1.253Z" fill="#097dff"/><path d="M589.831,255.128l-4.045,2.885-6.815-.588-1.3-3.376Z" fill="#4fcfff"/><path d="M577.644,254.036l1.316,3.367-4.841,5.939-5.015,1.253Z" fill="#099aff"/><path d="M578.885,257.224l7.114.662,2.125,6.82-4.994,6.162-7.116-.663-2.126-6.822Z" fill="#4fcfff"/><path d="M578.885,257.224l7.114.662,2.125,6.82-4.994,6.162-7.116-.663-2.126-6.822Z" fill="url(#a)"/><path d="M593.376,266.791l-5-1.684-4.568,5.086,4.018-5.616-1.076-4.286,1.672,4.214,4.942,2.2" fill="#fff"/><path d="M590.45,265.039a2.277,2.277,0,1,1-1.84-2.979A2.491,2.491,0,0,1,590.45,265.039Z" fill="rgba(255,255,255,0.2)"/><path d="M589.788,264.941a1.6,1.6,0,1,1-1.289-2.086A1.746,1.746,0,0,1,589.788,264.941Z" fill="rgba(255,255,255,0.2)"/><path d="M589.329,264.875a1.123,1.123,0,1,1-.91-1.465A1.23,1.23,0,0,1,589.329,264.875Z" fill="rgba(255,255,255,0.2)"/><path d="M588.87,264.808a.656.656,0,1,1-.529-.845A.708.708,0,0,1,588.87,264.808Z" fill="rgba(255,255,255,0.2)"/><path d="M589.831,255.128l-.117.115,2.553,11.14-7.631,9.963-11.676-.454-.246.321,12.121,1.107,8.525-10.583Z" fill="#1f2af7" opacity="0.3"/><path d="M584.915,274.317l7.811,9.331-5.7,10.753-13.5,1.414-7.813-9.328,5.7-10.757Z" fill="#00009e" stroke="#00009e" stroke-linecap="round" stroke-linejoin="round" stroke-width="0.936"/><path d="M587.032,294.415l-2.355-5.346-7.661.776-3.436,5.975Z" fill="#4fcfff"/><path d="M592.749,283.658l-5.047-.814-3.025,6.24,2.354,5.308Z" fill="#4ff8ff"/><path d="M577.027,289.846l-3.487,6-7.823-9.354,6.836-1.976Z" fill="#0950e7"/><path d="M572.553,284.512l-6.836,1.988,5.686-10.759,4.409,2.638Z" fill="#097dff"/><path d="M592.737,283.681l-4.908-.817-4.387-5.236,1.453-3.31Z" fill="#4fcfff"/><path d="M584.9,274.291l-1.453,3.312-7.63.776-4.422-2.654Z" fill="#099aff"/><path d="M583.511,277.422l4.566,5.5-3.316,6.323-7.892.829-4.56-5.5,3.322-6.332Z" fill="#4fcfff"/><path d="M583.511,277.422l4.566,5.5-3.316,6.323-7.892.829-4.56-5.5,3.322-6.332Z" fill="url(#b)"/><path d="M587.009,294.44l-2.354-4.735-6.829.37,6.817-1.129,2.273-3.8-1.8,4.167,1.934,5.058" fill="#fff"/><path d="M586.173,291.124a2.277,2.277,0,1,1,.8-3.4A2.487,2.487,0,0,1,586.173,291.124Z" fill="rgba(255,255,255,0.2)"/><path d="M585.774,290.591a1.6,1.6,0,1,1,.553-2.387A1.741,1.741,0,0,1,585.774,290.591Z" fill="rgba(255,255,255,0.2)"/><path d="M585.493,290.219a1.126,1.126,0,1,1,.4-1.68A1.229,1.229,0,0,1,585.493,290.219Z" fill="rgba(255,255,255,0.2)"/><path d="M585.21,289.855a.656.656,0,1,1,.228-.985A.716.716,0,0,1,585.21,289.855Z" fill="rgba(255,255,255,0.2)"/><path d="M592.737,283.681h-.168l-6.068,9.682-12.436,1.653-7.938-8.572-.41.057,7.806,9.35,13.508-1.458Z" fill="#1f2af7" opacity="0.3"/><path d="M551.414,276.533l7.146-11.389,13.234,2.327,6.092,13.708-7.145,11.378L557.5,290.235Z" fill="#00009e" stroke="#00009e" stroke-linecap="round" stroke-linejoin="round" stroke-width="1.034"/><path d="M571.818,267.46l-4.814,4.3,3.418,7.782,7.457,1.585Z" fill="#4fcfff"/><path d="M558.57,265.114l.859,5.592,7.6,1.048,4.768-4.282Z" fill="#4ff8ff"/><path d="M570.418,279.539l7.492,1.62-7.169,11.4-4.4-6.508Z" fill="#0950e7"/><path d="M566.346,286.055l4.4,6.5-13.237-2.3,1.277-5.544Z" fill="#097dff"/><path d="M558.593,265.123l.817,5.431-4.008,6.4-3.977-.408Z" fill="#4fcfff"/><path d="M551.4,276.565l3.973.4,3.412,7.742-1.291,5.561Z" fill="#099aff"/><path d="M555.159,276.949l4.22-6.673,7.784,1.343,3.557,8-4.229,6.668-7.775-1.339Z" fill="#4fcfff"/><path d="M555.159,276.949l4.22-6.673,7.784,1.343,3.557,8-4.229,6.668-7.775-1.339Z" fill="url(#c)"/><path d="M571.844,267.482l-4.157,4.089,2.71,7.05-3.512-6.777-4.769-1.1,4.992.474,4.653-3.764" fill="#fff"/><path d="M568.649,269.49a2.513,2.513,0,1,1-3.842.319A2.748,2.748,0,0,1,568.649,269.49Z" fill="rgba(255,255,255,0.2)"/><path d="M568.227,270.1a1.763,1.763,0,1,1-2.7.226A1.919,1.919,0,0,1,568.227,270.1Z" fill="rgba(255,255,255,0.2)"/><path d="M567.935,270.507a1.246,1.246,0,1,1-1.906.162A1.368,1.368,0,0,1,567.935,270.507Z" fill="rgba(255,255,255,0.2)"/><path d="M567.637,270.93a.783.783,0,0,1,.288,1.07.775.775,0,0,1-1.1.092.721.721,0,1,1,.815-1.162Z" fill="rgba(255,255,255,0.2)"/><path d="M558.593,265.123l.062.174,12.24,3.084,5.965,12.5-6.307,11.26.2.409,7.177-11.38-6.131-13.7Z" fill="#1f2af7" opacity="0.3"/></g></svg>