<svg xmlns="http://www.w3.org/2000/svg" viewBox="0 0 154.92 124.68"><defs><style>.cls-1,.cls-2{fill:#7b79ef;}.cls-2{opacity:0.2;}.cls-3{stroke:#000;stroke-linecap:round;stroke-linejoin:round;stroke-width:1.86px;}.cls-4{fill:#452e12;}.cls-5{fill:#3d270f;}.cls-6{fill:#5a3f27;}.cls-7{fill:#331f0b;}.cls-8{fill:#2b1807;}.cls-9{fill:#442c1b;}.cls-10{fill:#845d40;}.cls-11{fill:#9b7256;}.cls-12{fill:#bc957a;}.cls-13{fill:#8e664c;}.cls-14{fill:#593821;}.cls-15{opacity:0.3;}.cls-16{fill:#243235;}.cls-17{fill:#3e4749;}.cls-18{fill:#2c3c41;}.cls-19{fill:#7c8689;}.cls-20{fill:#485458;}.cls-21{fill:#141d1e;}.cls-22{fill:#959ea0;}.cls-23{opacity:0.1;}</style></defs><title>Asset 5</title><g id="Layer_2" data-name="Layer 2"><g id="Layer_19" data-name="Layer 19"><path class="cls-1" d="M145.53,54.8v0l-.31-14.07a6,6,0,0,0,.07-.73h0v0a2.44,2.44,0,0,0,0-.27,5.47,5.47,0,0,0-.54-2.17.64.64,0,0,0,0-.07h-.13a.93.93,0,0,0,0-.1l0,0a5.2,5.2,0,0,0-.21-.67l-3.93-13.62A6,6,0,0,0,140,21a5.64,5.64,0,0,0-3.28-3.16,5.37,5.37,0,0,0,.07-.9,5.65,5.65,0,0,0-4.68-5.57,5.67,5.67,0,0,0-5.69-2.47l-.15,0a6,6,0,0,0-.94.05l-6.66.91-5.5-.65a4.55,4.55,0,0,0-.52,0,5.68,5.68,0,0,0-3.28-.4L99.71,10.5l-15.55-.38h0l-15-.37a5.67,5.67,0,0,0-5.5-2.18l-.13,0a5.56,5.56,0,0,0-.91,0l-7.38,1-4-.41a5.57,5.57,0,0,0-4-.77L33.69,9.87h-1a5,5,0,0,0-1.16.08,5.69,5.69,0,0,0-2.24.92l-.43.33-2.35.34h0l-.27,0a5.77,5.77,0,0,0-1.23.35,6.33,6.33,0,0,0-1,.51,5,5,0,0,0-.62.49h-.19a5.13,5.13,0,0,0-.84.52h-.23a5.7,5.7,0,0,0-1.8,2.72h0a6.18,6.18,0,0,0-.2,1.14l-1.21,3.56a5.68,5.68,0,0,0,3.1,7L19.56,35.1l-3-.13a5.65,5.65,0,0,0-5.5,3.55l-.07.16a6,6,0,0,0-.55,1,6.44,6.44,0,0,0-.25.66,5.65,5.65,0,0,0,3.69,8.88l.86,1.16a5.65,5.65,0,0,0,1.14,1.15l-2.75,1.28a5.67,5.67,0,0,0-3.07,6.56l.27,1a5.67,5.67,0,0,0,1.47,2.56,5.7,5.7,0,0,0-1,3.86c0,.16,0,.32,0,.48a5.66,5.66,0,0,0,1.67,4.3l.06.19a5.87,5.87,0,0,0,.43,1,5.54,5.54,0,0,0,1.24,2.48l1.43,4a5.44,5.44,0,0,0,.89,1.6,5.4,5.4,0,0,0,0,2.31h0a5.66,5.66,0,0,0-1.45,4.61l.09.6a5.47,5.47,0,0,0,.45,2h.06v0h0a5.56,5.56,0,0,0,.45.79l2.23,9.84L18.29,106a5.88,5.88,0,0,0,.27,1.83h0A5.72,5.72,0,0,0,19.81,110a5.64,5.64,0,0,0,2.12,1.43h0a5.47,5.47,0,0,0,1.77.36l12.67.57a5.75,5.75,0,0,0,.94.11h.2a5.78,5.78,0,0,0,2.27-.5,5.89,5.89,0,0,0,1.72-1.15h0a4,4,0,0,0,.35-.37l.06,0,38.25,3.21a5.75,5.75,0,0,0,.83,1.17,5.62,5.62,0,0,0,2.17,1.47h0a4.62,4.62,0,0,0,.6.19H84a4.84,4.84,0,0,0,.94.12l13.16.6a6.38,6.38,0,0,0,1,.1h.18a6,6,0,0,0,3.88-1.54h0l.15-.13h0l0,0,4.87.41h.26l.28,0a5.79,5.79,0,0,0,1.91-.23,5.77,5.77,0,0,0,3.29-2.62l2.46-2.89a5.59,5.59,0,0,0,.89-1.39,5.7,5.7,0,0,0,.46-1.66l6.07-4.22.47-.32h0l0,0h0l0,0,3.44-2.32,2.53.87a5.64,5.64,0,0,0,4.09-.15h0l.38-.18L138,99.2a5.64,5.64,0,0,0,3-4.31l2.53-20.35a5.6,5.6,0,0,0,.24-1.12,6.08,6.08,0,0,0,0-.61c0-.13,0-.26,0-.4a2.89,2.89,0,0,0,0-.29L145.51,58a4.94,4.94,0,0,0,.21-1.07A5.5,5.5,0,0,0,145.53,54.8ZM66.84,32l9,.72L57.92,33.76a5.48,5.48,0,0,0,1.27-2.6,5.62,5.62,0,0,0,.09-.57l2.95.09a5.68,5.68,0,0,0,3.2,1.21Z"/><path class="cls-2" d="M154.67,53.79v0l-.35-16a7.58,7.58,0,0,0,.08-.82h0v-.31a6.46,6.46,0,0,0-.61-2.47l0-.07h-.14l-.06-.1,0-.06a6.59,6.59,0,0,0-.25-.75L148.82,17.3a6.39,6.39,0,0,0-4.18-5.45,5.7,5.7,0,0,0,.08-1,6.42,6.42,0,0,0-5.31-6.32A6.42,6.42,0,0,0,133,1.72l-.17,0a6.22,6.22,0,0,0-1.06.06l-7.56,1-6.24-.75-.59,0a6.41,6.41,0,0,0-3.72-.45L102.69,3.54,85.06,3.11h0L68,2.69A6.42,6.42,0,0,0,61.79.21l-.15,0a7.11,7.11,0,0,0-1,0L52.23,1.44,47.66,1A6.38,6.38,0,0,0,43.15.1L27.82,2.82h-1.2A6.58,6.58,0,0,0,22.76,4c-.17.12-.33.25-.49.38l-2.66.38h0l-.3,0a6.53,6.53,0,0,0-1.39.4,6,6,0,0,0-1.09.58,6.4,6.4,0,0,0-.71.55H15.9A6.32,6.32,0,0,0,15,7h-.26a6.47,6.47,0,0,0-2,3.09h0a6.32,6.32,0,0,0-.23,1.3l-1.37,4a6.4,6.4,0,0,0,3.51,7.94l-2.75,7.82-3.36-.16a6.42,6.42,0,0,0-6.24,4l-.08.19a6.76,6.76,0,0,0-.62,1.07,6.13,6.13,0,0,0-.29.75A6.42,6.42,0,0,0,5.39,47.4l1,1.32A6.62,6.62,0,0,0,7.65,50L4.54,51.48a6.41,6.41,0,0,0-3.48,7.44l.3,1.15A6.44,6.44,0,0,0,3,63a6.44,6.44,0,0,0-1.15,4.38,4.89,4.89,0,0,0,0,.55,6.33,6.33,0,0,0,1.9,4.87l.06.22a6.27,6.27,0,0,0,.49,1.09,6.41,6.41,0,0,0,1.4,2.82L7.3,81.38a6.59,6.59,0,0,0,1,1.82,6.12,6.12,0,0,0-.11,1.14,6,6,0,0,0,.15,1.48h0a6.46,6.46,0,0,0-1.63,5.23l.09.68a6.65,6.65,0,0,0,.51,2.32h.07s0,0,0,0h0a5.76,5.76,0,0,0,.51.9l2.53,11.15-.09,5.6a6.55,6.55,0,0,0,.3,2.08h0a6.31,6.31,0,0,0,1.42,2.41,6.52,6.52,0,0,0,2.4,1.63h0a6.3,6.3,0,0,0,2,.41l14.37.65a6.26,6.26,0,0,0,1.07.11h.22a6.35,6.35,0,0,0,2.58-.56,6.28,6.28,0,0,0,2-1.3h0q.21-.21.39-.42l.07-.06,43.39,3.64a6.35,6.35,0,0,0,3.39,3h0c.22.08.45.16.68.22h.24a6.38,6.38,0,0,0,1.08.14l14.92.67a6.74,6.74,0,0,0,1.12.12h.19a6.51,6.51,0,0,0,2.61-.58,6.69,6.69,0,0,0,1.8-1.16h0l.16-.15h.05l0,0,5.53.46.22,0h.07l.31,0a6.4,6.4,0,0,0,4.59-1.61,6.43,6.43,0,0,0,1.31-1.62l2.78-3.28a6.33,6.33,0,0,0,1-1.57,6.65,6.65,0,0,0,.52-1.89l6.89-4.78.53-.37h0l0,0,3.9-2.63,2.88,1a6.36,6.36,0,0,0,4.63-.18h0l.42-.2,3.59-1.87a6.44,6.44,0,0,0,3.39-4.9l2.87-23.08a6.83,6.83,0,0,0,.27-1.27c0-.22,0-.45,0-.68s0-.31,0-.46,0-.22.05-.33l2-16a5.75,5.75,0,0,0,.25-1.22A6.35,6.35,0,0,0,154.67,53.79ZM65.41,27.88l10.22.81L55.3,29.92a6.29,6.29,0,0,0,1.44-3c0-.21.08-.43.1-.65l3.35.11a6.36,6.36,0,0,0,3.63,1.37Z"/><path class="cls-3" d="M138.16,71.43l-1.3.67,1.14.66h0l.09,0-.1,0-2.66,21.34-3.16,1.65L127,94.06,122.56,97c-3.35,2.34-7.55,5.26-10.13,7l-.28,2.53-3.1,3.65v.15l-6.39-.57-1.47,0v0l-1.88,1.68v.06h-.06l-.07.06v-.06l-14-.64,0-2.72-44.1-3.91-1.72.18v.57l-1.8,1.62v.06h-.07l-.06,0v-.06L24,106.13,24,100.5,21.51,89.36h0l-.05-.21.57,0,2.18-.7v-.2l-3.4-.21L17.87,69.93l2.21-2.23-3.65-.18-1-9.8L19,56.28l-3.86-1.45-.32-11.24,2.06.09L15.62,42l7.09-16.76,1.56-.34-.63-.95,2.1-5.88h.2L26,18l.09.06,1.42,0-.34-.94,5-.71.33-.92h1.71L48.2,13l16.41.11-1.24.21V15.1l-.25,0,1.53.16,35.48.87,10.2-1.81,17,.1-1.29.23v1.78l1.18.14-.8.2,4.65.12h0l-.69,5.83,4.33.38,4.31,15.2-.89.85,1.17.45.21.08h0l.1,0-.09.05L139.88,55l-1,.72,1.08.62h0l.1.05-.09,0Z"/><polygon class="cls-4" points="138.09 72.81 134.89 73.84 120.17 64.53 130.35 68.42 138.09 72.81"/><polygon class="cls-5" points="135.14 73.94 120.7 64.79 117.9 90.92 132.17 95.84 135.14 73.94"/><polyline class="cls-6" points="134.98 74.21 132.17 95.84 135.33 94.19 138 72.76 134.89 73.84"/><polygon class="cls-4" points="140.1 56.35 136.9 57.38 122.06 51.32 132.35 51.96 140.1 56.35"/><polygon class="cls-5" points="137.15 57.48 122.59 51.58 119.91 63.54 134.98 73.03 137.15 57.48"/><polyline class="cls-6" points="136.98 57.75 134.98 73.03 138.14 71.37 140.01 56.3 136.9 57.38"/><polygon class="cls-4" points="139.64 39.76 136.62 41.24 120.62 39.31 131.34 36.52 139.64 39.76"/><polygon class="cls-5" points="136.88 41.3 121.19 39.49 120.69 49.77 136.97 57 136.88 41.3"/><polyline class="cls-6" points="136.76 41.59 136.97 57 139.86 54.91 139.54 39.72 136.62 41.24"/><polygon class="cls-5" points="130.41 28.22 121.52 27.15 121.41 38.98 136.56 40.59 130.41 28.22"/><polyline class="cls-6" points="130.41 28.55 136.56 40.59 139.03 38.34 134.64 23.14 130.14 28.28"/><path class="cls-7" d="M110.06,105.58c.49-.16,17.67-12.2,17.67-12.2l2.89-39-1.29-13.81-6.26-13.49L112.79,38l-5,15.9-1.28,17.34-1.12,23.93Z"/><polygon class="cls-8" points="129.1 39.98 114.32 50.33 115.68 51.62 129.58 40.86 129.1 39.98"/><polygon class="cls-8" points="130.46 54.67 112.07 65.03 112.55 66.32 131.34 55.47 130.46 54.67"/><path class="cls-8" d="M129.42,69.85,110.62,74s-.56,1.85-.32,1.93,19.52-5.22,19.52-5.22Z"/><path class="cls-8" d="M110.55,91.93c.32,0,18.22-10,18.22-10l-.16,1.77L109.18,95.55Z"/><polygon class="cls-4" points="134.74 23.14 130.14 28.28 120.93 27.21 125.96 22.6 134.74 23.14"/><polygon class="cls-9" points="17.87 69.93 23.6 64.15 112.25 70.89 114.62 73.4 106.16 78.92 17.87 69.93"/><polygon class="cls-9" points="122.59 18.29 27.13 17.14 29.6 23.99 123.8 26.96 122.59 18.29"/><polygon class="cls-6" points="121.63 19.82 123.56 30.58 118.09 51.14 114.24 46.16 102.67 32.35 108.94 27.05 121.63 19.82"/><polygon class="cls-9" points="15.62 41.98 19.32 46.96 118.09 51.14 113.66 45.38 15.62 41.98"/><polygon class="cls-6" points="113.4 47.82 117.93 53.23 115.68 62.38 114.72 71.69 110.22 72.18 106.69 54.51 111.61 49.23 113.4 47.82"/><polygon class="cls-10" points="113.44 47.77 14.82 43.59 15.14 54.83 19 56.28 15.46 57.72 16.43 67.52 110.7 72.18 112.15 55.63 113.44 47.77"/><polygon class="cls-6" points="121.89 19.07 123.8 26.96 130.06 24.16 131.04 16.93 121.89 19.07"/><path class="cls-11" d="M44.25,50.19c-1.33.55-3.18,1-4.35,1.89a19.69,19.69,0,0,0,4.7-.47c1-.12,3,.15,3.73-.56-.9-.77-2.42-.76-3.55-.86Z"/><path class="cls-4" d="M44.17,49.79c-1.33.55-3.18,1-4.35,1.89a19.82,19.82,0,0,0,4.71-.47c1-.12,3,.15,3.72-.56-.9-.78-2.42-.76-3.55-.86Z"/><polygon class="cls-9" points="113.11 92.57 27.75 87.36 21.49 89.36 109.18 96.35 113.11 92.57"/><polygon class="cls-10" points="131.1 16.93 43.73 14.79 27.13 17.14 121.89 19.07 131.1 16.93"/><polygon class="cls-9" points="117.45 33.15 111.63 33.61 116.58 35.65 119.2 38.63 117.45 33.15"/><polygon class="cls-12" points="111.63 33.61 117.08 34.67 116.43 36.6 111.63 33.61"/><polygon class="cls-13" points="114.24 46.16 15.62 41.98 22.71 25.22 24.27 24.88 23.64 23.93 25.74 18.05 121.63 19.82 117.45 33.15 111.51 33.63 116.65 35.56 114.24 46.16"/><polygon class="cls-6" points="109.58 93.7 113.65 91.13 114.6 73.32 110.28 73.42 106.9 77.75 109.58 93.7"/><path class="cls-10" d="M17.87,69.93c.48,0,92.39,3.47,92.39,3.47l-.68,20.3L20.82,88.08Z"/><polygon class="cls-6" points="108.54 96.19 113.11 92.57 112.15 106.55 108.78 110.32 108.54 96.19"/><polygon class="cls-10" points="21.46 89.15 109.37 95.57 109.05 110.35 24.56 102.85 21.46 89.15"/><polygon class="cls-11" points="15.62 41.98 114.24 46.16 116.54 35.88 15.62 41.98"/><polyline class="cls-11" points="26.28 18.21 108.3 24.1 24.24 23.03 25.96 18"/><polyline class="cls-11" points="113.33 48.41 21.25 46.05 111.61 53.01 113.11 48.62"/><polyline class="cls-11" points="16.21 58.26 81.85 63.4 17.93 62.54 16 58.26"/><polygon class="cls-11" points="42.98 64.9 110.22 64.58 109.9 71.32 42.98 64.9"/><polygon class="cls-11" points="18.57 70.68 70.39 73.14 20.92 77.21 18.57 70.68"/><polygon class="cls-11" points="108.52 87.48 108.51 92.95 54.76 89.63 108.52 87.48"/><polygon class="cls-11" points="22.96 90.49 106.8 96.91 23.39 93.81 22.96 90.49"/><polygon class="cls-12" points="118.63 27.58 66.22 26.24 116.97 30.26 118.63 27.58"/><polygon class="cls-9" points="119.06 27.37 65.73 26.24 116.97 28.97 119.06 27.37"/><polygon class="cls-12" points="108.82 81.81 22.84 81.81 106.15 85.83 108.82 81.81"/><polygon class="cls-9" points="109.24 81.35 22.05 81.81 106.15 84.54 109.24 81.35"/><polygon class="cls-12" points="114 46 15.87 41.82 16.35 40.62 114.4 45.03 114 46"/><polygon class="cls-12" points="18.46 44.93 18.46 43.8 112.74 47.9 112.74 49.59 18.46 44.93"/><polygon class="cls-12" points="18.46 71.48 18.33 70.19 109.47 73.84 108.94 74.43 18.46 71.48"/><polygon class="cls-12" points="109.37 95.57 21.65 89.28 21.89 90.08 108.54 96.19 109.37 95.57"/><polygon class="cls-9" points="108.7 110.32 24.56 103.25 24.14 101.65 108.62 108.64 108.7 110.32"/><polygon class="cls-14" points="109.58 93.62 20.84 88.04 20.68 86.87 109.64 91.8 109.58 93.62"/><polygon class="cls-14" points="110.22 71.78 16.65 67.4 16.45 66.17 110.28 69.96 110.22 71.78"/><path class="cls-11" d="M81.93,99.88c-.56.41-1.9,1.85-1.5,2.69.52,1.13,1.79-.76,2.25-1.19Z"/><path class="cls-4" d="M81.85,99.48c-.56.4-1.9,1.85-1.5,2.69.52,1.13,1.8-.76,2.25-1.19Z"/><polygon class="cls-15" points="65.65 15.4 54.49 18.69 45.74 44.63 45.26 69.13 42.61 71.37 41.32 104.3 36.66 104.78 34.42 67.2 32.49 43.11 38.59 24.96 43.57 16.61 49.19 13.72 65.65 15.4"/><polygon class="cls-15" points="127.25 16.61 116.17 19.5 107.17 45.84 106.69 70.41 104.44 72.34 104.2 109.76 98.58 109.84 97.69 68.32 95.77 44.23 101.87 26.08 106.85 17.73 112.47 14.84 127.25 16.61"/><polygon class="cls-16" points="99.18 111.65 101.19 109.85 102.05 66.73 99.42 63.67 99.18 111.65"/><polygon class="cls-16" points="101.24 70.98 103.48 71.43 104.01 45.84 98.34 45.52 101.24 70.98"/><polygon class="cls-17" points="85.85 66.77 85.17 110.95 99.31 111.59 99.63 64.68 85.85 66.77"/><polygon class="cls-18" points="126.07 14.57 126.07 16.5 112.9 18.91 111.61 16.55 126.07 14.57"/><polygon class="cls-17" points="101.24 70.98 82.69 70.08 83.58 44.75 101.71 45.2 101.24 70.98"/><polygon class="cls-19" points="112.15 17.09 94.06 17.25 110.33 14.36 127.36 14.46 112.15 17.09"/><polyline class="cls-20" points="83.56 45.2 101.55 45.84 112.15 17.09 94 16.93 84.05 45.2"/><polygon class="cls-18" points="112.15 17.09 101.55 45.84 103.91 46.16 113.28 18.64 112.15 17.09"/><path class="cls-19" d="M101.52,32.1A4.39,4.39,0,1,1,98,26.76,4.52,4.52,0,0,1,101.52,32.1Z"/><path class="cls-16" d="M101.33,31.56a4.38,4.38,0,1,1-3.48-5.34A4.5,4.5,0,0,1,101.33,31.56Z"/><path class="cls-17" d="M100.74,31.15a4.13,4.13,0,1,1-3.3-4.94A4.21,4.21,0,0,1,100.74,31.15Z"/><path class="cls-20" d="M98.6,29.89a2.44,2.44,0,1,1-2-2.92A2.5,2.5,0,0,1,98.6,29.89Z"/><path class="cls-19" d="M98,28.22A1.19,1.19,0,1,1,97,27,1.11,1.11,0,0,1,98,28.22Z"/><path class="cls-19" d="M97.46,58.15A4.38,4.38,0,1,1,93,53.63,4.52,4.52,0,0,1,97.46,58.15Z"/><path class="cls-16" d="M97.18,57.66a4.38,4.38,0,1,1-4.49-4.53A4.52,4.52,0,0,1,97.18,57.66Z"/><path class="cls-17" d="M96.51,57.39a4.12,4.12,0,1,1-4.23-4.18A4.21,4.21,0,0,1,96.51,57.39Z"/><path class="cls-20" d="M94.16,56.58a2.44,2.44,0,1,1-2.5-2.47A2.48,2.48,0,0,1,94.16,56.58Z"/><path class="cls-19" d="M93.24,55.06A1.19,1.19,0,1,1,92,54,1.11,1.11,0,0,1,93.24,55.06Z"/><path class="cls-19" d="M97,78.33a4.39,4.39,0,1,1-4.57-4.45A4.52,4.52,0,0,1,97,78.33Z"/><path class="cls-16" d="M96.68,77.84a4.38,4.38,0,1,1-4.56-4.45A4.51,4.51,0,0,1,96.68,77.84Z"/><path class="cls-17" d="M96,77.58a4.13,4.13,0,1,1-4.3-4.11A4.2,4.2,0,0,1,96,77.58Z"/><path class="cls-20" d="M93.65,76.82a2.44,2.44,0,1,1-4.87.2,2.44,2.44,0,1,1,4.87-.2Z"/><path class="cls-19" d="M92.71,75.32a1.13,1.13,0,0,1-1.14,1.1,1.06,1.06,0,1,1-.09-2.11A1.13,1.13,0,0,1,92.71,75.32Z"/><path class="cls-19" d="M97.28,95.78a4.38,4.38,0,1,1-4.57-4.45A4.52,4.52,0,0,1,97.28,95.78Z"/><path class="cls-16" d="M97,95.29a4.38,4.38,0,1,1-4.56-4.45A4.52,4.52,0,0,1,97,95.29Z"/><path class="cls-17" d="M96.31,95A4.12,4.12,0,1,1,92,90.92,4.2,4.2,0,0,1,96.31,95Z"/><path class="cls-20" d="M94,94.26a2.44,2.44,0,1,1-2.54-2.42A2.48,2.48,0,0,1,94,94.26Z"/><path class="cls-19" d="M93,92.76a1.13,1.13,0,0,1-1.14,1.11A1.06,1.06,0,1,1,93,92.76Z"/><polygon class="cls-19" points="84.77 44.79 101.23 45.44 111.19 18.05 99.78 43.03 84.77 44.79"/><polygon class="cls-21" points="82.69 70.08 101.12 70.95 103.64 71.37 102.27 72 99.92 71.21 86.05 70.97 82.69 70.08"/><polygon class="cls-15" points="82.69 70.08 101.12 70.95 103.64 71.37 101.95 72.1 101.19 109.85 99.14 111.53 97.69 88.64 85.65 75.15 85.73 72.42 82.69 70.08"/><polygon class="cls-16" points="85.25 45.92 101.15 46.32 100.03 67.92 99.35 48.5 85.25 45.92"/><polygon class="cls-19" points="91.03 35.24 87.22 36.38 88.25 34.09 91.03 35.24"/><polygon points="88.72 31.96 91.03 35.24 87.74 34.88 88.72 31.96"/><polygon class="cls-16" points="37.45 106.8 39.38 105.07 40.21 63.51 37.68 60.56 37.45 106.8"/><polygon class="cls-16" points="39.44 67.61 41.59 68.04 42.11 43.37 36.64 43.06 39.44 67.61"/><polygon class="cls-17" points="24.6 63.55 23.95 106.13 37.58 106.75 37.88 61.53 24.6 63.55"/><polygon class="cls-18" points="63.37 13.24 63.37 15.1 50.67 17.42 49.44 15.15 63.37 13.24"/><polygon class="cls-17" points="39.44 67.61 21.55 66.74 22.42 42.33 39.89 42.76 39.44 67.61"/><polygon class="cls-19" points="49.95 15.66 32.51 15.82 48.2 13.03 64.61 13.14 49.95 15.66"/><polyline class="cls-20" points="22.4 42.76 39.73 43.37 49.95 15.66 32.46 15.51 22.86 42.76"/><polygon class="cls-18" points="49.95 15.66 39.73 43.37 42.01 43.68 51.03 17.16 49.95 15.66"/><path class="cls-19" d="M39.7,30.13A4.22,4.22,0,1,1,36.34,25,4.35,4.35,0,0,1,39.7,30.13Z"/><path class="cls-16" d="M39.53,29.61a4.22,4.22,0,1,1-3.36-5.15A4.35,4.35,0,0,1,39.53,29.61Z"/><path class="cls-17" d="M39,29.22a4,4,0,1,1-3.18-4.76A4.05,4.05,0,0,1,39,29.22Z"/><path class="cls-20" d="M36.89,28A2.35,2.35,0,1,1,35,25.19,2.4,2.4,0,0,1,36.89,28Z"/><path class="cls-19" d="M36.31,26.4a1.14,1.14,0,1,1-.94-1.2A1.09,1.09,0,0,1,36.31,26.4Z"/><path class="cls-19" d="M35.79,55.25a4.22,4.22,0,1,1-4.32-4.37A4.35,4.35,0,0,1,35.79,55.25Z"/><path class="cls-16" d="M35.52,54.77a4.22,4.22,0,1,1-4.33-4.37A4.35,4.35,0,0,1,35.52,54.77Z"/><path class="cls-17" d="M34.88,54.5a4,4,0,1,1-4.08-4A4.07,4.07,0,0,1,34.88,54.5Z"/><path class="cls-20" d="M32.61,53.73a2.35,2.35,0,1,1-2.41-2.39A2.39,2.39,0,0,1,32.61,53.73Z"/><path class="cls-19" d="M31.73,52.27a1.15,1.15,0,1,1-1.17-1A1.08,1.08,0,0,1,31.73,52.27Z"/><path class="cls-19" d="M35.33,74.69a4.23,4.23,0,1,1-4.4-4.29A4.34,4.34,0,0,1,35.33,74.69Z"/><path class="cls-16" d="M35,74.22a4.22,4.22,0,1,1-4.39-4.29A4.34,4.34,0,0,1,35,74.22Z"/><path class="cls-17" d="M34.4,74a4,4,0,1,1-4.15-4A4.06,4.06,0,0,1,34.4,74Z"/><path class="cls-20" d="M32.12,73.23a2.35,2.35,0,1,1-2.45-2.34A2.41,2.41,0,0,1,32.12,73.23Z"/><path class="cls-19" d="M31.21,71.79a1.09,1.09,0,0,1-1.1,1.06,1,1,0,1,1,1.1-1.06Z"/><path class="cls-19" d="M35.62,91.51a4.23,4.23,0,1,1-4.4-4.29A4.35,4.35,0,0,1,35.62,91.51Z"/><path class="cls-16" d="M35.33,91a4.22,4.22,0,1,1-4.39-4.29A4.35,4.35,0,0,1,35.33,91Z"/><path class="cls-17" d="M34.69,90.79a4,4,0,1,1-4.14-4A4.07,4.07,0,0,1,34.69,90.79Z"/><path class="cls-20" d="M32.41,90.05A2.35,2.35,0,1,1,30,87.71,2.4,2.4,0,0,1,32.41,90.05Z"/><path class="cls-19" d="M31.5,88.6a1.14,1.14,0,0,1-2.27.1,1.14,1.14,0,0,1,2.27-.1Z"/><polygon class="cls-19" points="23.56 42.37 39.42 42.99 49.02 16.59 38.03 40.66 23.56 42.37"/><polygon class="cls-21" points="21.55 66.74 39.32 67.57 41.75 67.99 40.43 68.59 38.16 67.83 24.8 67.6 21.55 66.74"/><polygon class="cls-15" points="21.55 66.74 39.32 67.57 41.75 67.99 40.12 68.68 39.38 105.07 37.41 106.69 36.02 84.63 24.41 71.63 24.49 68.99 21.55 66.74"/><polygon class="cls-16" points="24.02 43.45 39.35 43.84 38.26 64.66 37.61 45.94 24.02 43.45"/><polygon class="cls-19" points="29.6 33.16 25.93 34.26 26.92 32.05 29.6 33.16"/><polygon points="27.38 30 29.6 33.16 26.42 32.81 27.38 30"/><polygon class="cls-12" points="19 56.28 15.57 57.88 15.84 58.9 19 56.28"/><path class="cls-11" d="M79.36,74.61c-.76.4-3.5,2.27-1.2,2.36.69,0,2.61-.75,2.06-1.71Z"/><path class="cls-11" d="M108.32,52.77a5,5,0,0,0-.41,3c1.45.29,1.33-1.88,1.59-2.66Z"/><path class="cls-11" d="M50.88,28.14C50.65,29,53,30,53.65,30.06c.32-1.61-1.47-3.51-2.77-1.81Z"/><path class="cls-11" d="M52.59,97.1c-.59-.09-3.09,1.31-2.48,2s3.89-.46,3.6-1.36a3.56,3.56,0,0,0-.8,0Z"/><path class="cls-4" d="M79.28,74.21c-.76.4-3.5,2.26-1.21,2.36.7,0,2.63-.75,2.07-1.72Z"/><path class="cls-4" d="M108.24,52.37a5,5,0,0,0-.41,3c1.45.28,1.33-1.88,1.59-2.66Z"/><path class="cls-4" d="M50.8,27.74c-.23.82,2.07,1.84,2.77,1.92.32-1.61-1.47-3.51-2.77-1.81Z"/><path class="cls-4" d="M52.51,96.7c-.59-.09-3.09,1.31-2.48,2s3.89-.46,3.6-1.36a3.06,3.06,0,0,0-.8,0Z"/><polygon class="cls-22" points="84.05 46 83.16 69.77 84.37 70.01 84.85 46.32 84.05 46"/><polygon class="cls-22" points="102.03 17.73 94.56 17.41 89.26 31.54 89.75 31.86 94.72 18.21 102.03 17.73"/><polygon class="cls-22" points="87.34 36.84 84.85 44.15 85.89 43.99 88.3 36.68 87.34 36.84"/><polygon class="cls-22" points="86.21 76.43 85.65 110 86.69 110.16 86.94 77.4 86.21 76.43"/><polygon class="cls-22" points="23.01 43.83 22.13 65.99 23.73 65.99 24.06 44.07 23.01 43.83"/><polygon class="cls-22" points="24.94 73.54 24.38 105.42 25.42 105.74 25.5 74.19 24.94 73.54"/><polygon class="cls-22" points="23.73 41.66 26.31 34.84 27.19 35 25.1 41.5 23.73 41.66"/><polygon class="cls-22" points="27.83 29.78 32.89 16.04 34.02 16.2 28.47 30.58 27.83 29.78"/><polygon class="cls-23" points="131.1 16.93 121.73 19.28 114 46 113.44 47.77 110.7 72.18 108.97 110.3 112.15 106.55 112.47 103.66 127.06 94.02 132.17 95.84 135.33 94.19 138 72.76 136.86 72.1 138.16 71.43 140.02 56.33 138.92 55.69 139.88 54.96 139.54 39.72 138.14 39.2 139.05 38.34 134.74 23.14 130.41 22.76 131.1 16.93"/><polygon class="cls-9" points="67.51 52.1 75.3 56.84 71.85 78.76 50.97 78.68 53.62 52.34 67.51 52.1"/><polygon class="cls-18" points="72.53 48.98 74.71 58.05 70.68 78.12 67.82 76.02 72.53 48.98"/><polygon class="cls-16" points="51.7 76.44 52.88 78.12 70.68 78.12 67.11 75.43 51.7 76.44"/><polygon class="cls-20" points="68.24 76.44 51.7 76.44 51.45 48.9 72.44 48.73 68.24 76.44"/><polygon class="cls-16" points="72.02 49.65 67.91 75.69 52.12 75.85 66.48 73.67 72.02 49.65"/><path class="cls-19" d="M52.46,49.82s0,21.75.08,21.41,2.1-19.81,2.1-19.81L70.85,49.9Z"/><path class="cls-19" d="M63.38,56.33s2.5,2.94,1.35,4.88a6.76,6.76,0,0,1-2.25,2.46L61,59.48Z"/><path class="cls-19" d="M57.49,69.81s.8.45.9.49S64.7,70,64.7,70L63.21,61.6l-4.3,4.81Z"/><path class="cls-16" d="M63.41,56.26S59.5,53.7,57.6,57.6c-1.5,3.08,3,5.39,3.7,5.28s2-4.12,2-4.12Z"/><path d="M64.8,59.06a3.45,3.45,0,1,0-6.89,0A3.56,3.56,0,0,0,59.46,62c-.73,2.84-2.05,7.81-2.05,7.81l6.72-.26-1-7.48A3.53,3.53,0,0,0,64.8,59.06Z"/><polygon class="cls-16" points="68.33 51.92 68.79 54.15 66.86 52.13 68.33 51.92"/><polyline class="cls-16" points="54.18 71.57 54.72 71.07 53.72 69.68 54.05 71.57"/><polygon class="cls-16" points="65.47 72.49 62.74 73.25 62.99 72.58 65.47 72.49"/><polygon class="cls-16" points="61.61 52 61.78 53.3 61.02 52.97 61.61 52"/><polyline class="cls-15" points="52.52 78.5 60.34 85.35 78.43 85.35 75.86 66.72 75 58.04 72.53 48.98 68.26 74.96 51.7 76.44 52.3 78.39"/></g></g></svg>