<svg xmlns="http://www.w3.org/2000/svg" width="47.38" height="50.159" viewBox="0 0 47.38 50.159">
  <g id="diploma" transform="translate(-0.453 8.164) rotate(-11)">
    <path id="Path_108" data-name="Path 108" d="M218.916,35.039,208.281,45.675v-7.09l3.545-10.635Zm0,0" transform="translate(-190.877 -25.614)" fill="#ff9100"/>
    <path id="Path_109" data-name="Path 109" d="M33.316,220.64,24.453,229.5l-7.09-7.09L28,218.867Zm0,0" transform="translate(-15.912 -200.579)" fill="#ff9100"/>
    <path id="Path_110" data-name="Path 110" d="M28.217,28.375l12.2,12.2a76.224,76.224,0,0,0-12.6,9.412l-5.016,1.471-.16,3.74a63.233,63.233,0,0,0-8.067,11.222,4.558,4.558,0,0,1-.709.922c-2.482,2.482-7.161,1.7-10.635-1.773s-4.254-8.154-1.773-10.635a4.558,4.558,0,0,1,.922-.709A64.786,64.786,0,0,0,12.636,47c1.6-1.383,3.155-2.8,4.609-4.325.266-.266.532-.567.78-.851A76.778,76.778,0,0,0,28.217,28.375Zm0,0" transform="translate(0 -26.004)" fill="#e0f4ff"/>
    <path id="Path_111" data-name="Path 111" d="M69.647,101.348l6.1,6.1a76.234,76.234,0,0,0-12.6,9.412l-5.016,1.471-.159,3.74A63.216,63.216,0,0,0,49.9,133.291a4.556,4.556,0,0,1-.709.921c-2.482,2.482-7.161,1.7-10.635-1.772Zm0,0" transform="translate(-35.333 -92.879)" fill="#bbdcff"/>
    <path id="Path_112" data-name="Path 112" d="M330.5,1.449a4.537,4.537,0,0,0-.709.922c-1.56,2.623-.514,6.718,2.482,9.713s7.09,4.042,9.713,2.482a4.559,4.559,0,0,0,.922-.709c2.482-2.482,1.7-7.161-1.772-10.635S332.984-1.033,330.5,1.449Zm0,0" transform="translate(-301.577 0)" fill="#bbdcff"/>
    <path id="Path_113" data-name="Path 113" d="M376.242,38.555c3.474,3.474,4.254,8.154,1.773,10.635a4.578,4.578,0,0,1-.922.709c-2.623,1.56-6.718.514-9.714-2.482Zm0,0" transform="translate(-336.681 -35.333)" fill="#9abadb"/>
    <path id="Path_114" data-name="Path 114" d="M153.557,163.65a11.015,11.015,0,0,0,6.806,2.2c-1.808,1.666-3.527,3.385-5.176,5.211a11.806,11.806,0,0,1-6.47-2.57c-3.811-3.209-3.988-8.171-4.077-8.331l5.353-5.353c.088.443.8,3.917.851,4.183A7.559,7.559,0,0,0,153.557,163.65Zm0,0" transform="translate(-132.554 -141.87)" fill="#fdbf00"/>
    <path id="Path_115" data-name="Path 115" d="M205.075,262.854c-1.808,1.666-3.527,3.385-5.176,5.211a11.806,11.806,0,0,1-6.47-2.57l4.839-4.839A11.015,11.015,0,0,0,205.075,262.854Zm0,0" transform="translate(-177.266 -238.876)" fill="#ff9100"/>
  </g>
</svg>
