<svg xmlns="http://www.w3.org/2000/svg" xmlns:xlink="http://www.w3.org/1999/xlink" width="48" height="48" viewBox="0 0 48 48"><defs><filter id="a" x="0" y="0" width="48" height="48" filterUnits="userSpaceOnUse"><feOffset dy="3" input="SourceAlpha"/><feGaussianBlur stdDeviation="3" result="b"/><feFlood flood-opacity="0.161"/><feComposite operator="in" in2="b"/><feComposite in="SourceGraphic"/></filter></defs><g transform="matrix(1, 0, 0, 1, 0, 0)" filter="url(#a)"><path d="M18,3A15,15,0,1,0,33,18a14.074,14.074,0,0,0-.217-2.5,1.747,1.747,0,0,0-1.45-.833H28V13a1.632,1.632,0,0,0-1.667-1.667H23V9.667A1.632,1.632,0,0,0,21.333,8H19.667V4.667A1.632,1.632,0,0,0,18,3M13.833,8a2.5,2.5,0,1,1-2.5,2.5,2.5,2.5,0,0,1,2.5-2.5m-5,6.667a2.5,2.5,0,1,1-2.5,2.5,2.5,2.5,0,0,1,2.5-2.5m8.333,1.667a2.5,2.5,0,1,1-2.5,2.5,2.5,2.5,0,0,1,2.5-2.5M25.5,19.667a2.5,2.5,0,0,1,0,5h0a2.5,2.5,0,0,1-2.5-2.5h0a2.5,2.5,0,0,1,2.5-2.5m-9.167,5a2.5,2.5,0,1,1-2.5,2.5A2.5,2.5,0,0,1,16.333,24.667Z" transform="translate(6 3)" fill="#fff"/></g></svg>