<svg xmlns="http://www.w3.org/2000/svg" xmlns:xlink="http://www.w3.org/1999/xlink" viewBox="0 0 50.94 53.11"><defs><style>.cls-1{opacity:0.3;}.cls-2{fill:url(#New_Gradient_Swatch_2);}.cls-3{fill:url(#linear-gradient);}.cls-4{fill:#301a08;}.cls-5{fill:url(#radial-gradient);}.cls-6{fill:#ff6a00;}</style><linearGradient id="New_Gradient_Swatch_2" x1="35.09" y1="55.85" x2="16.41" y2="-3.16" gradientUnits="userSpaceOnUse"><stop offset="0.07" stop-color="#ffa345"/><stop offset="0.35" stop-color="#ffbb45"/><stop offset="0.73" stop-color="#ffe545"/><stop offset="0.91" stop-color="#fff645"/></linearGradient><linearGradient id="linear-gradient" x1="27.21" y1="-28.82" x2="24.29" y2="58.12" gradientUnits="userSpaceOnUse"><stop offset="0" stop-color="#ffa345"/><stop offset="0.52" stop-color="#ffbb45"/><stop offset="0.82" stop-color="#ffe545"/><stop offset="0.96" stop-color="#fff494"/></linearGradient><radialGradient id="radial-gradient" cx="49.48" cy="25.39" r="21.65" gradientTransform="translate(-23.52 0.38) scale(0.99 0.99)" gradientUnits="userSpaceOnUse"><stop offset="0.09" stop-color="#ff6a00"/><stop offset="0.2" stop-color="#f66400"/><stop offset="0.39" stop-color="#de5200"/><stop offset="0.63" stop-color="#b63500"/><stop offset="0.91" stop-color="#800e00"/><stop offset="0.99" stop-color="#6d0000"/></radialGradient></defs><title>Asset 9</title><g id="Layer_2" data-name="Layer 2"><g id="Layer_19" data-name="Layer 19"><rect class="cls-1" y="2.17" width="50.94" height="50.94" rx="3.08"/><rect class="cls-2" width="50.94" height="50.94" rx="3.08"/><rect class="cls-3" x="2.83" y="2.51" width="45.14" height="45.46" rx="3.2"/><rect class="cls-4" x="3.69" y="3.38" width="43.4" height="43.71" rx="3.08"/><path class="cls-5" d="M46.54,7V43.82a3,3,0,0,1-3,3H7a1.84,1.84,0,0,1-.41,0,2.39,2.39,0,0,1-.6-.14,3,3,0,0,1-2-2.84V7A3,3,0,0,1,7,4h36.5A3.44,3.44,0,0,1,44,4,3,3,0,0,1,46.54,7Z"/><path class="cls-6" d="M7.08,26.11c.08-.25,1.31-1.9,3.24-4.41A42.86,42.86,0,0,1,7.08,26.11Z"/></g></g></svg>