<svg xmlns="http://www.w3.org/2000/svg" xmlns:xlink="http://www.w3.org/1999/xlink" viewBox="0 0 57.89 59.6"><defs><style>.cls-1{mask:url(#mask);filter:url(#luminosity-noclip-20);}.cls-10,.cls-12,.cls-14,.cls-16,.cls-18,.cls-2,.cls-20,.cls-22,.cls-24,.cls-26,.cls-28,.cls-30,.cls-32,.cls-34,.cls-36,.cls-38,.cls-4,.cls-6,.cls-8{mix-blend-mode:multiply;}.cls-2{fill:url(#linear-gradient);}.cls-3{mask:url(#mask-2);filter:url(#luminosity-noclip-25);}.cls-4{fill:url(#linear-gradient-2);}.cls-5{mask:url(#mask-3);filter:url(#luminosity-noclip-26);}.cls-6{fill:url(#linear-gradient-3);}.cls-7{mask:url(#mask-4);filter:url(#luminosity-noclip-27);}.cls-8{fill:url(#linear-gradient-4);}.cls-9{mask:url(#mask-5);filter:url(#luminosity-noclip-28);}.cls-10{fill:url(#linear-gradient-5);}.cls-11{mask:url(#mask-6);filter:url(#luminosity-noclip-29);}.cls-12{fill:url(#linear-gradient-6);}.cls-13{mask:url(#mask-7);filter:url(#luminosity-noclip-21);}.cls-14{fill:url(#linear-gradient-7);}.cls-15{mask:url(#mask-8);filter:url(#luminosity-noclip-30);}.cls-16{fill:url(#linear-gradient-8);}.cls-17{mask:url(#mask-9);filter:url(#luminosity-noclip-31);}.cls-18{fill:url(#linear-gradient-9);}.cls-19{mask:url(#mask-10);filter:url(#luminosity-noclip-32);}.cls-20{fill:url(#linear-gradient-10);}.cls-21{mask:url(#mask-11);filter:url(#luminosity-noclip-33);}.cls-22{fill:url(#linear-gradient-11);}.cls-23{mask:url(#mask-12);filter:url(#luminosity-noclip-34);}.cls-24{fill:url(#linear-gradient-12);}.cls-25{mask:url(#mask-13);filter:url(#luminosity-noclip-35);}.cls-26{fill:url(#linear-gradient-13);}.cls-27{mask:url(#mask-14);filter:url(#luminosity-noclip-36);}.cls-28{fill:url(#linear-gradient-14);}.cls-29{mask:url(#mask-15);filter:url(#luminosity-noclip-37);}.cls-30{fill:url(#linear-gradient-15);}.cls-31{mask:url(#mask-16);filter:url(#luminosity-noclip-38);}.cls-32{fill:url(#linear-gradient-16);}.cls-33{mask:url(#mask-17);filter:url(#luminosity-noclip-22);}.cls-34{fill:url(#linear-gradient-17);}.cls-35{mask:url(#mask-18);filter:url(#luminosity-noclip-23);}.cls-36{fill:url(#linear-gradient-18);}.cls-37{mask:url(#mask-19);filter:url(#luminosity-noclip-24);}.cls-38{fill:url(#linear-gradient-19);}.cls-39{opacity:0.2;}.cls-40{fill:#00000a;}.cls-41{fill:#1e3c5d;}.cls-42{fill:#7796b7;}.cls-43{fill:#8caacc;}.cls-44{fill:#95b3d5;}.cls-45{fill:#1e3d5e;}.cls-46{fill:#ce0000;}.cls-47{fill:#486788;}.cls-48{fill:#890000;}.cls-49{fill:#650000;}.cls-50{fill:red;}.cls-51{fill:#47190a;}.cls-52{fill:#ffa905;}.cls-53{mask:url(#mask-20);}.cls-54{fill:url(#linear-gradient-20);}.cls-55{fill:#fff;}.cls-56{mask:url(#mask-21);}.cls-57{fill:url(#linear-gradient-21);}.cls-58{fill:#ea9000;}.cls-59{fill:#fd6502;}.cls-60{fill:url(#linear-gradient-22);}.cls-61{mask:url(#mask-22);}.cls-62{fill:url(#linear-gradient-23);}.cls-63{mask:url(#mask-23);}.cls-64{fill:url(#linear-gradient-24);}.cls-65{mask:url(#mask-24);}.cls-66{fill:url(#linear-gradient-25);}.cls-67{fill:url(#linear-gradient-26);}.cls-68{fill:url(#linear-gradient-27);}.cls-69{mask:url(#mask-25);}.cls-70{fill:url(#linear-gradient-28);}.cls-71{mask:url(#mask-26);}.cls-72{fill:url(#linear-gradient-29);}.cls-73{fill:#ffe07a;}.cls-74{mask:url(#mask-27);}.cls-75{fill:url(#linear-gradient-30);}.cls-76{fill:url(#linear-gradient-31);}.cls-77{mask:url(#mask-28);}.cls-78{fill:url(#linear-gradient-32);}.cls-79{fill:#be4c0b;}.cls-80{mask:url(#mask-29);}.cls-81{fill:url(#linear-gradient-33);}.cls-82{mask:url(#mask-30);}.cls-83{fill:url(#linear-gradient-34);}.cls-84{mask:url(#mask-31);}.cls-85{fill:url(#linear-gradient-35);}.cls-86{mask:url(#mask-32);}.cls-87{fill:url(#linear-gradient-36);}.cls-88{fill:url(#linear-gradient-37);}.cls-89{fill:url(#linear-gradient-38);}.cls-90{mask:url(#mask-33);}.cls-91{fill:url(#linear-gradient-39);}.cls-92{mask:url(#mask-34);}.cls-93{fill:url(#linear-gradient-40);}.cls-94{mask:url(#mask-35);}.cls-95{fill:url(#linear-gradient-41);}.cls-96{mask:url(#mask-36);}.cls-97{fill:url(#linear-gradient-42);}.cls-98{fill:url(#linear-gradient-43);}.cls-99{mask:url(#mask-37);}.cls-100{fill:url(#linear-gradient-44);}.cls-101{mask:url(#mask-38);}.cls-102{fill:url(#linear-gradient-45);}.cls-103{filter:url(#luminosity-noclip-19);}.cls-104{filter:url(#luminosity-noclip-18);}.cls-105{filter:url(#luminosity-noclip-17);}.cls-106{filter:url(#luminosity-noclip-16);}.cls-107{filter:url(#luminosity-noclip-15);}.cls-108{filter:url(#luminosity-noclip-14);}.cls-109{filter:url(#luminosity-noclip-13);}.cls-110{filter:url(#luminosity-noclip-12);}.cls-111{filter:url(#luminosity-noclip-11);}.cls-112{filter:url(#luminosity-noclip-10);}.cls-113{filter:url(#luminosity-noclip-9);}.cls-114{filter:url(#luminosity-noclip-8);}.cls-115{filter:url(#luminosity-noclip-7);}.cls-116{filter:url(#luminosity-noclip-6);}.cls-117{filter:url(#luminosity-noclip-5);}.cls-118{filter:url(#luminosity-noclip-4);}.cls-119{filter:url(#luminosity-noclip-3);}.cls-120{filter:url(#luminosity-noclip-2);}.cls-121{filter:url(#luminosity-noclip);}</style><filter id="luminosity-noclip" x="49.01" y="-7959.68" width="6.63" height="32766" filterUnits="userSpaceOnUse" color-interpolation-filters="sRGB"><feFlood flood-color="#fff" result="bg"/><feBlend in="SourceGraphic" in2="bg"/></filter><mask id="mask" x="49.01" y="-7959.68" width="6.63" height="32766" maskUnits="userSpaceOnUse"><g class="cls-121"/></mask><linearGradient id="linear-gradient" x1="-12.15" y1="52.17" x2="-6.16" y2="56.31" gradientTransform="matrix(-1, 0, 0, 1, 42.82, 0)" gradientUnits="userSpaceOnUse"><stop offset="0"/><stop offset="0.91" stop-color="#fff"/></linearGradient><filter id="luminosity-noclip-2" x="20.36" y="-7959.68" width="33.08" height="32766" filterUnits="userSpaceOnUse" color-interpolation-filters="sRGB"><feFlood flood-color="#fff" result="bg"/><feBlend in="SourceGraphic" in2="bg"/></filter><mask id="mask-2" x="20.36" y="-7959.68" width="33.08" height="32766" maskUnits="userSpaceOnUse"><g class="cls-120"/></mask><linearGradient id="linear-gradient-2" x1="27.06" y1="9.61" x2="-8.35" y2="52.64" gradientTransform="matrix(-1, 0, 0, 1, 42.82, 0)" gradientUnits="userSpaceOnUse"><stop offset="0.2"/><stop offset="0.87" stop-color="#e3e3e3"/></linearGradient><filter id="luminosity-noclip-3" x="13.07" y="-7959.68" width="40.02" height="32766" filterUnits="userSpaceOnUse" color-interpolation-filters="sRGB"><feFlood flood-color="#fff" result="bg"/><feBlend in="SourceGraphic" in2="bg"/></filter><mask id="mask-3" x="13.07" y="-7959.68" width="40.02" height="32766" maskUnits="userSpaceOnUse"><g class="cls-119"/></mask><linearGradient id="linear-gradient-3" x1="-0.02" y1="52.81" x2="27.93" y2="13.62" gradientTransform="matrix(-1, 0, 0, 1, 42.82, 0)" gradientUnits="userSpaceOnUse"><stop offset="0"/><stop offset="0.07" stop-color="#080808"/><stop offset="0.18" stop-color="#1d1d1d"/><stop offset="0.32" stop-color="#414141"/><stop offset="0.48" stop-color="#727272"/><stop offset="0.65" stop-color="#b1b1b1"/><stop offset="0.84" stop-color="#fcfcfc"/><stop offset="0.85" stop-color="#fff"/></linearGradient><filter id="luminosity-noclip-4" x="5.09" y="-7959.68" width="18.67" height="32766" filterUnits="userSpaceOnUse" color-interpolation-filters="sRGB"><feFlood flood-color="#fff" result="bg"/><feBlend in="SourceGraphic" in2="bg"/></filter><mask id="mask-4" x="5.09" y="-7959.68" width="18.67" height="32766" maskUnits="userSpaceOnUse"><g class="cls-118"/></mask><linearGradient id="linear-gradient-4" x1="20.93" y1="10.73" x2="37.9" y2="22.47" xlink:href="#linear-gradient"/><filter id="luminosity-noclip-5" x="21.42" y="-7959.68" width="3.13" height="32766" filterUnits="userSpaceOnUse" color-interpolation-filters="sRGB"><feFlood flood-color="#fff" result="bg"/><feBlend in="SourceGraphic" in2="bg"/></filter><mask id="mask-5" x="21.42" y="-7959.68" width="3.13" height="32766" maskUnits="userSpaceOnUse"><g class="cls-117"/></mask><linearGradient id="linear-gradient-5" x1="24.08" y1="3.72" x2="18.56" y2="10.28" gradientTransform="matrix(-1, 0, 0, 1, 42.82, 0)" gradientUnits="userSpaceOnUse"><stop offset="0.29"/><stop offset="0.95" stop-color="#e3e3e3"/></linearGradient><filter id="luminosity-noclip-6" x="32.54" y="-7959.68" width="16.7" height="32766" filterUnits="userSpaceOnUse" color-interpolation-filters="sRGB"><feFlood flood-color="#fff" result="bg"/><feBlend in="SourceGraphic" in2="bg"/></filter><mask id="mask-6" x="32.54" y="-7959.68" width="16.7" height="32766" maskUnits="userSpaceOnUse"><g class="cls-116"/></mask><linearGradient id="linear-gradient-6" x1="-6.42" y1="36.83" x2="10.28" y2="36.83" xlink:href="#linear-gradient-5"/><filter id="luminosity-noclip-7" x="47.98" y="-7959.68" width="1.53" height="32766" filterUnits="userSpaceOnUse" color-interpolation-filters="sRGB"><feFlood flood-color="#fff" result="bg"/><feBlend in="SourceGraphic" in2="bg"/></filter><mask id="mask-7" x="47.98" y="-7959.68" width="1.53" height="32766" maskUnits="userSpaceOnUse"><g class="cls-115"/></mask><linearGradient id="linear-gradient-7" x1="-6.7" y1="55.45" x2="-5.17" y2="55.45" xlink:href="#linear-gradient-5"/><filter id="luminosity-noclip-8" x="8.37" y="-7959.68" width="1.53" height="32766" filterUnits="userSpaceOnUse" color-interpolation-filters="sRGB"><feFlood flood-color="#fff" result="bg"/><feBlend in="SourceGraphic" in2="bg"/></filter><mask id="mask-8" x="8.37" y="-7959.68" width="1.53" height="32766" maskUnits="userSpaceOnUse"><g class="cls-114"/></mask><linearGradient id="linear-gradient-8" x1="8.37" y1="55.45" x2="9.9" y2="55.45" gradientTransform="matrix(1, 0, 0, 1, 0, 0)" xlink:href="#linear-gradient-5"/><filter id="luminosity-noclip-9" x="3.23" y="-7959.68" width="22.46" height="32766" filterUnits="userSpaceOnUse" color-interpolation-filters="sRGB"><feFlood flood-color="#fff" result="bg"/><feBlend in="SourceGraphic" in2="bg"/></filter><mask id="mask-9" x="3.23" y="-7959.68" width="22.46" height="32766" maskUnits="userSpaceOnUse"><g class="cls-113"/></mask><linearGradient id="linear-gradient-9" x1="-884" y1="-1000.68" x2="-896.85" y2="-1019.54" gradientTransform="matrix(0.69, -0.72, 0.72, 0.69, 1358.7, 85.66)" gradientUnits="userSpaceOnUse"><stop offset="0.2"/><stop offset="0.83" stop-color="#e3e3e3"/></linearGradient><filter id="luminosity-noclip-10" x="5.26" y="-7959.68" width="15.97" height="32766" filterUnits="userSpaceOnUse" color-interpolation-filters="sRGB"><feFlood flood-color="#fff" result="bg"/><feBlend in="SourceGraphic" in2="bg"/></filter><mask id="mask-10" x="5.26" y="-7959.68" width="15.97" height="32766" maskUnits="userSpaceOnUse"><g class="cls-112"/></mask><linearGradient id="linear-gradient-10" x1="-891.71" y1="-1017.52" x2="-878.08" y2="-1012.37" xlink:href="#linear-gradient-9"/><filter id="luminosity-noclip-11" x="4.45" y="-7959.68" width="33.08" height="32766" filterUnits="userSpaceOnUse" color-interpolation-filters="sRGB"><feFlood flood-color="#fff" result="bg"/><feBlend in="SourceGraphic" in2="bg"/></filter><mask id="mask-11" x="4.45" y="-7959.68" width="33.08" height="32766" maskUnits="userSpaceOnUse"><g class="cls-111"/></mask><linearGradient id="linear-gradient-11" x1="42.13" y1="9.61" x2="6.72" y2="52.64" gradientTransform="matrix(1, 0, 0, 1, 0, 0)" xlink:href="#linear-gradient-2"/><filter id="luminosity-noclip-12" x="4.79" y="-7959.68" width="40.02" height="32766" filterUnits="userSpaceOnUse" color-interpolation-filters="sRGB"><feFlood flood-color="#fff" result="bg"/><feBlend in="SourceGraphic" in2="bg"/></filter><mask id="mask-12" x="4.79" y="-7959.68" width="40.02" height="32766" maskUnits="userSpaceOnUse"><g class="cls-110"/></mask><linearGradient id="linear-gradient-12" x1="15.05" y1="52.81" x2="43" y2="13.62" gradientTransform="matrix(1, 0, 0, 1, 0, 0)" xlink:href="#linear-gradient-3"/><filter id="luminosity-noclip-13" x="34.13" y="-7959.68" width="18.67" height="32766" filterUnits="userSpaceOnUse" color-interpolation-filters="sRGB"><feFlood flood-color="#fff" result="bg"/><feBlend in="SourceGraphic" in2="bg"/></filter><mask id="mask-13" x="34.13" y="-7959.68" width="18.67" height="32766" maskUnits="userSpaceOnUse"><g class="cls-109"/></mask><linearGradient id="linear-gradient-13" x1="36" y1="10.73" x2="52.97" y2="22.47" gradientTransform="matrix(1, 0, 0, 1, 0, 0)" xlink:href="#linear-gradient"/><filter id="luminosity-noclip-14" x="53.21" y="-7959.68" width="2.84" height="32766" filterUnits="userSpaceOnUse" color-interpolation-filters="sRGB"><feFlood flood-color="#fff" result="bg"/><feBlend in="SourceGraphic" in2="bg"/></filter><mask id="mask-14" x="53.21" y="-7959.68" width="2.84" height="32766" maskUnits="userSpaceOnUse"><g class="cls-108"/></mask><linearGradient id="linear-gradient-14" x1="53.21" y1="21.65" x2="56.05" y2="21.65" gradientTransform="matrix(1, 0, 0, 1, 0, 0)" xlink:href="#linear-gradient-5"/><filter id="luminosity-noclip-15" x="33.33" y="-7959.68" width="3.13" height="32766" filterUnits="userSpaceOnUse" color-interpolation-filters="sRGB"><feFlood flood-color="#fff" result="bg"/><feBlend in="SourceGraphic" in2="bg"/></filter><mask id="mask-15" x="33.33" y="-7959.68" width="3.13" height="32766" maskUnits="userSpaceOnUse"><g class="cls-107"/></mask><linearGradient id="linear-gradient-15" x1="39.15" y1="3.72" x2="33.62" y2="10.28" gradientTransform="matrix(1, 0, 0, 1, 0, 0)" xlink:href="#linear-gradient-5"/><filter id="luminosity-noclip-16" x="8.65" y="-7959.68" width="16.7" height="32766" filterUnits="userSpaceOnUse" color-interpolation-filters="sRGB"><feFlood flood-color="#fff" result="bg"/><feBlend in="SourceGraphic" in2="bg"/></filter><mask id="mask-16" x="8.65" y="-7959.68" width="16.7" height="32766" maskUnits="userSpaceOnUse"><g class="cls-106"/></mask><linearGradient id="linear-gradient-16" x1="8.65" y1="36.83" x2="25.35" y2="36.83" gradientTransform="matrix(1, 0, 0, 1, 0, 0)" xlink:href="#linear-gradient-5"/><filter id="luminosity-noclip-17" x="54.02" y="-7959.68" width="1.94" height="32766" filterUnits="userSpaceOnUse" color-interpolation-filters="sRGB"><feFlood flood-color="#fff" result="bg"/><feBlend in="SourceGraphic" in2="bg"/></filter><mask id="mask-17" x="54.02" y="-7959.68" width="1.94" height="32766" maskUnits="userSpaceOnUse"><g class="cls-105"/></mask><linearGradient id="linear-gradient-17" x1="-10.03" y1="48.9" x2="-12.83" y2="52.22" xlink:href="#linear-gradient-5"/><filter id="luminosity-noclip-18" x="32.2" y="-7959.68" width="22.46" height="32766" filterUnits="userSpaceOnUse" color-interpolation-filters="sRGB"><feFlood flood-color="#fff" result="bg"/><feBlend in="SourceGraphic" in2="bg"/></filter><mask id="mask-18" x="32.2" y="-7959.68" width="22.46" height="32766" maskUnits="userSpaceOnUse"><g class="cls-104"/></mask><linearGradient id="linear-gradient-18" x1="-894.39" y1="-1011.59" x2="-907.24" y2="-1030.45" gradientTransform="matrix(-0.69, -0.72, -0.72, 0.69, -1315.88, 85.66)" xlink:href="#linear-gradient-9"/><filter id="luminosity-noclip-19" x="36.65" y="-7959.68" width="15.97" height="32766" filterUnits="userSpaceOnUse" color-interpolation-filters="sRGB"><feFlood flood-color="#fff" result="bg"/><feBlend in="SourceGraphic" in2="bg"/></filter><mask id="mask-19" x="36.65" y="-7959.68" width="15.97" height="32766" maskUnits="userSpaceOnUse"><g class="cls-103"/></mask><linearGradient id="linear-gradient-19" x1="-902.1" y1="-1028.43" x2="-888.47" y2="-1023.28" gradientTransform="matrix(-0.69, -0.72, -0.72, 0.69, -1315.88, 85.66)" xlink:href="#linear-gradient-9"/><filter id="luminosity-noclip-20" x="49.01" y="49.53" width="6.63" height="7.95" filterUnits="userSpaceOnUse" color-interpolation-filters="sRGB"><feFlood flood-color="#fff" result="bg"/><feBlend in="SourceGraphic" in2="bg"/></filter><mask id="mask-20" x="49.01" y="49.53" width="6.63" height="7.95" maskUnits="userSpaceOnUse"><g class="cls-1"><path class="cls-2" d="M53.31,54.9c2.4-2.31,2.25-4.18,1.58-5.37l.11.08h0c1,.89,1,3.33-1.51,6.06-2.07,2.25-4.6,2.07-4.48,1.19C49.26,55,50.65,57.46,53.31,54.9Z"/></g></mask><linearGradient id="linear-gradient-20" x1="-12.15" y1="52.17" x2="-6.16" y2="56.31" gradientTransform="matrix(-1, 0, 0, 1, 42.82, 0)" gradientUnits="userSpaceOnUse"><stop offset="0" stop-color="#ba4b0c"/><stop offset="0.91" stop-color="#be4c0b"/></linearGradient><filter id="luminosity-noclip-21" x="47.98" y="53.38" width="1.53" height="4.13" filterUnits="userSpaceOnUse" color-interpolation-filters="sRGB"><feFlood flood-color="#fff" result="bg"/><feBlend in="SourceGraphic" in2="bg"/></filter><mask id="mask-21" x="47.98" y="53.38" width="1.53" height="4.13" maskUnits="userSpaceOnUse"><g class="cls-13"><path class="cls-14" d="M48.46,57.16s0,0,0,0a2.11,2.11,0,0,0,.29.2,2,2,0,0,0,.25.14c-.15-.14-.1-.31-.35-.84s1.36-.53.7-1-.24-2.28-.24-2.28a1.47,1.47,0,0,1-.41.15,7.26,7.26,0,0,0-.5,1.13C47.85,55.75,47.91,56.68,48.46,57.16Z"/></g></mask><linearGradient id="linear-gradient-21" x1="-6.7" y1="55.45" x2="-5.17" y2="55.45" gradientTransform="matrix(-1, 0, 0, 1, 42.82, 0)" gradientUnits="userSpaceOnUse"><stop offset="0.29" stop-color="#fdffa3"/><stop offset="0.95" stop-color="#fdffa3"/></linearGradient><linearGradient id="linear-gradient-22" x1="-7.18" y1="51.38" x2="-10.32" y2="54.25" gradientTransform="matrix(-1, 0, 0, 1, 42.82, 0)" gradientUnits="userSpaceOnUse"><stop offset="0.36" stop-color="#be4c0b"/><stop offset="0.43" stop-color="#b6490b"/><stop offset="0.53" stop-color="#a14009"/><stop offset="0.66" stop-color="#7d3207"/><stop offset="0.8" stop-color="#4c1f04"/><stop offset="0.97" stop-color="#0e0601"/><stop offset="1"/></linearGradient><filter id="luminosity-noclip-22" x="54.02" y="49.63" width="1.94" height="3.85" filterUnits="userSpaceOnUse" color-interpolation-filters="sRGB"><feFlood flood-color="#fff" result="bg"/><feBlend in="SourceGraphic" in2="bg"/></filter><mask id="mask-22" x="54.02" y="49.63" width="1.94" height="3.85" maskUnits="userSpaceOnUse"><g class="cls-33"><path class="cls-34" d="M54.79,49.7a.58.58,0,0,1,.81.24,3.57,3.57,0,0,1,.31.8,3.34,3.34,0,0,1-.07,1.44c-.09.33-.23,1-.63,1.23s-.56,0-.57-.24.17-.55-.09-.72S54,52.42,54,52s.1-.74.16-1.1a2.54,2.54,0,0,1,.26-.93A.67.67,0,0,1,54.79,49.7Z"/></g></mask><linearGradient id="linear-gradient-23" x1="-10.03" y1="48.9" x2="-12.83" y2="52.22" xlink:href="#linear-gradient-21"/><filter id="luminosity-noclip-23" x="32.2" y="22.92" width="22.46" height="22.84" filterUnits="userSpaceOnUse" color-interpolation-filters="sRGB"><feFlood flood-color="#fff" result="bg"/><feBlend in="SourceGraphic" in2="bg"/></filter><mask id="mask-23" x="32.2" y="22.92" width="22.46" height="22.84" maskUnits="userSpaceOnUse"><g class="cls-35"><path class="cls-36" d="M34.48,24.94A7.83,7.83,0,0,0,34.5,36l6.83,7.17a7.63,7.63,0,1,0,11-10.5L45.53,25.5A7.84,7.84,0,0,0,34.48,24.94ZM37,27.63a4.27,4.27,0,0,1,6,0l7,7.31a4.37,4.37,0,0,1-6.32,6l-7-7.31A4.27,4.27,0,0,1,37,27.63Z"/></g></mask><linearGradient id="linear-gradient-24" x1="-894.39" y1="-1011.59" x2="-907.24" y2="-1030.45" gradientTransform="matrix(-0.69, -0.72, -0.72, 0.69, -1315.88, 85.66)" gradientUnits="userSpaceOnUse"><stop offset="0.2" stop-color="#fdffa3"/><stop offset="0.83" stop-color="#fdffa3"/></linearGradient><filter id="luminosity-noclip-24" x="36.65" y="22.95" width="15.97" height="10.05" filterUnits="userSpaceOnUse" color-interpolation-filters="sRGB"><feFlood flood-color="#fff" result="bg"/><feBlend in="SourceGraphic" in2="bg"/></filter><mask id="mask-24" x="36.65" y="22.95" width="15.97" height="10.05" maskUnits="userSpaceOnUse"><g class="cls-37"><path class="cls-38" d="M52.62,33s-6.55-7-7.56-7.9S40,21.87,37.6,23.56s.23,1.65,1.69,1.61,4.44-.26,6.86,2S52.62,33,52.62,33Z"/></g></mask><linearGradient id="linear-gradient-25" x1="-902.1" y1="-1028.43" x2="-888.47" y2="-1023.28" xlink:href="#linear-gradient-24"/><linearGradient id="linear-gradient-26" x1="-10.62" y1="36.36" x2="1.78" y2="46.12" gradientTransform="matrix(-1, 0, 0, 1, 42.82, 0)" gradientUnits="userSpaceOnUse"><stop offset="0.17" stop-color="#be4c0b"/><stop offset="0.36" stop-color="#be4c0b"/><stop offset="0.4" stop-color="#b6490b"/><stop offset="0.46" stop-color="#a14009"/><stop offset="0.54" stop-color="#7d3207"/><stop offset="0.63" stop-color="#4c1f04"/><stop offset="0.72" stop-color="#0e0601"/><stop offset="0.74"/></linearGradient><linearGradient id="linear-gradient-27" x1="29.79" y1="19" x2="-4.91" y2="61.17" gradientTransform="matrix(-1, 0, 0, 1, 42.82, 0)" gradientUnits="userSpaceOnUse"><stop offset="0.36" stop-color="#be4c0b"/><stop offset="0.47" stop-color="#c3540a"/><stop offset="0.64" stop-color="#d36909"/><stop offset="0.85" stop-color="#eb8c07"/><stop offset="1" stop-color="#ffa905"/></linearGradient><filter id="luminosity-noclip-25" x="20.36" y="13.03" width="33.08" height="39.75" filterUnits="userSpaceOnUse" color-interpolation-filters="sRGB"><feFlood flood-color="#fff" result="bg"/><feBlend in="SourceGraphic" in2="bg"/></filter><mask id="mask-25" x="20.36" y="13.03" width="33.08" height="39.75" maskUnits="userSpaceOnUse"><g class="cls-3"><path class="cls-4" d="M23.12,13c-.12.35-.12,8.16,3.79,11.37S53.44,50.83,53.44,50.83s0,1.61-.58,2S26.56,28,24.38,25.57,19.56,19.36,20.59,16,23.12,13,23.12,13Z"/></g></mask><linearGradient id="linear-gradient-28" x1="27.06" y1="9.61" x2="-8.35" y2="52.64" gradientTransform="matrix(-1, 0, 0, 1, 42.82, 0)" gradientUnits="userSpaceOnUse"><stop offset="0.2" stop-color="#fdffa3"/><stop offset="0.87" stop-color="#fdffa3"/></linearGradient><filter id="luminosity-noclip-26" x="13.07" y="15.68" width="40.02" height="39.28" filterUnits="userSpaceOnUse" color-interpolation-filters="sRGB"><feFlood flood-color="#fff" result="bg"/><feBlend in="SourceGraphic" in2="bg"/></filter><mask id="mask-26" x="13.07" y="15.68" width="40.02" height="39.28" maskUnits="userSpaceOnUse"><g class="cls-5"><path class="cls-6" d="M21.62,15.68s-.45,6.32,1.95,9.19S50,50.37,51.37,51.4a5,5,0,0,1,1.73,2.07S52,55,51.49,55,21.05,27.52,19.9,26.83A28.54,28.54,0,0,0,13.12,25C12.32,25,21.28,17.64,21.62,15.68Z"/></g></mask><linearGradient id="linear-gradient-29" x1="-0.02" y1="52.81" x2="27.93" y2="13.62" gradientTransform="matrix(-1, 0, 0, 1, 42.82, 0)" gradientUnits="userSpaceOnUse"><stop offset="0" stop-color="#be4c0b"/><stop offset="0.14" stop-color="#b64a0c"/><stop offset="0.37" stop-color="#a1430f"/><stop offset="0.64" stop-color="#7e3914"/><stop offset="0.85" stop-color="#5e3018"/></linearGradient><filter id="luminosity-noclip-27" x="5.09" y="3.2" width="18.67" height="22.74" filterUnits="userSpaceOnUse" color-interpolation-filters="sRGB"><feFlood flood-color="#fff" result="bg"/><feBlend in="SourceGraphic" in2="bg"/></filter><mask id="mask-27" x="5.09" y="3.2" width="18.67" height="22.74" maskUnits="userSpaceOnUse"><g class="cls-7"><path class="cls-8" d="M17.09,18.56C24,12,23.54,6.59,21.61,3.2a2.27,2.27,0,0,1,.32.22s0,0,0,0C24.85,6,24.81,13,17.63,20.8c-5.92,6.44-12.2,5.77-12.54,3.67C5.75,24.13,9.48,25.88,17.09,18.56Z"/></g></mask><linearGradient id="linear-gradient-30" x1="20.93" y1="10.73" x2="37.9" y2="22.47" xlink:href="#linear-gradient-20"/><linearGradient id="linear-gradient-31" x1="35.09" y1="8.46" x2="23.67" y2="18.9" xlink:href="#linear-gradient-22"/><filter id="luminosity-noclip-28" x="21.42" y="5.01" width="3.13" height="7.85" filterUnits="userSpaceOnUse" color-interpolation-filters="sRGB"><feFlood flood-color="#fff" result="bg"/><feBlend in="SourceGraphic" in2="bg"/></filter><mask id="mask-28" x="21.42" y="5.01" width="3.13" height="7.85" maskUnits="userSpaceOnUse"><g class="cls-9"><path class="cls-10" d="M22.67,5.15a.85.85,0,0,1,1.3.49,9.61,9.61,0,0,1,.51,1.63,8.49,8.49,0,0,1-.13,2.93c-.14.68-.37,2.09-1,2.51-.48.32-.89.09-.91-.47s.28-1.13-.15-1.48-.89-.07-.84-.85.14-1.49.25-2.24a7.25,7.25,0,0,1,.41-1.9A1.4,1.4,0,0,1,22.67,5.15Z"/></g></mask><linearGradient id="linear-gradient-32" x1="24.08" y1="3.72" x2="18.56" y2="10.28" xlink:href="#linear-gradient-21"/><filter id="luminosity-noclip-29" x="32.54" y="25.43" width="16.7" height="22.8" filterUnits="userSpaceOnUse" color-interpolation-filters="sRGB"><feFlood flood-color="#fff" result="bg"/><feBlend in="SourceGraphic" in2="bg"/></filter><mask id="mask-29" x="32.54" y="25.43" width="16.7" height="22.8" maskUnits="userSpaceOnUse"><g class="cls-11"><path class="cls-12" d="M33.92,25.54c-.06,0-3.67,5.77,1,10.15,4.92,4.78,6.21,6.15,11.28,10.69,7,4.62-.39-.89-.39-.89s-5.77-5.71-10.18-10.56c-1-1.23-2.43-2.83-2.26-4.43C33.85,26.22,35,25,33.92,25.54Z"/></g></mask><linearGradient id="linear-gradient-33" x1="-6.42" y1="36.83" x2="10.28" y2="36.83" xlink:href="#linear-gradient-21"/><filter id="luminosity-noclip-30" x="8.37" y="53.38" width="1.53" height="4.13" filterUnits="userSpaceOnUse" color-interpolation-filters="sRGB"><feFlood flood-color="#fff" result="bg"/><feBlend in="SourceGraphic" in2="bg"/></filter><mask id="mask-30" x="8.37" y="53.38" width="1.53" height="4.13" maskUnits="userSpaceOnUse"><g class="cls-15"><path class="cls-16" d="M9.43,57.16h0a2,2,0,0,1-.28.2l-.25.14c.15-.14.09-.31.34-.84s-1.35-.53-.69-1,.24-2.28.24-2.28a1.47,1.47,0,0,0,.41.15,7.26,7.26,0,0,1,.5,1.13C10,55.75,10,56.68,9.43,57.16Z"/></g></mask><linearGradient id="linear-gradient-34" x1="8.37" y1="55.45" x2="9.9" y2="55.45" gradientTransform="matrix(1, 0, 0, 1, 0, 0)" xlink:href="#linear-gradient-21"/><filter id="luminosity-noclip-31" x="3.23" y="22.92" width="22.46" height="22.84" filterUnits="userSpaceOnUse" color-interpolation-filters="sRGB"><feFlood flood-color="#fff" result="bg"/><feBlend in="SourceGraphic" in2="bg"/></filter><mask id="mask-31" x="3.23" y="22.92" width="22.46" height="22.84" maskUnits="userSpaceOnUse"><g class="cls-17"><path class="cls-18" d="M12.36,25.5,5.53,32.68a7.83,7.83,0,0,0,0,11.07,7.83,7.83,0,0,0,11-.57L23.39,36a7.84,7.84,0,0,0,0-11.07A7.84,7.84,0,0,0,12.36,25.5Zm8.79,8.15-7,7.31a4.27,4.27,0,0,1-6,0,4.27,4.27,0,0,1-.29-6l7-7.31a4.37,4.37,0,0,1,6.32,6Z"/></g></mask><linearGradient id="linear-gradient-35" x1="-884" y1="-1000.68" x2="-896.85" y2="-1019.54" gradientTransform="matrix(0.69, -0.72, 0.72, 0.69, 1358.7, 85.66)" xlink:href="#linear-gradient-24"/><filter id="luminosity-noclip-32" x="5.26" y="22.95" width="15.97" height="10.05" filterUnits="userSpaceOnUse" color-interpolation-filters="sRGB"><feFlood flood-color="#fff" result="bg"/><feBlend in="SourceGraphic" in2="bg"/></filter><mask id="mask-32" x="5.26" y="22.95" width="15.97" height="10.05" maskUnits="userSpaceOnUse"><g class="cls-19"><path class="cls-20" d="M5.26,33s6.55-7,7.56-7.9,5.11-3.23,7.46-1.54-.22,1.65-1.69,1.61-4.43-.26-6.85,2S5.26,33,5.26,33Z"/></g></mask><linearGradient id="linear-gradient-36" x1="-891.71" y1="-1017.52" x2="-878.08" y2="-1012.37" gradientTransform="matrix(0.69, -0.72, 0.72, 0.69, 1358.7, 85.66)" xlink:href="#linear-gradient-24"/><linearGradient id="linear-gradient-37" x1="4.45" y1="36.36" x2="16.85" y2="46.12" gradientTransform="matrix(1, 0, 0, 1, 0, 0)" xlink:href="#linear-gradient-26"/><linearGradient id="linear-gradient-38" x1="44.86" y1="19" x2="10.16" y2="61.17" gradientTransform="matrix(1, 0, 0, 1, 0, 0)" xlink:href="#linear-gradient-27"/><filter id="luminosity-noclip-33" x="4.45" y="13.03" width="33.08" height="39.75" filterUnits="userSpaceOnUse" color-interpolation-filters="sRGB"><feFlood flood-color="#fff" result="bg"/><feBlend in="SourceGraphic" in2="bg"/></filter><mask id="mask-33" x="4.45" y="13.03" width="33.08" height="39.75" maskUnits="userSpaceOnUse"><g class="cls-21"><path class="cls-22" d="M34.77,13c.11.35.11,8.16-3.79,11.37S4.45,50.83,4.45,50.83s0,1.61.57,2S31.32,28,33.51,25.57,38.33,19.36,37.3,16,34.77,13,34.77,13Z"/></g></mask><linearGradient id="linear-gradient-39" x1="42.13" y1="9.61" x2="6.72" y2="52.64" gradientTransform="matrix(1, 0, 0, 1, 0, 0)" xlink:href="#linear-gradient-28"/><filter id="luminosity-noclip-34" x="4.79" y="15.68" width="40.02" height="39.28" filterUnits="userSpaceOnUse" color-interpolation-filters="sRGB"><feFlood flood-color="#fff" result="bg"/><feBlend in="SourceGraphic" in2="bg"/></filter><mask id="mask-34" x="4.79" y="15.68" width="40.02" height="39.28" maskUnits="userSpaceOnUse"><g class="cls-23"><path class="cls-24" d="M36.26,15.68s.46,6.32-1.95,9.19S7.89,50.37,6.52,51.4a5,5,0,0,0-1.73,2.07S5.94,55,6.4,55,36.84,27.52,38,26.83A28.67,28.67,0,0,1,44.76,25C45.57,25,36.61,17.64,36.26,15.68Z"/></g></mask><linearGradient id="linear-gradient-40" x1="15.05" y1="52.81" x2="43" y2="13.62" gradientTransform="matrix(1, 0, 0, 1, 0, 0)" xlink:href="#linear-gradient-29"/><filter id="luminosity-noclip-35" x="34.13" y="3.2" width="18.67" height="22.74" filterUnits="userSpaceOnUse" color-interpolation-filters="sRGB"><feFlood flood-color="#fff" result="bg"/><feBlend in="SourceGraphic" in2="bg"/></filter><mask id="mask-35" x="34.13" y="3.2" width="18.67" height="22.74" maskUnits="userSpaceOnUse"><g class="cls-25"><path class="cls-26" d="M40.8,18.56C33.94,12,34.35,6.59,36.27,3.2c-.1.07-.21.13-.32.22s0,0,0,0C33,6,33.07,13,40.26,20.8c5.92,6.44,12.2,5.77,12.54,3.67C52.14,24.13,48.41,25.88,40.8,18.56Z"/></g></mask><linearGradient id="linear-gradient-41" x1="36" y1="10.73" x2="52.97" y2="22.47" gradientTransform="matrix(1, 0, 0, 1, 0, 0)" xlink:href="#linear-gradient-20"/><filter id="luminosity-noclip-36" x="53.21" y="17.67" width="2.84" height="7.96" filterUnits="userSpaceOnUse" color-interpolation-filters="sRGB"><feFlood flood-color="#fff" result="bg"/><feBlend in="SourceGraphic" in2="bg"/></filter><mask id="mask-36" x="53.21" y="17.67" width="2.84" height="7.96" maskUnits="userSpaceOnUse"><g class="cls-27"><path class="cls-28" d="M54.69,25l0,0a7,7,0,0,1-.81.59c-.05-.07-.05-.13,0-.18.42-.29.23-.54.69-1.67s-2.16-1-1.1-1.89.37-4.22.37-4.22a1.61,1.61,0,0,0,1.56.21C56.42,21,56.27,23.67,54.69,25Z"/></g></mask><linearGradient id="linear-gradient-42" x1="53.21" y1="21.65" x2="56.05" y2="21.65" gradientTransform="matrix(1, 0, 0, 1, 0, 0)" xlink:href="#linear-gradient-21"/><linearGradient id="linear-gradient-43" x1="50.16" y1="8.45" x2="38.73" y2="18.9" gradientTransform="matrix(1, 0, 0, 1, 0, 0)" xlink:href="#linear-gradient-22"/><filter id="luminosity-noclip-37" x="33.33" y="5.01" width="3.13" height="7.85" filterUnits="userSpaceOnUse" color-interpolation-filters="sRGB"><feFlood flood-color="#fff" result="bg"/><feBlend in="SourceGraphic" in2="bg"/></filter><mask id="mask-37" x="33.33" y="5.01" width="3.13" height="7.85" maskUnits="userSpaceOnUse"><g class="cls-29"><path class="cls-30" d="M35.22,5.15a.85.85,0,0,0-1.3.49,9.61,9.61,0,0,0-.51,1.63,8.49,8.49,0,0,0,.13,2.93c.14.68.36,2.09,1,2.51.48.32.89.09.9-.47s-.27-1.13.15-1.48.9-.07.85-.85-.15-1.49-.25-2.24a6.88,6.88,0,0,0-.42-1.9A1.33,1.33,0,0,0,35.22,5.15Z"/></g></mask><linearGradient id="linear-gradient-44" x1="39.15" y1="3.72" x2="33.62" y2="10.28" gradientTransform="matrix(1, 0, 0, 1, 0, 0)" xlink:href="#linear-gradient-21"/><filter id="luminosity-noclip-38" x="8.65" y="25.43" width="16.7" height="22.8" filterUnits="userSpaceOnUse" color-interpolation-filters="sRGB"><feFlood flood-color="#fff" result="bg"/><feBlend in="SourceGraphic" in2="bg"/></filter><mask id="mask-38" x="8.65" y="25.43" width="16.7" height="22.8" maskUnits="userSpaceOnUse"><g class="cls-31"><path class="cls-32" d="M24,25.54c.07,0,3.67,5.77-1,10.15C18,40.47,16.74,41.84,11.67,46.38c-7,4.62.39-.89.39-.89s5.77-5.71,10.18-10.56c1-1.23,2.43-2.83,2.26-4.43C24,26.22,22.9,25,24,25.54Z"/></g></mask><linearGradient id="linear-gradient-45" x1="8.65" y1="36.83" x2="25.35" y2="36.83" gradientTransform="matrix(1, 0, 0, 1, 0, 0)" xlink:href="#linear-gradient-21"/></defs><title>Asset 2</title><g id="Layer_2" data-name="Layer 2"><g id="Layer_19" data-name="Layer 19"><path class="cls-39" d="M56.6,48.09A4.3,4.3,0,0,1,57.88,51a8,8,0,0,1-2.41,5.62c-1.79,2-3.61,2.94-5.39,2.94a4.29,4.29,0,0,1-1.84-.4l-.1-.05L47.81,59a5.85,5.85,0,0,1-.48-.34l-.06-.05a3.73,3.73,0,0,1-1-3.79l-6.85-6.24-8.62,5a2.38,2.38,0,0,1-2.23,0l-9.95-5.1-7,6.36a3.71,3.71,0,0,1-1,3.76l-.09.07a4.84,4.84,0,0,1-.46.33l-.34.19-.14.07a4.31,4.31,0,0,1-1.81.38c-1.78,0-3.59-1-5.39-2.94A8,8,0,0,1,0,51a4.3,4.3,0,0,1,1.33-3l.17-.14a3.48,3.48,0,0,1,2.91-.58l.86-.87A10.56,10.56,0,0,1,4,45.38,10.13,10.13,0,0,1,3.6,31.06l1.94-2a8.61,8.61,0,0,1-2.37-1,7.8,7.8,0,0,1-1-.74,6.12,6.12,0,0,1-2-4.56A12,12,0,0,1,.73,17.3a27.53,27.53,0,0,1,5.5-9.2C10.6,3.11,15.85,0,19.94,0a5.89,5.89,0,0,1,3.95,1.35l.1.09a7.78,7.78,0,0,1,1.76,2.4,9.9,9.9,0,0,1,1.32,4.53,1.77,1.77,0,0,0,0,.23l3.73-.06c0-.06,0-.11,0-.17a9.89,9.89,0,0,1,1.31-4.53,7.8,7.8,0,0,1,1.77-2.4l.1-.09A5.89,5.89,0,0,1,38,0C42,0,47.29,3.11,51.66,8.1a27.5,27.5,0,0,1,5.49,9.21,11.94,11.94,0,0,1,.65,5.38,6.18,6.18,0,0,1-2,4.52.44.44,0,0,1-.11.08,6.7,6.7,0,0,1-1,.7,8.74,8.74,0,0,1-2.37,1l1.93,2a10.13,10.13,0,0,1-.35,14.32,9.89,9.89,0,0,1-1.33,1.07l.87.87a3.48,3.48,0,0,1,2.94.6Z"/><path class="cls-40" d="M48.31,21.9l.41,18.61-19.09,11L9.94,41.35V39.89l-.08,0L9.76,11.23l9-.4,20.15-.08,9.51,0Z"/><path class="cls-40" d="M29.63,52.64a1.13,1.13,0,0,1-.54-.13L9.4,42.39a1.18,1.18,0,0,1-.64-1V40.25a1,1,0,0,1-.07-.39L8.58,11.23A1.18,1.18,0,0,1,9.7,10.05c.81,0,29.53-.47,29.53-.47H48.4a1.19,1.19,0,0,1,.84.35,1.21,1.21,0,0,1,.34.84l-.1,11.13.42,18.58a1.17,1.17,0,0,1-.59,1L30.21,52.48A1.1,1.1,0,0,1,29.63,52.64Zm-18.51-12L29.6,50.12,47.53,39.84l-.4-17.92.09-10-8.33,0a1.18,1.18,0,0,1-.63-.18s-19,.24-19.49.26l-7.83.34.11,27.13a1.14,1.14,0,0,1,.07.41Z"/><polygon class="cls-41" points="10.07 11.46 9.94 41.35 29.63 51.46 48.72 40.52 48.07 11.13 44.79 35.51 10.07 11.46"/><path class="cls-42" d="M9.76,11.23l9-.4,20.15-.08,9.51,0-.24,28L29.82,48.86l-20-9Z"/><polygon class="cls-43" points="10.99 12.32 11.41 38.95 29.24 46.2 29.82 48.86 30.44 46.08 46.75 37.63 47.14 12.1 38.76 12.31 20.25 12.26 10.99 12.32"/><polygon class="cls-44" points="23.2 43.41 29.4 45.85 29.86 46.87 30.17 45.66 46.4 37.37 46.21 12.82 38.78 13.09 37.33 13.73 45.11 13.8 45.77 36.52 29.97 44.62 23.2 43.41"/><polygon points="21.86 14.38 13.29 14.34 13.62 37.34 29.71 44.37 45.08 36.46 44.78 14.41 36.04 14.29 21.86 14.38"/><polygon points="21.48 13.27 12.5 13.67 13.29 14.34 21.86 14.38 36.04 14.29 44.78 14.41 45.08 36.46 45.11 13.8 36.88 13.4 21.48 13.27"/><polygon class="cls-42" points="12.5 13.67 13.37 37.69 29.71 44.37 14.22 37.23 13.45 14.38 12.5 13.67"/><polygon class="cls-45" points="22.22 14.89 13.74 15.02 14.73 36.97 29.69 43.59 44.37 36.04 44.38 14.79 35.9 14.63 22.22 14.89"/><polygon class="cls-46" points="44.38 14.79 44.37 36.04 29.69 43.59 29.51 43.51 14.73 36.97 13.74 15.02 22.22 14.89 35.9 14.63 44.38 14.79"/><path class="cls-47" d="M9.76,11.23c.23.22,1.35,1.12,1.35,1.12s.21,26.46.3,26.6,17.68,7.31,17.68,7.31l.53,2.52L9.87,39.85Z"/><polygon class="cls-48" points="44.38 14.79 44.37 36.04 29.69 43.59 29.51 43.51 28.73 14.63 44.38 14.79"/><polygon class="cls-49" points="14.17 24.41 28.8 17.5 44.38 25.2 44.38 31.61 29.08 24.63 14.46 30.98 14.17 24.41"/><polygon class="cls-50" points="14.17 24.41 28.8 17.5 29.08 24.63 14.46 30.98 14.17 24.41"/><path class="cls-51" d="M1.25,22.58a5,5,0,0,0,1.58,3.74l0,0h0a6.44,6.44,0,0,0,.9.65A7.9,7.9,0,0,0,8,28.18,11.25,11.25,0,0,0,13,26.93a16.27,16.27,0,0,1,7,2.67C23.27,32.24,42.79,50,47.57,54.41a.05.05,0,0,1,0,0c-.46,1.41-.29,2.58.46,3.23l.06,0a3.88,3.88,0,0,0,.33.23l.26.15.07,0h0a3.27,3.27,0,0,0,1.35.29c1.44,0,3-.86,4.54-2.56a6.83,6.83,0,0,0,2.1-4.77,3.17,3.17,0,0,0-1-2.2l-.08-.07a2.67,2.67,0,0,0-2.57-.22l-2.42-2.43a9,9,0,0,0,2.75-14.32l-7-7.4a9,9,0,0,0-12.68-.31,9.29,9.29,0,0,0-2,2.78c-1.74-1.81-3.08-3.25-3.74-4a14,14,0,0,1-3.63-7.74A13.88,13.88,0,0,0,25.9,8.43a8.81,8.81,0,0,0-1.17-4,6.65,6.65,0,0,0-1.54-2.11l-.06-.06h0a4.8,4.8,0,0,0-3.19-1.06c-3.71,0-8.74,3-12.84,7.7a26.34,26.34,0,0,0-5.26,8.8A10.82,10.82,0,0,0,1.25,22.58ZM42.53,29l6.28,6.6a3.05,3.05,0,0,1-.1,4.32,3.07,3.07,0,0,1-4.33-.11L38.1,33.19A3.06,3.06,0,0,1,40.32,28,3,3,0,0,1,42.53,29Z"/><path class="cls-52" d="M48.46,57.16s0,0,0,0a2.11,2.11,0,0,0,.29.2,2,2,0,0,0,.25.14s0,0,0,0c1.11.51,2.86.3,5.09-2.12,2.51-2.73,2.18-5.12,1.16-6h0c-1-.89-3.38.15-5.26,2.29a10.06,10.06,0,0,0-1.29,1.86,7.26,7.26,0,0,0-.5,1.13C47.85,55.75,47.91,56.68,48.46,57.16Z"/><g class="cls-53"><path class="cls-54" d="M53.31,54.9c2.4-2.31,2.25-4.18,1.58-5.37l.11.08h0c1,.89,1,3.33-1.51,6.06-2.07,2.25-4.6,2.07-4.48,1.19C49.26,55,50.65,57.46,53.31,54.9Z"/></g><path class="cls-55" d="M54.61,49.84c.18.12.4.13.48,0s0-.32-.17-.45-.39-.14-.48,0S54.43,49.7,54.61,49.84Z"/><path class="cls-55" d="M48.21,55.71c0,.16.17.26.26.24s.12-.19.07-.34-.17-.26-.26-.23S48.16,55.56,48.21,55.71Z"/><g class="cls-56"><path class="cls-57" d="M48.46,57.16s0,0,0,0a2.11,2.11,0,0,0,.29.2,2,2,0,0,0,.25.14c-.15-.14-.1-.31-.35-.84s1.36-.53.7-1-.24-2.28-.24-2.28a1.47,1.47,0,0,1-.41.15,7.26,7.26,0,0,0-.5,1.13C47.85,55.75,47.91,56.68,48.46,57.16Z"/></g><path class="cls-58" d="M49.19,55.28h0c.69.58,2.48.07,3.72-1.36s1.44-3.24.77-3.83a0,0,0,0,0,0,0c-.67-.59-2.23.1-3.47,1.53S48.51,54.69,49.19,55.28Z"/><path class="cls-59" d="M49.36,55.06h0c.63.53,2-.1,3.19-1.41s1.55-2.81.94-3.35h0c-.63-.54-2.06.09-3.19,1.41S48.74,54.53,49.36,55.06Z"/><path class="cls-60" d="M49.36,55.07c.63.53,2-.1,3.19-1.41s1.55-2.81.94-3.35a4.55,4.55,0,0,0-2.75,1.78A4.6,4.6,0,0,0,49.36,55.07Z"/><g class="cls-61"><path class="cls-62" d="M54.79,49.7a.58.58,0,0,1,.81.24,3.57,3.57,0,0,1,.31.8,3.34,3.34,0,0,1-.07,1.44c-.09.33-.23,1-.63,1.23s-.56,0-.57-.24.17-.55-.09-.72S54,52.42,54,52s.1-.74.16-1.1a2.54,2.54,0,0,1,.26-.93A.67.67,0,0,1,54.79,49.7Z"/></g><path class="cls-52" d="M34.2,24.65a8.28,8.28,0,0,0-.29,11.7l7,7.4a8.28,8.28,0,1,0,12-11.41l-7-7.4A8.28,8.28,0,0,0,34.2,24.65Zm3.53,3.71a3.76,3.76,0,0,1,5.3.13l6.28,6.6a3.75,3.75,0,0,1-5.43,5.17l-6.28-6.6A3.76,3.76,0,0,1,37.73,28.36Z"/><g class="cls-63"><path class="cls-64" d="M34.48,24.94A7.83,7.83,0,0,0,34.5,36l6.83,7.17a7.63,7.63,0,1,0,11-10.5L45.53,25.5A7.84,7.84,0,0,0,34.48,24.94ZM37,27.63a4.27,4.27,0,0,1,6,0l7,7.31a4.37,4.37,0,0,1-6.32,6l-7-7.31A4.27,4.27,0,0,1,37,27.63Z"/></g><g class="cls-65"><path class="cls-66" d="M52.62,33s-6.55-7-7.56-7.9S40,21.87,37.6,23.56s.23,1.65,1.69,1.61,4.44-.26,6.86,2S52.62,33,52.62,33Z"/></g><path class="cls-67" d="M53.27,35.21s2.18,4.88-1.61,8.16-9.36.57-11.2-.75,1-2.07,1-2.07,4.66,5.57,9.37,2S53.27,35.38,53.27,35.21Z"/><path class="cls-52" d="M53.41,49.88S31,27.49,27.48,23.35s-4.08-7.38-4-12.6c.09-4.17-4.3,12.8-15.54,14.54-.57.1-5.2-.09.1.34,4.11.34,9.4,1.08,12.33,3.43,3.79,3.05,28.7,25.82,28.7,25.82s1.07,1.44,3.44-1.22S53.41,49.88,53.41,49.88Z"/><path class="cls-68" d="M9.36,25.42s7.84.17,9.91,1.81S50.11,55.05,50.11,55.05l1-.6s-31-28.51-31.53-28.95S14.44,23.7,9.36,25.42Z"/><g class="cls-69"><path class="cls-70" d="M23.12,13c-.12.35-.12,8.16,3.79,11.37S53.44,50.83,53.44,50.83s0,1.61-.58,2S26.56,28,24.38,25.57,19.56,19.36,20.59,16,23.12,13,23.12,13Z"/></g><g class="cls-71"><path class="cls-72" d="M21.62,15.68s-.45,6.32,1.95,9.19S50,50.37,51.37,51.4a5,5,0,0,1,1.73,2.07S52,55,51.49,55,21.05,27.52,19.9,26.83A28.54,28.54,0,0,0,13.12,25C12.32,25,21.28,17.64,21.62,15.68Z"/></g><path class="cls-73" d="M3.28,25.8s0,0,0,0a8.6,8.6,0,0,0,.82.59c3.15,1.94,8.51,1.91,15.53-5.68C26.93,12.88,26,6,23,3.42t0,0C20,.85,13.2,3.81,7.76,10a25.7,25.7,0,0,0-5.19,8.62C1.52,21.76,1.68,24.44,3.28,25.8Z"/><path class="cls-52" d="M3.2,25l0,0a7.14,7.14,0,0,0,.82.59c3.1,1.93,8.4,1.9,15.33-5.64,7.18-7.81,6.22-14.66,3.33-17.2,0,0,0,0,0,0C19.75.24,13,3.18,7.62,9.33A25.6,25.6,0,0,0,2.5,17.88C1.46,21,1.62,23.67,3.2,25Z"/><g class="cls-74"><path class="cls-75" d="M17.09,18.56C24,12,23.54,6.59,21.61,3.2a2.27,2.27,0,0,1,.32.22s0,0,0,0C24.85,6,24.81,13,17.63,20.8c-5.92,6.44-12.2,5.77-12.54,3.67C5.75,24.13,9.48,25.88,17.09,18.56Z"/></g><path class="cls-73" d="M4.79,22.62l0,0c2.47,2.09,8.08-.41,12.57-5.6S23.54,5.92,21.12,3.77c0,0,0,0,0,0C18.64,1.6,13,4.1,8.49,9.31S2.33,20.49,4.79,22.62Z"/><path class="cls-59" d="M5.41,21.85l0,0c2.27,1.92,7.43-.37,11.56-5.13s5.66-10.2,3.44-12.18l0,0c-2.26-2-7.46.33-11.6,5.11S3.15,19.9,5.41,21.85Z"/><path class="cls-76" d="M5.44,21.87c2.27,1.92,7.43-.37,11.56-5.13s5.66-10.2,3.44-12.18c-2.54,0-6.52,2.5-10,6.5S5.07,19.37,5.44,21.87Z"/><g class="cls-77"><path class="cls-78" d="M22.67,5.15a.85.85,0,0,1,1.3.49,9.61,9.61,0,0,1,.51,1.63,8.49,8.49,0,0,1-.13,2.93c-.14.68-.37,2.09-1,2.51-.48.32-.89.09-.91-.47s.28-1.13-.15-1.48-.89-.07-.84-.85.14-1.49.25-2.24a7.25,7.25,0,0,1,.41-1.9A1.4,1.4,0,0,1,22.67,5.15Z"/></g><path class="cls-55" d="M26.65,26.36c1.19,1.31,2.45,2.1,2.81,1.77s-.3-1.66-1.49-3-2.45-2.11-2.81-1.77S25.46,25,26.65,26.36Z"/><path class="cls-55" d="M30.62,29.94c.29.32.7.44.92.25s.14-.61-.17-.94-.71-.45-.92-.26S30.31,29.6,30.62,29.94Z"/><path class="cls-55" d="M45.56,27c.73.81,1.56,1.26,1.84,1s-.08-1.12-.81-1.93-1.56-1.26-1.85-1S44.82,26.2,45.56,27Z"/><path class="cls-55" d="M48.41,29.1c.22.24.51.32.66.19s.1-.44-.11-.68-.51-.32-.66-.18S48.2,28.87,48.41,29.1Z"/><path class="cls-55" d="M54.19,50.48l-.16.21a3.25,3.25,0,0,1-.71,2.87c-.09.11-.54.55-.28.69s.37-.16.5-.25a2.09,2.09,0,0,0,.55-.56,4.4,4.4,0,0,0,.64-1.59,2,2,0,0,0-.2-1.11S54.29,50.35,54.19,50.48Z"/><path class="cls-79" d="M51,35.24l-7-6.83s-.3-1.12.23-.87a65,65,0,0,1,6.4,6.2C51.1,34.47,51.1,35.16,51,35.24Z"/><path class="cls-79" d="M52.13,49.27S36.37,33.56,35.72,32.82A3.76,3.76,0,0,1,36,28.27a5.08,5.08,0,0,1,3.57-2c.93,0,.65-.2.33-.43a2.23,2.23,0,0,0-1.18-.3,6,6,0,0,0-2.25.46,5.32,5.32,0,0,0-2.78,3.47,3.05,3.05,0,0,0,0,1.89,6.13,6.13,0,0,0,1,1.62,5.87,5.87,0,0,0,.69.72c.82.69,17.4,16.45,17.53,16.67S52.13,49.27,52.13,49.27Z"/><g class="cls-80"><path class="cls-81" d="M33.92,25.54c-.06,0-3.67,5.77,1,10.15,4.92,4.78,6.21,6.15,11.28,10.69,7,4.62-.39-.89-.39-.89s-5.77-5.71-10.18-10.56c-1-1.23-2.43-2.83-2.26-4.43C33.85,26.22,35,25,33.92,25.54Z"/></g><path class="cls-51" d="M56.05,17.67a26.55,26.55,0,0,0-5.27-8.8C46.69,4.19,41.65,1.17,38,1.17a4.78,4.78,0,0,0-3.19,1.06h0l-.06.06A6.65,6.65,0,0,0,33.16,4.4a8.69,8.69,0,0,0-1.18,4,14,14,0,0,0,1.53,6.74,14,14,0,0,1-3.63,7.74c-.66.77-2,2.21-3.75,4a9,9,0,0,0-14.64-2.47l-7,7.4A9,9,0,0,0,7.19,46.18L4.77,48.61a2.65,2.65,0,0,0-2.56.22l-.09.07a3.2,3.2,0,0,0-1,2.2,6.83,6.83,0,0,0,2.1,4.77c1.57,1.7,3.09,2.56,4.53,2.56a3.29,3.29,0,0,0,1.36-.29h0l.06,0c.09,0,.18-.09.27-.15l.33-.23.06,0c.75-.65.91-1.82.45-3.23,0,0,0,0,0,0C15.1,50,34.62,32.24,37.9,29.6a16.37,16.37,0,0,1,7-2.67,11.26,11.26,0,0,0,4.95,1.25A7.9,7.9,0,0,0,54.11,27a7.08,7.08,0,0,0,.9-.65h0l0,0a5,5,0,0,0,1.59-3.74A10.82,10.82,0,0,0,56.05,17.67ZM17.57,28a3.05,3.05,0,0,1,3.06,3,3,3,0,0,1-.85,2.19L13.5,39.78a3.06,3.06,0,0,1-4.32.11,3.06,3.06,0,0,1-.11-4.32L15.35,29A3,3,0,0,1,17.57,28Z"/><path class="cls-52" d="M9.43,57.16h0a2,2,0,0,1-.28.2l-.25.14s0,0,0,0C7.76,58,6,57.82,3.78,55.4c-2.51-2.73-2.18-5.12-1.17-6h0c1-.89,3.37.15,5.26,2.29a10.57,10.57,0,0,1,1.29,1.86,7.26,7.26,0,0,1,.5,1.13C10,55.75,10,56.68,9.43,57.16Z"/><path class="cls-55" d="M9.68,55.71c0,.16-.17.26-.26.24s-.13-.19-.07-.34.16-.26.25-.23S9.73,55.56,9.68,55.71Z"/><g class="cls-82"><path class="cls-83" d="M9.43,57.16h0a2,2,0,0,1-.28.2l-.25.14c.15-.14.09-.31.34-.84s-1.35-.53-.69-1,.24-2.28.24-2.28a1.47,1.47,0,0,0,.41.15,7.26,7.26,0,0,1,.5,1.13C10,55.75,10,56.68,9.43,57.16Z"/></g><path class="cls-52" d="M12,24.94l-7,7.4a8.28,8.28,0,0,0,12,11.41l7-7.4A8.27,8.27,0,1,0,12,24.94Zm8.29,8.72L14,40.26a3.75,3.75,0,1,1-5.43-5.17l6.29-6.6a3.75,3.75,0,1,1,5.42,5.17Z"/><g class="cls-84"><path class="cls-85" d="M12.36,25.5,5.53,32.68a7.83,7.83,0,0,0,0,11.07,7.83,7.83,0,0,0,11-.57L23.39,36a7.84,7.84,0,0,0,0-11.07A7.84,7.84,0,0,0,12.36,25.5Zm8.79,8.15-7,7.31a4.27,4.27,0,0,1-6,0,4.27,4.27,0,0,1-.29-6l7-7.31a4.37,4.37,0,0,1,6.32,6Z"/></g><g class="cls-86"><path class="cls-87" d="M5.26,33s6.55-7,7.56-7.9,5.11-3.23,7.46-1.54-.22,1.65-1.69,1.61-4.43-.26-6.85,2S5.26,33,5.26,33Z"/></g><path class="cls-88" d="M4.62,35.21s-2.18,4.88,1.61,8.16,9.36.57,11.2-.75-1-2.07-1-2.07-4.66,5.57-9.37,2S4.62,35.38,4.62,35.21Z"/><path class="cls-52" d="M4.48,49.88S26.88,27.49,30.4,23.35s4.08-7.38,4-12.6c-.09-4.17,4.3,12.8,15.53,14.54.58.1,5.2-.09-.09.34-4.11.34-9.41,1.08-12.34,3.43C33.68,32.11,8.78,54.88,8.78,54.88s-1.07,1.44-3.44-1.22S4.48,49.88,4.48,49.88Z"/><path class="cls-89" d="M48.52,25.42s-7.83.17-9.9,1.81S7.78,55.05,7.78,55.05l-1-.6s31-28.51,31.53-28.95S43.44,23.7,48.52,25.42Z"/><g class="cls-90"><path class="cls-91" d="M34.77,13c.11.35.11,8.16-3.79,11.37S4.45,50.83,4.45,50.83s0,1.61.57,2S31.32,28,33.51,25.57,38.33,19.36,37.3,16,34.77,13,34.77,13Z"/></g><g class="cls-92"><path class="cls-93" d="M36.26,15.68s.46,6.32-1.95,9.19S7.89,50.37,6.52,51.4a5,5,0,0,0-1.73,2.07S5.94,55,6.4,55,36.84,27.52,38,26.83A28.67,28.67,0,0,1,44.76,25C45.57,25,36.61,17.64,36.26,15.68Z"/></g><path class="cls-73" d="M54.61,25.8s0,0,0,0a8.6,8.6,0,0,1-.82.59c-3.15,1.94-8.52,1.91-15.54-5.68C31,12.88,31.92,6,34.85,3.42a0,0,0,0,1,0,0c3-2.54,9.8.42,15.25,6.61a25.7,25.7,0,0,1,5.19,8.62C56.36,21.76,56.2,24.44,54.61,25.8Z"/><path class="cls-52" d="M54.69,25l0,0a7,7,0,0,1-.81.59c-3.11,1.93-8.41,1.9-15.34-5.64-7.18-7.81-6.22-14.66-3.33-17.2,0,0,0,0,0,0,2.93-2.52,9.68.42,15.06,6.57a25.6,25.6,0,0,1,5.12,8.55C56.42,21,56.27,23.67,54.69,25Z"/><g class="cls-94"><path class="cls-95" d="M40.8,18.56C33.94,12,34.35,6.59,36.27,3.2c-.1.07-.21.13-.32.22s0,0,0,0C33,6,33.07,13,40.26,20.8c5.92,6.44,12.2,5.77,12.54,3.67C52.14,24.13,48.41,25.88,40.8,18.56Z"/></g><path class="cls-55" d="M55.4,20.9c-.14.44-.47.74-.74.65s-.36-.52-.21-1,.48-.74.74-.65S55.55,20.45,55.4,20.9Z"/><g class="cls-96"><path class="cls-97" d="M54.69,25l0,0a7,7,0,0,1-.81.59c-.05-.07-.05-.13,0-.18.42-.29.23-.54.69-1.67s-2.16-1-1.1-1.89.37-4.22.37-4.22a1.61,1.61,0,0,0,1.56.21C56.42,21,56.27,23.67,54.69,25Z"/></g><path class="cls-73" d="M53.1,22.62l0,0c-2.48,2.09-8.08-.41-12.57-5.6S34.35,5.92,36.76,3.77l0,0C39.25,1.6,44.9,4.1,49.4,9.31S55.56,20.49,53.1,22.62Z"/><path class="cls-59" d="M52.47,21.85l0,0c-2.28,1.92-7.44-.37-11.57-5.13S35.23,6.54,37.44,4.56l0,0c2.25-2,7.45.33,11.59,5.11S54.73,19.9,52.47,21.85Z"/><path class="cls-98" d="M52.45,21.87c-2.28,1.92-7.44-.37-11.57-5.13S35.23,6.54,37.44,4.56c2.54,0,6.53,2.5,10,6.5S52.81,19.37,52.45,21.87Z"/><g class="cls-99"><path class="cls-100" d="M35.22,5.15a.85.85,0,0,0-1.3.49,9.61,9.61,0,0,0-.51,1.63,8.49,8.49,0,0,0,.13,2.93c.14.68.36,2.09,1,2.51.48.32.89.09.9-.47s-.27-1.13.15-1.48.9-.07.85-.85-.15-1.49-.25-2.24a6.88,6.88,0,0,0-.42-1.9A1.33,1.33,0,0,0,35.22,5.15Z"/></g><path class="cls-55" d="M31.24,26.36c-1.19,1.31-2.45,2.1-2.81,1.77s.3-1.66,1.49-3,2.44-2.11,2.81-1.77S32.43,25,31.24,26.36Z"/><path class="cls-55" d="M27.27,29.94c-.3.32-.71.44-.92.25s-.14-.61.16-.94.71-.45.92-.26S27.57,29.6,27.27,29.94Z"/><path class="cls-55" d="M12.33,27c-.74.81-1.57,1.26-1.85,1s.09-1.12.82-1.93,1.56-1.26,1.84-1S13.06,26.2,12.33,27Z"/><path class="cls-55" d="M9.47,29.1c-.21.24-.51.32-.66.19s-.1-.44.12-.68.51-.32.66-.18S9.69,28.87,9.47,29.1Z"/><path class="cls-79" d="M6.92,35.24l7-6.83s.3-1.12-.24-.87a65,65,0,0,0-6.4,6.2C6.78,34.47,6.78,35.16,6.92,35.24Z"/><path class="cls-79" d="M5.76,49.27S21.52,33.56,22.17,32.82a3.76,3.76,0,0,0-.26-4.55,5.08,5.08,0,0,0-3.58-2c-.93,0-.64-.2-.32-.43a2.22,2.22,0,0,1,1.17-.3,6,6,0,0,1,2.26.46,5.32,5.32,0,0,1,2.78,3.47,3.05,3.05,0,0,1,0,1.89,6.4,6.4,0,0,1-1,1.62,5.29,5.29,0,0,1-.7.72C21.69,34.37,5.11,50.13,5,50.35S5.76,49.27,5.76,49.27Z"/><g class="cls-101"><path class="cls-102" d="M24,25.54c.07,0,3.67,5.77-1,10.15C18,40.47,16.74,41.84,11.67,46.38c-7,4.62.39-.89.39-.89s5.77-5.71,10.18-10.56c1-1.23,2.43-2.83,2.26-4.43C24,26.22,22.9,25,24,25.54Z"/></g></g></g></svg>