<svg xmlns="http://www.w3.org/2000/svg" width="539.392" height="637.456" viewBox="0 0 539.392 637.456">
  <g id="Group_2718" data-name="Group 2718" transform="translate(-77.693 -6.458)" opacity="0.497">
    <path id="Path_531" data-name="Path 531" d="M155.756,17.348,204.791,66.4h.014l49.022,49.022L204.8,164.467l-49.049-49.049L106.733,66.4Z" transform="translate(363.258 136.211)" fill="#cceaff"/>
    <rect id="Rectangle_108" data-name="Rectangle 108" width="69.342" height="69.342" transform="translate(469.984 104.523) rotate(-44.992)" fill="#cceaff"/>
    <path id="Path_532" data-name="Path 532" d="M155.756,31.867l49.036,49.022h.014l49.022,49.049L204.8,178.973l-49.049-49.035L106.733,80.889Z" transform="translate(363.258 317.834)" fill="#4db5ff"/>
    <rect id="Rectangle_109" data-name="Rectangle 109" width="69.342" height="69.342" transform="translate(469.984 594.878) rotate(-45.008)" fill="#0095ff"/>
    <rect id="Rectangle_110" data-name="Rectangle 110" width="69.342" height="69.342" transform="matrix(0.707, -0.707, 0.707, 0.707, 420.948, 55.515)" fill="#fff"/>
    <path id="Path_533" data-name="Path 533" d="M148.5,24.607l49.022,49.049h.027l49.022-49.049L295.6,73.657,197.545,171.7,99.474,73.657Z" transform="translate(272.446 227.022)" fill="#80caff"/>
    <path id="Path_534" data-name="Path 534" d="M148.5,39.127l49.022,49.034h.027l49.022-49.034L295.6,88.161l-98.058,98.058L99.474,88.161Z" transform="translate(272.446 408.645)" fill="#3af"/>
    <path id="Path_535" data-name="Path 535" d="M144.891,66.4h0l49.022-49.048L242.935,66.4h.027l49.009,49.022-49.009,49.049-49.049-49.049h0l-49.022,49.049L95.843,115.418Z" transform="translate(227.029 136.211)" fill="#b3dfff"/>
    <path id="Path_536" data-name="Path 536" d="M144.891,59.137l49.022-49.049,49.022,49.049h.027l49.009,49.022-49.009,49.048-49.049-49.048h0l-49.022,49.048L95.843,108.159Z" transform="translate(227.029 45.4)" fill="#e6f4ff"/>
    <rect id="Rectangle_111" data-name="Rectangle 111" width="69.347" height="69.347" transform="matrix(0.707, -0.707, 0.707, 0.707, 322.878, 55.508)" fill="#fff"/>
    <path id="Path_537" data-name="Path 537" d="M95.843,77.261l49.048-49.022,49.022,49.022h0l49.022,49.022h.027l49.009,49.049-49.009,49.034-49.049-49.034-49.022-49.049h0Z" transform="translate(227.029 272.44)" fill="#66bfff"/>
    <path id="Path_538" data-name="Path 538" d="M141.236,31.867l49.048,49.022h0l49.022,49.049-49.022,49.035-49.048-49.035L92.214,80.889Z" transform="translate(181.635 317.834)" fill="#4db5ff"/>
    <rect id="Rectangle_112" data-name="Rectangle 112" width="69.347" height="69.347" transform="matrix(0.707, -0.707, 0.707, 0.707, 273.843, 594.872)" fill="#0095ff"/>
    <path id="Path_539" data-name="Path 539" d="M88.583,115.418,137.632,66.4l49.022-49.048L235.7,66.4l-49.048,49.022h0L235.7,164.467l-49.048,49.022-49.022-49.022h0Z" transform="translate(136.217 136.211)" fill="#99d5ff"/>
    <rect id="Rectangle_113" data-name="Rectangle 113" width="69.347" height="69.347" transform="matrix(0.707, -0.707, 0.707, 0.707, 224.807, 55.508)" fill="#fff"/>
    <path id="Path_540" data-name="Path 540" d="M137.632,88.161h0l49.022-49.034L235.7,88.161h0L284.725,137.2h0l49.022,49.022-49.022,49.049L235.7,186.219h0L186.654,137.2h0l-49.022,49.022L88.583,137.2Z" transform="translate(136.217 408.645)" fill="#1aa0ff"/>
    <path id="Path_541" data-name="Path 541" d="M134,108.159,183.05,59.137l49.022-49.049,49.048,49.049-49.048,49.022v0L183.05,157.207h-.027L134,206.23,84.952,157.207Z" transform="translate(90.799 45.4)" fill="#cceaff"/>
    <path id="Path_542" data-name="Path 542" d="M134,31.867l49.022,49.022h.027l49.022,49.049L183.05,178.973,134,129.939,84.952,80.889Z" transform="translate(90.799 317.834)" fill="#66bfff"/>
    <rect id="Rectangle_114" data-name="Rectangle 114" width="69.347" height="69.347" transform="matrix(0.707, -0.707, 0.707, 0.707, 175.758, 594.885)" fill="#0095ff"/>
    <path id="Path_543" data-name="Path 543" d="M81.323,70l49.022-49.022L179.395,70h0l49.022,49.049h.027l49.022,49.022-49.022,49.022-49.049-49.022L130.345,119.05h0Z" transform="translate(45.405 181.628)" fill="#80caff"/>
    <path id="Path_544" data-name="Path 544" d="M130.345,59.137l49.049-49.049,49.022,49.049-49.022,49.022h0l-49.049,49.048L81.323,108.159Z" transform="translate(45.405 45.4)" fill="#e6f4ff"/>
    <rect id="Rectangle_115" data-name="Rectangle 115" width="69.347" height="69.347" transform="translate(126.722 55.494) rotate(-45)" fill="#fff"/>
    <path id="Path_545" data-name="Path 545" d="M130.345,88.161h.013l49.036-49.034,49.022,49.034L179.395,137.2h0l-49.049,49.022L81.323,137.2Z" transform="translate(45.405 408.645)" fill="#3af"/>
    <rect id="Rectangle_116" data-name="Rectangle 116" width="69.342" height="69.342" transform="translate(77.693 300.672) rotate(-45)" fill="#99d5ff"/>
    <rect id="Rectangle_117" data-name="Rectangle 117" width="69.341" height="69.341" transform="translate(77.694 202.601) rotate(-45)" fill="#b3dfff"/>
    <rect id="Rectangle_118" data-name="Rectangle 118" width="69.342" height="69.342" transform="translate(77.693 104.53) rotate(-45)" fill="#cceaff"/>
    <path id="Path_546" data-name="Path 546" d="M126.728,77.261,175.75,28.238,224.8,77.261,175.75,126.283h0L224.8,175.332,175.75,224.367l-49.022-49.034L77.693,126.283Z" transform="translate(0.001 272.44)" fill="#4db5ff"/>
    <rect id="Rectangle_119" data-name="Rectangle 119" width="69.341" height="69.341" transform="translate(77.694 496.814) rotate(-45.008)" fill="#1aa0ff"/>
    <rect id="Rectangle_120" data-name="Rectangle 120" width="69.342" height="69.342" transform="matrix(0.707, -0.707, 0.707, 0.707, 77.693, 594.885)" fill="#0095ff"/>
  </g>
</svg>
