<svg xmlns="http://www.w3.org/2000/svg" viewBox="0 0 66.05 61.69"><defs><style>.cls-1,.cls-32{opacity:0.2;}.cls-2{fill:#52037c;}.cls-3{fill:#460960;}.cls-13,.cls-22,.cls-23,.cls-4{fill:#310747;}.cls-5{fill:#3d0e51;}.cls-6{fill:#701496;}.cls-14,.cls-6,.cls-7{opacity:0.3;}.cls-7{fill:#842bad;}.cls-8{fill:#ba681e;}.cls-9{fill:#e6ad65;}.cls-10{fill:#ba7b42;}.cls-11{fill:#e6ba83;}.cls-12{fill:#eacdad;}.cls-13,.cls-15,.cls-34{opacity:0.4;}.cls-14{fill:#682d87;}.cls-16{fill:#640982;}.cls-17{fill:#812da8;}.cls-18{fill:#ffe305;}.cls-19{fill:#ffc005;}.cls-20{fill:#ffa105;}.cls-21{fill:#fff;}.cls-22,.cls-26,.cls-27,.cls-35{opacity:0.5;}.cls-23,.cls-33{opacity:0.1;}.cls-24{fill:#f70;}.cls-25{fill:#ffeb00;}.cls-26{fill:#ff0800;}.cls-27,.cls-28{fill:#ff0;}.cls-29{fill:#ff9800;}.cls-30{fill:#ffea00;}.cls-31{fill:#ffca00;}.cls-32,.cls-33,.cls-34{fill:#c40800;}.cls-35{fill:#d1f000;}</style></defs><title>Asset 3</title><g id="Layer_2" data-name="Layer 2"><g id="Layer_19" data-name="Layer 19"><path d="M64.3,12.43l-1,2.3.31,0,0,1.5h0v0L53.77,38.16,49.18,50.6l-.94-.16-4.32,9.61L8.41,51a1.8,1.8,0,0,1-.27-.07L8,50.9H8l-.92-.27-1.3-.33-.34-.2c-2-.75-4.54-2.28-3.56-5.82A.84.84,0,0,1,2,44c.13-.28.85-1.88,2-4.28,0,0-.12,0-.16-.09l-.06-.08a.33.33,0,0,1,0-.06l0-.08,0-.08,0-.09,0-.1v0a1.86,1.86,0,0,1-.05-.42A1.41,1.41,0,0,1,4,37.48a2.17,2.17,0,0,1,1.07-.32L9,28.66a.15.15,0,0,1-.09-.07l-.06-.07,0-.06s0-.05,0-.08a.46.46,0,0,1,0-.09l0-.08,0-.11h0v0a1.86,1.86,0,0,1-.05-.42,1.4,1.4,0,0,1,.51-1.18,2,2,0,0,1,1-.32c1.45-3.2,3-6.48,4.35-9.55a.17.17,0,0,1-.1-.07l-.06-.07a.25.25,0,0,1,0-.07.43.43,0,0,1,0-.07.36.36,0,0,0,0-.09.31.31,0,0,0,0-.08.35.35,0,0,1,0-.11h0v0a2,2,0,0,1,0-.43,1.34,1.34,0,0,1,.54-1.17,2.23,2.23,0,0,1,1-.32l3.22-7A.28.28,0,0,1,18.64,7l-.07-.07,0-.06a.3.3,0,0,0,0-.08.46.46,0,0,1,0-.09l0-.08,0-.1v0A1.86,1.86,0,0,1,18.33,6a1.31,1.31,0,0,1,.58-1.17A2.27,2.27,0,0,1,20,4.53c.45-1,.74-1.63.84-1.82a1.21,1.21,0,0,1,.25-.37s.05,0,.07-.07a1.83,1.83,0,0,1,.26-.21L21.49,2a1.43,1.43,0,0,1,.28-.13l.13-.05L22,1.77l.26-.05.3-.05.31,0h.58l.38,0a7.35,7.35,0,0,1,.85.13v0l0,0h0l.85.1h0L26.86,2l19.2,2.08a1,1,0,0,0,.45.25,9.42,9.42,0,0,1,1.28.19,2.08,2.08,0,0,0,.39.08,2.75,2.75,0,0,0,1-.17h0l11,1.18.1,1.49h0v0l-.59,1.5L62.41,9l-.23.53.86.13-.29.67,1,.16-.24.54.86.14-.54,1.17Z"/><path class="cls-1" d="M43.92,61.69a1.92,1.92,0,0,1-.41,0L8,52.59l-.29-.07-.13,0-.13,0-.83-.25-1.26-.32a2,2,0,0,1-.4-.16l-.25-.15c-5.18-2-5-5.68-4.43-7.73a2.52,2.52,0,0,1,.25-.62l1.54-3.38a1.42,1.42,0,0,1,0-.16c0-.06,0-.11-.05-.16a.17.17,0,0,1,0-.07s0-.06,0-.1a3.27,3.27,0,0,1-.07-.68,3,3,0,0,1,1.19-2.52A3.22,3.22,0,0,1,4,35.71l3.17-7s0,0,0-.06a1.09,1.09,0,0,1-.05-.17v0a.69.69,0,0,1,0-.13A3.64,3.64,0,0,1,7,27.66a3,3,0,0,1,1.2-2.52,2.9,2.9,0,0,1,.78-.41l3.66-8,0-.06a1.09,1.09,0,0,0-.05-.17s0,0,0-.07l0-.1a4.26,4.26,0,0,1-.07-.7,3,3,0,0,1,1.26-2.55,3.15,3.15,0,0,1,.76-.37l2.48-5.44s0-.09-.05-.13,0-.14-.06-.2,0,0,0-.08a.19.19,0,0,1,0-.08A3,3,0,0,1,16.69,6,3,3,0,0,1,18,3.45a4.3,4.3,0,0,1,.78-.36c.26-.57.44-.94.5-1.09a3.42,3.42,0,0,1,.52-.76L20,1.07a3.49,3.49,0,0,1,.49-.39l.18-.1a4.72,4.72,0,0,1,.51-.25L21.4.26l.2-.07L22,.1,22.4,0h.53a5.12,5.12,0,0,1,.68,0l.41,0,.57.07a1.22,1.22,0,0,1,.33,0h0L46.24,2.44a1.61,1.61,0,0,1,.77.29h.15a5.8,5.8,0,0,1,1.12.2l.07,0h0a2.45,2.45,0,0,0,.37-.11,1.79,1.79,0,0,1,.69-.07L60.35,4a1.63,1.63,0,0,1,1.46,1.51l.1,1.42a2,2,0,0,1,0,.35.06.06,0,0,0,0,0l.72.1a1.64,1.64,0,0,1,1.2.82l0,0a1.52,1.52,0,0,1,.61.62,1.11,1.11,0,0,1,.09.19,1.6,1.6,0,0,1,.67.67l0,0a1.58,1.58,0,0,1,.6.63,1.63,1.63,0,0,1,.05,1.46l0,.07a1.69,1.69,0,0,1-.08,1.17l-.62,1.37a1.12,1.12,0,0,1,0,.27l0,1.42a1.93,1.93,0,0,1,0,.34,1.89,1.89,0,0,1-.13.48L55.28,38.78,50.72,51.16a1.64,1.64,0,0,1-1.49,1.08l-3.82,8.48A1.64,1.64,0,0,1,43.92,61.69ZM8.48,49.33l.07,0,.24.06L43,58.12l3.75-8.34a1.63,1.63,0,0,1,1.36-1L52.23,37.6a.36.36,0,0,1,0-.11L62,16v-.26a1.53,1.53,0,0,1-.14-.21,1.63,1.63,0,0,1,0-1.46l.54-1.19a1.67,1.67,0,0,1,0-.8,1.33,1.33,0,0,1-.14-.19,1.64,1.64,0,0,1-.81-.73,1.39,1.39,0,0,1-.12-.28,1.52,1.52,0,0,1-.39-.41l-1.34-.19A1.64,1.64,0,0,1,58.16,8l.38-1-9.15-1A3.73,3.73,0,0,1,48,6.22a3.27,3.27,0,0,1-.73-.15A2.28,2.28,0,0,0,46.87,6c-.21,0-.43,0-.65-.08a2.19,2.19,0,0,1-.76-.28L25,3.43a1.82,1.82,0,0,1-.57,0,5.88,5.88,0,0,0-.7-.1l-.29,0H23l-.25,0-.16,0-.08,0-.09,0-.13.05,0,0-.8,1.74a1.65,1.65,0,0,1-1.27.94,1.3,1.3,0,0,1,.14.29,1.61,1.61,0,0,1,0,1.29l-3.22,7a1.62,1.62,0,0,1-1.25.94,2.12,2.12,0,0,1,.11.21,1.62,1.62,0,0,1,0,1.36l-4.35,9.55a1.62,1.62,0,0,1-1.25.94,1.67,1.67,0,0,1,.12.23,1.65,1.65,0,0,1,0,1.34l-3.87,8.5a1.63,1.63,0,0,1-1.28.94,1.64,1.64,0,0,1,.13,1.59c-1.1,2.41-1.82,4-1.94,4.28l-.07.13c-.36,1.35-.27,2.73,2.57,3.76l.28.14a.37.37,0,0,0,.12.07L7.47,49l.07,0,.88.26Z"/><polygon class="cls-2" points="63.59 16.32 63.56 14.78 61.97 15.35 42.81 57.22 43.38 58.56 43.92 60.05 63.59 16.32"/><polygon class="cls-3" points="29.03 10.8 63.59 16.28 43.92 60.05 7.89 50.84 29.03 10.8"/><polygon class="cls-4" points="43.92 60.05 43.17 57.88 9.69 47.91 7.3 49.58 7.98 50.9 43.92 60.05"/><path class="cls-5" d="M55.46,31.25l-.25,1.13h.23l-9,19.45a2.62,2.62,0,0,0-1,1.41,12.31,12.31,0,0,1-.7,1.63c-.1.23-.42.66-.31.93a.36.36,0,0,0,.1.14l-1.2,2.61L23.55,53.64a.36.36,0,0,0-.1-.43c-.19-.14-.79-.1-1-.17s-.58-.17-.89-.22a13.5,13.5,0,0,0-1.85-.14l-4.11-1-5-1.25-.76-.19L8,49.78l-.79-.2.2-.37L24.28,17,27.46,11l.68-1.31.18-.36,0,0h0l.46.08.39.05,6.08,1,14.25,2.23a1,1,0,0,0,.44.28,11.34,11.34,0,0,1,1.27.24,2.09,2.09,0,0,0,1.44,0l8.92,1.4,2,.3L56.15,30.86Z"/><path class="cls-6" d="M55.46,31.25l-.25,1.13h.23l-9,19.45a2.62,2.62,0,0,0-1,1.41,12.31,12.31,0,0,1-.7,1.63c-.1.23-.42.66-.31.93a.36.36,0,0,0,.1.14l-1.2,2.61L23.55,53.64a.36.36,0,0,0-.1-.43c-.19-.14-.79-.1-1-.17s-.58-.17-.89-.22a13.5,13.5,0,0,0-1.85-.14l-9.14-2.27c0-.34.42-.51.75-.61a8.27,8.27,0,0,1,3.53.14c.48.08.91.23,1.39.35s1.16.17,1.73.27a46.53,46.53,0,0,0,4.69.7,27.17,27.17,0,0,0,3.82-.2c1.71-.12,3.42.13,5.12.11s3.08-.27,4.63-.3a7.7,7.7,0,0,0,1.27,0A4.93,4.93,0,0,0,39.1,50c1.24-.73,2.39-1.6,3.56-2.43a17.41,17.41,0,0,0,4.11-3.44,23.87,23.87,0,0,0,2.42-4.26c.88-1.82,1.58-3.73,2.47-5.54a37.38,37.38,0,0,0,2.44-5.11c.63-2,1.41-3.87,2-5.83a14.11,14.11,0,0,0,1-3.4l1-.52c-.18-.07-.19-.42-.17-.58.06-.48.44-.62.78-.94A20.54,20.54,0,0,0,61,15.26c.18-.23.39-.5.63-.78l2,.3L56.15,30.86Z"/><path class="cls-7" d="M55.46,31.25l-.24,1.13h.23l-9,19.45a2.59,2.59,0,0,0-1,1.41,12.25,12.25,0,0,1-.69,1.63c-.11.23-.43.66-.32.93a.36.36,0,0,0,.1.14l-1.2,2.61L23.56,53.64a.37.37,0,0,0-.11-.43c-.19-.14-.79-.1-1-.17s-.59-.17-.89-.22a13.74,13.74,0,0,0-1.85-.14L7.19,49.58l.2-.37.49.19,12.17,3.1s1.22,0,1.33-.08,2,.46,2,.46l.76.61,5.53,1.22,13.63,3.35.78-2.17.35-1.48.88-1.91s1.08-1.06,1.16-1.2S55,32.86,55,32.86v-.57L55.24,31l.8-.49,6.88-15.31-.33-.1-2.45-.41S56.47,14,56.28,14s-3.5-.4-3.68-.41-.86,0-.86,0L49,13,28.14,9.65l.18-.36,0,0,21.18,3.32a1.06,1.06,0,0,0,.44.28,10.93,10.93,0,0,1,1.27.24,2.09,2.09,0,0,0,1.44,0l10.88,1.7L56.15,30.86Z"/><polygon class="cls-8" points="63.16 13 25.52 6.88 4.62 47.62 42.94 57.27 63.16 13"/><polygon class="cls-9" points="62.54 12.33 24.88 6.32 4.11 47.13 42.47 56.66 62.54 12.33"/><polygon class="cls-8" points="61.79 11.49 24.05 6.06 3.9 47.17 42.39 56.12 61.79 11.49"/><polygon class="cls-9" points="61.16 10.83 23.4 5.52 3.38 46.69 41.9 55.52 61.16 10.83"/><polygon class="cls-10" points="64.3 12.43 26.66 6.31 5.76 47.05 44.08 56.7 64.3 12.43"/><polygon class="cls-11" points="63.68 11.76 26.02 5.76 5.25 46.56 43.6 56.09 63.68 11.76"/><polygon class="cls-10" points="62.93 10.92 25.19 5.49 5.03 46.6 43.53 55.55 62.93 10.92"/><polygon class="cls-11" points="62.3 10.26 24.54 4.95 4.52 46.12 43.04 54.95 62.3 10.26"/><polygon class="cls-10" points="64.41 11.19 26.77 5.06 5.87 45.8 44.19 55.45 64.41 11.19"/><polygon class="cls-11" points="63.79 10.51 26.13 4.51 5.36 45.31 43.71 54.84 63.79 10.51"/><polygon class="cls-12" points="63.71 11.17 29.7 10.37 10.5 44.35 49.18 50.6 63.71 11.17"/><polygon class="cls-10" points="63.04 9.68 25.29 4.24 5.14 45.36 43.63 54.3 63.04 9.68"/><polygon class="cls-11" points="62.41 9.02 24.64 3.7 4.63 44.88 43.15 53.7 62.41 9.02"/><path class="cls-3" d="M25.31,1.94,6,43.64a3.79,3.79,0,0,0-2.3-.34l-.15,0a2.7,2.7,0,0,0-.43.11A3.69,3.69,0,0,0,2,44C2.25,43.41,20,4.5,20.8,2.71A1.79,1.79,0,0,1,22,1.77l.26-.05.3-.05.31,0h.58l.38,0A9.36,9.36,0,0,1,25.31,1.94Z"/><path class="cls-13" d="M22.9,1.65c-.39.86-1,1.64-1.33,2.53C21.08,5.41,20.47,6.57,20,7.8c-.4,1-.8,2.15-1.29,3.17s-1.12,1.93-1.65,2.91c-1.39,2.63-2.28,5.48-3.7,8.1a32.56,32.56,0,0,0-2,4.3c-.49,1.35-1,2.66-1.65,4-.72,1.57-1.55,3.06-2.32,4.6a26.43,26.43,0,0,0-1.57,3.32,9.37,9.37,0,0,1-.7,1.67c-.25.46-.58.87-.83,1.33a10.53,10.53,0,0,0-.69,2.17,3,3,0,0,0-.43.11A3.83,3.83,0,0,0,2,44C2.25,43.41,20,4.5,20.8,2.71a1.9,1.9,0,0,1,1.49-1A4.22,4.22,0,0,1,22.9,1.65Z"/><path class="cls-14" d="M23,1.65,3.46,43.3a3.17,3.17,0,0,0-.57.14L22,1.77l.26-.05.3-.05.31,0Z"/><path class="cls-14" d="M23.86,1.68,4.48,43a3.17,3.17,0,0,0-.57.14L23,1.65h.23C23.44,1.64,23.65,1.66,23.86,1.68Z"/><path class="cls-14" d="M23.48,1.65,4,43.19a3.17,3.17,0,0,0-.57.14L22.59,1.67l.31,0h.58Z"/><polygon class="cls-2" points="60.28 7.13 60.18 5.6 58.61 6.24 41.46 48.97 42.1 50.29 42.7 51.75 60.28 7.13"/><polygon class="cls-3" points="25.5 3.26 60.28 7.09 42.7 51.75 6.28 44.26 25.5 3.26"/><polygon class="cls-15" points="5.52 44.02 42.84 52.99 61.27 8.87 40.99 7.09 5.52 44.02"/><polygon class="cls-4" points="42.7 51.75 41.85 49.61 7.95 41.25 5.63 43.03 6.38 44.31 42.7 51.75"/><path class="cls-16" d="M52.87,22.44l-.19,1.14h.23l-8,19.85A2.57,2.57,0,0,0,44,44.88a11.48,11.48,0,0,1-.62,1.66c-.09.24-.39.68-.27,1a.37.37,0,0,0,.12.13L42.1,50.29l-20-4c0-.18,0-.33-.12-.42s-.8-.07-1-.12-.6-.15-.91-.18a12.44,12.44,0,0,0-1.85-.06L14,44.71l-5.08-1-.77-.15-1.8-.36L5.52,43l.18-.38L21,9.7l2.9-6.21.61-1.33.17-.37,0,0h0l.46.06.39,0,6.12.66L46.06,4.07a1,1,0,0,0,.45.25,9.42,9.42,0,0,1,1.28.19,2.2,2.2,0,0,0,1.44-.09l9,1,2,.21L53.54,22Z"/><path class="cls-6" d="M52.87,22.44l-.19,1.14h.23l-8,19.85A2.57,2.57,0,0,0,44,44.88a11.48,11.48,0,0,1-.62,1.66c-.09.24-.39.68-.27,1a.37.37,0,0,0,.12.13L42.1,50.29l-20-4c0-.18,0-.33-.12-.42s-.8-.07-1-.12-.6-.15-.91-.18a12.44,12.44,0,0,0-1.85-.06L8.9,43.7c0-.33.4-.52.71-.64a8.44,8.44,0,0,1,3.54,0c.48.06.92.19,1.4.29s1.17.11,1.75.18A44,44,0,0,0,21,44a27,27,0,0,0,3.81-.38c1.7-.2,3.42,0,5.12-.13,1.55-.09,3.07-.43,4.61-.53a9,9,0,0,0,1.27-.07,5.37,5.37,0,0,0,1.6-.89c1.2-.79,2.31-1.72,3.44-2.59a17.72,17.72,0,0,0,3.94-3.64A23.94,23.94,0,0,0,47,31.38c.79-1.86,1.4-3.8,2.2-5.65a38.47,38.47,0,0,0,2.2-5.22c.53-2,1.22-3.93,1.76-5.92A14.16,14.16,0,0,0,54,11.15l1-.57c-.18-.06-.21-.41-.2-.58,0-.47.4-.63.74-1A21.32,21.32,0,0,0,57.61,6.2c.17-.24.37-.52.59-.81l2,.21L53.54,22Z"/><path class="cls-17" d="M52.87,22.44l-.19,1.14h.23l-8,19.85A2.63,2.63,0,0,0,44,44.88a12.73,12.73,0,0,1-.61,1.66c-.1.24-.4.68-.28,1a.37.37,0,0,0,.12.13L42.1,50.29l-20-4a.36.36,0,0,0-.12-.42c-.2-.14-.8-.07-1-.12s-.6-.15-.91-.18a12.39,12.39,0,0,0-1.85-.06L5.52,43l.18-.38.5.17,12.31,2.52s1.21-.11,1.32-.14,2.06.36,2.06.36l.79.56,5.58,1L42,49.79l.67-2.21L43,46.09l.78-2s1-1.1,1.11-1.24,7.61-18.83,7.61-18.83l0-.56.17-1.28.79-.54L59.56,6.07,59.22,6,56.76,5.7s-3.7-.53-3.89-.53-3.51-.24-3.7-.24-.85.06-.85.06l-2.8-.53-21-2.3.16-.37,0,0L46.06,4.07a1,1,0,0,0,.45.25,9.42,9.42,0,0,1,1.28.19,2.2,2.2,0,0,0,1.44-.09l11,1.18L53.54,22Z"/><polygon class="cls-4" points="25.03 1.85 5.76 43.19 4.96 43.03 5.13 42.65 24.18 1.75 25.03 1.85"/><polygon class="cls-2" points="25.6 1.85 6.33 43.19 5.52 43.03 5.7 42.65 24.75 1.75 25.6 1.85"/><path class="cls-18" d="M22.72,5l-.19.4-.29.62L22,6.6s-2.78-.6-3.07.23c-.13.4-.41.11-.53-.37A2.13,2.13,0,0,1,18.33,6a1.31,1.31,0,0,1,.58-1.17A4.58,4.58,0,0,1,22.72,5Z"/><path class="cls-19" d="M22.53,5.43,22,6.6s-2.78-.6-3.07.23c-.17.51-.58-.1-.59-.82A1.65,1.65,0,0,1,19,5.39a1.37,1.37,0,0,1,.59-.19,2.36,2.36,0,0,0,.37,0c.15,0,.29,0,.44-.07s.57,0,.85,0,.52-.05.78-.05a.51.51,0,0,1,.43.26A.44.44,0,0,1,22.53,5.43Z"/><path class="cls-20" d="M22.24,6.05,22,6.6s-2.78-.6-3.07.23c-.13.4-.41.11-.53-.37a.9.9,0,0,1,.23-.18,3.36,3.36,0,0,1,1.25-.37,10.91,10.91,0,0,1,1.27-.12c.33,0,.76-.06,1,.17A.31.31,0,0,1,22.24,6.05Z"/><path class="cls-21" d="M19.2,5c0,.08.18.12.35.07s.29-.17.27-.25-.19-.12-.36-.07S19.17,4.9,19.2,5Z"/><path class="cls-22" d="M22.88,4.67c-.05,0-.13,0-.19,0a.9.9,0,0,0-.29.21,2.29,2.29,0,0,0-.47.78,1,1,0,0,1-.49.44,1.28,1.28,0,0,1-.33.06,4.51,4.51,0,0,1-.53.08,8.53,8.53,0,0,0-1,0,2.37,2.37,0,0,0-.36.09.56.56,0,0,0-.3.12c-.11.08-.33.25-.3.39s.33,0,.22.3.18,0,.27-.11a3.55,3.55,0,0,1,.31-.23l.34-.13a1.14,1.14,0,0,1,.37,0,1.21,1.21,0,0,1,.32.11l.68.23a.83.83,0,0,0,.62,0,1.63,1.63,0,0,0,.61-.53,3.91,3.91,0,0,0,.42-.78c.11-.26.35-.51.28-.81a.47.47,0,0,0,0-.17Z"/><path class="cls-18" d="M18.18,14.6,18,15l-.27.62-.24.54s-2.61-.59-2.88.24c-.13.39-.38.11-.5-.37a2.14,2.14,0,0,1,0-.45,1.34,1.34,0,0,1,.54-1.17A4.08,4.08,0,0,1,18.18,14.6Z"/><path class="cls-19" d="M18,15l-.51,1.16s-2.61-.59-2.88.24c-.16.51-.54-.11-.55-.82a1.54,1.54,0,0,1,.62-.62,1.21,1.21,0,0,1,.55-.19c.12,0,.23,0,.35,0s.27-.05.41-.07a7.12,7.12,0,0,1,.8,0c.24,0,.49,0,.72,0a.48.48,0,0,1,.41.26A.44.44,0,0,1,18,15Z"/><path class="cls-20" d="M17.73,15.62l-.24.54s-2.61-.59-2.88.24c-.13.39-.38.11-.5-.37a1.09,1.09,0,0,1,.22-.18,3,3,0,0,1,1.17-.37,9.59,9.59,0,0,1,1.19-.12c.31,0,.72-.07,1,.17A.22.22,0,0,1,17.73,15.62Z"/><path class="cls-21" d="M14.87,14.55c0,.09.17.12.33.07s.27-.16.25-.25-.17-.12-.33-.07S14.85,14.47,14.87,14.55Z"/><path class="cls-22" d="M18.33,14.24l-.18,0a1.14,1.14,0,0,0-.28.21,2.8,2.8,0,0,0-.44.77.92.92,0,0,1-.46.45,1.07,1.07,0,0,1-.3.06,4.29,4.29,0,0,1-.5.07c-.31,0-.64,0-1,.05a1.87,1.87,0,0,0-.34.08.63.63,0,0,0-.28.12c-.1.09-.31.26-.27.39s.3,0,.2.31.17-.05.25-.11a2.09,2.09,0,0,1,.29-.23,1.79,1.79,0,0,1,.32-.13.78.78,0,0,1,.34,0,1.12,1.12,0,0,1,.31.1l.63.24a.69.69,0,0,0,.58,0,1.52,1.52,0,0,0,.58-.52,4.79,4.79,0,0,0,.4-.78c.09-.27.32-.51.26-.8a.48.48,0,0,0,0-.18Z"/><path class="cls-23" d="M31.19,11.07c-3.33,5.52-7.59,11.17-8.94,16.52C21,32.39,23,36.8,17,42c-.78.68-1.88,1.76-3.06,2.67l-5.08-1-.77-.15A24.92,24.92,0,0,1,8,40.49c-.08-2.19.92-4.79,2.21-7.17,2.39-4.39,4-8.64,6.31-13a58.12,58.12,0,0,0,3.37-7.15c.25-.7.84-1.44,1-2.12.11-.46.1-.88.18-1.33A2.58,2.58,0,0,1,21.23,9a35.54,35.54,0,0,1,2.71-5.53,12.79,12.79,0,0,1,1.27-1.68l.39,0,6.12.66C31.4,5.21,32.69,8.59,31.19,11.07Z"/><path class="cls-15" d="M42.1,50.29l.6,1.46.06,1,.48,1,.4.6.07.54.24.62-.42.09.28.48.33.57h-.9l-.09.52.14,1,.09.4.54,1.49L5.76,50.29S2.25,48.34,2,46.59s-.18-2.66,1-3.09,6.17.58,6.17.58l10.67,2.36,20.92,3.94Z"/><path class="cls-17" d="M43.26,36.05l-2.7,1.66a.3.3,0,0,1-.42-.1l-.48-.77a.31.31,0,0,1,.1-.42l.24-.15-.14-.22a.24.24,0,0,1-.25-.11l-.37-.6a.21.21,0,0,1,0-.27l-.1-.16a.25.25,0,0,1-.26-.12l-.37-.59a.24.24,0,0,1,0-.27l-.1-.17a.23.23,0,0,1-.25-.11l-.37-.59a.24.24,0,0,1,0-.28l-.1-.16a.25.25,0,0,1-.26-.11l-.36-.6a.23.23,0,0,1,0-.27l-.1-.16a.23.23,0,0,1-.25-.11l-.06-.1-3.41,1.14-1.26-1.26h0v0h0l.36-1.09,1.38-.82-1.35-2.11-2.12,1.33.91,1.34-.14,1.14h0l-1.67.61L26.8,29.06l-.1.07a.26.26,0,0,1-.28,0l-.15.1a.25.25,0,0,1-.11.26l-.58.38a.24.24,0,0,1-.28,0l-.16.11a.23.23,0,0,1-.1.25l-.58.39a.24.24,0,0,1-.28,0l-.16.1a.23.23,0,0,1-.1.26l-.58.39a.26.26,0,0,1-.28,0l-.16.11a.23.23,0,0,1-.1.25l-.59.39a.24.24,0,0,1-.27,0l-.22.15.15.22a.32.32,0,0,1-.09.43l-.76.5a.31.31,0,0,1-.43-.09l-1.73-2.65A.31.31,0,0,1,19,30.2l.76-.5a.31.31,0,0,1,.42.09l.21.32.21-.14v0a.22.22,0,0,1,.07-.33l.58-.39a.24.24,0,0,1,.33.07l0,0,.14-.09,0,0a.23.23,0,0,1,.07-.33l.59-.38a.22.22,0,0,1,.32.07l0,0,.14-.09,0,0a.24.24,0,0,1,.07-.33l.59-.39a.24.24,0,0,1,.33.07v0l.14-.09,0,0a.24.24,0,0,1,.07-.33l.59-.38a.24.24,0,0,1,.33.07l0,0L25,27l0,0a.24.24,0,0,1,.06-.32L23.3,23,24.52,22h0l-.07,0L23.3,23l1-1,1.35-.34,1.23,1.81.6.77,2.18-1.41-.46-.7L29.05,21l-.54-.17-2.19-3.38.38-4.31h.06l0,0,4.11,1.72,3.15,5,5-3.21,4.45.18,0,0,0,0h0L42.07,21l-3.41,2.13L38.1,23l-.59.89-.71.45,1.38,2.2.87-.46L40.93,25l1.09.88.46,1.36-.65-1.32,0-.05h0l.7,1.38-3.18,2.59a.24.24,0,0,1-.08.31l0,0,.09.14,0,0a.23.23,0,0,1,.33.08L40,31a.23.23,0,0,1-.08.32l0,0,.09.14,0,0a.23.23,0,0,1,.32.08l.37.6a.23.23,0,0,1-.08.33h0l.08.14,0,0a.24.24,0,0,1,.33.08l.37.6a.24.24,0,0,1-.08.33h0l.08.14h0a.23.23,0,0,1,.33.07l.37.6a.24.24,0,0,1-.08.33h0l.14.22.33-.21a.31.31,0,0,1,.42.11l.47.77A.3.3,0,0,1,43.26,36.05Z"/><path class="cls-17" d="M40.4,38.21a.75.75,0,0,1-.65-.36l-.47-.77a.76.76,0,0,1,0-.81l-.06-.1-.37-.59a.75.75,0,0,1-.1-.31.76.76,0,0,1-.23-.24l-.37-.59a.63.63,0,0,1-.1-.32.59.59,0,0,1-.24-.23l-.37-.6a.56.56,0,0,1-.09-.31.59.59,0,0,1-.24-.23l-.37-.6a.67.67,0,0,1-.1-.31l-.07,0L33.2,32.92,32,31.69l-.53.22V32l0,0-.06,0,0-.08L31,31.46l-1.65.59L26.71,29.6l-.07,0a.87.87,0,0,1-.23.24l-.58.38a.76.76,0,0,1-.32.11.56.56,0,0,1-.22.24L24.7,31a.57.57,0,0,1-.31.1.67.67,0,0,1-.22.25l-.59.38a.68.68,0,0,1-.31.11.63.63,0,0,1-.22.24l-.59.39-.1,0a.75.75,0,0,1-.33.74l-.76.5a.78.78,0,0,1-1.05-.22l-1.74-2.65a.76.76,0,0,1-.11-.57.78.78,0,0,1,.33-.48l.76-.5a.76.76,0,0,1,.81,0l.09-.07.59-.39a.63.63,0,0,1,.3-.1.92.92,0,0,1,.23-.25l.59-.38a.68.68,0,0,1,.31-.11.56.56,0,0,1,.22-.24l.59-.39a.67.67,0,0,1,.31-.1.67.67,0,0,1,.22-.25l.59-.38a.67.67,0,0,1,.21-.09l-1.79-3.7.24-.19h0l1.09-1.14,1.78-.45,1.41,2.07.33.43L29,22.64l-.26-.41-.13-.86-.42-.13-2.36-3.65.44-5.08.49.21H27l.08.12,4.11,1.72,3,4.76,4.72-3.05,4.46.19.09-.06.24.08.49.07-.19.52-1.53,4.21-3.69,2.3-.44-.06-.48.73-.42.26L38.34,26l.5-.26L41,24.45l1.43,1.16.5,1.49h0l.14.28L39.86,30a1.15,1.15,0,0,1,.14.17l.37.6a.57.57,0,0,1,.1.31.66.66,0,0,1,.24.23l.37.6a.71.71,0,0,1,.1.31.66.66,0,0,1,.23.24l.37.59a.71.71,0,0,1,.1.31.69.69,0,0,1,.24.24l.36.59a.24.24,0,0,1,.05.1.78.78,0,0,1,.74.36l.47.77a.74.74,0,0,1,.09.58.77.77,0,0,1-.34.47L40.8,38.1A.8.8,0,0,1,40.4,38.21Zm-.28-1.48.33.52,2.45-1.51-.33-.52-.59.36-.61-1,.23-.14-.14-.24-.2.13-.35-.51-.24-.38.23-.14-.14-.24-.21.13-.35-.51L40,32.31l.24-.14-.15-.23-.2.12-.35-.5-.24-.39.23-.14-.14-.24-.21.13-.35-.5L38.56,30l.24-.14-.09-.16,3.2-2.59-.67-1.31-.35-.28-1.61.95L38,27.16l-1.84-2.94,1-.63.68-1,.69.09,3.14-2,1.22-3.34-3.78-.16L33.9,20.57l-3.32-5.29-3.49-1.46-.31,3.54,2,3.11.65.21.19,1.22.64,1-2.91,1.88-.85-1.11-1.07-1.56-.46.11-.2.17-.93.72,1.79,3.71-.14.1.14.21-.49.36-.39.25-.14-.23-.23.15.13.2-.5.36-.38.25-.15-.22-.23.15.13.2-.49.36-.38.25L22.38,29l-.23.16.13.19-.49.36-.37.25-.15-.23-.24.16.13.2-.57.41-.38.25-.38-.58-.51.33,1.57,2.41.52-.34-.32-.48L22,31.5l.14.11.34-.22-.05-.17.7-.45.13.1.34-.21,0-.17L24.2,30l.13.1.34-.22,0-.17.69-.45.13.1.34-.22,0-.16.69-.46.14.11.27-.18L29.51,31l1.16-.42.09-.7-1.08-1.58,2.9-1.83,1.85,2.89-1.64,1-.22.67.87.87,3.48-1.16.18.28.2,0,.13.27.27.44-.11.13.21.34.21,0,.12.27.27.44-.11.13.21.34.21,0,.13.28.26.43-.1.13.21.34.16,0,.44.7-.11.13.21.35.21,0,.12.28.38.61ZM31.51,31.2l0,.24.08-.26h0Zm0-.37,0,.06.09-.06L32,29.75l1.13-.67-.86-1.34L31,28.58l.75,1.09Z"/><path class="cls-17" d="M40.4,38.25a.78.78,0,0,1-.68-.38l-.48-.77a.8.8,0,0,1,0-.83l-.06-.07-.37-.6a.87.87,0,0,1-.1-.31.84.84,0,0,1-.23-.23l-.37-.6a.89.89,0,0,1-.11-.31.8.8,0,0,1-.22-.23l-.37-.6A.72.72,0,0,1,37.3,33a.84.84,0,0,1-.23-.23l-.37-.6a.71.71,0,0,1-.1-.32l0,0-3.08,1a.48.48,0,0,1-.51-.12l-1.2-1.19-.05,0a.48.48,0,0,1-.16-.44,0,0,0,0,0,0,0,.51.51,0,0,1-.31.3h-.07l-1.6.58a.51.51,0,0,1-.51-.11L26.7,29.65h0a.69.69,0,0,1-.22.23l-.59.39a.68.68,0,0,1-.31.11.66.66,0,0,1-.23.24l-.58.38a.72.72,0,0,1-.31.11.66.66,0,0,1-.23.24l-.58.39a.72.72,0,0,1-.31.11.66.66,0,0,1-.23.24l-.58.38-.08.05a.79.79,0,0,1-.36.75l-.76.49a.83.83,0,0,1-1.11-.23L18.45,30.9a.82.82,0,0,1-.12-.61.8.8,0,0,1,.35-.51l.76-.49a.8.8,0,0,1,.83,0,.13.13,0,0,1,.07-.05l.58-.39a.68.68,0,0,1,.31-.11.66.66,0,0,1,.23-.24l.58-.38a.69.69,0,0,1,.31-.12.87.87,0,0,1,.23-.24l.59-.38a.79.79,0,0,1,.3-.12A.84.84,0,0,1,23.7,27l.59-.39.17-.08-1.61-3.32a.46.46,0,0,1,0-.38.52.52,0,0,1,.11-.19l1-1a.43.43,0,0,1,.23-.14l1.36-.34a.5.5,0,0,1,.53.2l1.53,2.2,1.38-.9-.18-.29a.46.46,0,0,1-.08-.19l-.1-.74-.24-.08a.47.47,0,0,1-.28-.2l-2.18-3.38a.43.43,0,0,1-.08-.31l.38-4.31a.47.47,0,0,1,.22-.37.54.54,0,0,1,.3-.08h0a.45.45,0,0,1,.31.12l4,1.67a.55.55,0,0,1,.23.2l2.88,4.6,4.56-3a.49.49,0,0,1,.29-.08l4.37.18a.51.51,0,0,1,.3,0l0,0a.5.5,0,0,1,.23.18.56.56,0,0,1,0,.44l-1.49,4.06a.47.47,0,0,1-.19.25l-3.42,2.13a.48.48,0,0,1-.33.07l-.25,0-.41.63a.4.4,0,0,1-.15.14l-.3.19.88,1.4.46-.25,1.86-1.1a.5.5,0,0,1,.57.05l1.08.87a.51.51,0,0,1,.15.23l.46,1.37a.42.42,0,0,1,0,.22.44.44,0,0,1-.18.33L39.92,30a.61.61,0,0,1,.12.15l.37.6a.67.67,0,0,1,.1.31.57.57,0,0,1,.23.23l.37.6a.68.68,0,0,1,.11.31.72.72,0,0,1,.23.23l.37.6a.81.81,0,0,1,.1.31.72.72,0,0,1,.23.23l.37.6s0,0,0,.08a.78.78,0,0,1,.74.38l.48.77a.78.78,0,0,1,.09.6.74.74,0,0,1-.36.5l-2.69,1.66A.76.76,0,0,1,40.4,38.25Zm-.22-1.51.28.45,2.38-1.46-.28-.46-.17.11a.5.5,0,0,1-.68-.16L41.57,35a.48.48,0,0,1,0-.37.88.88,0,0,1,0-.15l-.16-.26a.29.29,0,0,1-.13,0A.48.48,0,0,1,41,34l-.09-.14a.48.48,0,0,1-.06-.37.3.3,0,0,1,.06-.14l-.16-.27a.32.32,0,0,1-.14,0,.51.51,0,0,1-.32-.21l-.08-.14a.49.49,0,0,1-.06-.37.3.3,0,0,1,.06-.14L40,31.94a.51.51,0,0,1-.45-.22l-.09-.14a.51.51,0,0,1,0-.52l-.16-.26a.52.52,0,0,1-.46-.22l-.08-.14a.51.51,0,0,1,0-.57.52.52,0,0,1,.19-.41l2.87-2.34-.52-1a.41.41,0,0,1,0-.18l-.39-.32-1.59.94-.89.46a.49.49,0,0,1-.65-.17l-1.38-2.2a.5.5,0,0,1,.16-.68l.62-.4.52-.79a.52.52,0,0,1,.48-.22l.39.06,3.12-2,1.19-3.27-3.7-.15-4.85,3.13a.52.52,0,0,1-.38.07.5.5,0,0,1-.31-.22l-3.07-4.9-3.42-1.43-.3,3.47,2,3.09.37.11a.5.5,0,0,1,.34.4l.14.94.39.62a.49.49,0,0,1-.14.68L27.74,24.6a.49.49,0,0,1-.66-.12l-.59-.77-1.06-1.55-.49.12a.44.44,0,0,1-.12.15l-.9.71,1.61,3.33a.48.48,0,0,1,0,.45.51.51,0,0,1-.2.53l-.14.09a.47.47,0,0,1-.37.06.34.34,0,0,1-.14-.05l-.26.17a.33.33,0,0,1,0,.14.46.46,0,0,1-.2.32l-.14.09a.48.48,0,0,1-.37.07l-.14-.05-.26.17a.52.52,0,0,1-.21.46l-.14.09a.49.49,0,0,1-.51,0l-.26.17a.51.51,0,0,1-.21.46l-.14.09a.47.47,0,0,1-.51,0l-.26.17a.57.57,0,0,1,0,.13.49.49,0,0,1-.21.33l-.2.14a.57.57,0,0,1-.38.07.5.5,0,0,1-.31-.22l-.11-.16-.45.29,1.53,2.33.45-.29-.05-.08a.45.45,0,0,1-.07-.36.52.52,0,0,1,.22-.32l.22-.14a.45.45,0,0,1,.39-.07l.35-.23a.53.53,0,0,1,.22-.34l.16-.1a.5.5,0,0,1,.39-.07l.36-.23a.48.48,0,0,1,.21-.33l.16-.1a.5.5,0,0,1,.39-.07l.36-.23a.44.44,0,0,1,.21-.33l.16-.11a.5.5,0,0,1,.39-.07l.36-.23a.52.52,0,0,1,.21-.33l.16-.1a.47.47,0,0,1,.4-.07.48.48,0,0,1,.59.06L29.53,31l1.1-.4.09-.66-.81-1.18a.48.48,0,0,1,.14-.69l2.13-1.34a.49.49,0,0,1,.68.15L34.21,29a.47.47,0,0,1,.07.38.52.52,0,0,1-.23.31l-1.23.73-.21.63.84.83,3.12-1a.5.5,0,0,1,.56.18.44.44,0,0,1,.33.24l.1.16a.46.46,0,0,1,.06.39l.21.35a.48.48,0,0,1,.34.24l.1.16a.51.51,0,0,1,0,.4l.22.34a.47.47,0,0,1,.33.24l.1.16a.52.52,0,0,1,.06.4l.21.34a.47.47,0,0,1,.33.24l.11.17a.49.49,0,0,1,0,.39l.22.34a.48.48,0,0,1,.33.25l.14.22a.5.5,0,0,1-.16.68ZM31.58,31v0a0,0,0,0,1,0,0l.34-1.07a.53.53,0,0,1,.23-.28l.94-.56-.81-1.26L31,28.6l.62.91a.57.57,0,0,1,.08.34Z"/><path class="cls-17" d="M40.4,38.7a1.25,1.25,0,0,1-1.07-.59l-.47-.77a1.25,1.25,0,0,1-.13-1l-.3-.48a1.28,1.28,0,0,1-.13-.29,1.16,1.16,0,0,1-.2-.24l-.37-.61a.86.86,0,0,1-.13-.29,1.27,1.27,0,0,1-.21-.25l-.37-.6a1,1,0,0,1-.13-.29,1.16,1.16,0,0,1-.2-.24l-.37-.61h0l-2.69.89a1,1,0,0,1-1-.22L31.47,31.9l-.06,0s0,0,0,0h0l-.08,0-1.57.57a1,1,0,0,1-1-.21l-2.07-2h0l-.59.39a1.08,1.08,0,0,1-.29.13,1.71,1.71,0,0,1-.25.22l-.58.38a1.35,1.35,0,0,1-.3.14,1.21,1.21,0,0,1-.24.21l-.59.38a.86.86,0,0,1-.29.14.79.79,0,0,1-.24.21l-.47.32a1.23,1.23,0,0,1-.55.86l-.76.5a1.21,1.21,0,0,1-.68.2,1.27,1.27,0,0,1-1.05-.56l-1.74-2.65a1.2,1.2,0,0,1-.18-.94,1.23,1.23,0,0,1,.54-.79l.76-.5a1.3,1.3,0,0,1,1-.16l.46-.31a1.38,1.38,0,0,1,.3-.14,1.21,1.21,0,0,1,.24-.21l.59-.38a1.11,1.11,0,0,1,.29-.14,1.21,1.21,0,0,1,.24-.21l.59-.39a1.11,1.11,0,0,1,.29-.14,1,1,0,0,1,.25-.21l.41-.27-1.42-3a.89.89,0,0,1,0-.73.88.88,0,0,1,.21-.34l1-1a.87.87,0,0,1,.46-.27l1.35-.34a1,1,0,0,1,1,.38l1.28,1.85.65-.42a.7.7,0,0,1-.09-.29l-.07-.45a1,1,0,0,1-.48-.38L25.52,18a1,1,0,0,1-.14-.6l.38-4.31a.9.9,0,0,1,.43-.71.92.92,0,0,1,.51-.15h.07a1,1,0,0,1,.53.17l3.95,1.66a.84.84,0,0,1,.44.37l2.64,4.21,4.17-2.7a1,1,0,0,1,.51-.15h.06l4.31.18a.9.9,0,0,1,.52.08h0a.89.89,0,0,1,.41.36.94.94,0,0,1,.09.83L43,21.3a.91.91,0,0,1-.38.48l-3.42,2.13a.91.91,0,0,1-.6.14l-.25.39a1.45,1.45,0,0,1-.21.22l.42.66.1-.05,1.83-1.08a1,1,0,0,1,1.08.07l1.08.88a.94.94,0,0,1,.3.44L43.37,27a.84.84,0,0,1,0,.42.89.89,0,0,1-.34.62l-2.54,2.06.26.43a1.55,1.55,0,0,1,.14.29,1.69,1.69,0,0,1,.2.25l.37.6a1.08,1.08,0,0,1,.13.29,2.43,2.43,0,0,1,.2.25l.37.6a1,1,0,0,1,.13.3.82.82,0,0,1,.2.25l.3.47a1.25,1.25,0,0,1,.86.58l.47.77a1.26,1.26,0,0,1-.41,1.73l-2.69,1.66A1.28,1.28,0,0,1,40.4,38.7Zm-.06-.9a.4.4,0,0,0,.24,0l2.7-1.66a.38.38,0,0,0,.15-.2Zm-.76-1.17a.32.32,0,0,0,.05.23l.47.77a.34.34,0,0,0,.19.15Zm-2.93-5.29.35.26,0,.22a.28.28,0,0,0,0,.12l.37.6a.3.3,0,0,0,.08.08l.19.12,0,.22a.42.42,0,0,0,0,.12l.37.6.09.09.19.12v.21a.42.42,0,0,0,0,.12l.37.6a.38.38,0,0,0,.09.09l.19.12,0,.21a.34.34,0,0,0,0,.12l.37.6.19.25-.13.29,0,.07.43-.26a0,0,0,0,0,0-.06L39.89,36s0,0,0,0l-.21,0-.09-.18-.32-.51.06-.19-.11-.2a.07.07,0,0,0,0,0l-.22,0-.08-.18-.32-.52.05-.18-.1-.2,0,0-.22,0-.09-.18L37.83,33l.06-.2-.11-.19,0,0-.23,0-.08-.18-.32-.52,0-.19-.1-.19,0,0-.2,0-.12-.17h0l-3.38,1.13L32.1,31.13l.34-1.05,1.38-.82v-.05l-1.35-2.12-.3-.39.24.38L30.3,28.42l-.39.31.37-.25.9,1.32-.13,1.1-1.63.59L26.83,29l-.16.1-.23-.05-.2.11,0,.19-.18.14-.52.34-.2-.05-.19.11,0,.2-.18.13-.53.35-.19-.05-.19.11,0,.19-.19.14-.52.34-.19,0-.19.11,0,.19-.18.14-.52.35L22,32l-.26.15h0v.06l.28.42v-.08l0-.32.28-.13.61-.4a.2.2,0,0,0,.09-.09l.11-.19.22,0a.28.28,0,0,0,.12,0l.58-.38A.38.38,0,0,0,24,30.9l.12-.2.21,0a.31.31,0,0,0,.12-.05l.58-.38a.43.43,0,0,0,.1-.09l.11-.19.21,0a.25.25,0,0,0,.12,0l.59-.39.09-.09.11-.18.42-.06.2.14,2.37,2.25,1.7-.59.33.08L31.13,31l.91.22,0,.07,1.21,1.19Zm3.59,3.82a1,1,0,0,1,.42.39l.14.23a.9.9,0,0,1,.14.59l.85-.53a1,1,0,0,1-.47-.38l-.13-.22a1,1,0,0,1-.13-.62.94.94,0,0,1-.49-.38l-.08-.14a.85.85,0,0,1-.13-.62,1,1,0,0,1-.5-.39L39.78,33a1,1,0,0,1-.13-.62,1,1,0,0,1-.49-.38l-.08-.14A.93.93,0,0,1,39,31.2a.91.91,0,0,1-.49-.39l-.08-.14a.93.93,0,0,1,0-1,.92.92,0,0,1,.34-.61L41.28,27l-.35-.7-.06-.15h0l-1.32.77-.91.48a1,1,0,0,1-1.24-.33L36,24.87a1,1,0,0,1,.3-1.31l.54-.34.47-.71a.93.93,0,0,1,.91-.41l.23,0,2.85-1.78.92-2.54-2.94-.12-4.73,3a1,1,0,0,1-.72.13.91.91,0,0,1-.59-.42l-3-4.77-2.72-1.14-.24,2.69,1.83,2.82.21.07a.94.94,0,0,1,.66.76l.12.85.34.53a1,1,0,0,1-.28,1.31L28,25a1,1,0,0,1-1.26-.22l-.6-.78-.89-1.31h0a.63.63,0,0,1-.12.11l-.61.48,1.45,3A.93.93,0,0,1,26,27a.92.92,0,0,1-.42.82l-.14.09a1,1,0,0,1-.61.15,1,1,0,0,1-.37.5l-.14.09a1,1,0,0,1-.61.15,1,1,0,0,1-.37.49l-.14.09a.89.89,0,0,1-.61.15,1,1,0,0,1-.37.5l-.14.09a1,1,0,0,1-.62.15.92.92,0,0,1-.37.49l-.21.14a.92.92,0,0,1-.59.16l.55.83a1,1,0,0,1,.38-.48l.22-.14a.88.88,0,0,1,.53-.16l.08-.05a1,1,0,0,1,.35-.42l.16-.11a.91.91,0,0,1,.53-.15l.08-.06a1,1,0,0,1,.35-.42l.16-.1a1,1,0,0,1,.53-.16l.08-.05a1,1,0,0,1,.35-.42l.16-.11a.84.84,0,0,1,.53-.15l.08-.06a1,1,0,0,1,.36-.42l.16-.1a.94.94,0,0,1,.56-.16,1,1,0,0,1,1,.2l2.18,2.08.59-.21,0-.21-.71-1a1,1,0,0,1-.15-.73.93.93,0,0,1,.42-.6l2.12-1.34a1,1,0,0,1,1.31.29l1.35,2.11A.93.93,0,0,1,34.28,30l-1.08.64-.07.2.44.44,2.85-.95a1.69,1.69,0,0,1,1.43.61l.1.16a1,1,0,0,1,.14.54l0,.06a1,1,0,0,1,.42.38l.1.17a.9.9,0,0,1,.14.53l0,.06a.94.94,0,0,1,.43.39l.1.16a1,1,0,0,1,.13.53l0,.06a1,1,0,0,1,.43.38l.1.17a.92.92,0,0,1,.14.53Zm2.49-.48.71,1.17a.37.37,0,0,0,0-.25l-.47-.77A.4.4,0,0,0,42.73,34.68Zm-1.08-.92.46.72-.15.24.13.26h.06l.52-.32h-.05l-.31,0-.16-.29-.38-.62-.09-.09-.18-.12,0-.21a.25.25,0,0,0,0-.12l-.36-.6a.28.28,0,0,0-.1-.09l-.18-.12,0-.22a.56.56,0,0,0,0-.12l-.37-.59a.2.2,0,0,0-.09-.09l-.18-.12,0-.22A.15.15,0,0,0,40,31l-.36-.61s0,0,0-.05L39.27,30h0l-.12.17a0,0,0,0,0,0,.05l.09.14.27,0,.18.24.31.5-.14.24.08.18h.31l.46.72-.15.23.08.18h0l.28,0,.45.74-.14.23.08.18h.31Zm-20.83-.32a.31.31,0,0,0,.22,0l.76-.5a.43.43,0,0,0,.15-.2Zm-2.05-3a.42.42,0,0,0,.05.24l1.74,2.64a.34.34,0,0,0,.19.14Zm1.2-.79.34.51.31.4-.25-.38.21-.14s0,0,0,0l0-.27.72-.47.24.14.18-.1a.06.06,0,0,0,0,0l0-.27.71-.47.24.14.18-.09a.1.1,0,0,0,0,0l0-.27.71-.47.24.14h0l.14-.09s0,0,0,0l0-.26.71-.48.24.14.18-.09a.06.06,0,0,0,0-.06l0-.16,0,0L24.6,27l-.07,0-.58.38a.28.28,0,0,0-.09.1l-.11.19-.22,0a.28.28,0,0,0-.12,0l-.59.38a.34.34,0,0,0-.08.09l-.11.19-.22,0a.28.28,0,0,0-.12,0l-.58.39a.2.2,0,0,0-.09.09l-.11.18-.22,0a.22.22,0,0,0-.12.05l-.58.38-.24.21-.3-.14Zm-.09,0a.46.46,0,0,0-.2.05l-.75.5a.33.33,0,0,0-.15.2l1.14-.75Zm21.05-4.56.78.64,0,.19.69,1.37-3.16,2.56v.11l3.23-2.63v-.06l-.46-1.36L41,25l-.28-.39.23.39-1.85,1.1-.86.45-1.34-2.13.68-.43.58-.87.53.07L42.1,21l1.5-4.08h0l0-.06h-.17L39,16.68l-5,3.21-3.12-5-4.2-1.77-.3-.38.24.38-.39,4.34,2.2,3.41.53.17.15,1,.44.69-2.13,1.38-1.78-2.57h-.05l-1.36.34-1,1.05-.42.26.41-.2,1.82,3.77,0-.07L23.35,23l1.19-.92.09-.18,1-.25,1.23,1.8.58.76h.06l2.18-1.41a0,0,0,0,0,0-.06l-.45-.7-.15-1,0,0-.52-.16-2.18-3.36.38-4.23L30.86,15,34,20h.06l5-3.21L43.5,17,42,21l-3.39,2.12L38.1,23l-.62.9-.7.44a0,0,0,0,0,0,.05l1.38,2.21h.05l.9-.46ZM32,31.11,31.13,31l.14-1.16-.89-1.32,2.05-1.3,1.31,2-1.35.8Zm-.36-2.38.32.48.49-.3-.32-.5Z"/><path d="M43.26,36.05l-2.7,1.66a.3.3,0,0,1-.42-.1l-.48-.77a.31.31,0,0,1,.1-.42l.24-.15-.14-.22a.24.24,0,0,1-.25-.11l-.37-.6a.21.21,0,0,1,0-.27l-.1-.16a.25.25,0,0,1-.26-.12l-.37-.59a.24.24,0,0,1,0-.27l-.1-.17a.23.23,0,0,1-.25-.11l-.37-.59a.24.24,0,0,1,0-.28l-.1-.16a.25.25,0,0,1-.26-.11l-.36-.6a.23.23,0,0,1,0-.27l-.1-.16a.23.23,0,0,1-.25-.11l-.06-.1-3.41,1.14-1.26-1.26h0v0h0l.36-1.09,1.38-.82-1.35-2.11-2.12,1.33.91,1.34-.14,1.14h0l-1.67.61L26.8,29.06l-.1.07a.26.26,0,0,1-.28,0l-.15.1a.25.25,0,0,1-.11.26l-.58.38a.24.24,0,0,1-.28,0l-.16.11a.23.23,0,0,1-.1.25l-.58.39a.24.24,0,0,1-.28,0l-.16.1a.23.23,0,0,1-.1.26l-.58.39a.26.26,0,0,1-.28,0l-.16.11a.23.23,0,0,1-.1.25l-.59.39a.24.24,0,0,1-.27,0l-.22.15.15.22a.32.32,0,0,1-.09.43l-.76.5a.31.31,0,0,1-.43-.09l-1.73-2.65A.31.31,0,0,1,19,30.2l.76-.5a.31.31,0,0,1,.42.09l.21.32.21-.14v0a.22.22,0,0,1,.07-.33l.58-.39a.24.24,0,0,1,.33.07l0,0,.14-.09,0,0a.23.23,0,0,1,.07-.33l.59-.38a.22.22,0,0,1,.32.07l0,0,.14-.09,0,0a.24.24,0,0,1,.07-.33l.59-.39a.24.24,0,0,1,.33.07v0l.14-.09,0,0a.24.24,0,0,1,.07-.33l.59-.38a.24.24,0,0,1,.33.07l0,0L25,27l0,0a.24.24,0,0,1,.06-.32L23.3,23,24.52,22h0l-.07,0L23.3,23l1-1,1.35-.34,1.23,1.81.6.77,2.18-1.41-.46-.7L29.05,21l-.54-.17-2.19-3.38.38-4.31h.06l0,0,4.11,1.72,3.15,5,5-3.21,4.45.18,0,0,0,0h0L42.07,21l-3.41,2.13L38.1,23l-.59.89-.71.45,1.38,2.2.87-.46L40.93,25l1.09.88.46,1.36-.65-1.32,0-.05h0l.7,1.38-3.18,2.59a.24.24,0,0,1-.08.31l0,0,.09.14,0,0a.23.23,0,0,1,.33.08L40,31a.23.23,0,0,1-.08.32l0,0,.09.14,0,0a.23.23,0,0,1,.32.08l.37.6a.23.23,0,0,1-.08.33h0l.08.14,0,0a.24.24,0,0,1,.33.08l.37.6a.24.24,0,0,1-.08.33h0l.08.14h0a.23.23,0,0,1,.33.07l.37.6a.24.24,0,0,1-.08.33h0l.14.22.33-.21a.31.31,0,0,1,.42.11l.47.77A.3.3,0,0,1,43.26,36.05Z"/><path d="M40.4,38.25a.78.78,0,0,1-.68-.38l-.48-.77a.8.8,0,0,1,0-.83l-.06-.07-.37-.6a.87.87,0,0,1-.1-.31.84.84,0,0,1-.23-.23l-.37-.6a.89.89,0,0,1-.11-.31.8.8,0,0,1-.22-.23l-.37-.6A.72.72,0,0,1,37.3,33a.84.84,0,0,1-.23-.23l-.37-.6a.71.71,0,0,1-.1-.32l0,0-3.08,1a.48.48,0,0,1-.51-.12l-1.2-1.19-.05,0a.48.48,0,0,1-.16-.44,0,0,0,0,0,0,0,.51.51,0,0,1-.31.3h-.07l-1.6.58a.51.51,0,0,1-.51-.11L26.7,29.65h0a.69.69,0,0,1-.22.23l-.59.39a.68.68,0,0,1-.31.11.66.66,0,0,1-.23.24l-.58.38a.72.72,0,0,1-.31.11.66.66,0,0,1-.23.24l-.58.39a.72.72,0,0,1-.31.11.66.66,0,0,1-.23.24l-.58.38-.08.05a.79.79,0,0,1-.36.75l-.76.49a.83.83,0,0,1-1.11-.23L18.45,30.9a.82.82,0,0,1-.12-.61.8.8,0,0,1,.35-.51l.76-.49a.8.8,0,0,1,.83,0,.13.13,0,0,1,.07-.05l.58-.39a.68.68,0,0,1,.31-.11.66.66,0,0,1,.23-.24l.58-.38a.69.69,0,0,1,.31-.12.87.87,0,0,1,.23-.24l.59-.38a.79.79,0,0,1,.3-.12A.84.84,0,0,1,23.7,27l.59-.39.17-.08-1.61-3.32a.46.46,0,0,1,0-.38.52.52,0,0,1,.11-.19l1-1a.43.43,0,0,1,.23-.14l1.36-.34a.5.5,0,0,1,.53.2l1.53,2.2,1.38-.9-.18-.29a.46.46,0,0,1-.08-.19l-.1-.74-.24-.08a.47.47,0,0,1-.28-.2l-2.18-3.38a.43.43,0,0,1-.08-.31l.38-4.31a.47.47,0,0,1,.22-.37.54.54,0,0,1,.3-.08h0a.45.45,0,0,1,.31.12l4,1.67a.55.55,0,0,1,.23.2l2.88,4.6,4.56-3a.49.49,0,0,1,.29-.08l4.37.18a.51.51,0,0,1,.3,0l0,0a.5.5,0,0,1,.23.18.56.56,0,0,1,0,.44l-1.49,4.06a.47.47,0,0,1-.19.25l-3.42,2.13a.48.48,0,0,1-.33.07l-.25,0-.41.63a.4.4,0,0,1-.15.14l-.3.19.88,1.4.46-.25,1.86-1.1a.5.5,0,0,1,.57.05l1.08.87a.51.51,0,0,1,.15.23l.46,1.37a.42.42,0,0,1,0,.22.44.44,0,0,1-.18.33L39.92,30a.61.61,0,0,1,.12.15l.37.6a.67.67,0,0,1,.1.31.57.57,0,0,1,.23.23l.37.6a.68.68,0,0,1,.11.31.72.72,0,0,1,.23.23l.37.6a.81.81,0,0,1,.1.31.72.72,0,0,1,.23.23l.37.6s0,0,0,.08a.78.78,0,0,1,.74.38l.48.77a.78.78,0,0,1,.09.6.74.74,0,0,1-.36.5l-2.69,1.66A.76.76,0,0,1,40.4,38.25Zm-.22-1.51.28.45,2.38-1.46-.28-.46-.17.11a.5.5,0,0,1-.68-.16L41.57,35a.48.48,0,0,1,0-.37.88.88,0,0,1,0-.15l-.16-.26a.29.29,0,0,1-.13,0A.48.48,0,0,1,41,34l-.09-.14a.48.48,0,0,1-.06-.37.3.3,0,0,1,.06-.14l-.16-.27a.32.32,0,0,1-.14,0,.51.51,0,0,1-.32-.21l-.08-.14a.49.49,0,0,1-.06-.37.3.3,0,0,1,.06-.14L40,31.94a.51.51,0,0,1-.45-.22l-.09-.14a.51.51,0,0,1,0-.52l-.16-.26a.52.52,0,0,1-.46-.22l-.08-.14a.51.51,0,0,1,0-.57.52.52,0,0,1,.19-.41l2.87-2.34-.52-1a.41.41,0,0,1,0-.18l-.39-.32-1.59.94-.89.46a.49.49,0,0,1-.65-.17l-1.38-2.2a.5.5,0,0,1,.16-.68l.62-.4.52-.79a.52.52,0,0,1,.48-.22l.39.06,3.12-2,1.19-3.27-3.7-.15-4.85,3.13a.52.52,0,0,1-.38.07.5.5,0,0,1-.31-.22l-3.07-4.9-3.42-1.43-.3,3.47,2,3.09.37.11a.5.5,0,0,1,.34.4l.14.94.39.62a.49.49,0,0,1-.14.68L27.74,24.6a.49.49,0,0,1-.66-.12l-.59-.77-1.06-1.55-.49.12a.44.44,0,0,1-.12.15l-.9.71,1.61,3.33a.48.48,0,0,1,0,.45.51.51,0,0,1-.2.53l-.14.09a.47.47,0,0,1-.37.06.34.34,0,0,1-.14-.05l-.26.17a.33.33,0,0,1,0,.14.46.46,0,0,1-.2.32l-.14.09a.48.48,0,0,1-.37.07l-.14-.05-.26.17a.52.52,0,0,1-.21.46l-.14.09a.49.49,0,0,1-.51,0l-.26.17a.51.51,0,0,1-.21.46l-.14.09a.47.47,0,0,1-.51,0l-.26.17a.57.57,0,0,1,0,.13.49.49,0,0,1-.21.33l-.2.14a.57.57,0,0,1-.38.07.5.5,0,0,1-.31-.22l-.11-.16-.45.29,1.53,2.33.45-.29-.05-.08a.45.45,0,0,1-.07-.36.52.52,0,0,1,.22-.32l.22-.14a.45.45,0,0,1,.39-.07l.35-.23a.53.53,0,0,1,.22-.34l.16-.1a.5.5,0,0,1,.39-.07l.36-.23a.48.48,0,0,1,.21-.33l.16-.1a.5.5,0,0,1,.39-.07l.36-.23a.44.44,0,0,1,.21-.33l.16-.11a.5.5,0,0,1,.39-.07l.36-.23a.52.52,0,0,1,.21-.33l.16-.1a.47.47,0,0,1,.4-.07.48.48,0,0,1,.59.06L29.53,31l1.1-.4.09-.66-.81-1.18a.48.48,0,0,1,.14-.69l2.13-1.34a.49.49,0,0,1,.68.15L34.21,29a.47.47,0,0,1,.07.38.52.52,0,0,1-.23.31l-1.23.73-.21.63.84.83,3.12-1a.5.5,0,0,1,.56.18.44.44,0,0,1,.33.24l.1.16a.46.46,0,0,1,.06.39l.21.35a.48.48,0,0,1,.34.24l.1.16a.51.51,0,0,1,0,.4l.22.34a.47.47,0,0,1,.33.24l.1.16a.52.52,0,0,1,.06.4l.21.34a.47.47,0,0,1,.33.24l.11.17a.49.49,0,0,1,0,.39l.22.34a.48.48,0,0,1,.33.25l.14.22a.5.5,0,0,1-.16.68ZM31.58,31v0a0,0,0,0,1,0,0l.34-1.07a.53.53,0,0,1,.23-.28l.94-.56-.81-1.26L31,28.6l.62.91a.57.57,0,0,1,.08.34Z"/><rect class="cls-24" x="38.22" y="29.13" width="2.5" height="7.8" transform="translate(-11.47 25.67) rotate(-31.7)"/><rect class="cls-25" x="36.39" y="29.71" width="2.93" height="1.18" rx="0.24" transform="translate(-10.26 24.24) rotate(-31.5)"/><rect class="cls-26" x="36.75" y="30.14" width="1.16" height="0.95" transform="matrix(0.85, -0.53, 0.53, 0.85, -10.52, 24.21)"/><polygon class="cls-27" points="37.08 31.32 36.58 30.51 36.78 30.39 37.28 31.2 37.08 31.32"/><path class="cls-25" d="M39.29,30.3a.23.23,0,0,1,.33.08L40,31a.23.23,0,0,1-.08.32l-2.09,1.29a.23.23,0,0,1-.33-.08l-.36-.6a.23.23,0,0,1,.07-.33Z"/><rect class="cls-28" x="37.45" y="31.28" width="1.16" height="0.95" transform="translate(-11.02 24.75) rotate(-31.73)"/><rect class="cls-21" x="37.52" y="31.52" width="0.23" height="0.95" transform="translate(-11.2 24.57) rotate(-31.73)"/><path class="cls-25" d="M40,31.44a.23.23,0,0,1,.32.08l.37.6a.23.23,0,0,1-.08.33l-2.08,1.28a.23.23,0,0,1-.33-.08l-.37-.59a.23.23,0,0,1,.08-.33Z"/><rect class="cls-28" x="38.15" y="32.42" width="1.16" height="0.95" transform="matrix(0.85, -0.53, 0.53, 0.85, -11.53, 25.4)"/><polygon class="cls-21" points="38.49 33.6 37.99 32.8 38.19 32.67 38.69 33.48 38.49 33.6"/><rect class="cls-25" x="38.5" y="33.14" width="2.93" height="1.18" rx="0.24" transform="translate(-11.75 25.97) rotate(-31.63)"/><polygon class="cls-28" points="39.19 34.74 38.69 33.93 39.68 33.32 40.18 34.14 39.19 34.74"/><polygon class="cls-21" points="39.19 34.74 38.69 33.93 38.89 33.81 39.39 34.62 39.19 34.74"/><rect class="cls-25" x="39.2" y="34.28" width="2.93" height="1.18" rx="0.24" transform="translate(-12.26 26.6) rotate(-31.73)"/><rect class="cls-28" x="39.56" y="34.7" width="1.16" height="0.95" transform="matrix(0.85, -0.53, 0.53, 0.85, -12.49, 26.34)"/><polygon class="cls-21" points="39.9 35.88 39.4 35.08 39.6 34.95 40.09 35.76 39.9 35.88"/><rect class="cls-25" x="39.62" y="35.47" width="3.78" height="1.52" rx="0.31" transform="translate(-12.83 27.1) rotate(-31.58)"/><rect class="cls-28" x="40.08" y="36.02" width="1.49" height="1.23" transform="translate(-13.17 26.97) rotate(-31.76)"/><polygon class="cls-28" points="40.51 37.54 39.87 36.5 40.12 36.34 40.77 37.38 40.51 37.54"/><polygon class="cls-25" points="32.05 31.14 33.32 32.41 38.1 30.81 42.47 27.26 41.7 25.75 35.3 28.82 32.05 31.14"/><polygon class="cls-29" points="32.05 31.16 32.41 30.05 40.93 25 41.9 25.8 36.72 29.3 32.05 31.16"/><polygon class="cls-30" points="42.48 27.24 41.83 25.92 40.93 25 42.02 25.88 42.48 27.24"/><polygon class="cls-24" points="36.75 29.16 41.55 25.91 40.89 25.16 36.76 27.3 36.75 29.16"/><polygon class="cls-28" points="33.55 32.1 37.38 30.88 36.63 29.55 32.54 31.11 33.55 32.1"/><polygon class="cls-28" points="33.57 32.06 32.59 31.11 32.97 30.96 34.23 31.57 33.57 32.06"/><polygon class="cls-28" points="26.7 13.16 30.89 14.92 38.36 26.86 37.67 28.25 36.66 28.89 33.89 29.38 29.2 22.07 29.05 21.02 28.51 20.85 26.32 17.47 26.7 13.16"/><polygon class="cls-31" points="37.12 28.59 26.7 13.17 30.89 14.92 38.36 26.86 37.67 28.25 37.12 28.59"/><polygon class="cls-28" points="26.7 13.17 30.89 14.92 38.36 26.86 38.36 26.87 30.79 15.04 26.7 13.17"/><polygon class="cls-28" points="26.7 13.17 26.33 17.47 28.74 16.31 26.76 13.17 26.7 13.17"/><polyline class="cls-28" points="29.06 20.88 29.2 22.07 31.41 20.22 30.86 19.53 29.01 20.83"/><polyline class="cls-32" points="30.64 15.17 28.8 16.28 26.87 13.24 30.63 15.1"/><polygon class="cls-28" points="28.51 20.85 30.64 19.21 31.08 19.74 29.09 20.99 28.51 20.85"/><polyline class="cls-28" points="26.69 13.25 37.14 28.52 36.83 28.82 26.73 13.28"/><path class="cls-28" d="M36.46,28c-.08,0-2.69,1.36-2.62,1.35s2.94-.53,2.94-.53Z"/><polyline class="cls-33" points="38.36 26.87 33.5 23.1 36.65 27.85 37.71 28.22 38.35 26.92"/><polygon class="cls-28" points="37.71 28.22 36.65 27.85 36.35 28.05 36.66 28.89 37.71 28.22"/><polyline class="cls-33" points="31.46 16.19 31.45 16.24 30.94 18.63 32.98 18.46"/><polygon class="cls-34" points="33.29 28.33 35.1 26.02 37.46 25.5 35.93 22.95 31.27 25.38 33.29 28.33"/><rect class="cls-24" x="19.67" y="28.24" width="7.8" height="2.5" transform="translate(-12.31 17.73) rotate(-33.22)"/><path class="cls-25" d="M26,26.36a.24.24,0,0,0-.33-.07l-.59.39A.24.24,0,0,0,25,27l1.35,2a.24.24,0,0,0,.33.07l.59-.39a.24.24,0,0,0,.07-.33Z"/><rect class="cls-35" x="26.06" y="27.63" width="0.95" height="1.16" transform="translate(-11.12 19.17) rotate(-33.25)"/><polygon class="cls-27" points="26.46 28.96 27.25 28.43 27.13 28.24 26.33 28.76 26.46 28.96"/><path class="cls-25" d="M24.89,27.1a.24.24,0,0,0-.33-.07l-.59.38a.24.24,0,0,0-.07.33l1.35,2.05a.23.23,0,0,0,.33.07l.58-.38a.23.23,0,0,0,.07-.33Z"/><rect class="cls-28" x="24.94" y="28.37" width="0.95" height="1.16" transform="translate(-11.74 18.78) rotate(-33.42)"/><rect class="cls-21" x="25.2" y="29.22" width="0.95" height="0.23" transform="translate(-11.91 18.99) rotate(-33.42)"/><path class="cls-25" d="M23.77,27.83a.24.24,0,0,0-.33-.07l-.59.39a.24.24,0,0,0-.07.33l1.34,2.05a.25.25,0,0,0,.34.07l.58-.39a.21.21,0,0,0,.07-.32Z"/><polygon class="cls-28" points="24.22 30.43 25.01 29.91 24.38 28.94 23.58 29.46 24.22 30.43"/><rect class="cls-21" x="24.07" y="29.95" width="0.95" height="0.23" transform="translate(-12.49 18.46) rotate(-33.37)"/><path class="cls-25" d="M22.64,28.57a.22.22,0,0,0-.32-.07l-.59.38a.23.23,0,0,0-.07.33L23,31.27a.27.27,0,0,0,.34.07l.58-.39a.24.24,0,0,0,.07-.33Z"/><rect class="cls-28" x="22.7" y="29.84" width="0.95" height="1.16" transform="translate(-12.9 17.74) rotate(-33.33)"/><rect class="cls-21" x="22.95" y="30.69" width="0.95" height="0.23" transform="translate(-13.07 17.94) rotate(-33.33)"/><path class="cls-25" d="M21.52,29.3a.24.24,0,0,0-.33-.07l-.58.39a.22.22,0,0,0-.07.33L21.89,32a.23.23,0,0,0,.32.07l.59-.39a.24.24,0,0,0,.07-.33Z"/><rect class="cls-28" x="21.58" y="30.57" width="0.95" height="1.16" transform="translate(-13.45 17.13) rotate(-33.15)"/><polygon class="cls-21" points="21.97 31.9 22.77 31.38 22.64 31.18 21.85 31.7 21.97 31.9"/><path class="cls-25" d="M20.13,29.79a.31.31,0,0,0-.42-.09l-.76.5a.31.31,0,0,0-.09.42l1.73,2.65a.31.31,0,0,0,.43.09l.76-.5a.32.32,0,0,0,.09-.43Z"/><rect class="cls-28" x="20.2" y="31.43" width="1.23" height="1.49" transform="translate(-14.21 16.63) rotate(-33.17)"/><rect class="cls-28" x="20.53" y="32.53" width="1.23" height="0.3" transform="translate(-14.43 16.89) rotate(-33.17)"/><polygon class="cls-25" points="31.09 30.93 29.41 31.54 25.75 28.06 23.3 22.99 24.63 21.95 29.13 27.45 31.09 30.93"/><polygon class="cls-29" points="31.09 30.94 31.23 29.79 25.65 21.6 24.44 21.91 27.65 27.28 31.09 30.94"/><polygon class="cls-30" points="23.3 22.98 24.44 22.05 25.65 21.6 24.3 21.93 23.3 22.98"/><polygon class="cls-24" points="27.68 27.14 24.7 22.16 25.62 21.76 28.45 25.45 27.68 27.14"/><polygon class="cls-28" points="29.32 31.15 26.38 28.43 27.62 27.55 30.66 30.69 29.32 31.15"/><polygon class="cls-28" points="29.33 31.11 30.62 30.66 30.34 30.37 28.93 30.39 29.33 31.11"/><polygon class="cls-28" points="43.55 16.92 39.02 16.73 27.19 24.37 27.23 25.92 27.87 26.93 30.16 28.55 37.51 23.92 38.1 23.03 38.66 23.11 42.08 20.98 43.55 16.92"/><polygon class="cls-31" points="27.58 26.48 43.55 16.92 39.02 16.73 27.19 24.37 27.23 25.92 27.58 26.48"/><polygon class="cls-28" points="43.55 16.92 39.02 16.73 27.19 24.37 27.18 24.39 39.05 16.88 43.55 16.92"/><polygon class="cls-28" points="43.55 16.92 42.06 20.97 40.38 18.9 43.5 16.89 43.55 16.92"/><polyline class="cls-28" points="38.15 22.9 37.51 23.92 36.3 21.31 37.09 20.91 38.21 22.88"/><polyline class="cls-32" points="39.14 17.06 40.34 18.85 43.37 16.92 39.18 17"/><polygon class="cls-28" points="38.66 23.11 37.42 20.71 36.8 21.01 38.08 22.99 38.66 23.11"/><polyline class="cls-28" points="43.52 17 27.59 26.4 27.75 26.8 43.48 17.01"/><path class="cls-28" d="M28.42,26.23c.06.07,1.86,2.37,1.8,2.34s-2.44-1.74-2.44-1.74Z"/><polyline class="cls-33" points="27.18 24.39 33.19 23.02 28.32 26 27.2 25.88 27.18 24.44"/><polygon class="cls-28" points="27.2 25.88 28.32 26 28.51 26.3 27.87 26.93 27.2 25.88"/><polyline class="cls-33" points="37.96 17.64 37.95 17.68 37.39 20.07 35.62 19.05"/><path class="cls-20" d="M41.91,47.52a1.43,1.43,0,1,1-1.41-1.21A1.32,1.32,0,0,1,41.91,47.52Z"/><path class="cls-28" d="M41.76,47.36c0,.5-.55.91-1.22.91s-1.22-.41-1.22-.91.54-.92,1.22-.92S41.76,46.85,41.76,47.36Z"/><path class="cls-31" d="M41.48,47.18c0,.38-.41.69-.92.69a.72.72,0,1,1,0-1.38C41.07,46.49,41.48,46.8,41.48,47.18Z"/><path class="cls-21" d="M41.12,46.93c0,.26-.28.47-.63.47s-.63-.21-.63-.47.28-.47.63-.47S41.12,46.67,41.12,46.93Z"/><path class="cls-20" d="M27.76,4.24a1.42,1.42,0,0,1-2.81,0,1.42,1.42,0,0,1,2.81,0Z"/><path class="cls-28" d="M27.61,4.08c0,.5-.54.91-1.22.91s-1.22-.41-1.22-.91.55-.92,1.22-.92A1.1,1.1,0,0,1,27.61,4.08Z"/><path class="cls-31" d="M27.33,3.9a.83.83,0,0,1-.91.69c-.51,0-.92-.31-.92-.69s.41-.69.92-.69A.83.83,0,0,1,27.33,3.9Z"/><path class="cls-21" d="M27,3.65a.65.65,0,0,1-1.26,0c0-.26.28-.47.63-.47S27,3.39,27,3.65Z"/></g></g></svg>