<svg width="233" height="227" viewBox="0 0 233 227" fill="none" xmlns="http://www.w3.org/2000/svg">
<path d="M232.747 40.0841C231.497 52.7433 229.221 65.2802 225.942 77.5711C211.294 80.4711 194.055 84.4141 198.649 86.1931C202.13 87.5421 212.069 89.4141 221.912 91.0611C217.669 103.848 212.328 116.244 205.949 128.111C188.335 130.611 176.088 133.438 176.088 133.438L199.431 139.453C191.189 152.913 181.611 165.508 170.843 177.047C148.119 168.784 98.398 172.174 98.398 172.174C98.398 172.174 142.581 172.412 163.141 184.945C158.007 189.958 153.218 194.176 149.041 197.639C143.706 200.901 138.464 203.857 133.303 206.583C123.049 202.873 112.443 200.215 101.651 198.65L111.487 216.857C63.4611 236.709 25.1871 234.349 3.58105 228.346C-5.12795 225.926 -8.57195 215.697 -9.41895 203.613C-10.6338 184.935 -5.94884 166.347 3.97405 150.476C21.544 164.603 29.6831 196.732 29.6831 196.732C29.6831 196.732 30.183 167.587 8.73705 143.52C12.3118 138.723 16.3272 134.27 20.7311 130.22C21.7931 129.246 22.8697 128.269 23.9611 127.29L42.2821 126.352C42.2821 126.352 38.2431 123.337 32.9071 119.492C41.9561 111.822 51.847 104.107 62.593 96.6551L100.725 111.532C100.725 111.532 97.4411 103.794 78.3061 86.3641C103.124 70.8622 129.987 58.9056 158.116 50.8412L160.03 88.1711C160.03 88.1711 162.663 74.5872 163.93 49.2472C186.407 43.3837 209.519 40.3066 232.747 40.0851V40.0841Z" fill="#130D4C"/>
<path d="M228.82 177.311C220.988 173.388 212.851 170.107 204.488 167.499C197.422 174.953 188.788 183.526 189.441 180.199C189.934 177.68 192.494 171.214 195.151 164.886C186.145 162.657 176.964 161.209 167.709 160.56C159.783 169.883 153.639 175.966 153.639 175.966L158.71 160.185C147.845 160.033 136.992 160.976 126.315 162.999C122.781 179.247 102.544 206.911 102.544 206.911C102.544 206.911 118.634 181.134 118.886 164.576C114.081 165.72 109.864 166.955 106.313 168.112C102.455 170.012 98.807 171.978 95.324 173.978C93.7191 181.303 91.3723 188.446 88.32 195.296L81.33 182.89C52.13 203.523 39.446 226.642 35.005 241.412C33.215 247.364 37.905 253.125 44.635 258.055C55.0686 265.622 67.6134 269.725 80.502 269.785C78.72 254.379 63.004 237.847 63.004 237.847C74.1896 245.426 82.4189 256.631 86.304 269.571C90.4106 269.255 94.4786 268.555 98.455 267.482C99.4124 267.222 100.377 266.955 101.348 266.682L108.62 256.372C108.62 256.372 108.892 259.827 109.172 264.342C116.962 261.897 125.089 258.98 133.372 255.469L138.712 227.831C138.712 227.831 142.012 232.582 145.137 250.109C163.277 241.374 180.106 230.146 195.137 216.751L174.105 201.928C174.105 201.928 182.983 205.386 198.205 213.959C204.008 208.53 209.474 202.753 214.573 196.659C219.714 190.508 224.472 184.046 228.82 177.311V177.311Z" fill="url(#paint0_radial)"/>
<path d="M50.639 154.519C37.6851 153.629 24.8284 151.656 12.204 148.619C12.204 148.619 47.864 132.504 67.378 129.86C73.764 119.66 80.887 107.649 89.128 93.5731C67.276 90.6731 38.933 96.7601 38.933 96.7601C56.0713 91.0101 74.0574 88.1949 92.133 88.4331C93.533 86.0331 94.962 83.5901 96.433 81.0731C102.396 70.8511 107.855 61.2541 115.411 48.8731C104.927 48.6951 96.128 49.0562 96.128 49.0562L119.919 41.5692C121.079 39.7062 122.277 37.7942 123.542 35.7932C133.135 20.6212 141.409 8.37015 147.042 0.202148C133.123 0.825658 119.265 2.43907 105.575 5.03015C104.37 8.19884 102.871 11.2475 101.097 14.1361L100.712 6.00311C79.4972 10.32 58.9828 17.5554 39.754 27.5031C43.041 63.2911 40.442 63.5101 40.442 63.5101C40.442 63.5101 36.586 44.5431 32.821 31.3331C16.267 40.8137 1.31581 52.8515 -11.479 67.0011C-21.8696 78.8666 -31.1736 91.6412 -39.279 105.171C-29.31 119.234 -26.065 131.208 -26.065 131.208L-44.881 115.373C-54.922 135.188 -60.925 157.165 -50.981 173.227C-43.895 184.673 -30.617 190.044 -18.381 192.627C5.93303 189.082 21.746 180.552 31.052 174.253C37.532 169.864 43.792 163.461 50.639 154.519Z" fill="#130D4C"/>
<path d="M50.522 189.883C89.979 167.583 109.735 136.718 134.342 68.8951C124.842 87.2245 114.238 104.961 102.59 122.006C70.519 168.906 56.417 172.578 48.372 172.634C38.651 172.701 30.299 167.54 29.119 169.646C27.649 172.266 39.447 181.72 50.522 189.883Z" fill="url(#paint1_radial)"/>
<path d="M51.791 186.55C59.3611 178.041 65.9439 168.702 71.414 158.712C104.08 98.9191 86.19 33.7211 78.934 11.4361C86.97 52.7591 83.117 85.4871 79.047 105.471C74.716 126.737 66.994 162.936 44.165 170.93C34.991 174.143 25.416 171.966 24.982 174.34C24.443 177.3 38.668 182.421 51.791 186.55Z" fill="url(#paint2_radial)"/>
<path d="M53.379 180.975C60.6648 176.524 67.5215 171.407 73.861 165.688C80.2038 159.97 86.094 153.769 91.479 147.141C96.8805 140.521 101.788 133.514 106.163 126.175C110.523 118.828 114.43 111.221 117.863 103.397C114.465 111.24 110.591 118.868 106.263 126.238C101.919 133.605 97.0387 140.643 91.663 147.295C86.3021 153.961 80.4336 160.202 74.11 165.962C67.7775 171.728 60.9234 176.893 53.636 181.392L53.379 180.975Z" fill="white"/>
<path d="M62.715 161.955C65.7496 158.177 68.3444 154.066 70.449 149.701L71.282 148.083L72.033 146.426L73.533 143.107C74.446 140.859 75.313 138.59 76.179 136.324C79.3822 127.146 81.755 117.699 83.269 108.097C83.632 105.697 84.086 103.305 84.375 100.897L85.158 93.6491C85.276 92.4411 85.446 91.2351 85.522 90.0231L85.731 86.3831L86.148 79.1041C86.278 74.2461 86.259 69.3841 86.309 64.5231L85.736 49.9491L86.37 64.5221C86.341 69.3831 86.38 74.2481 86.27 79.1081L85.883 86.3931L85.684 90.0301C85.612 91.2441 85.448 92.4501 85.334 93.6601L84.582 100.917C84.304 103.333 83.859 105.727 83.505 108.133C82.0287 117.76 79.691 127.235 76.52 136.443C75.661 138.72 74.802 141 73.895 143.259L72.408 146.596L71.662 148.263L70.832 149.891C68.7275 154.304 66.1256 158.461 63.077 162.283L62.715 161.955Z" fill="white"/>
<path d="M64.668 201.886C159.342 156.61 183.25 181.01 183.25 181.01C173.682 174.324 162.938 169.507 151.581 166.81C118.752 159.103 91.574 172.166 83.031 176.722C83.031 176.722 95.359 146.343 140.523 137.081C140.523 137.081 84.246 135.607 70.502 168.063C70.502 168.063 69.127 128.84 86.125 116.847C66.296 126.147 53.065 144.58 52.05 164.882C51.088 184.152 61.485 197.963 64.668 201.886Z" fill="url(#paint3_radial)"/>
<path d="M94.979 189.135C96.408 184.689 100.112 181.335 104.203 179.048C108.409 176.808 112.91 175.172 117.572 174.189C122.241 173.144 126.977 172.423 131.745 172.032C136.518 171.613 141.311 171.455 146.102 171.56C141.309 171.36 136.509 171.422 131.723 171.747C126.927 172.045 122.158 172.674 117.449 173.631C112.697 174.535 108.097 176.106 103.784 178.296C99.552 180.549 95.543 183.979 93.889 188.771L94.979 189.135Z" fill="white"/>
<path d="M75.4941 180.183C75.4741 173.341 77.8334 166.706 82.1681 161.412C86.5459 156.114 91.9555 151.761 98.0681 148.618C91.8325 151.611 86.2713 155.841 81.7231 161.052C79.4744 163.71 77.6693 166.714 76.3771 169.947C75.0961 173.21 74.4102 176.676 74.3521 180.18L75.4941 180.183Z" fill="white"/>
<path d="M78.788 195.332C78.788 195.332 107.476 187.032 137.488 205.454C137.488 205.454 121.962 186.433 96.126 181.978C95.193 180.927 94.037 179.278 94.273 177.467C94.739 173.885 100.24 172.702 104.599 169.667C107.973 167.318 112.091 162.867 114.504 153.575C110.639 156.438 106.507 158.923 102.165 160.994C92.691 165.513 88.086 165.246 82.337 169.328C79.124 171.61 74.82 175.771 71.61 183.882C71.432 184.332 72.149 179.936 73.44 179.857C73.785 179.836 74.353 180.063 75.11 181.538C75.0956 181.08 75.0319 180.625 74.92 180.181C74.12 177.2 78.113 173.092 78.412 172.776C80.629 170.433 82.689 161.89 82.723 136.531C79.1861 145.339 74.728 153.748 69.423 161.618C65.164 167.908 62.462 170.692 62.323 175.162C62.085 183.478 70.936 190.547 78.788 195.332Z" fill="url(#paint4_radial)"/>
<path d="M85.519 184.517C86.8938 179.808 89.6331 175.612 93.391 172.459C97.225 169.369 101.434 166.714 105.567 164C101.325 166.56 97.037 169.034 93.034 172.013C89.0319 175.124 86.0397 179.35 84.434 184.158L85.519 184.517Z" fill="white"/>
<path d="M94.807 190.769C96.54 189.36 99.263 189.364 101.67 189.555C104.159 189.819 106.622 190.29 109.034 190.961C113.893 192.299 118.653 193.976 123.278 195.979C118.719 193.796 114.012 191.936 109.192 190.411C106.768 189.637 104.283 189.066 101.764 188.704C100.48 188.525 99.1818 188.48 97.889 188.57C96.512 188.632 95.1829 189.094 94.065 189.9L94.807 190.769Z" fill="white"/>
<path d="M69.525 179.116C69.3498 177.045 69.4351 174.959 69.779 172.909C70.1318 170.847 70.7622 168.842 71.653 166.949C73.344 163.071 75.176 159.249 76.931 155.394C75.004 159.166 73.003 162.901 71.131 166.71C70.1294 168.614 69.3893 170.644 68.931 172.746C68.4778 174.861 68.2917 177.024 68.377 179.185L69.525 179.116Z" fill="white"/>
<path d="M62.741 183.556C58.966 175.208 58.248 165.699 59.405 156.597C59.9899 152.016 61.075 147.513 62.641 143.169C64.1367 138.786 66.375 134.693 69.258 131.069C66.2918 134.645 63.9629 138.704 62.373 143.069C60.7081 147.408 59.5237 151.917 58.841 156.514C57.489 165.67 57.989 175.332 61.7 184.02L62.741 183.556Z" fill="white"/>
<defs>
<radialGradient id="paint0_radial" cx="0" cy="0" r="1" gradientUnits="userSpaceOnUse" gradientTransform="translate(493.94 -488.539) rotate(-79.9543) scale(147.509 50.108)">
<stop offset="0.197" stop-color="#2F195D"/>
<stop offset="0.878" stop-color="#130D4C"/>
</radialGradient>
<radialGradient id="paint1_radial" cx="0" cy="0" r="1" gradientUnits="userSpaceOnUse" gradientTransform="translate(258.394 154.176) rotate(-12.3053) scale(77.2351 78.3536)">
<stop offset="0.057" stop-color="#1B105E"/>
<stop offset="1" stop-color="#05E1AD"/>
</radialGradient>
<radialGradient id="paint2_radial" cx="0" cy="0" r="1" gradientUnits="userSpaceOnUse" gradientTransform="translate(424.913 143.136) rotate(-5.34557) scale(92.9912 97.9596)">
<stop offset="0.057" stop-color="#1B105E"/>
<stop offset="1" stop-color="#05E1AD"/>
</radialGradient>
<radialGradient id="paint3_radial" cx="0" cy="0" r="1" gradientUnits="userSpaceOnUse" gradientTransform="translate(77.2085 195.508) scale(85.5685 85.5492)">
<stop offset="0.057" stop-color="#1B105E"/>
<stop offset="1" stop-color="#05E1AD"/>
</radialGradient>
<radialGradient id="paint4_radial" cx="0" cy="0" r="1" gradientUnits="userSpaceOnUse" gradientTransform="translate(65.4547 198.355) scale(46.8039 46.7987)">
<stop offset="0.057" stop-color="#1B105E"/>
<stop offset="0.995" stop-color="#FDCA57"/>
</radialGradient>
</defs>
</svg>
