<svg width="209" height="212" viewBox="0 0 209 212" fill="none" xmlns="http://www.w3.org/2000/svg">
<path d="M36.049 14.6055C34.0724 26.0051 33.0243 37.5464 32.915 49.1155C45.053 55.2025 59.206 62.8416 54.747 63.2886C51.368 63.6276 42.201 62.8595 33.174 61.9175C33.7899 74.1547 35.4628 86.3156 38.174 98.2645C53.007 104.725 63.057 110.171 63.057 110.171L41.135 109.785C45.0927 123.581 50.4313 136.943 57.07 149.668C78.995 147.931 121.756 162.952 121.756 162.952C121.756 162.952 82.969 152.452 61.904 158.458C65.187 164.096 68.362 168.958 71.183 173.003C75.067 177.154 78.945 181.017 82.807 184.656C92.6961 183.888 102.638 184.128 112.478 185.373L99.438 198.949C136.718 227.99 170.838 235.194 191.238 235.169C199.459 235.158 204.962 227.026 208.638 216.638C214.237 200.561 214.642 183.132 209.796 166.813C190.965 174.939 176.032 201.128 176.032 201.128C176.032 201.128 182.664 175.457 207.31 159.558C205.341 154.486 202.902 149.61 200.024 144.993C199.329 143.881 198.623 142.764 197.905 141.642L182.072 136.38C182.072 136.38 186.345 134.716 191.955 132.639C185.885 123.724 179.087 114.564 171.476 105.427L134.43 109.227C134.43 109.227 139.187 103.239 160.188 92.5955C142.195 72.9919 121.549 56.0007 98.85 42.1155L88.111 74.3755C88.111 74.3755 89.1 61.8305 94.144 39.3105C75.8634 28.7242 56.3502 20.4259 36.044 14.6025L36.049 14.6055Z" fill="#130D4C"/>
<path d="M6.18506 135.848C14.0025 134.309 21.9317 133.406 29.895 133.148C34.281 141.394 39.765 151.001 40.001 147.929C40.18 145.601 39.5011 139.312 38.7141 133.121C47.149 133.349 55.5486 134.306 63.819 135.979C68.504 146.072 72.413 152.893 72.413 152.893L71.798 137.83C81.3586 140.331 90.6431 143.787 99.511 148.148C98.666 163.248 109.69 192.401 109.69 192.401C109.69 192.401 101.843 165.906 105.641 151.331C109.575 153.498 112.971 155.602 115.803 157.477C118.723 160.077 121.444 162.685 124.012 165.277C123.641 172.087 123.965 178.917 124.978 185.661L134.117 176.48C154.706 201.643 160.212 224.98 160.517 239.005C160.641 244.657 155.129 248.569 148.036 251.26C137.055 255.365 125.063 255.921 113.749 252.85C119.043 239.777 136.837 229.094 136.837 229.094C125.193 233.028 115.261 240.856 108.715 251.258C105.192 249.986 101.795 248.387 98.57 246.482C97.7933 246.023 97.013 245.556 96.229 245.082L92.3571 234.275C92.3571 234.275 91.28 237.239 89.939 241.128C83.704 237.098 77.288 232.571 70.877 227.485L72.905 201.963C72.905 201.963 68.8581 205.329 61.8651 219.934C48.0836 207.882 36.0554 193.961 26.13 178.577L48.17 170.677C48.17 170.677 39.549 171.556 24.123 175.383C16.5428 162.988 10.5181 149.707 6.18506 135.839V135.848Z" fill="url(#paint0_radial)"/>
<path d="M167.906 159.047C179.477 161.407 191.226 162.794 203.029 163.192C203.029 163.192 175.681 140.424 159.218 133.379C156.096 122.889 152.768 110.635 148.96 96.2989C168.819 99.0519 192.187 111.256 192.187 111.256C178.559 102.062 163.475 95.2354 147.573 91.0649C146.926 88.6189 146.273 86.1339 145.593 83.5709C142.847 73.1709 140.393 63.4309 136.771 50.7509C146.005 53.1349 153.63 55.5839 153.63 55.5839L134.593 43.2549C134.028 41.3409 133.442 39.3749 132.819 37.3139C128.093 21.6899 123.814 8.94588 120.862 0.421875C132.91 4.3397 144.664 9.11011 156.035 14.6969C156.321 17.7663 156.895 20.802 157.75 23.7639L160.061 16.7279C177.609 25.6525 193.836 36.9665 208.278 50.3469C196.71 80.9199 198.935 81.7469 198.935 81.7469C198.935 81.7469 206.918 66.0559 213.425 55.3879C225.637 67.709 235.823 81.8841 243.605 97.3879C249.834 110.308 254.89 123.763 258.711 137.588C246.558 147.5 240.811 157.209 240.811 157.209L261.149 147.888C265.141 167.688 265.069 188.411 252.449 200.08C243.459 208.397 230.516 209.887 219.166 209.19C198.714 200.19 186.922 188.882 180.293 181.104C175.669 175.675 171.736 168.546 167.906 159.047Z" fill="#130D4C"/>
<path d="M1.69702 1.79883C1.50141 1.80595 1.31617 1.88864 1.1803 2.02954C1.04443 2.17045 0.968506 2.35858 0.968506 2.55432C0.968506 2.75007 1.04443 2.9382 1.1803 3.0791C1.31617 3.22001 1.50141 3.3027 1.69702 3.30981C1.89264 3.3027 2.07781 3.22001 2.21368 3.0791C2.34956 2.9382 2.42548 2.75007 2.42548 2.55432C2.42548 2.35858 2.34956 2.17045 2.21368 2.02954C2.07781 1.88864 1.89264 1.80595 1.69702 1.79883Z" fill="url(#paint1_radial)"/>
<path d="M175.338 180.417C175.338 180.417 206.025 121.43 190.706 107.842C175.387 94.2539 167.879 175.215 167.879 175.215L175.338 180.417Z" fill="url(#paint2_radial)"/>
<path d="M175.327 180.366C175.327 180.366 131.32 230.218 113.127 220.821C94.9341 211.424 167.789 175.281 167.789 175.281L175.327 180.366Z" fill="url(#paint3_radial)"/>
<path d="M152.649 162.899C152.649 162.899 184.601 117.143 173.329 104.17C162.057 91.1969 147.005 157.761 147.005 157.761L152.649 162.899Z" fill="url(#paint4_radial)"/>
<path d="M152.646 162.854C152.646 162.854 110.603 199.561 96.4821 189.764C82.3611 179.967 146.924 157.804 146.924 157.804L152.646 162.854Z" fill="url(#paint5_radial)"/>
<path d="M130.989 137.321C130.989 137.321 162.832 104.943 155.548 93.0071C148.264 81.0711 127.159 132.433 127.159 132.433L130.989 137.321Z" fill="url(#paint6_radial)"/>
<path d="M130.99 137.288C130.99 137.288 92.279 161.038 82.278 151.263C72.277 141.488 127.084 132.463 127.084 132.463L130.99 137.288Z" fill="url(#paint7_radial)"/>
<path d="M119.499 115.103C119.499 115.103 147.373 100.319 145.047 90.887C142.721 81.455 117.985 111.064 117.985 111.064L119.499 115.103Z" fill="url(#paint8_radial)"/>
<path d="M119.509 115.082C119.509 115.082 88.892 122.715 84.315 114.146C79.738 105.577 117.933 111.067 117.933 111.067L119.509 115.082Z" fill="url(#paint9_radial)"/>
<path d="M115.542 95.5735C115.542 95.5735 132.226 89.7995 131.754 84.3855C131.282 78.9715 115.054 93.2095 115.054 93.2095L115.542 95.5735Z" fill="url(#paint10_radial)"/>
<path d="M116.325 94.2865C116.325 94.2865 120.347 66.4275 112.325 63.1355C104.303 59.8435 112.616 93.2495 112.616 93.2495L116.325 94.2865Z" fill="url(#paint11_radial)"/>
<path d="M115.548 95.5614C115.548 95.5614 97.964 97.1434 96.171 92.0124C94.378 86.8814 115.023 93.2054 115.023 93.2054L115.548 95.5614Z" fill="url(#paint12_radial)"/>
<path d="M213.175 202.548C148.781 170.888 118.313 136.891 114.385 92.3138L115.505 92.2139C119.395 136.355 149.671 170.072 213.671 201.54L213.175 202.548Z" fill="white"/>
<path d="M182.55 90.2858C181.58 90.7178 180.535 90.9547 179.474 90.9828C178.413 91.011 177.357 90.8299 176.366 90.4499C175.375 90.0698 174.469 89.4983 173.699 88.768C172.928 88.0376 172.31 87.1627 171.877 86.1933C171.445 85.2238 171.209 84.1787 171.18 83.1177C171.152 82.0567 171.333 81.0005 171.713 80.0094C172.093 79.0184 172.665 78.1119 173.395 77.3418C174.126 76.5716 175.001 75.9528 175.97 75.5208C180.049 73.7038 189.57 73.4208 191.388 77.5018C193.206 81.5828 186.629 88.4738 182.55 90.2858Z" fill="url(#paint13_radial)"/>
<path d="M201.261 64.2578C202.23 63.8258 203.275 63.589 204.336 63.5609C205.397 63.5328 206.454 63.714 207.445 64.094C208.436 64.4741 209.342 65.0457 210.112 65.7761C210.882 66.5064 211.501 67.3813 211.933 68.3508C212.365 69.3203 212.602 70.3654 212.63 71.4264C212.658 72.4874 212.477 73.5435 212.097 74.5345C211.717 75.5255 211.145 76.4319 210.415 77.202C209.684 77.9721 208.809 78.5908 207.84 79.0228C203.761 80.8398 194.24 81.1228 192.422 77.0418C190.604 72.9608 197.182 66.0738 201.261 64.2578Z" fill="url(#paint14_radial)"/>
<path d="M178.491 67.7678C177.619 65.8091 177.56 63.5842 178.328 61.5825C179.096 59.5807 180.628 57.9661 182.587 57.0938C184.546 56.2215 186.77 56.163 188.772 56.9312C190.774 57.6993 192.389 59.2311 193.261 61.1898C195.078 65.2668 195.361 74.7898 191.279 76.6028C187.197 78.4158 180.308 71.8448 178.491 67.7678Z" fill="url(#paint15_radial)"/>
<path d="M204.056 85.4107C204.928 87.3694 204.987 89.5943 204.219 91.596C203.451 93.5978 201.919 95.2125 199.96 96.0847C198.001 96.957 195.776 97.0156 193.775 96.2474C191.773 95.4793 190.158 93.9474 189.286 91.9887C187.468 87.9117 187.186 78.3888 191.268 76.5758C195.35 74.7628 202.239 81.3337 204.056 85.4107Z" fill="url(#paint16_radial)"/>
<path d="M177.324 79.5418C176.453 79.2078 175.657 78.7056 174.981 78.0638C174.304 77.4221 173.761 76.6534 173.381 75.8016C173.002 74.9498 172.794 74.0316 172.769 73.0994C172.745 72.1673 172.904 71.2394 173.238 70.3688C173.572 69.4982 174.074 68.702 174.716 68.0254C175.358 67.3489 176.126 66.8054 176.978 66.426C177.83 66.0466 178.748 65.8387 179.68 65.8141C180.613 65.7895 181.54 65.9488 182.411 66.2828C186.074 67.6828 192.163 73.4268 190.758 77.0878C189.353 80.7488 180.986 80.9468 177.324 79.5418Z" fill="url(#paint17_radial)"/>
<path d="M205.12 74.9908C205.991 75.3248 206.787 75.8271 207.463 76.469C208.14 77.1108 208.683 77.8796 209.063 78.7314C209.442 79.5833 209.65 80.5014 209.674 81.4336C209.699 82.3658 209.539 83.2937 209.205 84.1643C208.871 85.0349 208.369 85.8312 207.727 86.5077C207.085 87.1841 206.317 87.7275 205.465 88.1069C204.613 88.4863 203.695 88.6942 202.763 88.7187C201.83 88.7432 200.903 88.5839 200.032 88.2498C196.37 86.8498 190.28 81.1048 191.685 77.4448C193.09 73.7848 201.458 73.5868 205.12 74.9908Z" fill="url(#paint18_radial)"/>
<path d="M188.794 63.0318C189.128 62.1609 189.63 61.3644 190.272 60.6876C190.914 60.0108 191.682 59.4671 192.534 59.0874C193.386 58.7078 194.305 58.4996 195.237 58.4749C196.169 58.4502 197.097 58.6093 197.968 58.9433C198.839 59.2772 199.636 59.7794 200.313 60.4212C200.989 61.063 201.533 61.8318 201.913 62.6838C202.292 63.5357 202.501 64.4541 202.525 65.3865C202.55 66.3188 202.391 67.2469 202.057 68.1178C200.652 71.7788 194.91 77.8668 191.248 76.4618C187.586 75.0568 187.39 66.6938 188.794 63.0318Z" fill="url(#paint19_radial)"/>
<path d="M193.712 89.8678C193.038 91.6266 191.692 93.0454 189.971 93.8121C188.251 94.5789 186.296 94.6308 184.537 93.9563C182.779 93.2819 181.36 91.9364 180.593 90.2158C179.826 88.4953 179.775 86.5406 180.449 84.7818C181.855 81.1208 187.596 75.0328 191.258 76.4378C194.92 77.8428 195.116 86.2068 193.712 89.8678Z" fill="url(#paint20_radial)"/>
<path d="M192.124 76.5878C193.266 75.3676 194.237 73.9985 195.012 72.5178C195.851 71.046 196.225 69.3541 196.082 67.6658C196.426 69.376 196.245 71.1502 195.563 72.7558C194.938 74.3907 194.096 75.9336 193.058 77.3428C192.965 77.4727 192.824 77.5605 192.667 77.5867C192.509 77.613 192.348 77.5756 192.218 77.4828C192.088 77.39 192 77.2493 191.974 77.0918C191.948 76.9343 191.985 76.7727 192.078 76.6428C192.094 76.6258 192.11 76.6048 192.124 76.5878Z" fill="white"/>
<path d="M190.662 76.3607C191.209 73.6029 191.11 70.7558 190.372 68.0428C191.514 70.7142 192.021 73.6142 191.854 76.5148C191.846 76.6739 191.774 76.8232 191.656 76.9298C191.538 77.0365 191.382 77.0916 191.222 77.0833C191.063 77.0749 190.914 77.0037 190.807 76.8853C190.701 76.7669 190.646 76.6109 190.654 76.4518C190.655 76.4213 190.657 76.3909 190.662 76.3607Z" fill="white"/>
<path d="M194.018 77.0698C195.346 76.9407 196.63 76.5226 197.78 75.8448C198.974 75.1433 199.944 74.1149 200.573 72.8808C200.102 74.2418 199.253 75.4404 198.125 76.3358C196.967 77.2625 195.617 77.92 194.173 78.2608C194.096 78.2793 194.016 78.2825 193.938 78.2701C193.859 78.2577 193.784 78.23 193.717 78.1887C193.649 78.1473 193.591 78.0931 193.544 78.029C193.497 77.9649 193.464 77.8923 193.445 77.8153C193.427 77.7382 193.424 77.6583 193.436 77.5801C193.448 77.5019 193.476 77.4268 193.518 77.3593C193.559 77.2917 193.613 77.2329 193.677 77.1864C193.741 77.1398 193.814 77.1063 193.891 77.0878C193.918 77.0809 193.946 77.0762 193.974 77.0737L194.018 77.0698Z" fill="white"/>
<path d="M192.37 78.4337C192.277 78.4752 192.173 78.4881 192.073 78.4707C191.972 78.4534 191.879 78.4066 191.805 78.3363C191.731 78.266 191.679 78.1753 191.657 78.0758C191.635 77.9762 191.642 77.8722 191.679 77.7769C191.715 77.6817 191.779 77.5995 191.863 77.5406C191.946 77.4818 192.045 77.449 192.147 77.4464C192.249 77.4438 192.35 77.4716 192.436 77.5261C192.522 77.5806 192.59 77.6595 192.632 77.7528C192.687 77.8778 192.691 78.0198 192.642 78.1475C192.593 78.2752 192.495 78.3782 192.37 78.4337V78.4337Z" fill="white"/>
<path d="M190.971 79.7168C190.878 79.7581 190.774 79.7709 190.674 79.7535C190.573 79.7361 190.48 79.6894 190.406 79.6191C190.332 79.5488 190.281 79.4582 190.258 79.3587C190.236 79.2592 190.243 79.1553 190.28 79.0601C190.317 78.9648 190.381 78.8826 190.464 78.8237C190.547 78.7649 190.646 78.7319 190.748 78.7292C190.85 78.7265 190.95 78.7542 191.037 78.8085C191.123 78.8629 191.191 78.9416 191.233 79.0348C191.288 79.16 191.292 79.302 191.243 79.4298C191.194 79.5576 191.096 79.6608 190.971 79.7168V79.7168Z" fill="white"/>
<path d="M193.207 74.4068C193.114 74.4482 193.01 74.4609 192.91 74.4435C192.809 74.4262 192.716 74.3794 192.642 74.3091C192.568 74.2388 192.517 74.1482 192.494 74.0487C192.472 73.9492 192.479 73.8453 192.516 73.7501C192.553 73.6548 192.617 73.5726 192.7 73.5137C192.783 73.4549 192.882 73.422 192.984 73.4192C193.086 73.4165 193.186 73.4442 193.273 73.4985C193.359 73.5529 193.427 73.6316 193.469 73.7248C193.525 73.85 193.528 73.9921 193.479 74.12C193.43 74.2479 193.332 74.351 193.207 74.4068V74.4068Z" fill="white"/>
<path d="M189.537 77.7688C189.444 77.8101 189.34 77.8229 189.24 77.8056C189.139 77.7882 189.046 77.7414 188.972 77.6711C188.898 77.6008 188.847 77.5102 188.824 77.4107C188.802 77.3112 188.809 77.2072 188.846 77.112C188.883 77.0168 188.947 76.9346 189.03 76.8757C189.113 76.8168 189.212 76.784 189.314 76.7813C189.416 76.7786 189.516 76.8062 189.603 76.8605C189.689 76.9149 189.757 76.9937 189.799 77.0868C189.854 77.212 189.858 77.354 189.809 77.4818C189.759 77.6096 189.662 77.7128 189.537 77.7688V77.7688Z" fill="white"/>
<path d="M192.825 80.7238C192.732 80.7654 192.628 80.7785 192.528 80.7613C192.427 80.7441 192.334 80.6974 192.26 80.6272C192.186 80.557 192.134 80.4664 192.111 80.3668C192.089 80.2673 192.096 80.1633 192.133 80.068C192.169 79.9727 192.233 79.8903 192.317 79.8314C192.4 79.7724 192.499 79.7395 192.601 79.7368C192.703 79.7341 192.803 79.7618 192.89 79.8162C192.976 79.8707 193.044 79.9495 193.086 80.0428C193.142 80.1677 193.145 80.3096 193.096 80.4373C193.047 80.565 192.95 80.668 192.825 80.7238V80.7238Z" fill="white"/>
<path d="M196.293 68.1388C196.2 68.1802 196.096 68.1929 195.996 68.1756C195.895 68.1582 195.802 68.1114 195.728 68.0411C195.654 67.9708 195.603 67.8802 195.58 67.7807C195.558 67.6812 195.565 67.5773 195.602 67.4821C195.639 67.3869 195.703 67.3046 195.786 67.2457C195.869 67.1869 195.968 67.154 196.07 67.1513C196.172 67.1486 196.272 67.1762 196.359 67.2305C196.445 67.2849 196.513 67.3637 196.555 67.4568C196.611 67.582 196.614 67.7241 196.565 67.852C196.516 67.9799 196.418 68.083 196.293 68.1388V68.1388Z" fill="white"/>
<path d="M190.74 68.8698C190.647 68.9111 190.543 68.9239 190.443 68.9065C190.342 68.8891 190.249 68.8423 190.175 68.7721C190.101 68.7018 190.05 68.6112 190.027 68.5117C190.005 68.4122 190.012 68.3083 190.049 68.213C190.086 68.1178 190.15 68.0356 190.233 67.9767C190.316 67.9178 190.415 67.885 190.517 67.8823C190.619 67.8796 190.72 67.9071 190.806 67.9615C190.892 68.0159 190.96 68.0946 191.002 68.1878C191.057 68.313 191.061 68.4551 191.012 68.583C190.963 68.7108 190.865 68.814 190.74 68.8698V68.8698Z" fill="white"/>
<path d="M200.783 73.3538C200.69 73.3953 200.586 73.4083 200.486 73.391C200.385 73.3738 200.292 73.3272 200.218 73.257C200.144 73.1868 200.092 73.0963 200.07 72.9968C200.047 72.8973 200.054 72.7933 200.091 72.698C200.127 72.6028 200.191 72.5205 200.275 72.4615C200.358 72.4025 200.457 72.3695 200.559 72.3667C200.661 72.3639 200.761 72.3914 200.848 72.4457C200.934 72.5 201.002 72.5787 201.044 72.6718C201.1 72.7969 201.103 72.9389 201.054 73.0668C201.006 73.1946 200.908 73.2978 200.783 73.3538V73.3538Z" fill="white"/>
<path d="M189.838 75.9068C189.745 75.9482 189.641 75.9611 189.541 75.9437C189.44 75.9264 189.347 75.8796 189.273 75.8092C189.199 75.7389 189.147 75.6483 189.125 75.5488C189.103 75.4492 189.11 75.3452 189.147 75.25C189.183 75.1547 189.247 75.0724 189.331 75.0136C189.414 74.9548 189.513 74.922 189.615 74.9194C189.717 74.9168 189.818 74.9445 189.904 74.9991C189.99 75.0536 190.058 75.1325 190.1 75.2258C190.155 75.3508 190.159 75.4928 190.11 75.6205C190.061 75.7482 189.963 75.8512 189.838 75.9068Z" fill="white"/>
<path d="M194.342 79.4838C194.249 79.5251 194.145 79.538 194.045 79.5206C193.944 79.5032 193.851 79.4564 193.777 79.3861C193.703 79.3158 193.652 79.2252 193.629 79.1257C193.607 79.0262 193.614 78.9222 193.651 78.827C193.688 78.7318 193.752 78.6496 193.835 78.5907C193.918 78.5318 194.017 78.499 194.119 78.4963C194.221 78.4936 194.322 78.5211 194.408 78.5755C194.494 78.6299 194.562 78.7086 194.604 78.8018C194.66 78.927 194.663 79.0691 194.614 79.197C194.565 79.3248 194.467 79.428 194.342 79.4838V79.4838Z" fill="white"/>
<defs>
<radialGradient id="paint0_radial" cx="0" cy="0" r="1" gradientUnits="userSpaceOnUse" gradientTransform="translate(-1435.32 -1508.52) rotate(-91.5482) scale(99.0195 61.6874)">
<stop offset="0.197" stop-color="#2F195D"/>
<stop offset="0.878" stop-color="#130D4C"/>
</radialGradient>
<radialGradient id="paint1_radial" cx="0" cy="0" r="1" gradientUnits="userSpaceOnUse" gradientTransform="translate(30.178 1.99043) scale(0.741202 0.742662)">
<stop stop-color="#684F5C"/>
<stop offset="0.995" stop-color="#FDCA57"/>
</radialGradient>
<radialGradient id="paint2_radial" cx="0" cy="0" r="1" gradientUnits="userSpaceOnUse" gradientTransform="translate(2069.24 189.236) scale(140.906 140.887)">
<stop offset="0.057" stop-color="#1B105E"/>
<stop offset="0.995" stop-color="#F8637E"/>
</radialGradient>
<radialGradient id="paint3_radial" cx="0" cy="0" r="1" gradientUnits="userSpaceOnUse" gradientTransform="translate(-108.087 189.25) scale(140.767 140.859)">
<stop offset="0.057" stop-color="#1B105E"/>
<stop offset="0.995" stop-color="#F8637E"/>
</radialGradient>
<radialGradient id="paint4_radial" cx="0" cy="0" r="1" gradientUnits="userSpaceOnUse" gradientTransform="translate(1377.13 189.236) scale(140.843 140.866)">
<stop offset="0.057" stop-color="#1B105E"/>
<stop offset="0.995" stop-color="#F8637E"/>
</radialGradient>
<radialGradient id="paint5_radial" cx="0" cy="0" r="1" gradientUnits="userSpaceOnUse" gradientTransform="translate(-253.53 189.241) scale(140.91 140.878)">
<stop offset="0.057" stop-color="#1B105E"/>
<stop offset="0.995" stop-color="#F8637E"/>
</radialGradient>
<radialGradient id="paint6_radial" cx="0" cy="0" r="1" gradientUnits="userSpaceOnUse" gradientTransform="translate(796.064 189.246) scale(140.908 140.876)">
<stop offset="0.057" stop-color="#1B105E"/>
<stop offset="0.995" stop-color="#F8637E"/>
</radialGradient>
<radialGradient id="paint7_radial" cx="0" cy="0" r="1" gradientUnits="userSpaceOnUse" gradientTransform="translate(-413.595 189.236) scale(140.913 140.842)">
<stop offset="0.057" stop-color="#1B105E"/>
<stop offset="0.995" stop-color="#F8637E"/>
</radialGradient>
<radialGradient id="paint8_radial" cx="0" cy="0" r="1" gradientUnits="userSpaceOnUse" gradientTransform="translate(148.114 189.223) scale(140.789 140.861)">
<stop offset="0.057" stop-color="#1B105E"/>
<stop offset="0.995" stop-color="#F8637E"/>
</radialGradient>
<radialGradient id="paint9_radial" cx="0" cy="0" r="1" gradientUnits="userSpaceOnUse" gradientTransform="translate(-596.857 189.241) scale(141.125 140.879)">
<stop offset="0.057" stop-color="#1B105E"/>
<stop offset="0.995" stop-color="#F8637E"/>
</radialGradient>
<radialGradient id="paint10_radial" cx="0" cy="0" r="1" gradientUnits="userSpaceOnUse" gradientTransform="translate(-79.9571 189.232) scale(140.852 140.862)">
<stop offset="0.057" stop-color="#1B105E"/>
<stop offset="0.995" stop-color="#F8637E"/>
</radialGradient>
<radialGradient id="paint11_radial" cx="0" cy="0" r="1" gradientUnits="userSpaceOnUse" gradientTransform="translate(3030.49 189.241) scale(140.868 140.861)">
<stop offset="0.057" stop-color="#1B105E"/>
<stop offset="0.995" stop-color="#F8637E"/>
</radialGradient>
<radialGradient id="paint12_radial" cx="0" cy="0" r="1" gradientUnits="userSpaceOnUse" gradientTransform="translate(-548.78 189.24) scale(140.902 140.877)">
<stop offset="0.057" stop-color="#1B105E"/>
<stop offset="0.995" stop-color="#F8637E"/>
</radialGradient>
<radialGradient id="paint13_radial" cx="0" cy="0" r="1" gradientUnits="userSpaceOnUse" gradientTransform="translate(6.42793 83.9076) scale(50.0739 50.0988)">
<stop offset="0.057" stop-color="#1B105E"/>
<stop offset="0.995" stop-color="#FDCA57"/>
</radialGradient>
<radialGradient id="paint14_radial" cx="0" cy="0" r="1" gradientUnits="userSpaceOnUse" gradientTransform="translate(4.9901 83.9053) scale(50.0747 50.0984)">
<stop offset="0.057" stop-color="#1B105E"/>
<stop offset="0.995" stop-color="#FDCA57"/>
</radialGradient>
<radialGradient id="paint15_radial" cx="0" cy="0" r="1" gradientUnits="userSpaceOnUse" gradientTransform="translate(458.67 83.9088) scale(50.1101 50.1043)">
<stop offset="0.057" stop-color="#1B105E"/>
<stop offset="0.995" stop-color="#FDCA57"/>
</radialGradient>
<radialGradient id="paint16_radial" cx="0" cy="0" r="1" gradientUnits="userSpaceOnUse" gradientTransform="translate(459.554 83.8989) scale(50.1113 50.1043)">
<stop offset="0.057" stop-color="#1B105E"/>
<stop offset="0.995" stop-color="#FDCA57"/>
</radialGradient>
<radialGradient id="paint17_radial" cx="0" cy="0" r="1" gradientUnits="userSpaceOnUse" gradientTransform="translate(7.65525 80.5673) scale(46.6588 46.6512)">
<stop offset="0.057" stop-color="#1B105E"/>
<stop offset="0.995" stop-color="#FDCA57"/>
</radialGradient>
<radialGradient id="paint18_radial" cx="0" cy="0" r="1" gradientUnits="userSpaceOnUse" gradientTransform="translate(6.23701 80.5658) scale(46.6609 46.6496)">
<stop offset="0.057" stop-color="#1B105E"/>
<stop offset="0.995" stop-color="#FDCA57"/>
</radialGradient>
<radialGradient id="paint19_radial" cx="0" cy="0" r="1" gradientUnits="userSpaceOnUse" gradientTransform="translate(515.897 80.5805) scale(46.6413 46.6546)">
<stop offset="0.057" stop-color="#1B105E"/>
<stop offset="0.995" stop-color="#FDCA57"/>
</radialGradient>
<radialGradient id="paint20_radial" cx="0" cy="0" r="1" gradientUnits="userSpaceOnUse" gradientTransform="translate(515.115 80.58) scale(46.6415 46.6545)">
<stop offset="0.057" stop-color="#1B105E"/>
<stop offset="0.995" stop-color="#FDCA57"/>
</radialGradient>
</defs>
</svg>
