<svg xmlns="http://www.w3.org/2000/svg" xmlns:xlink="http://www.w3.org/1999/xlink" viewBox="0 0 148.75 42.05"><defs><style>.cls-1{fill:#2e3363;}.cls-2{fill:#464b94;}.cls-3{fill:#8e94e8;}.cls-4{fill:url(#linear-gradient);}</style><linearGradient id="linear-gradient" x1="74.27" y1="-0.46" x2="74.59" y2="61.51" gradientUnits="userSpaceOnUse"><stop offset="0.06" stop-color="#5a5ece"/><stop offset="1" stop-color="#464b94"/></linearGradient></defs><title>Asset 1</title><g id="Layer_2" data-name="Layer 2"><g id="Layer_19" data-name="Layer 19"><path class="cls-1" d="M148.75,34.17c0,4.35-3,7.88-6.75,7.88H6.75C3,42.05,0,38.52,0,34.17V7.88C0,3.53,3,0,6.75,0H142c3.73,0,6.75,3.53,6.75,7.88Z"/><rect class="cls-2" x="0.58" y="4.99" width="147.59" height="35.64" rx="6.68"/><rect class="cls-3" x="0.58" y="0.98" width="147.59" height="35.64" rx="6.68"/><path class="cls-4" d="M148.17,30.65a6.55,6.55,0,0,1-6.68,6.41H7.26A6.55,6.55,0,0,1,.58,30.65V9.27A6.55,6.55,0,0,1,7.26,2.85H141.49a6.55,6.55,0,0,1,6.68,6.42Z"/></g></g></svg>