<svg xmlns="http://www.w3.org/2000/svg" xmlns:xlink="http://www.w3.org/1999/xlink" viewBox="0 0 58.35 71.57"><defs><style>.cls-1{fill:#ff6100;}.cls-2{fill:#ff7e00;}.cls-3{fill:#ffdb00;}.cls-4{fill:#47190a;}.cls-28,.cls-5{opacity:0.2;}.cls-6{fill:#ad4c00;}.cls-7{fill:#ff8000;}.cls-8{fill:#f70000;}.cls-9{fill:#ce0000;}.cls-10{fill:#770600;}.cls-10,.cls-11{opacity:0.4;}.cls-11{fill:#290100;}.cls-12{fill:#ffb200;}.cls-13,.cls-25{fill:#b12e00;}.cls-14{fill:#b74a00;}.cls-15{stroke:#603813;stroke-miterlimit:10;stroke-width:0.43px;}.cls-16{fill:#ffa905;}.cls-17{fill:#ffe305;}.cls-18{fill:#ffff05;}.cls-19{fill:#ea9000;}.cls-20{fill:#ffc005;}.cls-21,.cls-45{fill:#fff;}.cls-22{fill:#ca2200;}.cls-23{fill:#460b00;opacity:0.5;}.cls-24{fill:#ffbf00;}.cls-25{opacity:0.1;}.cls-26{fill:#ff9e00;}.cls-27{fill:#ff0;}.cls-28,.cls-37{fill:#ad0d00;}.cls-29{fill:#ff8f00;}.cls-30{fill:#ff7300;}.cls-31{fill:#ffc400;}.cls-32{fill:#ff7000;}.cls-33{fill:#f95c00;}.cls-34{fill:#ffe800;}.cls-35{fill:#de4500;}.cls-36,.cls-37,.cls-46{opacity:0.3;}.cls-38,.cls-48{fill:#00009e;stroke:#00009e;stroke-linecap:round;stroke-linejoin:round;}.cls-38{stroke-width:0.94px;}.cls-39{fill:#4fcfff;}.cls-40{fill:#4ff8ff;}.cls-41{fill:#0950e7;}.cls-42{fill:#097dff;}.cls-43{fill:#099aff;}.cls-44{fill:url(#linear-gradient);}.cls-45{fill-opacity:0.2;}.cls-46{fill:#1f2af7;}.cls-47{fill:url(#linear-gradient-2);}.cls-48{stroke-width:1.03px;}.cls-49{fill:url(#linear-gradient-3);}</style><linearGradient id="linear-gradient" x1="771.32" y1="89.31" x2="778.29" y2="83.03" gradientTransform="matrix(0.78, 0.63, -0.63, 0.78, -517.71, -522.34)" gradientUnits="userSpaceOnUse"><stop offset="0.23" stop-color="#4fcfff"/><stop offset="0.7" stop-color="#3b80f0"/><stop offset="1" stop-color="#2f53e7"/></linearGradient><linearGradient id="linear-gradient-2" x1="1447.64" y1="-430.5" x2="1454.6" y2="-436.77" gradientTransform="matrix(0.1, 0.99, -0.99, 0.1, -553.65, -1356.73)" xlink:href="#linear-gradient"/><linearGradient id="linear-gradient-3" x1="-361.35" y1="-228.04" x2="-353.67" y2="-234.97" gradientTransform="translate(442.9 103.51) rotate(-23.95)" xlink:href="#linear-gradient"/></defs><title>Asset 1</title><g id="Layer_2" data-name="Layer 2"><g id="Layer_19" data-name="Layer 19"><path class="cls-1" d="M6.38,7.39c-1.77,6,1.32,17.93,1.32,17.93s-1.85,2.6-1.95,2.62-1-.76-1.78-7.26S3,10.36,3,10.36s1.2-3.61,1.32-3.61S6.38,7.39,6.38,7.39Z"/><polygon class="cls-1" points="9.64 50.57 7.47 50.57 6.59 38.7 8.75 38.7 9.64 50.57"/><polygon class="cls-2" points="5.23 36.52 6.11 48.91 7.55 52.17 6.67 39.36 5.23 36.52"/><rect class="cls-1" x="7.02" y="51.17" width="3.95" height="2.6"/><path class="cls-3" d="M9.64,49.42l-1.95,0L6.11,45.83h0v-.91H4.24L7,51.19h4Z"/><path class="cls-4" d="M54.6,45.74l2.22-.19-5.91-7.7h.14L45.93,30.5l7.24-11.12,1.76-2.66-.25,0L52.62,12.6,51,12.72c-1.54-6.8-4.36-11.28-7-11.19l-5.2.26a2.34,2.34,0,0,0-.7,0,3.46,3.46,0,0,0-2.36,2.14c-7.38-.73-16.55.2-21.64.87-1.1-1.24-2.24-1.9-3.31-1.8l-5.18.55a2.27,2.27,0,0,0-.69,0C1.53,4.32.52,12.53,2.61,21.92a45.16,45.16,0,0,0,2.1,6.92L4,30.33,5.1,33.47l.34,0-.09.19.17.16-1.16.09.14.25.28,4.45.69,1.3.36,5H4.24l.69,6.68L14,70.05l42.07-7,.31-5.75-.08-.1h.06l-.16-.12-1.61-2V49.06l2-.17.08-3.3-2.06.18Zm0,10.68h0V56Z"/><path class="cls-5" d="M14,71.57a1.53,1.53,0,0,1-1.37-.85L3.57,52.29a1.56,1.56,0,0,1-.15-.52l-.69-6.61a1.67,1.67,0,0,1,.06-.7,1.53,1.53,0,0,1,1.4-1.05L4,40.31l-.54-1a1.65,1.65,0,0,1-.18-.62L3,34.56a1.52,1.52,0,0,1,0-1.42,2,2,0,0,1,.24-.33l-.68-2a1.5,1.5,0,0,1,.05-1.12l.42-.9a47.47,47.47,0,0,1-1.94-6.54C-.59,14.57-.33,7.47,1.78,4.18A4.39,4.39,0,0,1,4.54,2.11a3.55,3.55,0,0,1,1-.08l5.05-.54h.36a5.36,5.36,0,0,1,3.68,1.73,123.3,123.3,0,0,1,15.1-1.06c1.84,0,3.57.06,5.14.19a4.45,4.45,0,0,1,2.95-2,3.65,3.65,0,0,1,1,0L43.86,0H44c3.27,0,6.33,4.22,8.11,11.1l.39,0a1.54,1.54,0,0,1,1.47.83l1.76,3.52a1.62,1.62,0,0,1,.51.53,1.49,1.49,0,0,1-.06,1.6l-1.76,2.66L47.77,30.47,52.3,37a1.49,1.49,0,0,1,.22.48L58,44.62a1.53,1.53,0,0,1,.19,1.54l0,.11-.07,2.66a1.52,1.52,0,0,1-1.39,1.48l-.59.05v4.12L57.28,56a1.51,1.51,0,0,1,.59,1,1.29,1.29,0,0,1,0,.44l-.31,5.75a1.53,1.53,0,0,1-1.27,1.42l-42.07,7A1.06,1.06,0,0,1,14,71.57ZM6.42,51.19l8.46,17.17,39.74-6.59.21-3.84h0a1.55,1.55,0,0,1-1.73-1.51V56a1.52,1.52,0,0,1,.06-.42,1.52,1.52,0,0,1-.06-.42V49.06a1.53,1.53,0,0,1,1.39-1.52l.63,0v-.24l-.37,0a1.51,1.51,0,0,1-1.16-.39,1.55,1.55,0,0,1-.49-1.12A1.57,1.57,0,0,1,54,44.35L49.7,38.78a1.4,1.4,0,0,1-.28-.62l-4.74-6.79a1.53,1.53,0,0,1,0-1.7L53,16.83l-1.32-2.64-.66,0a1.5,1.5,0,0,1-1.59-1.18c-1.56-6.9-4.13-10-5.45-10l-5.2.27a1.42,1.42,0,0,1-.29,0h-.23c-.41.06-.86.55-1.26,1.33a1.52,1.52,0,0,1-1.51.83,56.92,56.92,0,0,0-5.81-.26A122.66,122.66,0,0,0,14.24,6.33a1.54,1.54,0,0,1-1.34-.5,3.28,3.28,0,0,0-2-1.31l-5.22.55H5.42a.63.63,0,0,0-.24,0,1.55,1.55,0,0,0-.83.73c-1.34,2.1-2,7.93-.25,15.77a43.59,43.59,0,0,0,2,6.69,1.48,1.48,0,0,1,0,1.2l-.42.93.6,1.75a1.44,1.44,0,0,1,.43.42,1.5,1.5,0,0,1,.26.69,1.55,1.55,0,0,1,0,1,1.52,1.52,0,0,1-.87.92l.19,2.95.53,1a1.6,1.6,0,0,1,.18.6l.36,5a1.53,1.53,0,0,1-1.42,1.63Z"/><path class="cls-6" d="M42.26,4.36s-6.1.91-6.56,2.86-.4,11.88-.4,11.88l2.25,8.18s3.62.32,3.81-.16,5.88-8.61,5.88-8.61,1.25-3.71.93-3.9-2.81-7.3-2.81-7.3Z"/><path class="cls-3" d="M51.78,17.72C50.72,8.21,47.19,1.43,43.94,1.53l-5.53.28,2.33,5,1.7,3.3s2.09,7.51,2.21,7.56,2.42.3,4.27.5a1.23,1.23,0,0,0,0,.2C49.06,19.43,52,19.41,51.78,17.72Z"/><path class="cls-1" d="M37.42,6.29c-1.43,6.15,2.35,18,2.35,18S38.07,27,38,27s-1-.71-2.19-7.21S34.23,9.47,34.23,9.47s1-3.71,1.12-3.71S37.42,6.29,37.42,6.29Z"/><path class="cls-7" d="M37.86,27.62l1-.76a44.32,44.32,0,0,1-1.72-7.12c-1.14-7-.64-13,1.12-13.28s4.09,5.21,5.23,12.25a47.91,47.91,0,0,1,.6,6.14,7.76,7.76,0,0,1,1.06-.47c.69-.23,1.38-.43,2.07-.66l.29-.09a45.19,45.19,0,0,0-.57-5.47C45.39,8.58,41.41,1.25,38,1.8s-4.84,8.74-3.29,18.32a45,45,0,0,0,2.15,8.36A12.61,12.61,0,0,1,37.86,27.62Z"/><path class="cls-8" d="M44,14.62S42.16,5,39.09,4.43c-10.81-2.14-28.91,1-28.91,1s7.42,10,6.43,12.17,27.55-1.94,27.55-1.94Z"/><path class="cls-9" d="M44,14.86s-1.79-8.92-4.86-9.49c-10.81-2-28.91.88-28.91.88s7.42,9.3,6.43,11.34,27.55-1.81,27.55-1.81Z"/><path class="cls-10" d="M44,15.38s-1.79-7.54-4.86-8c-10.81-1.68-28.91.75-28.91.75S17.6,16,16.61,17.68s27.55-1.52,27.55-1.52Z"/><path class="cls-11" d="M44,16.26s-1.79-5.17-4.86-5.5c-10.81-1.15-28.91.52-28.91.52s7.42,5.38,6.43,6.56,27.55-1,27.55-1Z"/><path class="cls-6" d="M9.64,5.17s-6,1.32-6.35,3.3.41,11.88.41,11.88l2.81,8s3.63.08,3.79-.41,5.28-9,5.28-9,1-3.8.66-4-3.3-7.09-3.3-7.09Z"/><path class="cls-3" d="M19.47,18.6C17.87,9.25,14,2.73,10.73,3l-5.5.58L7.84,8.38l1.88,3.18s2.5,7.32,2.63,7.36,2.43.16,4.29.26l0,.2C16.86,20.45,19.76,20.27,19.47,18.6Z"/><path class="cls-12" d="M6.57,30.18a6.6,6.6,0,0,1,.93-.84A41.43,41.43,0,0,1,5,21.41C3.43,14.5,3.59,8.58,5.32,8.21s4.39,4.92,5.92,11.84a46.62,46.62,0,0,1,.95,6.12,14.68,14.68,0,0,1,2-2.61,7.34,7.34,0,0,1,1.09-.76c-.16-1.14-.38-2.3-.64-3.49C12.58,9.91,8.19,2.87,4.86,3.6S.52,12.53,2.61,21.92a42.7,42.7,0,0,0,3.11,9.24C6,30.82,6.28,30.49,6.57,30.18Z"/><path class="cls-13" d="M41.64,28.23s-4.26-8.6-3.21-11.57-25.12.8-25.12.8L10,30.15Z"/><polygon class="cls-13" points="42.88 32.39 43.95 54.99 16.08 57.55 7.66 35.28 42.88 32.39"/><path class="cls-14" d="M42.63,32.31,52.2,44.93l-.74,16.33s-9.16.58-9.07.25S42.63,32.31,42.63,32.31Z"/><path class="cls-15" d="M34,45c-.53-.26-1-.5-1.35-.67-2.27-1-5.14.27-6.49,2.95a5.45,5.45,0,0,0,.74,6.43A8.81,8.81,0,0,0,29,55c2.7,1.35,5.54,0,6.92-2.75S36.64,46.36,34,45Z"/><path class="cls-16" d="M35.87,52.2C34.49,54.94,31.65,56.3,29,55a5.78,5.78,0,0,1-2.39-1.58c-1.14-1.62-.94-3.95,0-5.84s2.75-3.51,4.83-3.48A6.11,6.11,0,0,1,34,45C36.64,46.36,37.25,49.46,35.87,52.2Z"/><path class="cls-17" d="M34.37,51.45c-1.38,2.74-4.35,4-6.63,2.89s-3-4.3-1.63-7.05,4.35-4,6.63-2.89S35.75,48.7,34.37,51.45Z"/><path class="cls-18" d="M32.82,50.93c-1,1.92-2.94,2.88-4.42,2.14s-1.88-2.9-.91-4.82,2.94-2.88,4.41-2.14S33.79,49,32.82,50.93Z"/><path class="cls-19" d="M32.78,50.65c-1,1.93-3,2.89-4.49,2.13s-1.94-2.94-1-4.88,3-2.89,4.49-2.13S33.76,48.71,32.78,50.65Z"/><path class="cls-20" d="M32.72,50.76c-.94,1.88-2.82,2.83-4.2,2.14s-1.74-2.78-.8-4.65,2.82-2.83,4.2-2.13S33.66,48.89,32.72,50.76Z"/><path class="cls-19" d="M32.65,50.63c-.76,1.51-2.34,2.26-3.52,1.67s-1.52-2.3-.76-3.82,2.34-2.26,3.52-1.67S33.41,49.12,32.65,50.63Z"/><path class="cls-17" d="M32.19,50.4c-.76,1.52-2.28,2.29-3.4,1.72s-1.41-2.24-.65-3.75,2.29-2.29,3.41-1.73S33,48.89,32.19,50.4Z"/><path class="cls-21" d="M30.06,45.21c-.46.18-.91.14-1-.08s.23-.54.7-.72.91-.13,1,.09S30.53,45,30.06,45.21Z"/><path class="cls-21" d="M29.65,54.35c-.3,0-.55,0-.57-.17s.19-.28.49-.33.55,0,.57.16S29.94,54.3,29.65,54.35Z"/><path class="cls-15" d="M45.16,40.81c-.52-.27-.94-.51-1.35-.68-2.26-1-5.13.27-6.48,3a5.42,5.42,0,0,0,.74,6.42,8,8,0,0,0,2.1,1.23c2.69,1.35,5.54,0,6.92-2.75S47.86,42.16,45.16,40.81Z"/><path class="cls-16" d="M47.09,48c-1.38,2.75-4.23,4.1-6.92,2.75a6,6,0,0,1-2.4-1.57c-1.13-1.63-.93-4,0-5.85s2.76-3.5,4.84-3.47a5.9,5.9,0,0,1,2.53,1C47.86,42.16,48.47,45.25,47.09,48Z"/><path class="cls-17" d="M45.59,47.24c-1.38,2.75-4.35,4-6.63,2.89s-3-4.3-1.63-7,4.34-4,6.62-2.9S47,44.5,45.59,47.24Z"/><path class="cls-18" d="M44,46.72c-1,1.92-2.95,2.88-4.42,2.14S37.74,46,38.71,44s2.94-2.88,4.41-2.14S45,44.8,44,46.72Z"/><path class="cls-19" d="M44,46.44c-1,1.94-3,2.89-4.5,2.14s-1.93-2.95-1-4.88,3-2.9,4.49-2.14S45,44.5,44,46.44Z"/><path class="cls-20" d="M43.94,46.56c-.94,1.87-2.82,2.83-4.21,2.13S38,45.92,38.93,44s2.83-2.82,4.21-2.13S44.88,44.69,43.94,46.56Z"/><path class="cls-19" d="M43.87,46.42c-.77,1.52-2.34,2.27-3.52,1.67s-1.52-2.3-.76-3.82,2.34-2.26,3.52-1.66S44.63,44.91,43.87,46.42Z"/><path class="cls-17" d="M43.41,46.19c-.76,1.52-2.28,2.29-3.4,1.73s-1.41-2.25-.65-3.76,2.29-2.29,3.41-1.73S44.17,44.68,43.41,46.19Z"/><path class="cls-21" d="M41.28,41c-.46.17-.91.13-1-.09s.23-.54.69-.71.91-.14,1,.08S41.75,40.83,41.28,41Z"/><path class="cls-21" d="M40.87,50.14c-.3,0-.55,0-.58-.16s.2-.29.5-.34.54,0,.57.17S41.16,50.1,40.87,50.14Z"/><path class="cls-15" d="M40.46,35.61c-.52-.27-.94-.5-1.35-.68-2.26-1-5.14.27-6.49,3a5.44,5.44,0,0,0,.75,6.42,8,8,0,0,0,2.1,1.23c2.69,1.36,5.54,0,6.92-2.74S43.16,37,40.46,35.61Z"/><path class="cls-16" d="M42.39,42.8c-1.38,2.74-4.23,4.1-6.92,2.74A5.79,5.79,0,0,1,33.07,44c-1.13-1.62-.93-3.95,0-5.85s2.75-3.5,4.84-3.47a5.94,5.94,0,0,1,2.53,1C43.16,37,43.77,40.06,42.39,42.8Z"/><path class="cls-17" d="M40.89,42c-1.38,2.75-4.35,4-6.63,2.9s-3-4.31-1.64-7,4.35-4,6.64-2.89S42.27,39.3,40.89,42Z"/><path class="cls-18" d="M39.34,41.53c-1,1.92-3,2.88-4.42,2.14S33,40.77,34,38.85,37,36,38.42,36.7,40.3,39.6,39.34,41.53Z"/><path class="cls-19" d="M39.3,41.25c-1,1.93-3,2.89-4.5,2.13s-1.94-2.94-1-4.88,3-2.89,4.49-2.14S40.27,39.31,39.3,41.25Z"/><path class="cls-20" d="M39.24,41.36c-.94,1.87-2.83,2.83-4.21,2.13s-1.74-2.77-.8-4.64,2.83-2.83,4.21-2.14S40.18,39.49,39.24,41.36Z"/><path class="cls-19" d="M39.17,41.23c-.77,1.51-2.34,2.26-3.52,1.66s-1.53-2.3-.76-3.81,2.33-2.26,3.51-1.67S39.93,39.71,39.17,41.23Z"/><path class="cls-17" d="M38.71,41c-.76,1.51-2.29,2.28-3.4,1.72S33.9,40.48,34.66,39s2.28-2.28,3.4-1.72S39.47,39.48,38.71,41Z"/><path class="cls-21" d="M36.58,35.81c-.47.17-.91.14-1-.09s.23-.54.69-.71.91-.13,1,.08S37.05,35.64,36.58,35.81Z"/><path class="cls-21" d="M36.16,45c-.29,0-.54,0-.57-.17s.2-.29.49-.34.55,0,.58.17S36.46,44.9,36.16,45Z"/><polygon class="cls-22" points="52.99 45.02 40.12 45.88 40.8 53.67 31.89 54.05 30.53 49.97 16.43 51.14 17.54 60.36 18.22 66.98 52.68 61.22 52.99 45.02"/><polygon class="cls-23" points="52.99 45.02 40.12 45.55 40.8 50.39 31.89 50.62 30.53 48.09 16.43 48.82 17.54 54.54 18.22 58.64 52.68 55.08 52.99 45.02"/><path class="cls-22" d="M8.45,36.23c.3.18,9.09,14.53,9.09,14.72s-.44,15.9-.62,15.72-11.38-17-11.2-17S8.45,36.23,8.45,36.23Z"/><polygon class="cls-3" points="7.22 52.17 10.97 52.19 15.12 59.55 10.89 59.78 7.22 52.17"/><polygon class="cls-12" points="7.14 51.2 4.24 44.94 4.93 51.62 14.01 70.05 14.01 64.22 10.91 58.34 10.89 59.78 7.22 52.17 7.14 51.2"/><polygon class="cls-2" points="38.91 48.42 37.27 49.56 40.74 54.08 42.44 52.22 38.91 48.42"/><polyline class="cls-3" points="45.85 57.67 45.78 57.68 17.98 61.62 19.7 66.42 49.32 60.65"/><polygon class="cls-2" points="12.9 50.01 12.9 61.3 14.67 63.9 17.06 61.96 12.9 50.01"/><polygon class="cls-1" points="49.52 57.88 47.85 55.41 47.85 46.62 50.26 47.8 49.52 57.88"/><polygon class="cls-24" points="19.46 64.01 14.57 64.01 14.07 50.4 19.46 50.4 19.46 64.01"/><rect class="cls-24" x="49.21" y="45.32" width="5.38" height="13.61"/><polygon class="cls-25" points="19.46 56.58 14.57 56.58 14.07 48.38 19.46 48.38 19.46 56.58"/><rect class="cls-25" x="49.21" y="45.32" width="5.38" height="8.2"/><polygon class="cls-12" points="38.91 44.4 38.91 48.42 42.07 52.28 42.35 45.88 38.91 44.4"/><path class="cls-15" d="M25.28,40.47c-.52-.26-.94-.49-1.34-.67-2.26-1-5.14.27-6.49,3a5.42,5.42,0,0,0,.74,6.42,8.3,8.3,0,0,0,2.1,1.23c2.69,1.35,5.54,0,6.92-2.74S28,41.83,25.28,40.47Z"/><path class="cls-16" d="M27.21,47.67c-1.38,2.74-4.23,4.09-6.92,2.74a6,6,0,0,1-2.4-1.57c-1.13-1.62-.93-4,0-5.85s2.76-3.5,4.84-3.47a6,6,0,0,1,2.53.95C28,41.83,28.59,44.92,27.21,47.67Z"/><path class="cls-17" d="M25.71,46.91c-1.38,2.75-4.35,4-6.63,2.89s-3-4.3-1.63-7,4.34-4,6.63-2.89S27.09,44.17,25.71,46.91Z"/><path class="cls-18" d="M24.16,46.39c-1,1.93-2.94,2.88-4.42,2.14s-1.88-2.9-.91-4.82,2.94-2.88,4.41-2.14S25.13,44.47,24.16,46.39Z"/><path class="cls-19" d="M24.12,46.11c-1,1.94-3,2.89-4.49,2.14s-1.94-3-1-4.88,3-2.9,4.49-2.14S25.09,44.17,24.12,46.11Z"/><path class="cls-20" d="M24.06,46.23c-.94,1.87-2.82,2.83-4.21,2.13s-1.74-2.78-.8-4.65,2.83-2.82,4.21-2.13S25,44.36,24.06,46.23Z"/><path class="cls-19" d="M24,46.09c-.76,1.52-2.34,2.27-3.52,1.67s-1.52-2.3-.76-3.82,2.33-2.26,3.52-1.67S24.75,44.58,24,46.09Z"/><path class="cls-17" d="M23.53,45.87c-.76,1.51-2.28,2.28-3.4,1.72s-1.41-2.25-.65-3.76,2.29-2.29,3.4-1.72S24.29,44.35,23.53,45.87Z"/><path class="cls-21" d="M21.4,40.68c-.46.17-.91.13-1-.09s.23-.54.69-.71.92-.14,1,.08S21.87,40.5,21.4,40.68Z"/><path class="cls-21" d="M21,49.82c-.29,0-.55,0-.57-.17s.19-.29.49-.34.55,0,.57.17S21.28,49.77,21,49.82Z"/><polygon class="cls-1" points="37.27 49.56 29.36 50.58 33.16 54.98 40.8 53.67 37.27 49.56"/><path class="cls-14" d="M39,55l-7,1.3-2.79-1.33-.49-3.06,1.36-.31s1.33,2.26,1.36,2.35a14.81,14.81,0,0,0,1.89,1.21Z"/><polygon class="cls-26" points="31.77 48.54 13.02 50.34 13.19 54.38 29.68 52.69 29.97 54.73 32.02 56.27 41.42 55.1 43.29 52.93 43.29 50.05 56.58 48.89 56.66 45.59 41.15 46.91 41.23 51.51 40.18 53.12 33.25 53.92 32.02 52.75 31.77 48.54"/><polygon class="cls-12" points="13.19 54.38 13.13 54.28 4.78 38.58 4.49 33.96 13.02 50.34 13.19 54.38"/><polygon class="cls-3" points="29.77 45.84 17.23 46.91 10.79 36.19 42.84 33.59 49.89 43.61 38.84 44.44 41.15 46.91 56.82 45.55 45.48 30.79 4.36 33.88 13.02 50.34 31.75 48.56 29.77 45.84"/><polygon class="cls-1" points="45.69 55.43 47.87 58.58 47.67 60.4 45.81 57.8 45.69 55.43"/><polygon class="cls-3" points="12.88 58.34 10.91 58.34 13.89 64.31 21.98 63.4 19.46 59.13 19.46 59.13 19.39 62.19 14.54 62.3 12.88 58.34"/><polygon class="cls-26" points="13.89 64.31 14.01 70.05 56.08 63.08 56.39 57.33 47.79 58.5 47.67 60.17 21.81 64.6 21.98 63.4 13.89 64.31"/><polygon class="cls-3" points="47.85 55.1 45.69 55.43 47.87 58.58 56.39 57.33 54.55 55.08 54.62 56.42 49.2 57.1 47.85 55.1"/><polygon class="cls-27" points="13.48 63.16 13.89 64.31 21.89 63.28 21.19 62.13 13.48 63.16"/><polygon class="cls-27" points="47.38 60.11 46.84 59.33 21.89 63.82 21.81 64.6 47.38 60.11"/><polyline class="cls-27" points="47.79 58.5 56.37 57.22 55.71 56.73 47.62 58.17 47.87 58.58"/><polygon class="cls-27" points="41.15 46.78 56.45 45.38 55.91 44.6 40.74 46.17 41.15 46.78"/><polygon class="cls-27" points="30.88 47.9 31.25 48.27 13.06 50.09 6.79 38.08 13.39 49.59 30.88 47.9"/><polygon class="cls-3" points="56.11 57.67 55.77 62.92 40.52 65.43 55.09 62.49 56.11 57.67"/><polygon class="cls-7" points="40.16 25.88 7.91 27.7 7.17 32.31 45.11 29.26 40.16 25.88"/><path class="cls-12" d="M45.35,30.17l-2.63-.41-2.56-3.88s8.41-12.13,8.66-12,4.87,3.39,4.87,3.39Z"/><polygon class="cls-12" points="10.74 15.57 4.03 30.33 5.1 33.47 14.67 19.11 10.74 15.57"/><polygon class="cls-3" points="14.17 64.63 14.35 69.7 22.55 68.34 15.12 68.8 14.17 64.63"/><polygon class="cls-12" points="51.13 14.33 50.55 12.1 46.1 12.47 46.55 15.28 51.13 14.33"/><polygon class="cls-12" points="18.88 16.27 18.3 14.04 13.85 14.41 14.3 17.22 18.88 16.27"/><polygon class="cls-3" points="12.36 19.69 10.71 15.57 52.62 12.6 54.76 16.89 12.36 19.69"/><path class="cls-1" d="M12.36,19.2,5.1,33.47l40.75-3.06,9.08-13.69Zm29.71,9.67L11.62,30.74l4.81-8.64,31.4-1.67Z"/><polygon class="cls-28" points="39.36 19.63 26.55 21.73 24.88 18.58 22.65 14.74 20.86 12.08 36.14 11.22 39.36 19.63"/><polygon class="cls-3" points="40.62 22.15 41.83 20.81 39.19 10.38 37.45 9.27 25.96 10.18 24.72 11.52 26.68 22.53 28.47 23.64 40.62 22.15"/><polygon class="cls-29" points="39.92 21.63 41.02 20.41 38.65 10.94 37.07 9.93 26.61 10.76 25.48 11.97 27.3 21.97 28.92 22.98 39.92 21.63"/><polygon class="cls-30" points="27.71 21.45 29.09 22.29 30.11 22.25 28.65 21.09 27.71 21.45"/><path class="cls-31" d="M27.91,11.19l-1.25.61-.59.77a3.1,3.1,0,0,0,.31.46l1.38-.52Z"/><polygon class="cls-3" points="39.46 21.06 40.39 19.97 38.27 11.39 36.9 10.48 27.91 11.19 26.96 12.29 28.68 21.33 30.07 22.24 39.46 21.06"/><path class="cls-32" d="M31.55,14.57a2.21,2.21,0,0,0,2.3,1.63,1.57,1.57,0,0,0,1.51-1.94,2.12,2.12,0,0,0-2.3-1.63A1.52,1.52,0,0,0,31.55,14.57Z"/><path class="cls-33" d="M34.83,15.82c.06.1,1.83,3.51,1.83,3.51l-4,.46.38-3.95Z"/><polygon class="cls-34" points="35.61 19.08 36.7 19.35 32.67 19.8 32.73 19.34 35.61 19.08"/><path class="cls-35" d="M31.54,14.5a2,2,0,0,0,2,1.56,1.41,1.41,0,0,0,1.23-1.81,2,2,0,0,0-2-1.54A1.4,1.4,0,0,0,31.54,14.5Z"/><path class="cls-35" d="M33.77,14.93l1.93,4.19-3,.4-.19-5Z"/><polygon class="cls-27" points="36.81 10.63 28.11 11.44 27.37 12.4 27.56 13.42 28.5 13.08 28.66 12.11 36.59 10.85 36.81 10.63"/><polygon class="cls-27" points="28.63 18.2 28.97 21.29 30.26 21.96 32.29 21.8 29.86 20.96 28.63 18.2"/><polygon class="cls-27" points="11.21 15.98 12.75 18.89 12.45 16.54 24.57 15.18 11.21 15.98"/><path class="cls-27" d="M40.41,13.75l12.06-.62s1.42,3.16,1.36,3S52,13.81,52,13.81Z"/><path class="cls-27" d="M7.81,4.1a19.65,19.65,0,0,1,6.06,10.21,18.36,18.36,0,0,0-4-9.71l2.78-.68Z"/><polygon class="cls-26" points="5.27 28.64 10.67 16.68 11.79 19.48 10.55 19.16 5.27 28.64"/><path class="cls-27" d="M49.81,12c-1.24-7.3-4.76-9.41-4.76-9.41l-3.47.19S45.09,3.88,46,4.91C47.23,6.19,49.81,12,49.81,12Z"/><path class="cls-15" d="M45.45,32.85c-.55-.19-1-.37-1.42-.49-2.38-.73-5.07.93-6.06,3.77a5.44,5.44,0,0,0,1.57,6.27,8,8,0,0,0,2.24,1c2.85,1,5.5-.72,6.51-3.62S48.3,33.84,45.45,32.85Z"/><path class="cls-16" d="M48.29,39.73c-1,2.9-3.66,4.61-6.51,3.62a5.72,5.72,0,0,1-2.57-1.25c-1.34-1.46-1.44-3.8-.74-5.8s2.27-3.83,4.34-4.07a6.06,6.06,0,0,1,2.64.62C48.3,33.84,49.3,36.83,48.29,39.73Z"/><path class="cls-17" d="M46.7,39.18c-1,2.9-3.78,4.57-6.2,3.72S37,39,38,36.13s3.79-4.57,6.2-3.73S47.72,36.28,46.7,39.18Z"/><path class="cls-18" d="M45.1,38.87c-.71,2-2.55,3.23-4.1,2.69s-2.24-2.63-1.54-4.66,2.55-3.24,4.11-2.7S45.81,36.83,45.1,38.87Z"/><path class="cls-19" d="M45,38.59c-.71,2-2.58,3.26-4.17,2.7s-2.31-2.67-1.59-4.71,2.58-3.26,4.17-2.7S45.74,36.54,45,38.59Z"/><path class="cls-20" d="M45,38.72c-.69,2-2.43,3.16-3.9,2.66S39,38.85,39.69,36.87s2.44-3.17,3.9-2.66S45.67,36.74,45,38.72Z"/><path class="cls-19" d="M44.89,38.59c-.56,1.6-2,2.55-3.27,2.11S39.81,38.61,40.37,37s2-2.54,3.27-2.1S45.45,37,44.89,38.59Z"/><path class="cls-17" d="M44.41,38.42c-.56,1.6-2,2.56-3.15,2.15s-1.69-2-1.13-3.64,2-2.56,3.15-2.15S45,36.82,44.41,38.42Z"/><path class="cls-21" d="M41.63,33.55c-.44.24-.89.26-1,.05s.16-.57.6-.8.88-.25,1,0S42.07,33.32,41.63,33.55Z"/><path class="cls-21" d="M42.4,42.67c-.29.08-.55,0-.59-.09s.16-.32.44-.4.55,0,.59.09S42.68,42.59,42.4,42.67Z"/><path class="cls-15" d="M38.61,29.3c-.56-.19-1-.37-1.43-.49-2.38-.73-5.07.93-6.06,3.77a5.47,5.47,0,0,0,1.57,6.28,8.6,8.6,0,0,0,2.25.94c2.84,1,5.49-.71,6.5-3.61S41.45,30.3,38.61,29.3Z"/><path class="cls-16" d="M41.44,36.19c-1,2.9-3.66,4.61-6.5,3.61a5.82,5.82,0,0,1-2.58-1.25c-1.34-1.46-1.44-3.8-.74-5.8s2.27-3.83,4.34-4.07a6.24,6.24,0,0,1,2.65.62C41.45,30.3,42.45,33.29,41.44,36.19Z"/><path class="cls-17" d="M39.86,35.63c-1,2.9-3.79,4.57-6.2,3.73s-3.55-3.88-2.54-6.78,3.79-4.57,6.21-3.72S40.87,32.73,39.86,35.63Z"/><path class="cls-18" d="M38.25,35.32c-.71,2-2.54,3.24-4.1,2.69s-2.24-2.63-1.53-4.66,2.54-3.24,4.1-2.69S39,33.29,38.25,35.32Z"/><path class="cls-19" d="M38.18,35c-.72,2.05-2.59,3.26-4.18,2.7S31.69,35.08,32.41,33s2.58-3.25,4.18-2.7S38.89,33,38.18,35Z"/><path class="cls-20" d="M38.13,35.17c-.69,2-2.43,3.17-3.89,2.66s-2.09-2.53-1.4-4.51,2.44-3.17,3.9-2.65S38.83,33.19,38.13,35.17Z"/><path class="cls-19" d="M38.05,35c-.56,1.61-2,2.55-3.28,2.11S33,35.07,33.52,33.47s2-2.55,3.27-2.11S38.6,33.45,38.05,35Z"/><path class="cls-17" d="M37.56,34.88c-.56,1.6-2,2.56-3.15,2.15S32.72,35,33.28,33.38s2-2.56,3.15-2.15S38.12,33.27,37.56,34.88Z"/><path class="cls-21" d="M34.78,30c-.44.23-.89.25-1,0s.16-.57.6-.8.89-.25,1,0S35.22,29.78,34.78,30Z"/><path class="cls-21" d="M35.55,39.12c-.28.09-.55.05-.59-.09s.16-.31.45-.4.54,0,.58.1S35.83,39,35.55,39.12Z"/><path class="cls-15" d="M27.86,30.44c-.57.15-1,.26-1.45.39-2.38.74-3.67,3.62-2.9,6.53a5.45,5.45,0,0,0,4.82,4.31,8.6,8.6,0,0,0,2.39-.48c2.91-.77,4.14-3.68,3.35-6.64S30.77,29.67,27.86,30.44Z"/><path class="cls-16" d="M34.07,34.55c.79,3-.44,5.87-3.35,6.64a5.76,5.76,0,0,1-2.84.41C26,41.15,24.56,39.27,24,37.22s-.27-4.45,1.31-5.81a6,6,0,0,1,2.53-1C30.77,29.67,33.28,31.58,34.07,34.55Z"/><path class="cls-17" d="M32.45,35c.79,3-.57,5.9-3,6.56s-5.11-1.22-5.9-4.18.57-5.91,3-6.57S31.66,32,32.45,35Z"/><path class="cls-18" d="M30.94,35.62c.56,2.08-.28,4.11-1.88,4.53s-3.33-.92-3.88-3,.29-4.11,1.88-4.53S30.39,33.54,30.94,35.62Z"/><path class="cls-19" d="M30.73,35.44c.56,2.09-.31,4.14-1.94,4.57s-3.41-.91-4-3,.32-4.15,1.95-4.58S30.17,33.34,30.73,35.44Z"/><path class="cls-20" d="M30.76,35.56c.54,2-.24,4-1.73,4.39s-3.14-.92-3.68-3,.24-4,1.73-4.38S30.22,33.54,30.76,35.56Z"/><path class="cls-19" d="M30.62,35.51c.44,1.64-.25,3.24-1.53,3.58s-2.66-.71-3.1-2.35.25-3.24,1.53-3.58S30.18,33.87,30.62,35.51Z"/><path class="cls-17" d="M30.13,35.64c.43,1.64-.2,3.23-1.41,3.55s-2.54-.75-3-2.38.2-3.23,1.41-3.55S29.69,34,30.13,35.64Z"/><path class="cls-21" d="M25.09,33.17c-.23.44-.59.71-.8.6s-.19-.56.05-1,.59-.7.8-.6S25.33,32.73,25.09,33.17Z"/><path class="cls-21" d="M30.84,40.28c-.18.23-.43.35-.53.26s0-.35.14-.58.43-.34.54-.25S31,40.06,30.84,40.28Z"/><path class="cls-15" d="M34.55,34.91c-.59,0-1.08,0-1.51,0-2.48.07-4.49,2.5-4.52,5.51A5.43,5.43,0,0,0,32,45.85a8,8,0,0,0,2.43.18c3,0,5-2.44,5-5.51S37.56,34.94,34.55,34.91Z"/><path class="cls-16" d="M39.45,40.52c0,3.07-2,5.54-5,5.51a5.87,5.87,0,0,1-2.85-.35c-1.73-1-2.58-3.14-2.56-5.26s.92-4.36,2.81-5.25a6,6,0,0,1,2.7-.26C37.56,34.94,39.47,37.45,39.45,40.52Z"/><path class="cls-17" d="M37.77,40.5c0,3.07-2.13,5.54-4.68,5.52s-4.6-2.53-4.57-5.6,2.12-5.54,4.67-5.52S37.79,37.43,37.77,40.5Z"/><path class="cls-18" d="M36.15,40.72c0,2.16-1.38,3.89-3,3.87s-3-1.77-2.94-3.92,1.37-3.89,3-3.87S36.16,38.57,36.15,40.72Z"/><path class="cls-19" d="M36,40.49c0,2.17-1.41,3.91-3.09,3.89s-3-1.78-3-4,1.4-3.91,3.09-3.9S36,38.32,36,40.49Z"/><path class="cls-20" d="M36,40.62c0,2.09-1.28,3.78-2.83,3.77s-2.79-1.73-2.77-3.82,1.29-3.78,2.84-3.77S36,38.52,36,40.62Z"/><path class="cls-19" d="M35.86,40.53c0,1.69-1.1,3.06-2.42,3s-2.38-1.4-2.37-3.09,1.1-3.06,2.42-3.05S35.88,38.83,35.86,40.53Z"/><path class="cls-17" d="M35.35,40.52c0,1.7-1,3.06-2.29,3s-2.26-1.39-2.24-3.09,1-3.06,2.29-3S35.36,38.83,35.35,40.52Z"/><path class="cls-21" d="M31.15,36.81c-.34.36-.76.52-.93.36s0-.59.31-1,.76-.52.93-.36S31.5,36.45,31.15,36.81Z"/><path class="cls-21" d="M34.81,45.19c-.24.17-.51.22-.59.1s.05-.34.3-.52.5-.21.58-.09S35.05,45,34.81,45.19Z"/><path class="cls-15" d="M28.28,36.17c-.53-.27-1-.51-1.35-.68-2.27-1-5.14.27-6.5,3a5.46,5.46,0,0,0,.75,6.42,8.3,8.3,0,0,0,2.1,1.23c2.69,1.36,5.54,0,6.92-2.74S31,37.52,28.28,36.17Z"/><path class="cls-16" d="M30.2,43.36c-1.38,2.74-4.23,4.1-6.92,2.74a5.87,5.87,0,0,1-2.39-1.57c-1.14-1.62-.94-4,0-5.85s2.75-3.5,4.84-3.47a6,6,0,0,1,2.54,1C31,37.52,31.58,40.61,30.2,43.36Z"/><path class="cls-17" d="M28.7,42.6c-1.38,2.74-4.35,4-6.63,2.89s-3-4.3-1.64-7,4.35-4,6.63-2.89S30.08,39.86,28.7,42.6Z"/><path class="cls-18" d="M27.15,42.08c-1,1.93-2.94,2.88-4.41,2.14s-1.89-2.9-.92-4.82,2.94-2.88,4.41-2.14S28.12,40.16,27.15,42.08Z"/><path class="cls-19" d="M27.11,41.8c-1,1.94-3,2.89-4.49,2.14s-1.94-2.95-1-4.88,3-2.89,4.49-2.14S28.08,39.87,27.11,41.8Z"/><path class="cls-20" d="M27.05,41.92c-.94,1.87-2.82,2.83-4.2,2.13S21.1,41.28,22,39.4s2.83-2.82,4.21-2.13S28,40.05,27.05,41.92Z"/><path class="cls-19" d="M27,41.78c-.76,1.52-2.34,2.26-3.52,1.67s-1.52-2.3-.76-3.82S25,37.37,26.22,38,27.74,40.27,27,41.78Z"/><path class="cls-17" d="M26.52,41.56c-.76,1.51-2.29,2.28-3.4,1.72s-1.41-2.25-.65-3.76,2.29-2.29,3.4-1.72S27.28,40,26.52,41.56Z"/><path class="cls-21" d="M24.39,36.37c-.46.17-.91.13-1-.09s.23-.54.7-.71.91-.14,1,.08S24.86,36.19,24.39,36.37Z"/><path class="cls-21" d="M24,45.5c-.3,0-.55,0-.57-.16s.19-.29.49-.34.54,0,.57.17S24.27,45.46,24,45.5Z"/><path class="cls-15" d="M22.79,34c-.43-.39-.78-.73-1.12-1-1.92-1.59-5-1.1-7,1.14a5.44,5.44,0,0,0-1,6.4,8.81,8.81,0,0,0,1.7,1.74c2.25,2,5.35,1.45,7.4-.84S25,36,22.79,34Z"/><path class="cls-16" d="M22.76,41.39c-2.05,2.29-5.15,2.85-7.4.84-.9-.82-1.59-1.31-1.89-2.15-.68-1.86.13-4.06,1.55-5.64s3.57-2.65,5.57-2.08A6,6,0,0,1,22.79,34C25,36,24.81,39.11,22.76,41.39Z"/><path class="cls-17" d="M21.51,40.27c-2.05,2.29-5.25,2.76-7.15,1s-1.78-4.94.27-7.23,5.25-2.75,7.15-1.05S23.56,38,21.51,40.27Z"/><path class="cls-18" d="M20.15,39.36c-1.44,1.61-3.6,2-4.82.91s-1.06-3.29.38-4.89,3.6-2,4.82-.91S21.59,37.76,20.15,39.36Z"/><path class="cls-19" d="M20.19,39.08c-1.45,1.62-3.64,2-4.9.88s-1.1-3.34.35-5,3.64-2,4.9-.88S21.64,37.47,20.19,39.08Z"/><path class="cls-20" d="M20.1,39.18c-1.4,1.56-3.47,2-4.62,1s-1-3.13.45-4.69,3.47-2,4.62-1S21.5,37.62,20.1,39.18Z"/><path class="cls-19" d="M20.06,39c-1.13,1.26-2.84,1.57-3.83.69s-.86-2.63.27-3.89,2.85-1.56,3.83-.68S21.19,37.77,20.06,39Z"/><path class="cls-17" d="M19.68,38.69c-1.13,1.26-2.8,1.61-3.73.77s-.77-2.54.36-3.8,2.81-1.6,3.74-.77S20.82,37.43,19.68,38.69Z"/><path class="cls-21" d="M19,33.12c-.49.05-.91-.1-.93-.34s.36-.46.85-.51.92.11.94.35S19.49,33.08,19,33.12Z"/><path class="cls-21" d="M16.19,41.83c-.29,0-.52-.17-.5-.31s.26-.22.56-.19.52.17.5.31S16.49,41.87,16.19,41.83Z"/><polygon class="cls-36" points="5.35 33.63 13.93 41.55 51.05 37.84 45.94 30.5 54.68 17.05 41.07 17.55 42.14 20.93 40.62 22.15 28.47 23.64 26.68 22.53 26.3 21.75 25.73 18.54 12.2 19.44 5.35 33.63"/><polygon class="cls-37" points="14.24 54.33 29.68 52.69 29.95 54.21 14.18 56.31 14.24 54.33"/><polygon class="cls-37" points="43.25 50.19 54.45 49.14 54.51 50.93 43.13 52.29 43.25 50.19"/><polygon class="cls-38" points="27.57 28.5 32.39 28.94 33.81 33.56 30.42 37.75 25.6 37.32 24.18 32.7 27.57 28.5"/><polygon class="cls-39" points="33.82 33.56 31.65 32.72 29.72 35.09 30.43 37.74 33.82 33.56"/><polygon class="cls-40" points="32.41 28.93 30.75 30.12 31.66 32.73 33.81 33.56 32.41 28.93"/><polygon class="cls-41" points="29.72 35.09 30.43 37.76 25.6 37.32 26.96 34.85 29.72 35.09"/><polygon class="cls-42" points="26.96 34.85 25.6 37.33 24.17 32.71 26.16 32.21 26.96 34.85"/><polygon class="cls-39" points="32.41 28.94 30.8 30.09 28.09 29.85 27.57 28.51 32.41 28.94"/><polygon class="cls-43" points="27.56 28.51 28.09 29.85 26.16 32.21 24.17 32.71 27.56 28.51"/><polygon class="cls-39" points="28.05 29.77 30.88 30.04 31.73 32.75 29.74 35.2 26.91 34.94 26.07 32.22 28.05 29.77"/><polygon class="cls-44" points="28.05 29.77 30.88 30.04 31.73 32.75 29.74 35.2 26.91 34.94 26.07 32.22 28.05 29.77"/><polyline class="cls-21" points="33.82 33.58 31.83 32.91 30.01 34.93 31.61 32.7 31.18 30.99 31.85 32.67 33.81 33.55"/><path class="cls-45" d="M32.65,32.88a.9.9,0,1,1-.73-1.18A1,1,0,0,1,32.65,32.88Z"/><path class="cls-45" d="M32.39,32.84a.64.64,0,1,1-1.24-.17.71.71,0,0,1,.73-.66A.7.7,0,0,1,32.39,32.84Z"/><path class="cls-45" d="M32.21,32.82a.49.49,0,0,1-.51.46.48.48,0,0,1-.36-.59.49.49,0,0,1,.51-.46A.5.5,0,0,1,32.21,32.82Z"/><path class="cls-45" d="M32,32.79a.28.28,0,0,1-.29.27.29.29,0,0,1-.21-.34.28.28,0,0,1,.29-.27A.28.28,0,0,1,32,32.79Z"/><polygon class="cls-46" points="32.41 28.94 32.36 28.99 33.38 33.42 30.34 37.38 25.7 37.2 25.6 37.33 30.42 37.77 33.81 33.56 32.41 28.94"/><polygon class="cls-38" points="30.45 36.57 33.56 40.28 31.29 44.56 25.93 45.12 22.82 41.41 25.09 37.13 30.45 36.57"/><polygon class="cls-39" points="31.29 44.56 30.36 42.44 27.31 42.75 25.95 45.12 31.29 44.56"/><polygon class="cls-40" points="33.57 40.29 31.56 39.96 30.36 42.44 31.29 44.55 33.57 40.29"/><polygon class="cls-41" points="27.32 42.75 25.93 45.13 22.82 41.41 25.54 40.63 27.32 42.75"/><polygon class="cls-42" points="25.54 40.63 22.82 41.42 25.08 37.14 26.83 38.19 25.54 40.63"/><polygon class="cls-39" points="33.56 40.3 31.61 39.97 29.87 37.89 30.45 36.57 33.56 40.3"/><polygon class="cls-43" points="30.45 36.56 29.87 37.88 26.83 38.19 25.07 37.13 30.45 36.56"/><polygon class="cls-39" points="29.89 37.81 31.71 39.99 30.39 42.51 27.25 42.84 25.44 40.65 26.76 38.13 29.89 37.81"/><polygon class="cls-47" points="29.89 37.81 31.71 39.99 30.39 42.51 27.25 42.84 25.44 40.65 26.76 38.13 29.89 37.81"/><polyline class="cls-21" points="31.29 44.57 30.35 42.69 27.63 42.84 30.34 42.39 31.25 40.88 30.53 42.53 31.3 44.55"/><path class="cls-45" d="M31,43.25a1,1,0,0,1-1.38-.07,1,1,0,0,1,.31-1.35,1,1,0,0,1,1.39.07A1,1,0,0,1,31,43.25Z"/><path class="cls-45" d="M30.79,43a.69.69,0,0,1-1,0,.76.76,0,1,1,1,0Z"/><path class="cls-45" d="M30.68,42.9a.48.48,0,0,1-.68,0,.53.53,0,1,1,.68,0Z"/><path class="cls-45" d="M30.57,42.75a.29.29,0,0,1-.4,0,.3.3,0,0,1,.09-.39.29.29,0,0,1,.4,0A.28.28,0,0,1,30.57,42.75Z"/><polygon class="cls-46" points="33.56 40.3 33.5 40.3 31.08 44.15 26.14 44.8 22.98 41.39 22.82 41.42 25.92 45.13 31.29 44.55 33.56 40.3"/><polygon class="cls-48" points="17.13 37.45 19.97 32.92 25.24 33.85 27.66 39.3 24.82 43.82 19.55 42.9 17.13 37.45"/><polygon class="cls-39" points="25.24 33.84 23.33 35.56 24.69 38.65 27.66 39.28 25.24 33.84"/><polygon class="cls-40" points="19.98 32.91 20.32 35.14 23.34 35.55 25.24 33.85 19.98 32.91"/><polygon class="cls-41" points="24.69 38.65 27.67 39.29 24.82 43.83 23.07 41.24 24.69 38.65"/><polygon class="cls-42" points="23.07 41.24 24.82 43.82 19.56 42.91 20.06 40.7 23.07 41.24"/><polygon class="cls-39" points="19.99 32.92 20.31 35.08 18.72 37.62 17.14 37.46 19.99 32.92"/><polygon class="cls-43" points="17.13 37.47 18.71 37.62 20.06 40.7 19.55 42.91 17.13 37.47"/><polygon class="cls-39" points="18.62 37.62 20.3 34.97 23.39 35.5 24.81 38.68 23.13 41.33 20.04 40.8 18.62 37.62"/><polygon class="cls-49" points="18.62 37.62 20.3 34.97 23.39 35.5 24.81 38.68 23.13 41.33 20.04 40.8 18.62 37.62"/><polyline class="cls-21" points="25.25 33.85 23.6 35.48 24.68 38.28 23.28 35.59 21.39 35.15 23.37 35.34 25.22 33.84"/><path class="cls-45" d="M24,34.65a1,1,0,1,1-1.52.13A1.09,1.09,0,0,1,24,34.65Z"/><path class="cls-45" d="M23.82,34.89a.77.77,0,0,1,.28,1,.84.84,0,1,1-.28-1Z"/><path class="cls-45" d="M23.7,35.06a.49.49,0,1,1-.76.06A.55.55,0,0,1,23.7,35.06Z"/><path class="cls-45" d="M23.58,35.22a.32.32,0,0,1,.12.43.31.31,0,0,1-.44,0,.31.31,0,0,1-.12-.43A.33.33,0,0,1,23.58,35.22Z"/><polygon class="cls-46" points="19.99 32.92 20.01 32.98 24.88 34.21 27.25 39.18 24.74 43.66 24.82 43.82 27.67 39.3 25.24 33.85 19.99 32.92"/></g></g></svg>