<svg xmlns="http://www.w3.org/2000/svg" viewBox="0 0 20.59 20.95"><defs><style>.cls-1{fill:#4c2d03;}.cls-2{fill:#ffa905;}.cls-3{fill:#ffe305;}.cls-4{fill:#ffff05;}.cls-5{fill:#ea9000;}.cls-6{fill:#ffc005;}.cls-7{fill:#fff;}</style></defs><title>Asset 2</title><g id="Layer_2" data-name="Layer 2"><g id="Layer_19" data-name="Layer 19"><path class="cls-1" d="M11.21.63c-1,0-1.9,0-2.67,0C4.14.81.62,5.15.62,10.48.62,15.12,3.3,19,6.9,20.05a14.87,14.87,0,0,0,4.31.27c5.33,0,8.76-4.41,8.76-9.84S16.54.63,11.21.63Z"/><path class="cls-1" d="M9.42,21a8.78,8.78,0,0,1-2.71-.31C2.77,19.51,0,15.33,0,10.48,0,4.8,3.74.21,8.52,0l.94,0h1.75c5.43,0,9.38,4.4,9.38,10.47s-3.95,10.46-9.38,10.46H9.42Zm0-19.71-.88,0c-4.12.16-7.34,4.21-7.34,9.22,0,4.3,2.4,8,5.83,9a10.39,10.39,0,0,0,3.16.26h1c4.72,0,8.14-3.88,8.14-9.22s-3.42-9.23-8.14-9.23H9.46Z"/><path class="cls-2" d="M20,10.48c0,5.43-3.43,9.84-8.76,9.84-2.16,0-3.66.16-5-.58-3.09-1.66-4.62-5.51-4.62-9.26S3.12,2.75,6.43,1.14C7.77.49,9.14.63,11.21.63,16.54.63,20,5,20,10.48Z"/><ellipse class="cls-3" cx="8.81" cy="10.48" rx="8.19" ry="9.84"/><path class="cls-4" d="M14.13,10.89c0,3.81-2.36,6.9-5.28,6.9s-5.28-3.09-5.28-6.9S5.93,4,8.85,4,14.13,7.08,14.13,10.89Z"/><path class="cls-5" d="M13.85,10.48c0,3.83-2.43,7-5.41,7S3,14.31,3,10.48s2.42-7,5.41-7S13.85,6.64,13.85,10.48Z"/><path class="cls-6" d="M13.85,10.71c0,3.71-2.22,6.72-5,6.72s-5-3-5-6.72S6.15,4,8.89,4,13.85,7,13.85,10.71Z"/><path class="cls-5" d="M13.62,10.55c0,3-1.89,5.44-4.24,5.44s-4.24-2.44-4.24-5.44S7,5.12,9.38,5.12,13.62,7.55,13.62,10.55Z"/><path class="cls-3" d="M12.72,10.55c0,3-1.8,5.44-4,5.44s-4-2.44-4-5.44,1.79-5.43,4-5.43S12.72,7.55,12.72,10.55Z"/><path class="cls-7" d="M11.84,18.83c-.43.3-.89.39-1,.18s.08-.61.51-.92.89-.39,1-.19S12.26,18.52,11.84,18.83Z"/></g></g></svg>