<svg xmlns="http://www.w3.org/2000/svg" width="217.755" height="212.052" viewBox="0 0 217.755 212.052">
  <g id="Group_1976" data-name="Group 1976" transform="translate(-199.786 221.532)">
    <g id="Group_1978" data-name="Group 1978" transform="translate(208.569 -172.362)">
      <g id="Group_1974" data-name="Group 1974">
        <path id="Path_5792" data-name="Path 5792" d="M281,207.354a9.807,9.807,0,0,1-8.284-1.255c3.012,9.791-11.849,6.628-11.849,6.628l3.584,6.093C284.753,223.9,281,207.354,281,207.354Z" transform="translate(-218.473 -206.099)" fill="#167a7a"/>
        <path id="Path_5793" data-name="Path 5793" d="M215.855,206.529c2.645,15.9-6.447,20.879-6.447,20.879l4.318,9.854S235.359,221.877,215.855,206.529Z" transform="translate(-209.408 -206.175)" fill="#4abab9"/>
        <path id="Path_5794" data-name="Path 5794" d="M248.584,270.966s3.374-6.4.82-18.295a36.9,36.9,0,0,0,9.908,6.883s1.312,6.746-7.522,14.156A13.826,13.826,0,0,0,248.584,270.966Z" transform="translate(-216.309 -214.303)" fill="#ffc43a"/>
      </g>
    </g>
    <g id="Group_1966" data-name="Group 1966" transform="translate(251.986 -172.014)">
      <g id="Group_1965" data-name="Group 1965">
        <g id="Group_1964" data-name="Group 1964" transform="translate(0 3.724)">
          <g id="Group_1961" data-name="Group 1961" transform="translate(0 28.652)">
            <path id="Path_5745" data-name="Path 5745" d="M334.512,99.444c-.5.123-1.018.249-1.568.391-15.57,3.991-25.825-4.649-29.876-13.263a11.667,11.667,0,0,1,.161-10.871,7.613,7.613,0,0,1,7.455-3.767l4.671.446,8.42,8.3.272.334a21.62,21.62,0,0,0,5.291,5.655l.5.374.194.612c.308.97.575,1.706.864,2.386a21.514,21.514,0,0,0,4.247,6.438l2.174,2.282ZM321.458,83.065l-7.351-7.244-3.463-.33a4.663,4.663,0,0,0-4.562,2.311,7.929,7.929,0,0,0-.042,7.372c3.365,7.154,11.864,14.3,24.885,11.424a25.319,25.319,0,0,1-3.056-5.3c-.274-.647-.527-1.323-.8-2.136A25.446,25.446,0,0,1,321.458,83.065Z" transform="translate(-301.81 -71.894)" fill="#ffa239"/>
          </g>
          <g id="Group_1962" data-name="Group 1962" transform="translate(50.518 4.566)">
            <path id="Path_5746" data-name="Path 5746" d="M369.944,83.4l-.359-3.132a21.482,21.482,0,0,0-2.219-7.386c-.337-.658-.73-1.335-1.278-2.193l-.344-.541.036-.627a21.617,21.617,0,0,0-.949-7.686l-.082-.423-.973-11.782,2.651-3.87a7.61,7.61,0,0,1,7.67-3.307,11.664,11.664,0,0,1,8.448,6.845c4.014,8.629,4.073,22.04-8.971,31.432-.46.331-.887.646-1.3.953Zm-.795-14.02c.45.728.807,1.356,1.128,1.982a25.346,25.346,0,0,1,2.108,5.741c10.554-8.149,10.516-19.255,7.182-26.423a7.929,7.929,0,0,0-5.686-4.693,4.662,4.662,0,0,0-4.7,2.021l-1.966,2.87.849,10.285A25.461,25.461,0,0,1,369.149,69.378Z" transform="translate(-363.776 -42.349)" fill="#ffa239"/>
          </g>
          <path id="Path_5747" data-name="Path 5747" d="M366.166,105.47c-5.809-25.831-24.779-16.957-8.676,4.058s9.455,28.749,9.455,28.749h0a30.259,30.259,0,0,0,15.227-7.122h0S371.974,131.3,366.166,105.47Z" transform="translate(-310.925 -46.514)" fill="#ffa239"/>
          <path id="Path_5748" data-name="Path 5748" d="M354.453,36.924c0-.015.018-.042.011-.055-.425-.908-11.574,3.409-24.9,9.644S305.772,58.538,306.2,59.446c.007.014.039.016.051.028.364.872,15.978,37.94,42.478,40.252a1.348,1.348,0,0,0,.1.725l.126.268a1.4,1.4,0,0,0,1.852.673l7.262-3.4a1.4,1.4,0,0,0,.673-1.853l-.125-.268a1.347,1.347,0,0,0-.492-.541C373.342,73.5,354.873,37.731,354.453,36.924Z" transform="translate(-302.618 -36.749)" fill="#ffa239"/>
          <g id="Group_1963" data-name="Group 1963" transform="translate(50.518 4.566)">
            <path id="Path_5749" data-name="Path 5749" d="M369.944,83.4l-.359-3.132a21.482,21.482,0,0,0-2.219-7.386c-.337-.658-.73-1.335-1.278-2.193l-.344-.541.036-.627a21.617,21.617,0,0,0-.949-7.686l-.082-.423-.973-11.782,2.651-3.87a7.61,7.61,0,0,1,7.67-3.307,11.664,11.664,0,0,1,8.448,6.845c4.014,8.629,4.073,22.04-8.971,31.432-.46.331-.887.646-1.3.953Zm-.795-14.02c.45.728.807,1.356,1.128,1.982a25.346,25.346,0,0,1,2.108,5.741c10.554-8.149,10.516-19.255,7.182-26.423a7.929,7.929,0,0,0-5.686-4.693,4.662,4.662,0,0,0-4.7,2.021l-1.966,2.87.849,10.285A25.461,25.461,0,0,1,369.149,69.378Z" transform="translate(-363.776 -42.349)" fill="#ffc43a"/>
          </g>
          <path id="Path_5750" data-name="Path 5750" d="M359.516,36.924c0-.015.018-.042.011-.055-.425-.908-11.574,3.409-24.9,9.644L333.59,47c1.891,2.051,3.731,4.145,5.563,6.2A117.119,117.119,0,0,1,352.215,71.38a230.87,230.87,0,0,1,11.849,22.605C377.658,72.062,359.928,37.714,359.516,36.924Z" transform="translate(-307.681 -36.749)" fill="#ffc43a"/>
        </g>
        <path id="Path_5751" data-name="Path 5751" d="M355.776,47.47l11.279-7.3-13,3.289-7.3-11.279,3.289,13-11.279,7.3,13-3.289,7.3,11.279Z" transform="translate(-308.637 -32.181)" fill="#fff"/>
      </g>
      <path id="Path_5752" data-name="Path 5752" d="M388.35,141.5l-20.248,9.47a2.1,2.1,0,0,1-2.78-1.008h0a2.1,2.1,0,0,1,1.008-2.78l20.248-9.471a2.1,2.1,0,0,1,2.78,1.008h0A2.1,2.1,0,0,1,388.35,141.5Z" transform="translate(-313.507 -51.641)" fill="#ffc43a"/>
      <path id="Path_5753" data-name="Path 5753" d="M392.827,143.569l-27.149,12.7a2.812,2.812,0,0,1-3.727-1.352h0a2.812,2.812,0,0,1,1.352-3.728l27.148-12.7a2.812,2.812,0,0,1,3.727,1.352h0A2.812,2.812,0,0,1,392.827,143.569Z" transform="translate(-312.872 -51.772)" fill="#f88537"/>
    </g>
    <g id="Group_1972" data-name="Group 1972" transform="translate(330.864 -150.173)">
      <g id="Group_1971" data-name="Group 1971" transform="translate(0 0)">
        <g id="Group_1968" data-name="Group 1968">
          <g id="Group_1967" data-name="Group 1967">
            <path id="Path_5754" data-name="Path 5754" d="M485.9,80.461l29.57,17.1c1.8,1.038,3.017,3.061,2.623,4.38h0c-.4,1.356-2.326,1.371-4.109.007Z" transform="translate(-432.038 -46.743)" fill="#ffc43a"/>
            <path id="Path_5755" data-name="Path 5755" d="M471.137,70.534,440.21,52.657c-1.974-1.14-2.743-2.948-1.672-3.869h0c1.056-.909,3.446-.552,5.146.748Z" transform="translate(-415.88 -35.875)" fill="#ffc43a"/>
            <path id="Path_5756" data-name="Path 5756" d="M467,79.87l-31.811,54.113c-3.035,5.162-7.066,9.111-8.5,8.191h0c-1.442-.927.531-6.294,4.02-11.206Z" transform="translate(-411.882 -46.543)" fill="#ffc43a"/>
            <path id="Path_5757" data-name="Path 5757" d="M486.092,67.244,502.7,39.035c.764-1.3,1.985-2,2.65-1.558h0c.669.45.51,1.891-.366,3.125Z" transform="translate(-432.104 -32.18)" fill="#ffc43a"/>
            <path id="Path_5758" data-name="Path 5758" d="M486.808,79.749l7.566,48.57c.611,3.921-.091,8.329-1.557,9.377h0c-1.506,1.076-3.056-1.915-3.286-6.265Z" transform="translate(-432.346 -46.503)" fill="#ffc43a"/>
            <path id="Path_5759" data-name="Path 5759" d="M484.538,64.688l-4.962-31.97c-.25-1.616.37-3.072,1.319-3.165h0c.945-.093,1.836,1.2,1.921,2.814Z" transform="translate(-429.885 -29.548)" fill="#ffc43a"/>
            <path id="Path_5760" data-name="Path 5760" d="M460.018,80.748,411.7,98.9c-4.084,1.534-7.456,1.3-7.1-.533h0c.35-1.811,4.175-4.282,8.07-5.3Z" transform="translate(-404.572 -46.84)" fill="#ffc43a"/>
            <path id="Path_5761" data-name="Path 5761" d="M485.594,75.772l29.744-11.153c1.462-.548,2.945-.234,3.228.672h0c.288.923-.782,2.085-2.331,2.489Z" transform="translate(-431.936 -41.301)" fill="#ffc43a"/>
          </g>
        </g>
        <g id="Group_1970" data-name="Group 1970" transform="translate(29.332 12.132)">
          <g id="Group_1969" data-name="Group 1969">
            <path id="Path_5762" data-name="Path 5762" d="M483.4,79.567l-4.264,27.772c-.322,2.092-1.311,4.01-2.128,4.08h0c-.828.071-1.078-1.788-.546-3.931Z" transform="translate(-458.089 -58.573)" fill="#ffc43a"/>
            <path id="Path_5763" data-name="Path 5763" d="M486.735,69.99l3.12-20.265c.165-1.074.777-1.927,1.319-1.854h0c.542.074.789,1.047.526,2.106Z" transform="translate(-461.654 -47.867)" fill="#ffc43a"/>
            <path id="Path_5764" data-name="Path 5764" d="M474.562,79.24l-23.208.306c-1.607.021-2.748-.665-2.44-1.468h0c.307-.8,1.911-1.35,3.429-1.189Z" transform="translate(-448.863 -57.659)" fill="#ffc43a"/>
            <path id="Path_5765" data-name="Path 5765" d="M486.147,80.252,505.491,80c1.093-.015,2.005.548,1.973,1.216h0c-.032.679-1.024,1.177-2.136,1.06Z" transform="translate(-461.455 -58.72)" fill="#ffc43a"/>
            <path id="Path_5766" data-name="Path 5766" d="M474.779,79.842,453.6,100.163c-1.635,1.57-3.433,2.343-3.825,1.627h0c-.392-.719.819-2.588,2.551-3.975Z" transform="translate(-449.147 -58.666)" fill="#fc9111"/>
            <path id="Path_5767" data-name="Path 5767" d="M486.245,73.317l14.88-14.269c.774-.743,1.715-1.009,2.038-.583h0c.327.429-.11,1.385-.952,2.059Z" transform="translate(-461.488 -51.378)" fill="#fc9111"/>
            <path id="Path_5768" data-name="Path 5768" d="M481,71.77,469.173,56.128c-.7-.925-.783-2.053-.188-2.428h0c.593-.374,1.6.162,2.179,1.151Z" transform="translate(-455.525 -49.797)" fill="#fc9111"/>
            <path id="Path_5769" data-name="Path 5769" d="M486.494,79.788l12.974,17.157c.852,1.127,1.151,2.665.633,3.312h0c-.528.659-1.662.095-2.417-1.207Z" transform="translate(-461.572 -58.648)" fill="#fc9111"/>
          </g>
        </g>
      </g>
      <path id="Path_5770" data-name="Path 5770" d="M474.469,176.127,471.92,177.7l-.151,2.99-2.282-1.938-2.89.781,1.138-2.769-1.636-2.508,2.985.227,1.879-2.331.707,2.909Z" transform="translate(-433.855 -57.613)" fill="#4abab9"/>
      <path id="Path_5771" data-name="Path 5771" d="M456.361,30.306l-1.707,1.053-.1,2-1.529-1.3-1.936.523.763-1.855-1.1-1.68,2,.152,1.259-1.561.473,1.949Z" transform="translate(-428.672 -8.808)" fill="#167a7a"/>
    </g>
    <g id="Group_1973" data-name="Group 1973" transform="translate(199.786 -104.305)">
      <path id="Path_5772" data-name="Path 5772" d="M224.816,142.724c7.929,4.489,14.63,7.647,14.966,7.053s-5.819-4.715-13.749-9.2-14.63-7.647-14.966-7.053S216.886,138.235,224.816,142.724Z" transform="translate(-168.683 -84.642)" fill="#4abab9"/>
      <path id="Path_5773" data-name="Path 5773" d="M155.691,123.3c8.951,1.707,16.31,2.547,16.438,1.877s-7.024-2.6-15.975-4.3-16.31-2.548-16.438-1.877S146.74,121.591,155.691,123.3Z" transform="translate(-135.002 -77.708)" fill="#4abab9"/>
      <path id="Path_5774" data-name="Path 5774" d="M189.707,150.79c3.361-8.469,5.573-15.539,4.938-15.791s-3.873,6.409-7.235,14.879-5.573,15.539-4.938,15.791S186.345,159.26,189.707,150.79Z" transform="translate(-155.137 -85.371)" fill="#4abab9"/>
      <path id="Path_5775" data-name="Path 5775" d="M207.378,78.852c.809-9.076.913-16.483.233-16.543s-1.886,7.248-2.695,16.324-.913,16.483-.233,16.543S206.57,87.928,207.378,78.852Z" transform="translate(-165.464 -51.054)" fill="#ffc43a"/>
      <path id="Path_5776" data-name="Path 5776" d="M207.378,78.852c.809-9.076.913-16.483.233-16.543s-1.886,7.248-2.695,16.324-.913,16.483-.233,16.543S206.57,87.928,207.378,78.852Z" transform="translate(-165.464 -51.054)" fill="#4abab9"/>
      <path id="Path_5777" data-name="Path 5777" d="M232.112,95.039c7.436-5.267,13.143-9.987,12.749-10.544s-6.742,3.261-14.177,8.528-13.144,9.988-12.75,10.545S224.676,100.306,232.112,95.039Z" transform="translate(-171.922 -61.504)" fill="#4abab9"/>
      <path id="Path_5778" data-name="Path 5778" d="M223.136,149.4c2.872,3.756,5.429,6.627,5.71,6.413s-1.82-3.435-4.692-7.192-5.429-6.628-5.71-6.413S220.263,145.644,223.136,149.4Z" transform="translate(-172.161 -88.773)" fill="#fc9111"/>
      <path id="Path_5779" data-name="Path 5779" d="M184.414,96.7c2.872,3.757,5.429,6.628,5.711,6.413s-1.82-3.435-4.692-7.192S180,89.3,179.722,89.511,181.541,92.946,184.414,96.7Z" transform="translate(-153.879 -63.892)" fill="#fc9111"/>
      <path id="Path_5780" data-name="Path 5780" d="M169.236,135.9c4.7-.489,8.487-1.17,8.451-1.522s-3.879-.242-8.583.246-8.487,1.17-8.451,1.522S164.532,136.383,169.236,135.9Z" transform="translate(-144.887 -84.981)" fill="#fc9111"/>
      <path id="Path_5781" data-name="Path 5781" d="M225.661,130.316c4.7-.488,8.487-1.17,8.45-1.522s-3.879-.242-8.583.246-8.487,1.17-8.451,1.522S220.958,130.8,225.661,130.316Z" transform="translate(-171.527 -82.347)" fill="#ffc43a"/>
      <path id="Path_5782" data-name="Path 5782" d="M266.719,128.928l-.051,2.518,2.045,1.47-2.411.73-.766,2.4-1.439-2.067-2.519.013,1.521-2.007-.791-2.391,2.379.827Z" transform="translate(-192.538 -82.508)" fill="#95cfb9"/>
      <path id="Path_5783" data-name="Path 5783" d="M147.52,142.267l-.051,2.518,2.045,1.47-2.411.73-.766,2.4-1.439-2.067-2.519.013,1.521-2.007-.791-2.391,2.379.827Z" transform="translate(-136.26 -88.806)" fill="#167a7a"/>
      <path id="Path_5784" data-name="Path 5784" d="M197.915,40.989l-.029,1.41,1.145.823-1.35.409-.429,1.344-.806-1.158-1.41.007.852-1.124-.443-1.339,1.332.463Z" transform="translate(-161.121 -40.989)" fill="#4abab9"/>
      <path id="Path_5785" data-name="Path 5785" d="M207.366,175.5l-.029,1.41,1.145.823-1.35.409-.429,1.344-.806-1.158-1.41.007.852-1.124-.443-1.339,1.332.463Z" transform="translate(-165.583 -104.495)" fill="#4abab9"/>
      <path id="Path_5786" data-name="Path 5786" d="M215.875,68.582c-6.618,12.752-11.492,23.345-10.886,23.659s6.462-9.769,13.08-22.521,11.492-23.345,10.886-23.659S222.493,55.829,215.875,68.582Z" transform="translate(-165.795 -43.38)" fill="#ffc43a"/>
      <path id="Path_5787" data-name="Path 5787" d="M150.263,145.363c-11.178,9.027-19.891,16.775-19.462,17.306s9.837-6.356,21.015-15.383,19.891-16.776,19.462-17.306S161.441,136.336,150.263,145.363Z" transform="translate(-130.786 -82.99)" fill="#ffc43a"/>
      <path id="Path_5788" data-name="Path 5788" d="M226.676,106.037c-13.44,5.08-24.139,9.715-23.9,10.354s11.332-2.962,24.771-8.042,24.139-9.715,23.9-10.354S240.116,100.957,226.676,106.037Z" transform="translate(-164.774 -67.868)" fill="#4abab9"/>
      <path id="Path_5789" data-name="Path 5789" d="M226.676,106.037c-13.44,5.08-24.139,9.715-23.9,10.354s11.332-2.962,24.771-8.042,24.139-9.715,23.9-10.354S240.116,100.957,226.676,106.037Z" transform="translate(-164.774 -67.868)" fill="#ffc43a"/>
      <path id="Path_5790" data-name="Path 5790" d="M151.008,86.1c11.08,9.146,20.414,16.134,20.849,15.607s-8.2-8.367-19.276-17.514-20.414-16.134-20.849-15.608S139.928,76.949,151.008,86.1Z" transform="translate(-131.225 -54.003)" fill="#ffc43a"/>
      <path id="Path_5791" data-name="Path 5791" d="M216.041,155.156c5.979,13.064,11.329,23.425,11.949,23.141s-3.723-11.1-9.7-24.169S206.96,130.7,206.339,130.987,210.063,142.092,216.041,155.156Z" transform="translate(-166.429 -83.477)" fill="#ffc43a"/>
    </g>
    <g id="Group_1977" data-name="Group 1977" transform="translate(259.195 -221.532)">
      <g id="Group_1974-2" data-name="Group 1974" transform="translate(50.632 29.289)">
        <path id="Path_5792-2" data-name="Path 5792" d="M277.048,207.108a7.884,7.884,0,0,1-6.659-1.009c2.421,7.87-9.525,5.328-9.525,5.328l2.881,4.9C280.068,220.41,277.048,207.108,277.048,207.108Z" transform="translate(-226.786 -206.099)" fill="#167a7a"/>
        <path id="Path_5793-2" data-name="Path 5793" d="M214.591,206.529c2.126,12.782-5.183,16.784-5.183,16.784l3.471,7.921S230.269,218.867,214.591,206.529Z" transform="translate(-209.408 -206.244)" fill="#4abab9"/>
        <path id="Path_5794-2" data-name="Path 5794" d="M248.584,267.378s2.712-5.148.659-14.707a29.662,29.662,0,0,0,7.965,5.533s1.054,5.423-6.046,11.38A11.114,11.114,0,0,0,248.584,267.378Z" transform="translate(-222.639 -221.828)" fill="#ffc43a"/>
      </g>
      <g id="Group_1975" data-name="Group 1975" transform="translate(0)">
        <path id="Path_5795" data-name="Path 5795" d="M377.107,171.053a7.885,7.885,0,0,0,6.66-1.009c-2.421,7.87,9.525,5.328,9.525,5.328l-2.881,4.9C374.088,184.355,377.107,171.053,377.107,171.053Z" transform="translate(-376.887 -170.044)" fill="#167a7a"/>
        <path id="Path_5796" data-name="Path 5796" d="M441.946,170.474c-2.126,12.782,5.183,16.784,5.183,16.784l-3.471,7.921S426.268,182.812,441.946,170.474Z" transform="translate(-396.647 -170.189)" fill="#4abab9"/>
        <path id="Path_5797" data-name="Path 5797" d="M409.511,231.323s-2.712-5.148-.659-14.707a29.663,29.663,0,0,1-7.965,5.533s-1.054,5.423,6.046,11.38A11.113,11.113,0,0,1,409.511,231.323Z" transform="translate(-384.974 -185.773)" fill="#ffc43a"/>
      </g>
    </g>
  </g>
</svg>
