<svg xmlns="http://www.w3.org/2000/svg" xmlns:xlink="http://www.w3.org/1999/xlink" width="48" height="48" viewBox="0 0 48 48"><defs><filter id="a" x="0" y="0" width="48" height="48" filterUnits="userSpaceOnUse"><feOffset dy="3" input="SourceAlpha"/><feGaussianBlur stdDeviation="3" result="b"/><feFlood flood-opacity="0.161"/><feComposite operator="in" in2="b"/><feComposite in="SourceGraphic"/></filter></defs><g transform="matrix(1, 0, 0, 1, 0, 0)" filter="url(#a)"><path d="M30.25,13H26.5V9.667h3.75m0,10H26.5V16.333h3.75m0,10H26.5V23h3.75M11.5,13H7.75V9.667H11.5m0,10H7.75V16.333H11.5m0,10H7.75V23H11.5M30.25,3V6.333H26.5V3h-15V6.333H7.75V3H4V33H7.75V29.667H11.5V33h15V29.667h3.75V33H34V3Z" transform="translate(5 3)" fill="#fff"/></g></svg>