<svg xmlns="http://www.w3.org/2000/svg" xmlns:xlink="http://www.w3.org/1999/xlink" width="390.094" height="77.285" viewBox="0 0 390.094 77.285"><defs><linearGradient id="a" x1="0.5" x2="0.5" y2="1" gradientUnits="objectBoundingBox"><stop offset="0" stop-color="#fff"/><stop offset="1" stop-color="#e3e3e3"/></linearGradient></defs><g transform="translate(0 8.566)" fill="url(#a)"><path d="M0,.791S101.993-8.566,199.517-8.566,390.094.791,390.094.791V68.719H0Z" stroke="none"/><path d="M 199.5167236328125 -7.566429138183594 C 177.2859802246094 -7.566429138183594 152.9692687988281 -7.074775695800781 127.2421264648438 -6.105178833007812 C 106.6580200195312 -5.329429626464844 85.13031005859375 -4.2476806640625 63.25701904296875 -2.889976501464844 C 29.93115234375 -0.8214797973632812 5.87603759765625 1.271175384521484 0.999969482421875 1.705402374267578 L 0.999969482421875 67.71877288818359 L 199.5167236328125 67.71877288818359 L 389.0937194824219 67.71877288818359 L 389.0937194824219 1.697845458984375 C 384.4768371582031 1.249011993408203 362.4877014160156 -0.8326416015625 331.30078125 -2.890377044677734 C 310.72607421875 -4.2479248046875 290.2333374023438 -5.329574584960938 270.3917846679688 -6.105278015136719 C 245.5923767089844 -7.0748291015625 221.74658203125 -7.566429138183594 199.5167236328125 -7.566429138183594 M 199.5167236328125 -8.566429138183594 C 297.0401611328125 -8.566429138183594 390.0937194824219 0.7912712097167969 390.0937194824219 0.7912712097167969 L 390.0937194824219 68.71877288818359 C 390.0937194824219 68.71877288818359 297.0401611328125 68.71877288818359 199.5167236328125 68.71877288818359 C 101.9932861328125 68.71877288818359 -3.0517578125e-05 68.71877288818359 -3.0517578125e-05 68.71877288818359 L -3.0517578125e-05 0.7912712097167969 C -3.0517578125e-05 0.7912712097167969 101.9932861328125 -8.566429138183594 199.5167236328125 -8.566429138183594 Z" stroke="none" fill="rgba(114,124,142,0.17)"/></g></svg>