<svg xmlns="http://www.w3.org/2000/svg" xmlns:xlink="http://www.w3.org/1999/xlink" width="397.211" height="92.758" viewBox="0 0 397.211 92.758">
  <defs>
    <linearGradient id="linear-gradient" x1="0.5" y1="-0.275" x2="0.5" y2="0.5" gradientUnits="objectBoundingBox">
      <stop offset="0" stop-color="#733aae"/>
      <stop offset="1" stop-color="#031048"/>
    </linearGradient>
  </defs>
  <g id="Path_3192" data-name="Path 3192" transform="translate(0 13.817)" fill="url(#linear-gradient)">
    <path d="M0,1.347S103.854-13.817,203.157-13.817,397.211,1.347,397.211,1.347V78.941H0Z" stroke="none"/>
    <path d="M 203.1568908691406 -12.81657409667969 C 180.5284881591797 -12.81657409667969 155.7762908935547 -12.02017211914062 129.587890625 -10.44942474365234 C 108.6333312988281 -9.192672729492188 86.71804809570312 -7.440177917480469 64.45068359375 -5.240623474121094 C 30.3612060546875 -1.873329162597656 5.800201416015625 1.533424377441406 0.999969482421875 2.214500427246094 L 0.999969482421875 77.94122314453125 L 203.1568908691406 77.94122314453125 L 396.2109985351562 77.94122314453125 L 396.2109985351562 2.203144073486328 C 391.6782836914062 1.500904083251953 369.2333679199219 -1.888496398925781 337.3180236816406 -5.240028381347656 C 316.3717346191406 -7.439628601074219 295.5088806152344 -9.192222595214844 275.30908203125 -10.44912719726562 C 250.0622863769531 -12.02002716064453 225.7867889404297 -12.81657409667969 203.1568908691406 -12.81657409667969 M 203.1568908691406 -13.81657409667969 C 302.4596252441406 -13.81657409667969 397.2109985351562 1.34747314453125 397.2109985351562 1.34747314453125 L 397.2109985351562 78.94122314453125 C 397.2109985351562 78.94122314453125 302.4596252441406 78.94122314453125 203.1568908691406 78.94122314453125 C 103.8541259765625 78.94122314453125 -3.0517578125e-05 78.94122314453125 -3.0517578125e-05 78.94122314453125 L -3.0517578125e-05 1.34747314453125 C -3.0517578125e-05 1.34747314453125 103.8541259765625 -13.81657409667969 203.1568908691406 -13.81657409667969 Z" stroke="none" fill="rgba(227,234,249,0.2)"/>
  </g>
</svg>
