<svg xmlns="http://www.w3.org/2000/svg" xmlns:xlink="http://www.w3.org/1999/xlink" viewBox="0 0 17.81 23.31"><defs><style>.cls-1{fill:#00009e;stroke:#00009e;stroke-linecap:round;stroke-linejoin:round;stroke-width:1.86px;}.cls-2{fill:#4fcfff;}.cls-3{fill:#4ff8ff;}.cls-4{fill:#0950e7;}.cls-5{fill:#097dff;}.cls-6{fill:#099aff;}.cls-7{fill:url(#linear-gradient);}.cls-8,.cls-9{fill:#fff;}.cls-9{fill-opacity:0.2;}.cls-10{fill:#1f2af7;opacity:0.3;}</style><linearGradient id="linear-gradient" x1="2.64" y1="15.57" x2="16.47" y2="3.1" gradientUnits="userSpaceOnUse"><stop offset="0.23" stop-color="#4fcfff"/><stop offset="0.7" stop-color="#3b80f0"/><stop offset="1" stop-color="#2f53e7"/></linearGradient></defs><title>Asset 4</title><g id="Layer_2" data-name="Layer 2"><g id="Layer_19" data-name="Layer 19"><polygon class="cls-1" points="0.93 6.29 8.91 0.93 16.88 6.29 16.88 17.01 8.91 22.38 0.93 17.01 0.93 6.29"/><polygon class="cls-2" points="16.9 6.29 12.5 7.7 12.48 13.78 16.89 16.98 16.9 6.29"/><polygon class="cls-3" points="8.92 0.91 7.86 4.81 12.52 7.7 16.88 6.29 8.92 0.91"/><polygon class="cls-4" points="12.48 13.78 16.9 17.01 8.91 22.38 7.92 16.85 12.48 13.78"/><polygon class="cls-5" points="7.92 16.85 8.91 22.38 0.93 17.03 3.37 13.78 7.92 16.85"/><polygon class="cls-2" points="8.93 0.92 7.89 4.71 3.41 7.73 0.93 6.31 8.93 0.92"/><polygon class="cls-6" points="0.91 6.31 3.39 7.72 3.37 13.78 0.93 17.04 0.91 6.31"/><polygon class="cls-2" points="3.25 7.65 7.95 4.52 12.65 7.65 12.65 13.91 7.95 17.05 3.25 13.91 3.25 7.65"/><polygon class="cls-7" points="3.25 7.65 7.95 4.52 12.65 7.65 12.65 13.91 7.95 17.05 3.25 13.91 3.25 7.65"/><polyline class="cls-8" points="16.91 6.31 13 7.77 12.73 13.17 12.4 7.72 9.61 5.62 12.73 7.38 16.86 6.27"/><path class="cls-9" d="M14.24,6.69a2,2,0,0,1-.43,2.73,2,2,0,0,1-2.6-.9,2,2,0,0,1,.42-2.73A2,2,0,0,1,14.24,6.69Z"/><path class="cls-9" d="M13.79,7a1.38,1.38,0,0,1-.3,1.91,1.38,1.38,0,0,1-1.83-.64A1.38,1.38,0,0,1,12,6.33,1.38,1.38,0,0,1,13.79,7Z"/><path class="cls-9" d="M13.47,7.15a1,1,0,0,1-.21,1.35A1,1,0,0,1,12,8.06a1,1,0,0,1,.21-1.35A1,1,0,0,1,13.47,7.15Z"/><path class="cls-9" d="M13.16,7.34a.52.52,0,1,1-.87.53.57.57,0,0,1,.12-.79A.58.58,0,0,1,13.16,7.34Z"/><polygon class="cls-10" points="8.93 0.92 8.92 1.05 16.02 6.62 16.3 16.53 8.91 22.05 8.91 22.38 16.91 17.02 16.88 6.29 8.93 0.92"/></g></g></svg>