<svg xmlns="http://www.w3.org/2000/svg" xmlns:xlink="http://www.w3.org/1999/xlink" viewBox="0 0 40.47 41.56"><defs><style>.cls-1{fill:#540c00;}.cls-2{fill:#ff812d;}.cls-3{fill:#fff645;}.cls-4{fill:url(#linear-gradient);}</style><linearGradient id="linear-gradient" x1="66.29" y1="155.94" x2="69.08" y2="-71.76" gradientUnits="userSpaceOnUse"><stop offset="0.07" stop-color="#ffa345"/><stop offset="0.1" stop-color="#ffa645"/><stop offset="0.27" stop-color="#ffbb45"/><stop offset="0.55" stop-color="#ffe545"/><stop offset="0.64" stop-color="#ffdb2a"/><stop offset="0.74" stop-color="#ffd111"/><stop offset="0.8" stop-color="#ffce08"/></linearGradient><symbol id="yelow_button" data-name="yelow button" viewBox="0 0 134.76 138.4"><g id="button_rectangl" data-name="button rectangl"><path class="cls-1" d="M134.76,120.7c0,9.77-6.78,17.7-15.15,17.7H15.15C6.78,138.4,0,130.47,0,120.7V17.7C0,7.92,6.78,0,15.15,0H119.61c8.37,0,15.15,7.92,15.15,17.7Z"/><rect class="cls-2" x="1.3" y="11.2" width="132.17" height="124" rx="15"/><rect class="cls-3" x="1.3" y="2.2" width="132.17" height="124" rx="15"/><path class="cls-4" d="M133.46,112.8c0,8-6.71,14.4-15,14.4H16.3c-8.29,0-15-6.45-15-14.4v-92c0-8,6.71-14.4,15-14.4H118.46c8.29,0,15,6.45,15,14.4Z"/></g></symbol></defs><title>Asset 3</title><g id="Layer_2" data-name="Layer 2"><g id="Layer_19" data-name="Layer 19"><use width="134.76" height="138.4" transform="scale(0.3)" xlink:href="#yelow_button"/></g></g></svg>