<svg xmlns="http://www.w3.org/2000/svg" xmlns:xlink="http://www.w3.org/1999/xlink" width="72.75" height="77.087" viewBox="0 0 72.75 77.087">
  <defs>
    <linearGradient id="linear-gradient" x1="0.504" y1="-0.091" x2="0.497" y2="1.037" gradientUnits="objectBoundingBox">
      <stop offset="0.361" stop-color="#7b79ef"/>
      <stop offset="0.809" stop-color="#464b94"/>
    </linearGradient>
    <linearGradient id="linear-gradient-2" x1="0.5" x2="0.5" y2="1" gradientUnits="objectBoundingBox">
      <stop offset="0" stop-color="#e2e2e2"/>
      <stop offset="1" stop-color="#fff"/>
    </linearGradient>
    <filter id="Rectangle_440" x="0" y="0.049" width="72.75" height="77.038" filterUnits="userSpaceOnUse">
      <feOffset dy="3" input="SourceAlpha"/>
      <feGaussianBlur stdDeviation="3" result="blur"/>
      <feFlood flood-opacity="0.333"/>
      <feComposite operator="in" in2="blur"/>
      <feComposite in="SourceGraphic"/>
    </filter>
  </defs>
  <g id="Group_2724" data-name="Group 2724" transform="translate(405.728 -2835)">
    <path id="Rectangle_438" data-name="Rectangle 438" d="M2.636,0H64.367A2.633,2.633,0,0,1,67,2.633V68.367A2.633,2.633,0,0,1,64.367,71H2.635A2.635,2.635,0,0,1,0,68.365V2.636A2.636,2.636,0,0,1,2.636,0Z" transform="translate(-403 2835)" fill="url(#linear-gradient)"/>
    <g transform="matrix(1, 0, 0, 1, -405.73, 2835)" filter="url(#Rectangle_440)">
      <path id="Rectangle_440-2" data-name="Rectangle 440" d="M2.635,0H52.117A2.633,2.633,0,0,1,54.75,2.633V56.4a2.634,2.634,0,0,1-2.634,2.634H2.633A2.633,2.633,0,0,1,0,56.4V2.635A2.635,2.635,0,0,1,2.635,0Z" transform="translate(9 6.05)" fill="url(#linear-gradient-2)"/>
    </g>
  </g>
</svg>
