<svg xmlns="http://www.w3.org/2000/svg" xmlns:xlink="http://www.w3.org/1999/xlink" width="821.738" height="212.466" viewBox="0 0 821.738 212.466">
  <defs>
    <linearGradient id="linear-gradient" x1="0.517" y1="-0.027" x2="0.494" y2="0.551" gradientUnits="objectBoundingBox">
      <stop offset="0.005" stop-color="#f8637e"/>
      <stop offset="0.943" stop-color="#1b105e"/>
    </linearGradient>
    <linearGradient id="linear-gradient-2" x1="0.432" y1="-1.02" x2="0.516" y2="0.847" xlink:href="#linear-gradient"/>
  </defs>
  <g id="Group_2080" data-name="Group 2080" transform="translate(2042.598 -10618.154)">
    <path id="Path_5812" data-name="Path 5812" d="M597.908,635.718c-106.475-16.817-256.026.147-398.388-35.241S-3.51,514.154-3.51,514.154v212.43s612.159-37.37,612.159-44.373S597.908,635.718,597.908,635.718Z" transform="translate(-2039.088 10104)" fill="url(#linear-gradient)"/>
    <path id="Path_5813" data-name="Path 5813" d="M124.455,667.664c66.943-21.4,82.744-14.963,185.3-10.3S505.28,667.514,577.7,641.687s58.355-63.81,143.719-71.283,97.7-32.248,97.7-32.248v194.4H.088Z" transform="translate(-2039.983 10098.031)" fill="url(#linear-gradient-2)"/>
    <path id="Path_5814" data-name="Path 5814" d="M119.644,742.8c41.652-21.288,76.261-21.288,136.161,4.613s106.145,21.4,157.41,0S541.7,733.4,579.913,752.8s100.157,6.81,110.042,3.992,0,25.108,0,25.108H51.113Z" transform="translate(-2051.17 10048.719)" fill="#130d4c"/>
  </g>
</svg>
