<svg xmlns="http://www.w3.org/2000/svg" xmlns:xlink="http://www.w3.org/1999/xlink" width="462.148" height="90.758" viewBox="0 0 462.148 90.758">
  <defs>
    <linearGradient id="linear-gradient" x1="0.5" y1="0.5" x2="0.5" y2="0.772" gradientUnits="objectBoundingBox">
      <stop offset="0" stop-color="#7a10e3"/>
      <stop offset="1" stop-color="#552691"/>
    </linearGradient>
  </defs>
  <g id="Path_99" data-name="Path 99" fill="url(#linear-gradient)">
    <path d="M0,0H462.148V90.758S353.934,71.783,238.4,71.783,0,90.758,0,90.758Z" stroke="none"/>
    <path d="M 1 1.000022888183594 L 1 89.5950927734375 C 7.005889892578125 88.69489288330078 35.93081665039062 84.46054840087891 75.76730346679688 80.27567291259766 C 101.9992370605469 77.51996612548828 127.7622375488281 75.32420349121094 152.3408203125 73.74949645996094 C 183.068359375 71.78079223632812 212.0216522216797 70.78255462646484 238.3964080810547 70.78255462646484 C 264.7722778320312 70.78255462646484 292.9568176269531 71.78084564208984 322.1671142578125 73.74967193603516 C 345.5329284667969 75.32461547851562 369.604248046875 77.52061462402344 393.71240234375 80.27667236328125 C 429.9825439453125 84.42304229736328 455.5083618164062 88.6185302734375 461.1484680175781 89.57220458984375 L 461.1484680175781 1.000022888183594 L 1 1.000022888183594 M 0 2.288818359375e-05 L 462.1484680175781 2.288818359375e-05 L 462.1484680175781 90.75778961181641 C 462.1484680175781 90.75778961181641 353.9334716796875 71.78255462646484 238.3964080810547 71.78255462646484 C 122.8592834472656 71.78255462646484 0 90.75778961181641 0 90.75778961181641 L 0 2.288818359375e-05 Z" stroke="none" fill="rgba(127,171,255,0.36)"/>
  </g>
</svg>
