<svg xmlns="http://www.w3.org/2000/svg" xmlns:xlink="http://www.w3.org/1999/xlink" viewBox="0 0 334.8 37.66"><defs><style>.cls-1{fill:url(#linear-gradient);}.cls-2{fill:url(#linear-gradient-2);}.cls-3{fill:#5a5ece;}.cls-4{fill:#8e94e8;}.cls-5{fill:#464b94;}</style><linearGradient id="linear-gradient" x1="168.05" y1="-15.67" x2="166.8" y2="50.7" gradientUnits="userSpaceOnUse"><stop offset="0.24" stop-color="#8e94e8"/><stop offset="0.51" stop-color="#5a5ece"/><stop offset="0.78" stop-color="#464b94"/></linearGradient><linearGradient id="linear-gradient-2" x1="167.4" y1="60.39" x2="167.4" y2="-35.8" gradientUnits="userSpaceOnUse"><stop offset="0.12" stop-color="#8e94e8"/><stop offset="0.71" stop-color="#5a5ece"/></linearGradient></defs><title>Asset 5</title><g id="Layer_2" data-name="Layer 2"><g id="Layer_19" data-name="Layer 19"><rect class="cls-1" width="334.8" height="37.66"/><rect class="cls-2" y="3.31" width="334.8" height="31.05"/><polyline class="cls-3" points="57.4 0.18 59.78 3.44 57.92 7.72 54.41 3.38 57.35 0.08"/><polyline class="cls-4" points="57.4 0.18 57.92 7.72 54.41 3.38 57.35 0.08"/><polygon class="cls-5" points="205.92 34.59 208.77 32.03 219.72 34.54 205.92 34.59"/><path class="cls-3" d="M262.86,1.28s-5.63,2.05-5.43,2.05,6.84,4.59,6.84,4.59l5.83-4.46Z"/><path class="cls-4" d="M262.86,1.28s-5.63,2.05-5.43,2.05,6.84,4.59,6.84,4.59Z"/></g></g></svg>