<svg width="274" height="275" viewBox="0 0 274 275" fill="none" xmlns="http://www.w3.org/2000/svg">
<g id="Group 2084">
<g id="red-leaf-2">
<path id="Path 6161" d="M1.36939 194.708C2.84429 183.708 5.20999 172.845 8.44315 162.228C21.3046 160.153 36.4555 157.238 32.5039 155.546C29.5096 154.264 20.901 152.325 12.3678 150.589C16.4554 139.569 21.4887 128.923 27.4112 118.77C42.8457 117.13 53.6105 115.041 53.6105 115.041L33.4405 109.08C41.0365 97.5952 49.7712 86.9058 59.512 77.1738C79.0746 85.077 122.531 83.6469 122.531 83.6469C122.531 83.6469 84.0136 82.0833 66.4672 70.524C71.0969 66.3094 75.4006 62.778 79.149 59.8871C83.8996 57.2071 88.5599 54.7895 93.1445 52.5709C101.972 56.121 111.138 58.7646 120.501 60.4609L112.478 44.2815C154.958 28.4436 188.255 31.6777 206.915 37.5753C214.436 39.9501 217.127 48.9789 217.498 59.5409C217.989 75.8642 213.338 91.9291 204.202 105.465C189.313 92.6063 183.193 64.3422 183.193 64.3422C183.193 64.3422 181.867 89.7427 199.837 111.387C196.574 115.461 192.937 119.221 188.974 122.617C188.018 123.432 187.05 124.251 186.069 125.073L170.065 125.328C170.065 125.328 173.495 128.081 178.031 131.599C169.908 138.008 161.048 144.432 151.451 150.601L118.654 136.453C118.654 136.453 121.281 143.302 137.433 159.089C115.322 171.845 91.5353 181.447 66.7648 187.616L66.232 155.005C66.232 155.005 63.5222 166.769 61.6502 188.827C51.8132 191.026 41.8514 192.622 31.8201 193.609C21.7019 194.598 11.5326 194.965 1.36939 194.708V194.708Z" fill="url(#paint0_radial)"/>
<path id="Path 6162" d="M211.042 40.7368L209.921 38.179C160.317 59.8582 13.4409 176.908 0.262832 193.851L2.46944 195.562C15.5712 178.719 161.677 62.31 211.042 40.7368Z" fill="white"/>
</g>
<g id="yellow-leaf2">
<path id="Path 6163" d="M155.262 257.06C152.944 249.254 151.262 241.273 150.234 233.195C158.22 227.945 167.482 221.448 164.326 221.5C161.937 221.54 155.594 222.828 149.361 224.224C148.785 215.621 148.955 206.983 149.868 198.409C159.71 192.676 166.28 188.049 166.28 188.049L150.991 190.112C152.623 180.146 155.256 170.37 158.85 160.932C174.317 160.35 202.97 146.348 202.97 146.348C202.97 146.348 176.722 156.864 161.506 154.39C163.337 150.181 165.156 146.523 166.8 143.464C169.173 140.245 171.565 137.226 173.966 134.367C180.94 134.094 187.869 133.112 194.645 131.438L184.41 123.016C208.078 99.6644 231.335 91.8312 245.594 90.1845C251.342 89.5185 255.856 94.7541 259.277 101.713C264.512 112.491 266.228 124.642 264.183 136.448C250.354 132.309 237.763 115.224 237.763 115.224C242.891 126.701 251.819 136.059 263.042 141.722C262.083 145.428 260.779 149.036 259.148 152.499C258.751 153.332 258.349 154.171 257.942 155.015L247.309 159.988C247.309 159.988 250.431 160.801 254.525 161.795C251.014 168.524 247.016 175.483 242.448 182.493L216.246 182.87C216.246 182.87 220.063 186.666 235.616 192.388C224.652 207.563 211.619 221.13 196.896 232.693L186.737 211.023C186.737 211.023 188.46 219.711 193.838 235.035C187.915 239.459 181.728 243.517 175.311 247.186C168.837 250.885 162.141 254.183 155.262 257.06V257.06Z" fill="url(#paint1_radial)"/>
<path id="Path 6164" d="M249.305 91.0629L247.787 89.6861C221.107 119.086 157.995 241.522 154.267 256.818L156.259 257.302C159.963 242.095 222.754 120.319 249.305 91.0629Z" fill="white"/>
</g>
</g>
<defs>
<radialGradient id="paint0_radial" cx="0" cy="0" r="1" gradientUnits="userSpaceOnUse" gradientTransform="translate(-127.732 -43.3692) rotate(-160.602) scale(180.247 180.554)">
<stop offset="0.057" stop-color="#1B105E"/>
<stop offset="0.995" stop-color="#F8637E"/>
</radialGradient>
<radialGradient id="paint1_radial" cx="0" cy="0" r="1" gradientUnits="userSpaceOnUse" gradientTransform="translate(21.47 104.723) rotate(164.736) scale(105.557 163.775)">
<stop offset="0.057" stop-color="#1B105E"/>
<stop offset="0.995" stop-color="#FDCA57"/>
</radialGradient>
</defs>
</svg>
