<svg width="206" height="188" viewBox="0 0 206 188" fill="none" xmlns="http://www.w3.org/2000/svg">
<g id="leaf-left 1" clip-path="url(#clip0)">
<g id="Mask Group 6">
<g id="Group 2070">
<g id="yellow-leaf">
<path id="yellow-leaf" d="M187.161 48.3265C185.048 43.1811 182.521 38.2155 179.606 33.4785C173.106 34.1025 165.392 34.6085 167.092 33.2875C170.022 31.4364 173.072 29.7817 176.221 28.3345C172.84 23.5105 169.048 18.9876 164.888 14.8165C157.196 15.9765 151.713 16.3275 151.713 16.3275L160.735 10.8835C155.593 6.2792 150.001 2.20463 144.042 -1.27848C135.562 5.02952 114.312 9.84052 114.312 9.84052C114.312 9.84052 132.787 4.20352 139.821 -3.62148C137.041 -5.07848 134.506 -6.24449 132.321 -7.17149C129.677 -7.87149 127.111 -8.45049 124.607 -8.94549C120.778 -6.10629 116.67 -3.66404 112.346 -1.65648L114.18 -10.5145C91.573 -12.8145 75.842 -7.02548 67.544 -1.80348C64.199 0.301516 64.044 5.01752 65.204 10.1845C67.0417 18.1613 71.339 25.3592 77.489 30.7615C83.075 22.6425 82.451 8.16751 82.451 8.16751C84.6418 16.465 83.9022 25.2642 80.357 33.0795C82.4565 34.6407 84.6972 36.0023 87.05 37.1465C87.6173 37.4205 88.1907 37.6945 88.77 37.9685L96.56 36.0685C96.56 36.0685 95.247 37.8365 93.494 40.1165C98.247 42.1945 103.358 44.1855 108.794 45.9605L122.894 34.9485C122.894 34.9485 122.494 38.6015 116.665 48.2985C129.005 51.6811 141.757 53.3226 154.551 53.1755L150.671 37.3035C153.177 42.4314 155.354 47.7134 157.189 53.1175C162.237 52.9371 167.269 52.4492 172.258 51.6565C177.289 50.8526 182.266 49.7405 187.161 48.3265V48.3265Z" fill="url(#paint0_radial)"/>
</g>
<g id="red-leaf">
<path id="red leaf" d="M52.784 60.7825C50.7062 53.1829 49.2698 45.4223 48.49 37.5825C48.49 37.5825 64.868 54.7945 70.284 65.4485C77.415 67.0695 85.732 68.7485 95.458 70.6625C92.758 57.5625 83.6 42.5355 83.6 42.5355C90.3235 51.2063 95.5329 60.9512 99.008 71.3585L104.092 72.3505C111.15 73.7255 117.75 74.9365 126.363 76.7935C124.371 70.7495 122.405 65.7795 122.405 65.7795L131.456 77.9165C132.756 78.2095 134.094 78.5165 135.496 78.8385C146.121 81.3045 154.806 83.5985 160.618 85.1915C157.48 77.3404 153.787 69.7228 149.567 62.3965C147.508 62.3397 145.459 62.0899 143.446 61.6505L148.037 59.8045C141.319 48.5082 133.068 38.198 123.518 29.1685C103.632 38.2035 102.984 36.7575 102.984 36.7575C102.984 36.7575 113.1 30.7575 119.93 25.9575C111.179 18.3649 101.283 12.2029 90.609 7.69951C81.7217 4.11436 72.5305 1.33453 63.146 -0.606492C59.7544 4.28103 55.6018 8.59367 50.846 12.1675L56.171 -1.77549C42.791 -3.57549 28.977 -2.61949 21.745 6.28751C16.591 12.6345 16.161 21.3165 17.12 28.8435C24.012 42.0635 32.067 49.4245 37.543 53.4965C41.362 56.3385 46.284 58.6465 52.784 60.7825Z" fill="url(#paint1_radial)"/>
</g>
<g id="green-leaf">
<path id="Path 6107" d="M97.165 145.337C98.785 137.931 99.8013 130.406 100.204 122.837C92.432 118.505 83.387 113.1 86.318 112.937C88.54 112.812 94.518 113.577 100.401 114.45C100.348 106.421 99.6011 98.4129 98.168 90.5135C88.643 85.8615 82.22 82.0135 82.22 82.0135L96.56 82.8925C94.364 73.7488 91.2516 64.8498 87.27 56.3305C72.87 56.8405 45.306 45.7855 45.306 45.7855C45.306 45.7855 70.397 53.7665 84.358 50.4375C82.37 46.6525 80.431 43.3815 78.7 40.6515C76.276 37.8225 73.848 35.1835 71.424 32.6905C64.9295 32.9104 58.4294 32.4694 52.024 31.3745L60.942 22.8505C37.373 2.77652 15.242 -2.91448 1.88901 -3.48048C-3.49399 -3.70948 -7.328 1.45752 -10.03 8.15052C-14.1555 18.5141 -14.9195 29.9121 -12.214 40.7335C0.342005 35.9505 10.87 19.2375 10.87 19.2375C6.891 30.24 -0.760891 39.5335 -10.795 45.5505C-9.65104 48.9268 -8.19369 52.1887 -6.44199 55.2935C-6.01933 56.0409 -5.58866 56.7922 -5.14999 57.5475L5.064 61.4475C5.064 61.4475 2.21901 62.4145 -1.51299 63.6145C2.20501 69.6245 6.39301 75.8145 11.114 82.0145L35.469 80.5825C35.469 80.5825 32.183 84.3665 18.13 90.7335C29.3471 104.081 42.3756 115.794 56.837 125.534L64.791 104.721C63.6262 112.412 61.9732 120.021 59.842 127.503C65.643 131.207 71.6641 134.556 77.872 137.529C84.1372 140.523 90.5803 143.131 97.165 145.337V145.337Z" fill="url(#paint2_radial)"/>
<path id="Path 6108" d="M-1.49701 7.58652L-0.18001 6.20552C26.602 31.6925 93.568 141.094 98.078 155.044L96.262 155.628C91.778 141.76 25.157 32.9485 -1.49701 7.58652Z" fill="white"/>
</g>
</g>
</g>
</g>
<defs>
<radialGradient id="paint0_radial" cx="0" cy="0" r="1" gradientUnits="userSpaceOnUse" gradientTransform="translate(24.1852 -8.2457) rotate(-12.89) scale(91.5032 88.1187)">
<stop offset="0.057" stop-color="#1B105E"/>
<stop offset="0.995" stop-color="#FDCA57"/>
</radialGradient>
<radialGradient id="paint1_radial" cx="0" cy="0" r="1" gradientUnits="userSpaceOnUse" gradientTransform="translate(16.3892 -7.24885) scale(117.014 116.815)">
<stop offset="0.057" stop-color="#1B105E"/>
<stop offset="0.995" stop-color="#F8637E"/>
</radialGradient>
<radialGradient id="paint2_radial" cx="0" cy="0" r="1" gradientUnits="userSpaceOnUse" gradientTransform="translate(9.65899 8.2716) scale(123.361 123.252)">
<stop offset="0.057" stop-color="#1B105E"/>
<stop offset="1" stop-color="#05E1AD"/>
</radialGradient>
<clipPath id="clip0">
<rect width="206" height="188" fill="white"/>
</clipPath>
</defs>
</svg>
