<svg xmlns="http://www.w3.org/2000/svg" xmlns:xlink="http://www.w3.org/1999/xlink" viewBox="0 0 830.6 723.47"><defs><style>.cls-1{fill:#3c2145;}.cls-2{fill:#fff;}.cls-3{fill:#8c4ea3;}.Graphic-Style-2{fill:url(#linear-gradient);}</style><linearGradient id="linear-gradient" x1="408.26" y1="186.82" x2="408.26" y2="583.62" gradientUnits="userSpaceOnUse"><stop offset="0" stop-color="#ff8d3c"/><stop offset="1" stop-color="#ff644f"/></linearGradient></defs><title>Asset 1</title><g id="Layer_2" data-name="Layer 2"><g id="image"><path class="cls-1" d="M370.79,721.47c-26.44,0-42.17-15.93-48.88-22.73l-1-1c-23.41-22.85-34-43.37-22.63-85.3-12.77-2.31-20.51-7.51-28.4-15.5-3.73,9-9.25,15.27-17.19,19.47a51.54,51.54,0,0,1-24.23,6.32c-16.51,0-34.61-9.83-53.82-29.24a245.32,245.32,0,0,1-36-47.72c-11.85,35.46-26,57.42-43.3,67a58.11,58.11,0,0,1-28.63,7.42c-27.52,0-41.49-14.46-53.81-27.22l-1.32-1.36C-3.2,576.44,2.32,564,6.91,558s20.8-30.26,32.72-83.74c1.33-6,2.63-12.08,3.88-18l.09-.42c4.47-21,8.69-40.9,14.87-58.58,3.33-9.52,10.93-31.26,26.78-42l-4.37-4.37c-33.5-33.73-52.71-81.22-52.71-130.29C28.17,99.5,116.28,2,189.23,2c20.09,0,36.45,5.69,47.31,16.47,1.61,1.6,3.15,3.1,4.61,4.53,12,11.73,19.32,18.9,22.26,33.91C277.86,66.8,300.15,90.64,310,109c12.29-16.73,29-26.26,46.21-26.26,1.33,0,2.67.06,4,.18,16.84,1.53,21.73,6.41,37.89,22.6,6.13-12.06,16.66-19.17,28.63-19.17,8.9,0,17.59,3.88,24.46,10.92l1.35,1.33c3.52,3.45,11,10.82,15,15.63a45.3,45.3,0,0,1,5.14-6c-11.09-16.83-9.41-40.54,4.2-55.88,8.46-9.55,20.65-14.8,34.31-14.8,17.3,0,24.09,6.85,36.42,19.29,1.47,1.48,3,3,4.7,4.7A44.49,44.49,0,0,1,566,89.92q3.62-.32,7.37-.32c16.36,0,31.85,4.68,43.16,8.1,6.68,2,12.45,3.77,15.9,3.77.17,0,.86-.15,1.47-.28a51.5,51.5,0,0,1,10.72-1.25,35.52,35.52,0,0,1,25.71,10.53q2,2,3.92,3.82c12.64,12.27,21,20.38,21.11,39.29.09,13.71-9.37,25-21.34,39.34-5.67,6.79-11.52,13.8-16,20.75-1.73,2.68-3.46,5.65-5.18,8.85,1.49.12,2.8.18,3.92.18,27.93,0,35.45-12.66,42.08-23.82,5.2-8.75,10.11-17,23.41-17S744,190.48,748,194.62l.72.73h0c.32.29.76.73,1.41,1.38l2.28,2.27c10.7,10.6,19.15,19,18,40.94-1.25,23.05-15.72,54.24-45.2,73.68a56.41,56.41,0,0,0,11.84-5c12.4-6.65,17.63-16.76,20.75-22.8,2-3.83,4.22-8.16,9.1-11.31,5.69-3.73,11-5.55,16.36-5.55,12,0,21.6,9.08,33.83,21.9,12.68,13.23,15.09,35.16,6.28,57.24-6.38,16-17.82,30.05-33.07,40.61a109.1,109.1,0,0,1-30.89,14.73,36.92,36.92,0,0,1,19.3,10.9c13.34,12.77,20.55,21.89,24.81,31.45,4.86,10.9,5.73,22.73,2.72,37.24-7.21,34.75-40.43,72.26-81.54,72.26a70.4,70.4,0,0,1-28.7-6.16,54.48,54.48,0,0,1-3.29,9.2l.95.94c8.31,8.26,12.89,12.81,15.57,24.83,3.57,16-.22,35.5-10.38,53.48-8,14.12-23.69,33.84-53.1,47.64-21.52,10.1-47.49,15.43-75.12,15.43-36.31,0-73.6-8.77-105.18-24.73C449.42,693.47,416.67,721.47,370.79,721.47ZM503.25,568.26c23,7.47,39.89,10.66,56.21,10.66a116.65,116.65,0,0,0,23.77-2.43c-6.41-5.77-20.76-19.48-28.62-31.2a33.15,33.15,0,0,1-29.68,17.41,41.16,41.16,0,0,1-21.25-5.53C503.59,560.77,503.44,564.48,503.25,568.26ZM173.07,405.43c4.26,6.89,8.72,14.85,13.52,24.13,2.07-8.62,4.3-16.49,6.65-23.46-2.15.13-4.32.19-6.47.19h0A111.09,111.09,0,0,1,173.07,405.43Zm555.52,3.32a169.55,169.55,0,0,0,1.06,17.69c2.3-9.63,5.77-15.32,9.28-18.67Q733.86,408.43,728.59,408.75ZM530.27,310.27c5.76,5.65,11.34,11.21,14.45,14.8a47.45,47.45,0,0,1,9-9.06c-7.24-1.6-11.91-5.89-17.16-11.2A52.14,52.14,0,0,1,530.27,310.27ZM194.6,113.92c-13.87,15.89-35.45,49.61-35.45,105.54a129.73,129.73,0,0,0,.68,13c5.45-9,13.92-16.29,25.19-21.53a92.35,92.35,0,0,1,30.87-7.89c.08-3.42.13-7.1.13-10.94,0-14.56,0-48.56-11.16-68.31C203,122.25,198.37,117.69,194.6,113.92Z"/><path class="cls-2" d="M189.23,4c19.86,0,35.64,5.7,45.9,15.89C250.41,35,258.57,41.37,261.6,58.1c14.16,9.41,39,35.45,48.07,54.82,12.89-19.1,30.46-28.14,46.5-28.14,1.28,0,2.54.06,3.78.17,16.78,1.53,21.1,6.47,38.67,24,6-14,16.9-20.6,28-20.6,8.14,0,16.41,3.54,23,10.32,2.14,2.14,14.68,14.18,17.88,19a44.07,44.07,0,0,1,7.66-9.18C464,92.91,464.55,69.19,478.29,53.7c8.08-9.11,19.74-14.13,32.82-14.13,18.44,0,24.09,7.93,39.71,23.41a42.8,42.8,0,0,1,13.33,29.14,79.73,79.73,0,0,1,9.21-.52c25.95,0,49.24,11.87,59.06,11.87,1.1,0,5.85-1.53,12.19-1.53a33.63,33.63,0,0,1,24.3,10c14.81,14.58,24.31,21.8,24.44,41.7.08,13-9.16,24-20.87,38-5.7,6.83-11.6,13.89-16.15,21-2.41,3.74-4.64,7.71-6.65,11.64a68.71,68.71,0,0,0,7.07.47c50.81,0,37.06-40.83,65.49-40.83,13.27,0,21.58,9.37,25.1,12.89h0l1.4,1.4c12,12,20.88,19.14,19.65,41.68-1.3,24.1-17.18,55.92-47.88,74.37.52.7,1,1.45,1.47,2.21a53.23,53.23,0,0,0,16-6c13-6.94,18.36-17.4,21.59-23.65,2-3.77,4-7.68,8.4-10.55,5.57-3.64,10.58-5.22,15.28-5.22,11.48,0,21.1,9.45,32.38,21.28,29.16,30.41.18,110.39-89,114.6A191.36,191.36,0,0,0,729.53,440c.18-1,2-31.64,18-34.67a30.72,30.72,0,0,1,5.58-.51c8.38,0,16.82,3.36,24.18,10.91,23.11,22.1,33,37.92,27,66.88-7,34-39.48,70.67-79.58,70.67a69.12,69.12,0,0,1-30.08-7,52.82,52.82,0,0,1-4.32,12.47c9.44,9.44,14.23,13.46,17,25.78,3.47,15.54-.24,34.52-10.16,52.06-7.85,13.87-23.27,33.24-52.21,46.82-21.25,10-46.94,15.24-74.27,15.24-36.61,0-74.28-9.07-105.64-25.21-15.48,17.3-48.12,46-94.18,46-27,0-42.17-16.85-48.51-23.19-21.9-21.38-34.16-41.06-21.52-85.5-14-2.08-22.11-7.35-31.67-17.55-3.25,9.35-8.41,16.62-17.38,21.36a49.66,49.66,0,0,1-23.29,6.09h0c-35.78,0-73.8-49.75-90.35-79.91C127.9,572.61,114.32,599.84,94.28,611a56.09,56.09,0,0,1-27.66,7.17h0c-27.62,0-40.94-14.82-53.69-28-11.13-11.49-11-22.37-4.42-31,4.73-6.21,21.07-30.64,33.08-84.51,1.37-6.14,2.68-12.3,4-18.42,4.45-21,8.66-40.79,14.8-58.34,3.47-9.93,11.38-32.53,28.07-42.35l-.18-.17-.15-.16-.18-.18-.17-.17-.17-.17-.2-.2-.14-.14-.21-.2-.16-.17-.18-.18-.18-.18-.16-.16-.19-.19-.16-.16-.19-.19-.16-.16-.19-.19-.17-.17-.18-.17-.17-.17-.18-.19-.16-.16-.2-.2-.16-.16-.18-.18-.17-.16-.17-.18-.2-.2-.14-.14-.21-.21a1.85,1.85,0,0,1-.14-.14l-.21-.2-.17-.18-.16-.16-.18-.18c-31.46-31.68-52.14-78.56-52.14-128.89,0-120,87-216.58,159.06-216.58ZM158.67,239.3a40.73,40.73,0,0,1,2.11-4.42c11.28-20.29,36.58-28.63,57.05-29.92.11-3.56.19-7.83.19-12.81,0-14.85,0-49.48-11.61-69.63-2-1.58-10.32-9.94-11.9-11.52-17.65,19.47-37.36,54.71-37.36,108.46a134.92,134.92,0,0,0,1.52,19.84Zm386.16,89.09a45.71,45.71,0,0,1,14.35-13.71c-10.3-.37-15.46-5.44-22.63-12.75a49.9,49.9,0,0,1-9.4,8.08c5.53,5.42,15.1,14.78,17.68,18.38Zm-357.53,107a279.24,279.24,0,0,1,8.82-31.47c-3.12.28-6.23.42-9.36.42a108.85,108.85,0,0,1-17.7-1.46,358.24,358.24,0,0,1,18.24,32.51ZM524.93,560.7a38.36,38.36,0,0,1-23.18-7.18q-.12,7.65-.58,16.17c20.55,6.75,39.18,11.23,58.3,11.23a119.92,119.92,0,0,0,28.06-3.33c-2.95-2.31-24.83-22.1-33.16-36.46a31.17,31.17,0,0,1-29.44,19.57ZM189.23,0c-36.8,0-77.8,24.23-109.7,64.83a248.65,248.65,0,0,0-38.41,70,253.91,253.91,0,0,0-14.95,85.8,189.79,189.79,0,0,0,14.57,73,183.79,183.79,0,0,0,38.73,58.74l.14.13,0,.06.1.09,0,.06.1.1.07.07.11.11.09.09.09.09,0,.05.14.13.07.08.09.09.06.06.11.11.09.09.1.1.06.06.1.1.08.08.13.13.06.06.1.09,0,.05.12.12.09.09.09.09.07.06.11.12.08.08.07.07c-15.07,11.52-22.34,32.3-25.6,41.62-6.22,17.8-10.45,37.73-14.93,58.83l-.09.41c-1.25,5.89-2.55,12-3.88,18-11.84,53.08-27.76,76.92-32.36,83-8.48,11.15-6.76,24.35,4.73,36.21l1.32,1.36c12.6,13,26.88,27.83,55.24,27.83a60,60,0,0,0,29.61-7.67c17-9.51,31.08-30.5,42.81-64a247.24,247.24,0,0,0,34.15,44.38c19.6,19.8,38.18,29.83,55.23,29.83a53.54,53.54,0,0,0,25.17-6.55,37.81,37.81,0,0,0,16.92-17.8c6.95,6.57,14.36,11.24,25.26,13.6-5.13,19.85-5.44,35.66-1,49.47,4.77,14.85,14.7,26,24.73,35.74l1,1c6.89,7,23,23.32,50.31,23.32,45.68,0,78.5-27.25,95.09-45.08,31.57,15.67,68.63,24.27,104.73,24.27,27.92,0,54.19-5.4,76-15.62,29.89-14,45.86-34.1,54-48.47,10.4-18.4,14.26-38.41,10.59-54.9-2.8-12.57-7.8-17.55-16.08-25.78a55.56,55.56,0,0,0,2.21-6,72.23,72.23,0,0,0,27.39,5.43c19.49,0,39-8.42,55-23.71,14.39-13.79,24.8-32.07,28.54-50.15,6.39-30.77-4.45-47.9-28.1-70.53a40.75,40.75,0,0,0-14-9.56,109.42,109.42,0,0,0,25.34-13c15.57-10.78,27.26-25.14,33.79-41.51,9.1-22.81,6.53-45.56-6.7-59.37C805.94,276.3,796.05,267,783.24,267c-5.71,0-11.43,1.92-17.47,5.88a22,22,0,0,0-4.07,3.38c6.59-12.49,10.09-25.23,10.69-36.17,1.24-22.87-7.49-31.52-18.55-42.47l-2.27-2.26c-.68-.67-1.1-1.1-1.41-1.39h0c-.22-.21-.45-.45-.7-.71-3.93-4-13.12-13.35-27.23-13.35-14.44,0-19.87,9.14-25.13,18-6.67,11.23-13.57,22.85-40.36,22.85h-.63q1.78-3.16,3.57-5.93c4.41-6.85,10.23-13.81,15.85-20.54,12.24-14.65,21.9-26.21,21.81-40.65-.13-19.76-9.18-28.54-21.72-40.71q-1.89-1.83-3.91-3.82a37.43,37.43,0,0,0-27.11-11.1,53.07,53.07,0,0,0-11.13,1.29l-1.2.24c-3.17,0-8.74-1.73-15.18-3.68C605.67,92.33,590,87.6,573.36,87.6q-2.83,0-5.61.18a46.4,46.4,0,0,0-14.12-27.65c-1.66-1.64-3.21-3.2-4.68-4.68-12.29-12.4-19.71-19.88-37.84-19.88-14.24,0-27,5.49-35.81,15.47-13.83,15.59-15.84,39.47-5.24,56.94-.93,1-1.84,2-2.7,3.1-3.53-4-8.64-9.1-13.5-13.86l-1.35-1.34c-7.22-7.4-16.42-11.49-25.86-11.49-11.93,0-22.49,6.58-29.1,17.87C382.86,87.57,377.17,82.5,360.31,81c-1.35-.13-2.74-.19-4.14-.19-17,0-33.48,8.9-45.95,24.62-10.42-17.94-31.06-39.88-45-49.67-3.15-15.07-10.6-22.36-22.67-34.16l-4.6-4.52C226.71,5.9,209.86,0,189.23,0ZM161.37,226.73c-.15-2.46-.22-4.89-.22-7.27,0-53.45,19.89-86.32,33.56-102.6,4.36,4.34,7.1,7,8.58,8.26,10.72,19.34,10.73,52.7,10.73,67,0,3.17,0,6.22-.09,9.11a93.28,93.28,0,0,0-29.75,7.91c-9.61,4.46-17.25,10.35-22.81,17.56Zm578.74,77.69a106.91,106.91,0,0,0,14-15.92,44.73,44.73,0,0,1-14,15.92Zm-206.8,6c1.12-.9,2.21-1.85,3.25-2.83,3.94,3.89,7.87,7.25,13,9.22a49,49,0,0,0-5,5.12c-2.91-3.18-7-7.27-11.31-11.51ZM185.92,424c-3.14-5.91-6.14-11.26-9-16.11,3.31.29,6.62.44,9.88.44,1.22,0,2.45,0,3.67-.06q-2.35,7.31-4.51,15.73ZM730.6,410.62c1.21-.09,2.41-.19,3.59-.3a36.63,36.63,0,0,0-3.37,6.14q-.17-3-.22-5.84ZM524.93,564.7A35.16,35.16,0,0,0,554.75,549c6.93,9.5,17.36,20,24.15,26.32a113.68,113.68,0,0,1-19.43,1.65c-15.76,0-32.09-3-54.15-10.09.1-2.15.19-4.28.26-6.37a43.82,43.82,0,0,0,19.35,4.24Z"/><path class="cls-3" d="M769,378.13c33.93-18.29,46.28-51.76,40.67-74-2.39-9.48-15.7-24.46-25.77-24.46a20.64,20.64,0,0,0-11.32,3.65c-2.52,1.64-3.69,3.89-5.45,7.3-3.44,6.66-9.85,19.07-25.15,27.26-9.08,4.87-17,7.75-29.81,8-2.76-13.21-7.91-16.1-12.57-21.06,34.27-15.5,51.92-48.26,53.23-72.46.92-17-13.45-38.16-29.18-39.87a11.43,11.43,0,0,0-1.43-.08,13.16,13.16,0,0,0-12,7.88c-6.56,15-21.16,33-53.44,33-7.34,0-19.21-2-29-3.94A177.35,177.35,0,0,1,642.13,201c4.84-7.51,10.91-14.77,16.78-21.8,10.59-12.67,19-22.67,18.88-32.52,0-9.31-3.12-17-8.35-22.12-7.27-7.12-12.2-14.05-25.16-14.05-12,0-5.88,4.93-31.21-2.79-23.66-7.21-51.1-13.16-70.81,1.63a38.85,38.85,0,0,0,6.43-21.43c0-15.35-7.16-22.32-16.48-31.42a29.43,29.43,0,0,0-21.1-8.34c-13.6,0-21.88,6.12-26.43,11.25a35.83,35.83,0,0,0-8.8,23.89c0,15.81,9,23.66,12.12,26.83-14.49,7.17-20.07,24.76-24.57,41.73-2.44-27.49-8.13-35.4-20.51-47.78a22.61,22.61,0,0,0-16.29-7c-19.32,0-24.54,21.28-26,47.71-3-25.14-10.34-32.18-20.79-42.38l-.16-.16c-16.82-16.67-58.06-13-74.33,40-7.84-39.56-33.87-71.25-58.44-82.62-.61-17.64-8.78-24.25-17.31-33-8.67-9-22.49-14-40.37-14-68.18,0-150.52,92.8-150.52,208,0,55.21,25,104.14,66.27,138.88-19.75.51-29.91,22.29-36.56,41.3-6,17-10.11,36.59-14.51,57.29-1.3,6.15-2.62,12.34-4,18.51-12.39,55.56-29.63,81.27-34.62,87.82-7.4,9.74,1.29,17.17,8,24.15,6.54,6.8,20.69,14.1,36.3,14.1a47.63,47.63,0,0,0,23.49-6.08c22.82-12.73,36.84-51.08,47.17-91.5C145.7,540.17,183,605.18,221.39,605.18h0a41.24,41.24,0,0,0,19.31-5.13c12.34-6.53,15.54-19.51,17.84-39.93,2,14.21,8.18,18.61,8.18,18.61,7.75,7.75,15.28,17,34.45,17a42.17,42.17,0,0,0,17-3.5c-8.84,14.54-13.49,32.5-13.49,53.52,0,29.29,29.52,58.16,59,58.16,47.88,0,80.28-33.54,92.18-48.23,31.26,17.51,70,27.45,107.65,27.45,26.08,0,50.51-5,70.64-14.44,44.18-20.73,78.55-73,43.82-110.07a21.79,21.79,0,0,0-6.21-4.74,47.43,47.43,0,0,0,8.32-23.45,34.79,34.79,0,0,0-.14-5.72c11.73,8.8,24.85,13,37.63,13,34.68,0,64.83-33,71.22-63.86,7.79-37.57-22.43-60.5-35.8-60.5-22.16,0-6.31,47.81-31.16,49.39-3.92-7.95-7.19-21.13-9-36.87a189.21,189.21,0,0,1-1.16-34.39C735.17,391.29,751.9,387.36,769,378.13ZM331.24,282.07a264.1,264.1,0,0,1-22.83-19.63c-2.71-2.82-5-5.35-6.78-7.41.1-.5.2-1,.3-1.55,1.06-5.65,2.4-12.78,3.65-21.07a148.66,148.66,0,0,0,8.22,22.75A104.23,104.23,0,0,0,331.24,282.07Zm-47.17,72.21a44.41,44.41,0,0,0-25.71-4.47A149.17,149.17,0,0,0,267.72,338C270.39,340.85,280.28,350.8,284.07,354.28ZM179.94,388.74a92,92,0,0,0,35.95-7.28,133.46,133.46,0,0,0-10.49,21.89c-6.31,16.63-11.86,40.23-15.52,64.95-17-37-33.07-69.75-50.16-87.58A106.91,106.91,0,0,0,179.94,388.74Zm152.92,59.95a29.79,29.79,0,0,0,5.94-2.29c-.59,2.4-1.07,4.59-1.55,7.27A34.42,34.42,0,0,0,332.86,448.69Zm4.67-62.9a142.2,142.2,0,0,0,33.34,6.54,95.55,95.55,0,0,0-16.52,18.78C352.07,399.62,346.33,394.07,337.53,385.79Zm-38.3-19.28a145.3,145.3,0,0,0,19.48,11.62A32,32,0,0,0,308,379.72C306.39,373.39,302.1,369.38,299.23,366.51Zm195.86-64.05c12.6,0,26.94-8.32,33.84-21.64,1.8,3.31,9.45,11.07,11.5,13,11.56,11.25,25,1.09,36.09,1.09,7.85,0,17.46,3.4,28.59,7.33,15.09,5.34,32.2,11.4,51.76,11.4,1.55,0,3.08,0,4.59-.1-1.32,2.35-2.46,4.68-3.42,6.77-13.06-2.66-39.94-7.75-54.46-7.75-18.17,0-32.52,3.76-42.66,11.2-9.23,6.77-14.29,16.44-13.54,25.87a18.64,18.64,0,0,0,5.45,12.06l.18.17.17.18.18.18.17.17.18.18.17.17.12.13a64.27,64.27,0,0,0-12.15,5.55c-.12-.9-.25-1.8-.38-2.68-4.34-30.51-5.84-37-21.89-51.18-4.34-3.82-11.34-6.29-17.83-6.29-9.73,0-17.78,5-21.92,13.41,2-14-1.68-19.68-10.94-28.36-7.25-7-14.31-6.92-19.5-2.65C440,298.42,421,311.38,399,311.38a52.91,52.91,0,0,1-6.92-.45c22.54-1.64,46.11-13.8,59.17-42.05C455.44,280.87,474,302.46,495.09,302.46Zm-40.55,150a25.32,25.32,0,0,0,12.68-9.88c.21,7.13.58,14.64,1.23,22.2C458.87,454.92,456.88,453.77,454.54,452.49ZM407.3,464.24c3.83-21.65,12.74-34.72,19.29-35.11,2.9,14.47-2.3,7.71,10.48,20.64-12.2,2.26-20.83,13-22.47,28.4a55.65,55.65,0,0,1-9.45,9C405,482.1,405.43,474.77,407.3,464.24Zm60.07-62.62C463.09,395,450,382.16,439,378a90.75,90.75,0,0,0,35.35-38.58C469.79,359.64,468,385.34,467.37,401.62ZM538.21,166.1c17.28,17.28,22.81-1.76,35.81-5.37a5.46,5.46,0,0,1,1-.06l.37,0c-17.41,25.4-31.19,56.93-39.72,79.81C538.29,208.15,538.08,191.58,538.21,166.1Zm-52.46,359c23.18,30.34,49.23,21.86,54.62,3.16,1.86-6.45,3.79-21.31,5.75-44.36,7.3,62.61,42.55,89.52,71.52,92.55-4.7,2-9.68,4-14.91,5.69-15.67,5.07-28.9,7.33-42.91,7.33-20.56,0-43.49-5-74.94-16.41A391.42,391.42,0,0,0,485.75,525.12ZM607.08,379.35l-1.4-1.4c-4.41-4.37-6.77-7.09-11.69-10.26,7.24-.27,15.13-.95,42.56,10.38-3.35,16-3.42,17.24-3.41,34.46v2.14c0,37.05,8.7,64.51,21.76,83.51h0a11.52,11.52,0,0,0-7.74,3.22l-.47.52c-1,.92-2.92,2.77-4.75,4.2-2.4-9.56-4.08-24.39-5.24-34.63C632.49,434.33,628.11,400.38,607.08,379.35ZM226.56,192.15c0,9.22-.25,16.43-.56,21.2-.82,0-1.64,0-2.47,0-48.89,0-76.16,36.85-47.86,66.44,10.81,11.52,20.93,6.63,24.47.09.58-1.07,3.62-2.66,9.66-2.66h0c-5.1,7-14.13,16-28.56,16-28.58,0-39.65-52.71-39.65-80.76,0-63.07,26.61-103.39,47.85-122.52C196.65,115.44,226.56,95.12,226.56,192.15Zm60,229.13c2.19,8.2,6.44,12.1,9.44,15.1-15.37,4.16-19.38,16.45-22.52,25.8C277.09,447.23,280.48,434.8,286.52,421.28Zm56.25,94.89a52,52,0,0,0,10.63,14.16c15.46,15.21,31.15,23.48,51.55,16.14-.3,1.21-.56,2.16-.79,3-30.41,1.23-54.55,9.95-71.43,25.22C337.68,560.59,341.14,537.87,342.77,516.17ZM527.28,121.42a30.57,30.57,0,0,0,6.34-3.33,41.55,41.55,0,0,0-3.69,6.09C529,123.1,528.32,122.48,527.28,121.42Z"/><path class="cls-1" d="M753.08,411.33a24.36,24.36,0,0,0-4.37.41c-15.37,2.9-6.7,47.92-27.2,49-2.9-4.93-6.7-15.07-9.26-32.17A202.23,202.23,0,0,1,710.11,390c22.83-.42,39.39-4.44,56.38-13.6,34.83-18.78,47.47-53.31,41.68-76.26-2.69-10.62-13.49-22.49-24.25-22.49a22.61,22.61,0,0,0-12.43,4c-3,1.92-4.31,4.5-6.16,8.08-3.34,6.46-9.56,18.49-24.29,26.39-9.06,4.86-16.91,7.68-30,7.73-2.13-12.12-6.21-16.88-11.4-21.92,33.28-16.32,50.43-48.81,51.74-73,1-18-10.58-36.67-27.49-38.51a15.18,15.18,0,0,0-15.57,9c-6.32,14.46-20.4,31.71-51.57,31.71-7.77,0-20.71-2.22-30.7-4.32a175.82,175.82,0,0,1,14.29-28.32c4.77-7.4,10.8-14.62,16.63-21.6,10.85-13,19.42-23.24,19.36-33.84-.13-20.38-17.87-39.17-40.48-33.61-11.87,2.9-33.39-11.38-63.34-11.38-15.58,0-26.69,5-34.32,11.87a40.48,40.48,0,0,0,9-25.62c0-21.57-18.21-38.31-36.11-38.31-11.2,0-21.13,4.24-28,11.95a37.86,37.86,0,0,0-9.32,25.24c0,9.74,3.66,19.55,10.78,26.35a36.35,36.35,0,0,0-12.93,13.91c-3.75,6.94-6.94,15.85-9.67,25.76-2.52-31.45-10.42-39.4-17.64-46.68A24.37,24.37,0,0,0,427,95h-.39c-19.62,0-25.73,19.4-27.69,44.35-1-7.47-2.45-14.09-4.63-19.36-17.64-42.45-70.92-39.2-90.24,19.47-6.51-34.06-26.83-69.34-58.61-82.74-.61-29.32-26.8-46.18-56.23-46.18-69.11,0-152.57,93.72-152.57,210.09A178.34,178.34,0,0,0,101,357.81C82.32,361,72.42,383.13,66.49,400.09c-6,17.15-10.17,36.77-14.58,57.54-1.3,6.14-2.61,12.32-4,18.48-12.3,55.17-29.32,80.56-34.25,87-13.67,18,19.49,38,42.43,38a49.71,49.71,0,0,0,24.49-6.35c22.89-12.76,37-50.1,47.41-89.89,16.1,36.79,49.78,98.25,89.89,98.25h0a42.82,42.82,0,0,0,20.25-5.1c12.4-6.55,16.16-19.25,18.51-37.91,2.57,18.87,16.47,31.11,35.09,33.68a43.8,43.8,0,0,0,5.92.4c3.9,0,12.12-.56,19.6-4.55-9.56,15.08-14.58,33.9-14.58,56,0,30.21,28,56.7,57.58,56.7,47.3,0,79.74-32.12,92.67-47.67,31.29,17.16,69.77,26.88,107.15,26.88,26.38,0,51.11-5.06,71.5-14.63,49.47-23.2,64.16-67.52,58.8-91.58-2.14-9.59-11.09-21.15-20-24.43a48.8,48.8,0,0,0,8.3-24c0-.59.06-1.18.06-1.75a64,64,0,0,0,35.39,11c35.68,0,66.67-33.87,73.22-65.49C794.87,434.64,769,411.33,753.08,411.33Zm-564.67,53c-15.48-33.74-30.22-64-45.82-82.94a104.81,104.81,0,0,0,33.85,5.87A94.23,94.23,0,0,0,215,379.06a133.15,133.15,0,0,0-11.48,23.56C197.44,418.55,192.09,440.82,188.41,464.35Zm14.3-355.47a31.75,31.75,0,0,1,4.14,3.08c15.66,17.93,17.66,53.52,17.66,80.19,0,8-.19,14.47-.43,19.12h-.55c-19.46,0-46.09,7-57.08,26.76-4.86,8.75-5.91,20.65-2.6,29.63,2.51,6.81,10.63,14.64,16,16.63a15.09,15.09,0,0,0,18.55-6.91c.31-.35,2.56-1.65,7.91-1.65.66,0,1.3,0,1.94,0-4.83,7.05-13.41,15.38-27,15.38-6,0-12.17-2.84-18-8.05-13-14.32-23.16-40.93-23.16-74.17,0-63.85,26.5-102.17,46.87-120.47C188.51,96.42,196.91,105.29,202.71,108.88ZM275.84,444a182.12,182.12,0,0,1,8.34-23.84,31.63,31.63,0,0,0,8.09,15.21,30.12,30.12,0,0,0-15.85,13.87c-1.28,2.26-3.6,8.51-6.23,17.15Q272.64,455.75,275.84,444Zm-.23-95.16A46.35,46.35,0,0,0,256,348.1c3.31-3.75,6.18-7.37,8.57-10.63C267.51,340.8,273,346.37,275.61,348.88ZM536.46,182.09c0-5.35-.11-10.21-.11-14.62v-.07c20.92,13.89,23.61-9.69,37.39-8-17.2,25-31.1,55.89-39.79,78.93C535.41,221,536.46,200.77,536.46,182.09ZM433.18,448.7c-11,3.7-18.8,14.36-20.54,28.64a54.46,54.46,0,0,1-8.87,8.33c-.36-4.77-.12-12.47,2-24.58,3.65-20.63,12.52-34.42,18.35-33.37C426.81,436,421.8,438.87,433.18,448.7ZM460,285.88c-15.18-2.34-29.41,27.34-66.75,23.11a70.42,70.42,0,0,0,39.69-19.09,78.61,78.61,0,0,0,15.85-22.2C451,275.42,454.8,280.56,460,285.88ZM454.09,450a27.94,27.94,0,0,0,11-9.33c.16,6,.42,12.36.87,18.8C460.85,454.22,458.39,452,454.09,450Zm-16.15-74.51a95,95,0,0,0,11.14-8.09A91.24,91.24,0,0,0,473,336c-4.64,19-6.63,43.66-7.48,60.86C461.4,390.48,450.84,379.8,437.94,375.46Zm111.69-77.77c4.43,0,8.74-1.15,12.9-2.25,3.61-1,7.35-2,10.48-2,7.5,0,17,3.34,27.91,7.21,15.25,5.4,32.53,11.51,52.44,11.51q3.38,0,6.64-.19c-1.18,2.06-2.23,4.1-3.13,6-13.62-2.75-39.17-7.48-53.29-7.48-18.61,0-33.37,3.9-43.87,11.6-9.81,7.19-15.18,17.54-14.37,27.68A21.08,21.08,0,0,0,550.28,362a68.15,68.15,0,0,0-9.62,4.69c-.23-1.61-.45-3.19-.67-4.72-3.65-25.61-5.11-36.63-19.06-48.92-4.77-4.2-12.11-6.81-19.18-6.81-10.59,0-19.34,5.44-23.81,14.66,1.86-9.68.83-17.86-2.78-23.56A39.39,39.39,0,0,0,491.58,301c12.72,0,27.12-8,34.7-21C530.15,288.29,540,297.69,549.63,297.69Zm66,277.46c-4.27,1.82-8.79,3.54-13.49,5.06-15.45,5-28.49,7.24-42.28,7.24-20.8,0-44.1-5.17-76.46-17.1a406.8,406.8,0,0,0,1.12-43.54c6.65,8.52,17.46,16.87,29.92,16.87a24.89,24.89,0,0,0,24.43-18.34c1.76-6.1,3.57-19.54,5.41-40.12,2.88,23.67,9.6,47.26,23.5,63.78C579.75,563.28,596,573.54,615.59,575.15ZM337.25,444.24c-.51,1.93-.92,3.63-1.32,5.52a30.12,30.12,0,0,0-2.79-3.63A32.18,32.18,0,0,0,337.25,444.24Zm15.9-35.37c-1.55-10.26-5.92-16.3-12-22.36A145.32,145.32,0,0,0,368.9,391,95,95,0,0,0,353.15,408.87ZM595.5,366.15c11,.16,29.43,7.12,39.22,11.28-3.44,16.42-3.37,17.59-3.37,35.1v2.31c0,35.76,7.9,62.92,20.17,82.11-4.61,1.25-5.88,3.63-10.52,7.37-2.63-8.79-4.46-24.92-5.78-36.54C633.73,454.63,629.8,388.66,595.5,366.15Zm-192.15,178c-.29,1.21-.54,2.33-.77,3.21-30.94,1.51-55.41,10.79-72.39,26.72,5.1-13.33,8.75-35.48,10.63-57.23C352.35,539.72,378.9,553.71,403.35,544.13ZM304.89,371.35q4.38,2.59,9.16,5a33.45,33.45,0,0,0-7.18,1.62A21.51,21.51,0,0,0,304.89,371.35Zm14.4-101.7c-3.87-3.42-7.38-6.74-10.49-9.79-3.62-3.69-6.5-6.82-8.47-9,0-.16.07-.32.1-.49.91-4.86,2-10.81,3.12-17.65A152,152,0,0,0,312,256,118,118,0,0,0,319.29,269.65Z"/><path class="Graphic-Style-2" d="M189.23,21.32C127.44,21.32,47.49,110,47.49,220.58c0,85.29,62.91,152.36,125.44,152.36,57.35,0,87.72-58.38,87.72-58.38s37,62.42,114.8,62.42c78.59,0,100.4-72.72,83.92-80.09a4.22,4.22,0,0,0-4.4.6c-16,13.15-39.46,25.41-64.15,22.14-55.22-7.34-106.6-70.25-105.58-69.18,2.31-13,8.23-39.67,8.23-71.78,0-108.25-63.75-115.44-63.75-115.44,0-1.1,1.43-3.44,1.43-8.91C231.15,30.77,212.79,21.32,189.23,21.32Zm21.46,44.49s-13.3,4.44-13.3,18c0,4.43,2,8.93,7.51,12.35,27.83,17.26,30.44,63.17,30.44,96,0,15.36-.72,29.47-1.9,30.6-21.82-3-48.42,4.17-57.53,20.55-4.94,8.88-4.45,24.11,4.19,27.34a4.32,4.32,0,0,0,5.3-2c6.95-12.86,38.44-5.84,38.44-.21,0,1.57-11.29,33.55-42.6,33.55-35.37,0-55.45-53.64-55.45-96.56C125.79,90.78,210.69,45.2,210.69,65.81ZM508.3,107.73c-32.2,0-31.73-50.84,2.81-50.84C541.52,56.89,539.62,107.73,508.3,107.73ZM445.08,223c-5,55.39-39.67,75-71.38,72.11-47-4.27-69.79-70.5-64.91-124.26,4.64-51.06,31.27-70.26,49.59-68.6,13.78,1.25,18.32,8.51,22.42,18.39,11.6,27.94-.1,112.92,13.63,114.17,29.42,2.67-1.86-129.54,32.42-129C458,106.29,446.79,204.08,445.08,223Zm59.26-106.8c8.29,1.47,15.58,8.08,17.17,18.35,1.39,9,.8,22.54.8,44.08A730.49,730.49,0,0,1,517,260.39c-2.06,16.43-17.73,26.27-29,26.27-15.06,0-30-13.45-30-29.38,0-4.9,5-94.94,23.17-128.63C486.77,118.36,496.05,114.68,504.34,116.15Zm128.08,4.64c5.6,0,6.39-1.54,11.86-1.54,11.06,0,17.64,8.11,17.72,20.42.06,10.93-21.22,29.26-34.27,49.51-12.31,19.11-20,42.53-20,44,0,1.06,33.55,8.85,49,8.85,39.24,0,55.32-24.08,61.49-38.21a4.37,4.37,0,0,1,4.48-2.59c33.08,3.6,9.37,96.65-72.87,96.65-32.55,0-59.34-18.73-80.35-18.73-8.51,0-16.91,4.22-23.37,4.22-8.31,0-11.41-11.12-11.41-12.29,0-2.29,22.83-77.29,58.49-119.46,0-1.07-21.1-8.42-28.48-6.38-14.7,4.08-14.55,12-20,12-7.35,0-10.07-10-10.07-17.45,0-8.48,7.58-30.8,37.85-30.8C598.24,109,617.55,120.79,632.42,120.79ZM757.84,363.38c-15.77,8.5-32,12.93-60.71,12.28-4.83,19.17,1.19,96,23.5,95.94,24.42,0,26.51-27.61,28.26-47.22-.17,1.88,1.09-1.87,1.83-2,14.3-2.62,27.47,19,22.54,42.7-5.6,27-32.15,56.86-62.62,56.86-32.58,0-68.72-32.7-68.72-107.1,0-22.42-.21-18.21,5.46-45.7,0,.71-20.81-10.73-45.87-16.46-9.48-2.16-34.12-.1-41,3.84-6.26-3.2-7-16.37,5.62-25.65,7.39-5.41,19.35-9.5,37.47-9.5s59.23,8.94,59.23,8.94c-12-2.39.19.27.35-.05,3.64-7.22,10.1-27.32,23.78-23.89,9.79,2.46,11,20.34,10.82,27.61,24.22,2.43,36.11-1.74,48.39-8.32,23.15-12.4,28.84-33.38,31.22-34.92C799.58,276.21,808.66,336,757.84,363.38Zm-256.09-46.3a19.43,19.43,0,0,1,12,4.1c10.44,9.21,9.66,30.17,16.5,67.35,0,0,17.9-19.22,37.74-19.22,69.84,0,40.41,147.68,70.87,147.68,4.79,0,10.5-5.5,14.25-9a2.58,2.58,0,0,1,2.06-.67c18.93,2.15,9.74,53.76-36.45,53.76-89.46,0-61.33-161.82-61.33-161.82-3.14,0-17.48,9.2-22.9,16.66-.06.08-4.63,85.7-9.59,102.89a14.05,14.05,0,0,1-14,10.51c-35.15,0-35.17-76.7-35.17-111.8v-.15c0-16.31,2.15-67.27,11.42-90.55C490.06,319.53,496.06,317.08,501.75,317.08ZM213.61,406.46c27.87-73.44,79.09-45.31,79.09-29.6-14.08,15.84-24.4,37.55-30.8,60.8C236.42,530.14,250,574.31,229.58,585.11,172.65,615.22,123.8,463.64,122.87,462.57c-2.77,5.32-17.59,100.62-51.07,119.29-20.42,11.4-42.41.59-49.18-6.44a4.39,4.39,0,0,1-.33-5.72c5.63-7.4,23.49-34.24,36.2-91.23,5.88-26.37,10.67-53.23,18.22-74.81,7.41-21.17,16.22-35.44,29-35.44,37.63,0,79.32,133.2,89.35,133.2C197.8,463.26,205.92,426.74,213.61,406.46Zm80.53,5.69c0-13.74,9.88-25.25,23.95-25.25,13.39,0,21.18,12.33,21.18,24.4,0,11.54-7.12,22.84-23.28,22.84C302,434.14,294.14,424.34,294.14,412.15Zm84.92,120.67c22.52,3.7,42.3-21.4,41.63-21.4-3.18,18.63-7.83,43.81-10.52,46.5-1.07,1.07-96.65-6.59-96.65,87.81,0,29.28,25.72,42.36,43.24,42.36,56,0,89.87-51,89.87-51,48.68,30.16,124,41.43,176.86,16.61,61.49-28.85,63.73-93.32,38.67-93.32a193.55,193.55,0,0,1-56.72,30.14c-39.41,12.76-72.4,11-137.27-14.36,3.28-33.15,6.94-115.77-24.83-118-12.56-.88-19.46,10.27-20.17,23-1.86,3.5-14.81,17.77-23.93,17.77-7.44,0-13.4-10.57-7.61-43.24,4.16-23.48,15.68-45.24,31.26-42.08,8.06,1.64,12.69,7.37,13.17,22a1.92,1.92,0,0,0,.7,1.42c.43.35,1,.29,1.54.41,22.21,4.84,34.81-49.85-17.25-54.4-31.12-2.73-64.36,23.67-74.28,67.83C341.49,474.39,338.47,526.15,379.06,532.82Zm17.74,64.6c-8.49,25.48-38.22,65.14-48.84,56.27C327,636.17,380.34,594.76,396.8,597.42Zm-111-142.81c4.75-8.39,12.5-11.44,24.08-10.63,6.42.45,13.11,5,15.92,13.11,6.1,17.45-1,103.6-12.59,116.09-5.56,6-16.22,7.45-23.52,6.44-7.79-1.08-13.62-3.93-17.84-8.15C256.46,556,278,468.44,285.84,454.61Z"/><path class="cls-2" d="M356.76,683.76c-16.16,0-38.91-11.8-38.91-38,0-70.66,56.22-82.53,89.72-83.31,3.15-.08,4.33-.11,5.66-1.43,1.62-1.63,4.07-4.08,11.71-48.71a4.34,4.34,0,0,0-2.92-4.85,4.18,4.18,0,0,0-1.35-.21,4.33,4.33,0,0,0-3.87,2.38c-1.44,2.24-16.42,19.26-33.14,19.26h0a23.93,23.93,0,0,1-3.89-.31c-9.93-1.63-17.64-6.42-22.89-14.22-11-16.34-10.06-43.89-5.88-62.51,8.41-37.46,36-64.65,65.65-64.65,1.35,0,2.69.06,4,.18,24.81,2.17,33.07,16.32,32.52,28.83-.42,9.5-5.86,17.23-12.14,17.23a6.74,6.74,0,0,1-.77,0c-.57-9.53-3.28-21.31-16.54-24a19.54,19.54,0,0,0-3.87-.39c-18,0-28.76,24.75-32.51,46-3.95,22.24-3,37,2.83,44a11.53,11.53,0,0,0,9,4.34c11.6,0,25.65-16.1,27.76-20.07a4.36,4.36,0,0,0,.49-1.79c.49-8.75,4.57-19,14.47-19,.35,0,.71,0,1.08,0,3.78.27,7,2,9.89,5.45,14.27,16.91,14.8,68.64,10.93,107.81a4.33,4.33,0,0,0,2.73,4.46c40.22,15.72,68.1,22.42,93.23,22.42,15.23,0,30.15-2.53,46.95-8a198.41,198.41,0,0,0,56.77-29.83c5.57.84,7.74,6.77,8.55,10.41,4.14,18.59-9,55.13-50.44,74.56-18.4,8.63-40.89,13.19-65.07,13.19-37.54,0-77.79-11.05-107.67-29.56a4.32,4.32,0,0,0-5.88,1.28C442.7,635.18,409.68,683.76,356.76,683.76ZM395.18,593c-15.53,0-47.65,22.95-54.85,42.78-3.09,8.52-1.37,16.08,4.85,21.28a9.91,9.91,0,0,0,6.4,2.27c15.82,0,41.55-37.16,49.33-60.5a4.34,4.34,0,0,0-3.42-5.65A15.25,15.25,0,0,0,395.18,593Zm-180.8-8.22c-27.06,0-58.49-43.91-86.25-120.48-1.37-3.78-1.39-3.85-2-4.55a4.34,4.34,0,0,0-3.25-1.47,4.71,4.71,0,0,0-.53,0,4.37,4.37,0,0,0-3.31,2.3c-.75,1.43-1.38,4.14-3.27,12.47-5.63,24.84-20.57,90.82-46.07,105a34.72,34.72,0,0,1-17.1,4.42c-12.48,0-23.09-6.18-26.85-10.08,5.39-7.19,24-34.84,37-93,1.38-6.21,2.71-12.44,4-18.63,4.31-20.28,8.38-39.44,14.06-55.69,7.76-22.2,15.67-32.54,24.88-32.54,22,0,49.29,59.4,65.58,94.88C185.73,499,189.37,505.76,195,505.76a4.34,4.34,0,0,0,4.32-4c2.82-38.84,11.23-75.07,18.31-93.74,15-39.54,35.48-45.44,46.35-45.44,12.85,0,22.55,7.85,24.13,12.94-13.14,15.37-23.64,36.41-30.42,61-12.33,44.75-15.55,77.93-17.9,102.16-2.38,24.56-3.7,38.09-12.26,42.62a27.94,27.94,0,0,1-13.18,3.46Zm79.78-9.16a29.38,29.38,0,0,1-3.84-.25c-6.59-.91-11.62-3.17-15.36-6.92-12.45-12.45,5.57-95.62,14.65-111.67,3.39-6,8.43-8.55,16.84-8.55,1,0,2.07,0,3.16.11,4.06.29,9.67,3.13,12.14,10.22,5.67,16.21-1.4,100.68-11.67,111.71C306.41,574.17,299.45,575.58,294.16,575.58Zm324.58-18.81c-16.36,0-29.62-5.9-39.4-17.52C545,498.47,561.51,401,561.68,400a4.32,4.32,0,0,0-4.27-5.07c-5.34,0-20.89,10.86-26.4,18.44-.75,1.05-.75,1.05-1,5.15-4.33,73.29-7.66,93.54-9.26,99.09A9.7,9.7,0,0,1,510.9,525c-30.84,0-30.84-75.31-30.84-107.47,0-20.07,2.72-68,11.12-89.1,1.85-4.66,5.41-7,10.57-7a15.18,15.18,0,0,1,9.16,3c6.19,5.46,7.93,17.68,10.56,36.17,1.19,8.33,2.53,17.77,4.55,28.71a4.34,4.34,0,0,0,3,3.38,4.59,4.59,0,0,0,1.21.17,4.33,4.33,0,0,0,3.17-1.38c.17-.17,16.89-17.84,34.57-17.84,38.2,0,44,51.2,48.63,92.33,3.5,30.92,6.26,55.35,22.24,55.35,6.23,0,12.2-5.49,16.59-9.57,4.87,1.16,4.68,9.24,4.59,10.9C659.31,535.84,647.43,556.77,618.74,556.77Zm91.9-39.16c-31,0-64.39-32.16-64.39-102.77v-2.32c0-16.82,0-16.82,3.51-33.56l1.86-8.93a4.34,4.34,0,0,0-2.88-5,3.72,3.72,0,0,0-.62-.15c-.59-.24-1.58-.7-2.91-1.31-7.12-3.23-23.79-10.79-42.74-15.12a55.11,55.11,0,0,0-11.65-1c-9.73,0-22.41,1.38-29.55,4a6.59,6.59,0,0,1-.81-2.84c-.31-3.75,1.69-9.47,8.22-14.25,5.39-3.95,15.82-8.66,34.9-8.66,12,0,36.41,4.34,52.35,7.59a24.85,24.85,0,0,0,5.93,1.24h.1a8.5,8.5,0,0,0,1.06.08,4.58,4.58,0,0,0,4-2.43c.53-1.06,1.13-2.4,1.81-3.92,3-6.71,8-18,15-18a7.93,7.93,0,0,1,2,.27c5.22,1.31,7.74,12.72,7.54,23.32a4.31,4.31,0,0,0,3.89,4.39c4.77.48,9.27.72,13.37.72h0c16.41,0,26.52-3.64,37.5-9.53,18.88-10.12,26.79-25.43,30.6-32.79.48-.94,1.06-2.06,1.4-2.61a7.58,7.58,0,0,1,3.72-1.25c3.84,0,5.59,5.76,6,7.53,3.76,14.91-4.35,43.13-34.18,59.21-13.16,7.09-27.24,11.82-53.22,11.82-1.72,0-3.5,0-5.33-.06h-.1a4.33,4.33,0,0,0-4.2,3.27c-3.92,15.59-1.26,73.72,14.46,93.89,3.85,4.94,8.3,7.44,13.23,7.44,27.58,0,30.63-29.31,32.42-49.31,0-.05.05-.09.07-.13,3.33,0,6.78,2,9.72,5.61,6.22,7.65,8.65,20.24,6.19,32.1C763.78,489.46,738.52,517.61,710.64,517.61ZM316,429.81c-10.64,0-17.52-6.93-17.52-17.66,0-11.93,8.43-20.92,19.62-20.92a15.16,15.16,0,0,1,12.21,6,23,23,0,0,1,4.64,14.05C334.94,420.24,330,429.81,316,429.81Zm59.46-57.16c-74.29,0-110.72-59.7-111.08-60.31a4.33,4.33,0,0,0-3.72-2.11h-.12a4.35,4.35,0,0,0-3.72,2.32c-.29.57-29.9,56.06-83.88,56.06-57.28,0-121.11-60.8-121.11-148,0-105,75.56-194.93,137.41-194.93,17.15,0,37.59,5,37.59,28.67a19.51,19.51,0,0,1-.92,6.24,9,9,0,0,0-.51,2.67,4.34,4.34,0,0,0,3.85,4.31c2.43.29,59.9,8.43,59.9,111.13,0,27.61-4.45,51.25-7.12,65.37-.36,1.93-.69,3.68-1,5.25a4,4,0,0,0-.15.86c-.31,4.73,26.8,29.65,33.83,35.54C333,301,360.94,320,390.25,323.92a67,67,0,0,0,8.76.57c26.07,0,48-14.82,58.72-23.66,2,1,3.4,6.41,1.66,14.56C454.48,338.4,428.07,372.65,375.45,372.65Zm-170.26-316c-19.5,0-83.73,46.37-83.73,148.75,0,62.32,31,100.89,59.78,100.89,34.37,0,46.93-34.94,46.93-37.88,0-8.51-17.44-11.38-25.39-11.38-10.34,0-17.87,3.39-21.19,9.53-1.52-.58-2.71-2-3.52-4.17-1.78-4.83-1.08-12.15,1.63-17,7.29-13.11,27.27-19,43.83-19a69.4,69.4,0,0,1,9.33.62,5.63,5.63,0,0,0,.58,0,4.32,4.32,0,0,0,3-1.2c1.21-1.16,3.23-3.11,3.23-33.73,0-37-3.69-81.8-32.48-99.65-3.68-2.28-5.47-5.12-5.47-8.68,0-10.33,10.23-13.86,10.34-13.9A4.33,4.33,0,0,0,215,65.81C215,60.26,211.16,56.68,205.19,56.68ZM649.85,293.54c-17.3,0-33.29-5.66-47.39-10.65-11.75-4.15-22.86-8.08-33-8.08-5.12,0-10,1.31-14.38,2.47-3.37.9-6.55,1.75-9,1.75-4.2,0-6.5-6.07-7-7.94,1.93-8,24.32-77.58,57.4-116.69a4.34,4.34,0,0,0,1-2.8c0-7.22-26.44-11.06-29.6-11.06a16.16,16.16,0,0,0-4.37.52c-9.76,2.7-13.89,7-16.63,9.91-1.36,1.42-1.87,1.9-2.22,1.9-3.54,0-5.74-6.81-5.74-13.12,0-6.87,6.16-26.47,33.52-26.47,14,0,26.07,3.69,36.74,6.94,8.64,2.63,16.1,4.9,23.17,4.9a26.51,26.51,0,0,0,7-.9,17.24,17.24,0,0,1,4.82-.64c12,0,13.35,11.27,13.38,16.12,0,5-8,14.69-15.83,24-5.84,7-12.46,14.91-17.74,23.1-12.44,19.32-20.71,43.6-20.71,46.34,0,3.44,0,4.6,22.18,9.07,7.63,1.53,21.81,4.11,31.19,4.11,41.45,0,58.8-25.57,65.46-40.8,10.67,1.13,10.76,14.89,10.53,19.08C731.44,248.66,705.78,293.54,649.85,293.54ZM379.71,291c-1.86,0-3.75-.09-5.62-.26-19.83-1.8-37-16.38-48.37-41.06-10.33-22.43-15-51.77-12.62-78.49,4.32-47.51,28.12-64.76,43.07-64.76a18.18,18.18,0,0,1,1.82.09c10.91,1,14.62,5.65,18.81,15.73,5.2,12.53,5.44,38.76,5.65,61.9.33,35.43,1,54,11.59,54.92q.65.06,1.26.06c17.6,0,17.71-29.81,17.83-64.33.11-28.82.24-64.7,13.5-64.7a9.45,9.45,0,0,1,7.31,3.53c10.38,11.61,12.79,47,7.19,105.1l-.37,3.82C437.76,255.64,420.14,291,379.71,291Zm108.36-8.67c-13.21,0-25.7-12.17-25.7-25.05,0-7.16,5.43-94.68,22.65-126.57,3.62-6.7,9.38-10.54,15.79-10.54a16,16,0,0,1,2.77.25c7.1,1.25,12.46,7,13.65,14.74,1,6.4.92,15.75.82,28.69,0,4.45-.07,9.34-.07,14.73a721.6,721.6,0,0,1-5.24,81.27C510.93,274.33,497,282.33,488.07,282.33ZM508.3,103.4C495,103.4,489,93.28,489,83.25a23.12,23.12,0,0,1,5.5-15.19c4-4.47,9.72-6.84,16.62-6.84,5.52,0,9.89,2,13,5.8a22,22,0,0,1,4.44,13.84C528.56,92.06,521.6,103.4,508.3,103.4Z"/><path class="Graphic-Style-2" d="M356.76,687.51c-16.16,0-38.91-11.81-38.91-38,0-70.66,56.22-82.53,89.72-83.31,3.15-.08,4.33-.1,5.66-1.43,1.62-1.62,4.07-4.08,11.71-48.71a4.34,4.34,0,0,0-2.92-4.85,4.47,4.47,0,0,0-1.35-.21,4.35,4.35,0,0,0-3.87,2.38c-1.44,2.24-16.42,19.27-33.14,19.27h0a25.1,25.1,0,0,1-3.89-.32c-9.93-1.63-17.64-6.41-22.89-14.21-11-16.35-10.06-43.89-5.88-62.52,8.41-37.46,36-64.64,65.65-64.64,1.35,0,2.69.05,4,.17,24.81,2.17,33.07,16.32,32.52,28.83-.42,9.5-5.86,17.23-12.14,17.23l-.77,0c-.57-9.54-3.28-21.32-16.54-24a19.54,19.54,0,0,0-3.87-.39c-18,0-28.76,24.76-32.51,46-3.95,22.24-3,37,2.83,44a11.54,11.54,0,0,0,9,4.35c11.6,0,25.65-16.11,27.76-20.08a4.36,4.36,0,0,0,.49-1.79c.49-8.75,4.57-19,14.47-19,.35,0,.71,0,1.08,0,3.78.27,7,2.05,9.89,5.45,14.27,16.91,14.8,68.64,10.93,107.81a4.32,4.32,0,0,0,2.73,4.46c40.22,15.72,68.1,22.42,93.23,22.42,15.23,0,30.15-2.53,46.95-8a198.41,198.41,0,0,0,56.77-29.83c5.57.84,7.74,6.77,8.55,10.41,4.14,18.59-9,55.13-50.44,74.56-18.4,8.63-40.89,13.2-65.07,13.2-37.54,0-77.79-11.06-107.67-29.57a4.39,4.39,0,0,0-2.27-.64,4.33,4.33,0,0,0-3.61,1.92C442.7,638.93,409.68,687.51,356.76,687.51Zm38.42-90.8c-15.53,0-47.65,22.94-54.85,42.77-3.09,8.52-1.37,16.08,4.85,21.28a9.86,9.86,0,0,0,6.4,2.27c15.82,0,41.55-37.16,49.33-60.5a4.35,4.35,0,0,0-3.42-5.65A15.29,15.29,0,0,0,395.18,596.71Zm-180.8-8.23c-27.06,0-58.49-43.91-86.25-120.47-1.37-3.78-1.39-3.86-2-4.56a4.34,4.34,0,0,0-3.25-1.47,3.15,3.15,0,0,0-.53,0,4.33,4.33,0,0,0-3.31,2.29c-.75,1.43-1.38,4.14-3.27,12.47-5.63,24.84-20.57,90.82-46.07,105a34.63,34.63,0,0,1-17.1,4.43c-12.48,0-23.09-6.19-26.85-10.09,5.39-7.19,24-34.84,37-93,1.38-6.21,2.71-12.44,4-18.63,4.31-20.28,8.38-39.44,14.06-55.69,7.76-22.2,15.67-32.53,24.88-32.53,22,0,49.29,59.39,65.58,94.88,14.47,31.55,18.11,38.32,23.77,38.32a4.33,4.33,0,0,0,4.32-4c2.82-38.84,11.23-75.06,18.31-93.74,15-39.54,35.48-45.44,46.35-45.44,12.85,0,22.55,7.85,24.13,12.94-13.14,15.37-23.64,36.41-30.42,61-12.33,44.74-15.55,77.92-17.9,102.15-2.38,24.56-3.7,38.1-12.26,42.63a28,28,0,0,1-13.18,3.45Zm79.78-9.16a27.74,27.74,0,0,1-3.84-.25c-6.59-.91-11.62-3.17-15.36-6.92-12.45-12.44,5.57-95.62,14.65-111.67,3.39-6,8.43-8.55,16.84-8.55,1,0,2.07,0,3.16.12,4.06.28,9.67,3.12,12.14,10.21,5.67,16.22-1.4,100.68-11.67,111.71C306.41,577.92,299.45,579.32,294.16,579.32Zm324.58-18.81c-16.36,0-29.62-5.9-39.4-17.52-34.3-40.78-17.83-138.25-17.66-139.23a4.32,4.32,0,0,0-4.27-5.07c-5.34,0-20.89,10.86-26.4,18.44-.75,1.06-.75,1.06-1,5.15-4.33,73.29-7.66,93.54-9.26,99.09a9.7,9.7,0,0,1-9.86,7.38c-30.84,0-30.84-75.31-30.84-107.47,0-20.07,2.72-68,11.12-89.1,1.85-4.66,5.41-7,10.57-7a15.11,15.11,0,0,1,9.16,3c6.19,5.45,7.93,17.67,10.56,36.17,1.19,8.32,2.53,17.76,4.55,28.71a4.33,4.33,0,0,0,3,3.37,4.59,4.59,0,0,0,1.21.17,4.32,4.32,0,0,0,3.17-1.37c.17-.18,16.89-17.85,34.57-17.85,38.2,0,44,51.2,48.63,92.33,3.5,30.93,6.26,55.35,22.24,55.35,6.23,0,12.2-5.48,16.59-9.57,4.87,1.16,4.68,9.24,4.59,10.9C659.31,539.58,647.43,560.51,618.74,560.51Zm91.9-39.16c-31,0-64.39-32.16-64.39-102.76v-2.33c0-16.81,0-16.81,3.51-33.55l1.86-8.94a4.35,4.35,0,0,0-2.88-5,3.72,3.72,0,0,0-.62-.15c-.59-.24-1.58-.7-2.91-1.31-7.12-3.22-23.79-10.79-42.74-15.12a55.11,55.11,0,0,0-11.65-1c-9.73,0-22.41,1.38-29.55,4a6.55,6.55,0,0,1-.81-2.84c-.31-3.75,1.69-9.46,8.22-14.24,5.39-4,15.82-8.67,34.9-8.67,12,0,36.41,4.34,52.35,7.59a24.37,24.37,0,0,0,5.93,1.24h.1a8.5,8.5,0,0,0,1.06.08,4.58,4.58,0,0,0,4-2.43c.53-1.05,1.13-2.4,1.81-3.92,3-6.71,8-17.95,15-17.95a7.91,7.91,0,0,1,2,.26c5.22,1.31,7.74,12.72,7.54,23.32a4.33,4.33,0,0,0,3.89,4.4c4.77.47,9.27.72,13.37.72h0c16.41,0,26.52-3.65,37.5-9.54,18.88-10.11,26.79-25.43,30.6-32.79.48-.93,1.06-2.05,1.4-2.61a7.58,7.58,0,0,1,3.72-1.25c3.84,0,5.59,5.76,6,7.53,3.76,14.91-4.35,43.14-34.18,59.22-13.16,7.09-27.24,11.81-53.22,11.81-1.72,0-3.5,0-5.33-.06h-.1a4.33,4.33,0,0,0-4.2,3.27c-3.92,15.6-1.26,73.72,14.46,93.89,3.85,4.94,8.3,7.44,13.23,7.44,27.58,0,30.63-29.31,32.42-49.31,0-.05.05-.09.07-.13,3.33,0,6.78,2,9.72,5.62,6.22,7.64,8.65,20.24,6.19,32.09C763.78,493.2,738.52,521.35,710.64,521.35ZM316,433.55c-10.64,0-17.52-6.93-17.52-17.65,0-11.93,8.43-20.93,19.62-20.93a15.18,15.18,0,0,1,12.21,6A23,23,0,0,1,334.94,415C334.94,424,330,433.55,316,433.55Zm59.46-57.16c-74.29,0-110.72-59.7-111.08-60.3a4.32,4.32,0,0,0-3.72-2.12h-.12a4.36,4.36,0,0,0-3.72,2.33c-.29.56-29.9,56.05-83.88,56.05-57.28,0-121.11-60.79-121.11-148,0-105,75.56-194.93,137.41-194.93,17.15,0,37.59,5,37.59,28.68a19.44,19.44,0,0,1-.92,6.23,9.1,9.1,0,0,0-.51,2.67,4.34,4.34,0,0,0,3.85,4.31c2.43.29,59.9,8.43,59.9,111.13,0,27.61-4.45,51.25-7.12,65.37-.36,1.93-.69,3.68-1,5.25a4.07,4.07,0,0,0-.15.86c-.31,4.73,26.8,29.65,33.83,35.54,18.28,15.29,46.21,34.34,75.52,38.23a67,67,0,0,0,8.76.58c26.07,0,48-14.83,58.72-23.67,2,1,3.4,6.41,1.66,14.56C454.48,342.15,428.07,376.39,375.45,376.39Zm-170.26-316c-19.5,0-83.73,46.37-83.73,148.75,0,62.32,31,100.89,59.78,100.89,34.37,0,46.93-34.94,46.93-37.87,0-8.52-17.44-11.39-25.39-11.39-10.34,0-17.87,3.39-21.19,9.53-1.52-.58-2.71-2-3.52-4.17-1.78-4.83-1.08-12.15,1.63-17,7.29-13.1,27.27-19,43.83-19a69.4,69.4,0,0,1,9.33.62,5.65,5.65,0,0,0,.58,0,4.33,4.33,0,0,0,3-1.21c1.21-1.16,3.23-3.1,3.23-33.73,0-37-3.69-81.8-32.48-99.65-3.68-2.28-5.47-5.12-5.47-8.68,0-10.33,10.23-13.86,10.34-13.9a4.33,4.33,0,0,0,2.95-4.1C215,64,211.16,60.42,205.19,60.42ZM649.85,297.28c-17.3,0-33.29-5.66-47.39-10.64-11.75-4.16-22.86-8.09-33-8.09-5.12,0-10,1.31-14.38,2.47-3.37.9-6.55,1.75-9,1.75-4.2,0-6.5-6.07-7-7.94,1.93-8,24.32-77.58,57.4-116.69a4.33,4.33,0,0,0,1-2.79c0-7.23-26.44-11.06-29.6-11.06a16.19,16.19,0,0,0-4.37.51c-9.76,2.71-13.89,7-16.63,9.91-1.36,1.42-1.87,1.9-2.22,1.9-3.54,0-5.74-6.81-5.74-13.12,0-6.87,6.16-26.47,33.52-26.47,14,0,26.07,3.69,36.74,6.94,8.64,2.63,16.1,4.91,23.17,4.91a26,26,0,0,0,7-.91,17.24,17.24,0,0,1,4.82-.64c12,0,13.35,11.27,13.38,16.12,0,5-8,14.69-15.83,24-5.84,7-12.46,14.91-17.74,23.1-12.44,19.32-20.71,43.6-20.71,46.34,0,3.44,0,4.6,22.18,9.07,7.63,1.54,21.81,4.11,31.19,4.11,41.45,0,58.8-25.56,65.46-40.8,10.67,1.13,10.76,14.89,10.53,19.09C731.44,252.4,705.78,297.28,649.85,297.28Zm-270.14-2.54c-1.86,0-3.75-.08-5.62-.25-19.83-1.81-37-16.39-48.37-41.07-10.33-22.43-15-51.77-12.62-78.49,4.32-47.51,28.12-64.75,43.07-64.75a18.2,18.2,0,0,1,1.82.08c10.91,1,14.62,5.65,18.81,15.73,5.2,12.53,5.44,38.76,5.65,61.9.33,35.43,1,54,11.59,54.92q.65.06,1.26.06c17.6,0,17.71-29.81,17.83-64.33.11-28.82.24-64.69,13.5-64.69a9.41,9.41,0,0,1,7.31,3.52c10.38,11.61,12.79,47,7.19,105.1l-.37,3.83C437.76,259.38,420.14,294.74,379.71,294.74Zm108.36-8.66c-13.21,0-25.7-12.18-25.7-25.05,0-7.17,5.43-94.69,22.65-126.58,3.62-6.69,9.38-10.53,15.79-10.53a16,16,0,0,1,2.77.24c7.1,1.26,12.46,7.05,13.65,14.75,1,6.39.92,15.74.82,28.68,0,4.45-.07,9.34-.07,14.73a721.6,721.6,0,0,1-5.24,81.27C510.93,278.07,497,286.08,488.07,286.08ZM508.3,107.14C495,107.14,489,97,489,87a23.09,23.09,0,0,1,5.5-15.18c4-4.48,9.72-6.85,16.62-6.85,5.52,0,9.89,2,13,5.8a22,22,0,0,1,4.44,13.84C528.56,95.8,521.6,107.14,508.3,107.14Z"/></g></g></svg>