<svg xmlns="http://www.w3.org/2000/svg" xmlns:xlink="http://www.w3.org/1999/xlink" viewBox="0 0 291.54 10.44"><defs><style>.cls-1{fill:#2e3363;}.cls-2{fill:#464b94;}.cls-3{fill:#8e94e8;}.cls-4{fill:url(#linear-gradient);}</style><linearGradient id="linear-gradient" x1="145.76" y1="-1.45" x2="145.84" y2="13.47" gradientUnits="userSpaceOnUse"><stop offset="0.06" stop-color="#5a5ece"/><stop offset="1" stop-color="#464b94"/></linearGradient></defs><title>Asset 2</title><g id="Layer_2" data-name="Layer 2"><g id="Layer_19" data-name="Layer 19"><path class="cls-1" d="M0,.08H291.53a6.6,6.6,0,0,1-6.62,6.43L6.57,6.53A6.57,6.57,0,0,1,0,.08Z"/><path class="cls-2" d="M291.53.08a.22.22,0,0,0,0-.08V3.91A6.56,6.56,0,0,1,287.17,10h0a6.46,6.46,0,0,1-2.25.4l-278.34,0a6.42,6.42,0,0,1-1.71-.23A6.55,6.55,0,0,1,0,3.93V.08Z"/><path class="cls-3" d="M0,.08H291.53a6.6,6.6,0,0,1-6.62,6.43L6.57,6.53A6.57,6.57,0,0,1,0,.08Z"/><path class="cls-4" d="M291.54,0V.7a6,6,0,0,1-.45,2.23,6.69,6.69,0,0,1-6.18,4H6.57a6.59,6.59,0,0,1-6.14-4A5.85,5.85,0,0,1,0,.71V.08H291.53A.22.22,0,0,0,291.54,0Z"/><path class="cls-3" d="M291.4,1.91A5.41,5.41,0,0,0,291.54.7V0a.22.22,0,0,1,0,.08H0V.71a6,6,0,0,0,.12,1.2Z"/></g></g></svg>