<svg xmlns="http://www.w3.org/2000/svg" xmlns:xlink="http://www.w3.org/1999/xlink" width="48.08" height="46.02" viewBox="0 0 48.08 46.02"><defs><filter id="a" x="0" y="0" width="48.08" height="46.02" filterUnits="userSpaceOnUse"><feOffset dy="3" input="SourceAlpha"/><feGaussianBlur stdDeviation="3" result="b"/><feFlood flood-opacity="0.161"/><feComposite operator="in" in2="b"/><feComposite in="SourceGraphic"/></filter></defs><g transform="matrix(1, 0, 0, 1, 0, 0)" filter="url(#a)"><path d="M11.532,3.008c1.767-.264,3.64,1.742,4.179,4.511.539,2.753-.434,5.21-2.2,5.49s-3.64-1.726-4.194-4.495c-.554-2.753.449-5.21,2.217-5.506m10.71,0c1.782.3,2.771,2.753,2.247,5.506-.569,2.769-2.442,4.775-4.209,4.495s-2.756-2.737-2.2-5.49c.539-2.769,2.412-4.775,4.164-4.511M3.518,10.163c1.708-.762,4.029.622,5.243,3.033,1.138,2.457.749,5.039-.944,5.8s-4-.607-5.183-3.048-.764-5.039.884-5.786m26.962,0c1.648.747,2.067,3.344.884,5.786S27.874,19.759,26.181,19s-2.082-3.344-.944-5.8c1.213-2.411,3.535-3.8,5.243-3.033m-2.5,16.767a4.247,4.247,0,0,1-2.307,3.686c-2.681,1.275-5.857-1.369-8.837-1.369S10.648,32,8.012,30.616a4.756,4.756,0,0,1-2.337-4.464c.27-2.317,2.951-3.562,4.539-5.257,2.112-2.193,3.61-6.315,6.621-6.315s4.583,4.059,6.606,6.315C25.1,22.792,27.874,24.394,27.978,26.93Z" transform="translate(7.04 3.02)" fill="#fff"/></g></svg>