<svg xmlns="http://www.w3.org/2000/svg" xmlns:xlink="http://www.w3.org/1999/xlink" width="547" height="189" viewBox="0 0 547 189"><defs><style>.a,.d,.e{fill:#fff;}.b{clip-path:url(#a);}.c{opacity:0.4;}.d{opacity:0.6;}.e{opacity:0.5;}</style><clipPath id="a"><rect class="a" width="547" height="189" transform="translate(18609 -13538)"/></clipPath></defs><g class="b" transform="translate(-18609 13538)"><g transform="translate(18584.008 -13545.742)"><g transform="translate(6.191 0)"><g class="c"><path class="d" d="M147.668,34.286a.787.787,0,1,1,0-1.114A.785.785,0,0,1,147.668,34.286Z" transform="translate(343.972 86.733)"/><path class="e" d="M142.2,40.143a.659.659,0,1,1,0-.93A.66.66,0,0,1,142.2,40.143Z" transform="translate(331.39 101.293)"/><path class="a" d="M140.562,44.072a.379.379,0,0,1-.537-.536.383.383,0,0,1,.537,0A.377.377,0,0,1,140.562,44.072Z" transform="translate(328.619 111.848)"/><path class="a" d="M141.742,47.473a1.019,1.019,0,1,1,0-1.44A1.023,1.023,0,0,1,141.742,47.473Z" transform="translate(328.83 117.374)"/><path class="e" d="M130.268,41.01a.777.777,0,1,1,0-1.1A.775.775,0,0,1,130.268,41.01Z" transform="translate(302.338 102.891)"/><path class="d" d="M115.221,62.637a.917.917,0,1,1,0-1.3A.914.914,0,0,1,115.221,62.637Z" transform="translate(265.725 154.118)"/><path class="a" d="M103.52,48.942a1.011,1.011,0,1,1,0-1.429A1.012,1.012,0,0,1,103.52,48.942Z" transform="translate(237.313 120.93)"/><path class="a" d="M102.321,47.378a.223.223,0,1,1,0-.316A.228.228,0,0,1,102.321,47.378Z" transform="translate(237.659 120.402)"/><path class="a" d="M113.478,55.279a.915.915,0,1,1,0-1.294A.916.916,0,0,1,113.478,55.279Z" transform="translate(261.559 136.502)"/><circle class="a" cx="1.126" cy="1.126" r="1.126" transform="translate(341.338 134.943)"/><circle class="e" cx="0.578" cy="0.578" r="0.578" transform="translate(362.353 133.664)"/><circle class="a" cx="0.446" cy="0.446" r="0.446" transform="translate(369.91 106.025)"/><path class="a" d="M127.135,24.984a.945.945,0,1,1,0-1.334A.945.945,0,0,1,127.135,24.984Z" transform="translate(294.147 63.813)"/><path class="d" d="M126.612,20.214a.831.831,0,1,1,0-1.175A.828.828,0,0,1,126.612,20.214Z" transform="translate(293.366 52.849)"/><path class="a" d="M137.833,8.866a.762.762,0,1,1,0-1.08A.758.758,0,0,1,137.833,8.866Z" transform="translate(320.523 25.949)"/><path class="e" d="M121.769,6.255a1.092,1.092,0,1,1,0-1.545A1.09,1.09,0,0,1,121.769,6.255Z" transform="translate(280.689 18.343)"/><circle class="a" cx="1.191" cy="1.191" r="1.191" transform="translate(387.869 24.942)"/><path class="e" d="M121.7,1.481a1.154,1.154,0,1,1,0-1.633A1.156,1.156,0,0,1,121.7,1.481Z" transform="translate(280.279 6.66)"/><path class="d" d="M95.026,2.011a.591.591,0,0,1-.835-.835.6.6,0,0,1,.835,0A.59.59,0,0,1,95.026,2.011Z" transform="translate(218.685 10.236)"/><path class="e" d="M91.989,10.916a.313.313,0,1,1,0-.441A.311.311,0,0,1,91.989,10.916Z" transform="translate(212.545 32.7)"/><path class="a" d="M90.6,21.644a1.133,1.133,0,1,1,0-1.6A1.129,1.129,0,0,1,90.6,21.644Z" transform="translate(205.866 55.036)"/><path class="e" d="M86.178,21.54a.762.762,0,1,1,0-1.08A.764.764,0,0,1,86.178,21.54Z" transform="translate(196.791 56.308)"/><path class="e" d="M87.047,28.449a.489.489,0,1,1,0-.689A.492.492,0,0,1,87.047,28.449Z" transform="translate(199.987 73.981)"/><circle class="d" cx="0.948" cy="0.948" r="0.948" transform="translate(243.397 63.614)"/><path class="a" d="M72.919,21.7a.526.526,0,1,1,0-.744A.523.523,0,0,1,72.919,21.7Z" transform="translate(165.992 57.662)"/><circle class="a" cx="1.012" cy="1.012" r="1.012" transform="translate(225.34 84.003)"/><path class="a" d="M59.64,21.514a.314.314,0,0,1-.438,0,.309.309,0,1,1,.438,0Z" transform="translate(135.075 58.102)"/><path class="e" d="M53.27,25.121a1.126,1.126,0,1,1,0-1.592A1.129,1.129,0,0,1,53.27,25.121Z" transform="translate(116.478 63.395)"/><path class="e" d="M48.969,37.082a.918.918,0,1,1,0-1.3A.918.918,0,0,1,48.969,37.082Z" transform="translate(107.021 92.901)"/><circle class="a" cx="1.24" cy="1.24" r="1.24" transform="translate(164.59 91.351)"/><path class="d" d="M56.951,14.549a.543.543,0,1,1,0-.767A.545.545,0,0,1,56.951,14.549Z" transform="translate(127.68 40.462)"/><path class="a" d="M61.911,6.045a.34.34,0,0,1-.475,0,.336.336,0,0,1,.475-.475A.34.34,0,0,1,61.911,6.045Z" transform="translate(140.402 20.933)"/><path class="a" d="M74.609,16.277a.267.267,0,0,1-.384,0,.271.271,0,0,1,.384-.384A.267.267,0,0,1,74.609,16.277Z" transform="translate(171.086 45.711)"/><path class="a" d="M71.615,5.128a.631.631,0,1,1,0-.893A.629.629,0,0,1,71.615,5.128Z" transform="translate(162.438 17.528)"/><path class="a" d="M72.613,2.843a.254.254,0,1,1,0-.36A.25.25,0,0,1,72.613,2.843Z" transform="translate(166.367 13.593)"/><path class="e" d="M85.654,10.689a.891.891,0,1,1,0-1.26A.894.894,0,0,1,85.654,10.689Z" transform="translate(195.004 29.786)"/><circle class="e" cx="0.387" cy="0.387" r="0.387" transform="translate(292.742 10.253)"/><path class="e" d="M54.276-1.319a.428.428,0,0,1-.6,0,.43.43,0,0,1,0-.6.428.428,0,0,1,.6,0A.424.424,0,0,1,54.276-1.319Z" transform="translate(121.747 2.931)"/><path class="e" d="M54.569,8.837a.557.557,0,0,1-.788-.788.551.551,0,0,1,.788,0A.557.557,0,0,1,54.569,8.837Z" transform="translate(121.913 26.714)"/><path class="e" d="M47.341,10.736a.427.427,0,1,1,0-.6A.428.428,0,0,1,47.341,10.736Z" transform="translate(105.132 31.8)"/><circle class="a" cx="0.699" cy="0.699" r="0.699" transform="translate(123.917 66.239)"/><circle class="a" cx="0.465" cy="0.465" r="0.465" transform="translate(63.833 62.698)"/><path class="a" d="M22.278,18.125a.886.886,0,1,1,0-1.253A.885.885,0,0,1,22.278,18.125Z" transform="translate(43.22 47.621)"/><path class="e" d="M105.458-1.937a.215.215,0,0,1-.306,0,.215.215,0,0,1,0-.306.215.215,0,0,1,.306,0A.215.215,0,0,1,105.458-1.937Z" transform="translate(245.204 2.306)"/><path class="a" d="M108.932-1.119a.353.353,0,0,1-.5,0,.353.353,0,0,1,0-.5.353.353,0,0,1,.5,0A.352.352,0,0,1,108.932-1.119Z" transform="translate(252.976 3.716)"/><path class="a" d="M124.065,12.046a.582.582,0,1,1,0-.822A.584.584,0,0,1,124.065,12.046Z" transform="translate(288.273 34.306)"/><path class="e" d="M134.9,14.881a.732.732,0,1,1,0-1.036A.728.728,0,0,1,134.9,14.881Z" transform="translate(313.629 40.482)"/><circle class="a" cx="0.524" cy="0.524" r="0.524" transform="translate(465.014 46.863)"/><path class="a" d="M139.876,24.09a1.121,1.121,0,1,1,0-1.586A1.121,1.121,0,0,1,139.876,24.09Z" transform="translate(323.946 60.953)"/><path class="e" d="M150.76,17.906a.507.507,0,1,1,0-.716A.508.508,0,0,1,150.76,17.906Z" transform="translate(352.53 48.649)"/><path class="d" d="M149.142,22.885a.715.715,0,1,1,0-1.012A.717.717,0,0,1,149.142,22.885Z" transform="translate(347.802 59.716)"/><circle class="d" cx="0.313" cy="0.313" r="0.313" transform="translate(480.66 136.028)"/><circle class="e" cx="0.708" cy="0.708" r="0.708" transform="translate(506.621 146.773)"/><path class="e" d="M158.971,43.5a.3.3,0,1,1-.428-.428.3.3,0,0,1,.428.428Z" transform="translate(373.03 110.789)"/><path class="a" d="M55.273,2.194a1.073,1.073,0,1,1,0-1.518A1.076,1.076,0,0,1,55.273,2.194Z" transform="translate(121.486 8.694)"/><path class="a" d="M50.746,12.436a.577.577,0,1,1,0-.815A.576.576,0,0,1,50.746,12.436Z" transform="translate(112.67 35.257)"/><path class="d" d="M59.948,17.923a1.059,1.059,0,1,1,0-1.5A1.057,1.057,0,0,1,59.948,17.923Z" transform="translate(132.75 46.435)"/><path class="e" d="M106.014,53.027a.676.676,0,1,1,0-.954A.676.676,0,0,1,106.014,53.027Z" transform="translate(244.649 132.086)"/><circle class="e" cx="0.749" cy="0.749" r="0.749" transform="translate(366.695 155.871)"/><path class="e" d="M124.762,48.81a.441.441,0,0,1-.625-.621.441.441,0,1,1,.625.621Z" transform="translate(290.524 122.946)"/><path class="d" d="M125.807,41.874a1.077,1.077,0,1,1,0-1.524A1.08,1.08,0,0,1,125.807,41.874Z" transform="translate(290.43 103.731)"/><path class="a" d="M119.151,36.725a.612.612,0,1,1,0-.866A.615.615,0,0,1,119.151,36.725Z" transform="translate(276.385 93.296)"/><path class="e" d="M128.48,41.382a.576.576,0,0,1-.808,0,.571.571,0,0,1,.808-.808A.576.576,0,0,1,128.48,41.382Z" transform="translate(298.894 104.614)"/><path class="e" d="M123.854,34.945a.291.291,0,0,1-.4,0,.286.286,0,0,1,.4-.4A.291.291,0,0,1,123.854,34.945Z" transform="translate(288.984 90.366)"/><circle class="a" cx="0.539" cy="0.539" r="0.539" transform="translate(404.71 90.252)"/><path class="d" d="M137.3,30.5a1.116,1.116,0,1,1,0-1.579A1.113,1.113,0,0,1,137.3,30.5Z" transform="translate(317.809 76.327)"/><path class="e" d="M143.482,27.32a.935.935,0,1,1,0-1.321A.935.935,0,0,1,143.482,27.32Z" transform="translate(333.344 69.447)"/><path class="a" d="M138.457,24.342a.445.445,0,1,1,0-.632A.445.445,0,0,1,138.457,24.342Z" transform="translate(323.308 64.313)"/><path class="a" d="M138.7,16.217a.36.36,0,1,1,0-.509A.357.357,0,0,1,138.7,16.217Z" transform="translate(324.241 45.197)"/><path class="d" d="M146.533,31.284a.8.8,0,1,1,0-1.127A.8.8,0,0,1,146.533,31.284Z" transform="translate(341.214 79.502)"/><path class="a" d="M142.08,35.6a.683.683,0,1,1,0-.968A.678.678,0,0,1,142.08,35.6Z" transform="translate(331.018 90.318)"/><path class="e" d="M137.13,44.21a.858.858,0,1,1,0-1.212A.859.859,0,0,1,137.13,44.21Z" transform="translate(318.438 110.22)"/><path class="a" d="M129.531,48.42a.332.332,0,0,1-.469,0,.326.326,0,0,1,0-.469.331.331,0,0,1,.469.469Z" transform="translate(302.389 122.457)"/><path class="d" d="M33.856,16.915a.447.447,0,0,1-.635,0,.449.449,0,1,1,.635,0Z" transform="translate(72.743 46.513)"/><path class="a" d="M47.206,12.651a.639.639,0,1,1,0-.9A.635.635,0,0,1,47.206,12.651Z" transform="translate(103.946 35.524)"/><path class="a" d="M54.194,16.438a.372.372,0,1,1,0-.526A.371.371,0,0,1,54.194,16.438Z" transform="translate(121.768 45.679)"/><path class="a" d="M55.321,31.256a.675.675,0,1,1,0-.954A.672.672,0,0,1,55.321,31.256Z" transform="translate(123.231 79.937)"/><circle class="a" cx="0.367" cy="0.367" r="0.367" transform="translate(193.56 107.461)"/><circle class="a" cx="0.24" cy="0.24" r="0.24" transform="translate(204.322 106.889)"/><path class="e" d="M66.726,38.691a1.056,1.056,0,1,1,0-1.494A1.053,1.053,0,0,1,66.726,38.691Z" transform="translate(148.988 96.191)"/><path class="a" d="M76.882,35.127a.964.964,0,1,1,0-1.362A.965.965,0,0,1,76.882,35.127Z" transform="translate(173.692 88.031)"/><path class="a" d="M78.95,36.13a.854.854,0,1,1,0-1.209A.852.852,0,0,1,78.95,36.13Z" transform="translate(179.101 90.879)"/><path class="a" d="M78.727,44.163a.387.387,0,0,1-.54,0,.382.382,0,0,1,.54-.54A.387.387,0,0,1,78.727,44.163Z" transform="translate(180.496 112.053)"/><circle class="a" cx="0.717" cy="0.717" r="0.717" transform="translate(228.681 174.924)"/><path class="a" d="M81.592,54.949a.784.784,0,1,1,0-1.107A.781.781,0,0,1,81.592,54.949Z" transform="translate(185.711 136.249)"/><path class="e" d="M89.8,55.978a.93.93,0,1,1,0-1.317A.928.928,0,0,1,89.8,55.978Z" transform="translate(204.786 138.106)"/><path class="a" d="M91.776,57.35a.487.487,0,1,1,0-.689A.488.488,0,0,1,91.776,57.35Z" transform="translate(211.321 143.209)"/><path class="a" d="M92.869,60.759a1.121,1.121,0,1,1,0-1.586A1.121,1.121,0,0,1,92.869,60.759Z" transform="translate(211.348 148.783)"/><path class="a" d="M113.727,2.709a.714.714,0,1,1,0-1.008A.711.711,0,0,1,113.727,2.709Z" transform="translate(262.971 11.401)"/><path class="a" d="M88.8-1.427a.273.273,0,0,1-.384,0,.268.268,0,0,1,0-.38.273.273,0,0,1,.384,0A.268.268,0,0,1,88.8-1.427Z" transform="translate(205.081 3.311)"/><path class="a" d="M60.811,1.627a.977.977,0,1,1,0-1.382A.973.973,0,0,1,60.811,1.627Z" transform="translate(135.143 7.733)"/><path class="a" d="M69.509,7.174a.963.963,0,1,1,0-1.362A.961.961,0,0,1,69.509,7.174Z" transform="translate(156.039 21.074)"/><path class="a" d="M135.388,22.368a1.16,1.16,0,1,1,0-1.64A1.162,1.162,0,0,1,135.388,22.368Z" transform="translate(313.034 56.661)"/><path class="a" d="M134.567,16.069a.5.5,0,1,1,0-.7A.5.5,0,0,1,134.567,16.069Z" transform="translate(313.773 44.282)"/><path class="d" d="M128.067,17.27a.221.221,0,1,1,0-.312A.217.217,0,0,1,128.067,17.27Z" transform="translate(299.337 48.29)"/><path class="a" d="M119.952,24.064a.54.54,0,1,1,0-.764A.541.541,0,0,1,119.952,24.064Z" transform="translate(278.598 63.263)"/><path class="a" d="M109.5,18.956a.344.344,0,0,1-.489,0,.346.346,0,0,1,.489-.489A.344.344,0,0,1,109.5,18.956Z" transform="translate(254.353 51.826)"/><path class="a" d="M102.765,8.187a.946.946,0,1,1,0-1.338A.951.951,0,0,1,102.765,8.187Z" transform="translate(235.773 23.569)"/><circle class="e" cx="0.617" cy="0.617" r="0.617" transform="translate(318.535 58.714)"/><circle class="e" cx="0.379" cy="0.379" r="0.379" transform="translate(312.987 80.435)"/><path class="a" d="M86.012,20.37a.9.9,0,1,1,0-1.266A.9.9,0,0,1,86.012,20.37Z" transform="translate(195.844 52.959)"/><circle class="a" cx="1.183" cy="1.183" r="1.183" transform="translate(251.27 64.687)"/><path class="a" d="M76.1,28.253a.265.265,0,0,1-.367,0,.259.259,0,0,1,.367-.367A.265.265,0,0,1,76.1,28.253Z" transform="translate(174.693 74.442)"/><path class="a" d="M64.06,12.088a.321.321,0,1,1,0-.455A.324.324,0,0,1,64.06,12.088Z" transform="translate(145.618 35.473)"/><circle class="d" cx="0.465" cy="0.465" r="0.465" transform="translate(192.337 79.918)"/><path class="a" d="M54.979,24.364a.361.361,0,0,1-.513,0,.357.357,0,0,1,0-.509.361.361,0,1,1,.513.509Z" transform="translate(123.689 64.712)"/><circle class="e" cx="1.179" cy="1.179" r="1.179" transform="translate(423.847 36.655)"/><path class="e" d="M135.8,4.264a.763.763,0,1,1,0-1.08A.769.769,0,0,1,135.8,4.264Z" transform="translate(315.646 14.919)"/><path class="a" d="M143.044,6.175a1.053,1.053,0,1,1,0-1.487A1.055,1.055,0,0,1,143.044,6.175Z" transform="translate(331.81 18.319)"/><path class="a" d="M136.265,16.042a.43.43,0,1,1,0-.608A.426.426,0,0,1,136.265,16.042Z" transform="translate(318.125 44.5)"/><circle class="d" cx="0.683" cy="0.683" r="0.683" transform="translate(476.047 83.252)"/><circle class="e" cx="1.024" cy="1.024" r="1.024" transform="translate(531.698 64.496)"/><circle class="a" cx="1.059" cy="1.059" r="1.059" transform="translate(536.728 98.547)"/><path class="a" d="M156.342,30.918a1.162,1.162,0,1,1,0-1.643A1.16,1.16,0,0,1,156.342,30.918Z" transform="translate(363.218 77.134)"/><path class="a" d="M108.072,31.537a.743.743,0,1,1,0-1.049A.742.742,0,0,1,108.072,31.537Z" transform="translate(249.31 80.339)"/><path class="a" d="M99.272,30.812a.822.822,0,1,1,0-1.165A.824.824,0,0,1,99.272,30.812Z" transform="translate(227.908 78.266)"/><path class="d" d="M89.705,32.754a.843.843,0,1,1,0-1.192A.842.842,0,0,1,89.705,32.754Z" transform="translate(204.907 82.84)"/><path class="e" d="M78.895,34.4a.793.793,0,1,1,0-1.124A.793.793,0,0,1,78.895,34.4Z" transform="translate(179.214 86.978)"/><path class="a" d="M66.44,40.419a.66.66,0,1,1,0-.934A.66.66,0,0,1,66.44,40.419Z" transform="translate(149.926 101.947)"/><path class="e" d="M61.18,25.612a.647.647,0,1,1,0-.917A.648.648,0,0,1,61.18,25.612Z" transform="translate(137.381 66.53)"/><path class="e" d="M59.8,23.084a.773.773,0,1,1,0-1.093A.779.779,0,0,1,59.8,23.084Z" transform="translate(133.562 59.968)"/><path class="a" d="M53.281,28.986a1.065,1.065,0,1,1,0-1.5A1.07,1.07,0,0,1,53.281,28.986Z" transform="translate(116.75 72.907)"/><path class="e" d="M44.336,34.538a.749.749,0,1,1,0-1.059A.75.75,0,0,1,44.336,34.538Z" transform="translate(96.617 87.497)"/><path class="a" d="M39.236,29.718a.406.406,0,0,1-.581,0,.411.411,0,1,1,.581,0Z" transform="translate(85.786 77.336)"/><path class="a" d="M37.1,32.16a.317.317,0,0,1-.448-.448.314.314,0,0,1,.448,0A.32.32,0,0,1,37.1,32.16Z" transform="translate(81.058 83.563)"/><path class="a" d="M31.87,30.782a1.083,1.083,0,1,1,0-1.531A1.086,1.086,0,0,1,31.87,30.782Z" transform="translate(65.395 77.131)"/><circle class="a" cx="0.626" cy="0.626" r="0.626" transform="translate(65.855 94.528)"/><path class="a" d="M76.784,51.582a.977.977,0,1,1,0-1.382A.98.98,0,0,1,76.784,51.582Z" transform="translate(173.41 127.392)"/><path class="e" d="M87.523,52.846a1.2,1.2,0,1,1,0-1.694A1.2,1.2,0,0,1,87.523,52.846Z" transform="translate(198.227 129.513)"/><path class="a" d="M86.814,40.384a.7.7,0,1,1,0-.995A.7.7,0,0,1,86.814,40.384Z" transform="translate(198.557 101.69)"/><path class="d" d="M94.867,28.927a1.2,1.2,0,1,1,0-1.694A1.2,1.2,0,0,1,94.867,28.927Z" transform="translate(215.826 72.226)"/><circle class="d" cx="1.212" cy="1.212" r="1.212" transform="translate(297.983 78.128)"/><path class="a" d="M74.613,28.017a.268.268,0,0,1-.38,0,.264.264,0,0,1,0-.377.268.268,0,0,1,.38,0A.264.264,0,0,1,74.613,28.017Z" transform="translate(171.103 73.846)"/><circle class="a" cx="0.559" cy="0.559" r="0.559" transform="translate(220.389 66.475)"/><path class="a" d="M89.213,12.117a1.061,1.061,0,1,1,0-1.5A1.062,1.062,0,0,1,89.213,12.117Z" transform="translate(202.836 32.514)"/><path class="a" d="M87.772,6.874a.254.254,0,0,1-.353,0,.25.25,0,1,1,.353,0Z" transform="translate(202.701 23.272)"/><path class="a" d="M76.412,4.472a.383.383,0,0,1-.536,0,.378.378,0,1,1,.536,0Z" transform="translate(174.964 16.996)"/><circle class="e" cx="0.804" cy="0.804" r="0.804" transform="translate(231.873 179.93)"/><path class="d" d="M63.719,43.609a.216.216,0,1,1,0-.306A.215.215,0,0,1,63.719,43.609Z" transform="translate(145.225 111.404)"/><path class="a" d="M63.932,38.824a.3.3,0,0,1-.431,0,.3.3,0,0,1,.431-.431A.3.3,0,0,1,63.932,38.824Z" transform="translate(145.372 99.579)"/><path class="a" d="M42.4,46.649a1.091,1.091,0,1,1,0-1.545A1.092,1.092,0,0,1,42.4,46.649Z" transform="translate(90.573 115.107)"/><path class="a" d="M42.4,44.495a1.2,1.2,0,1,1,0-1.691A1.193,1.193,0,0,1,42.4,44.495Z" transform="translate(90.144 109.517)"/><circle class="e" cx="1.099" cy="1.099" r="1.099" transform="translate(211.361 29.572)"/><path class="e" d="M58.727,13.013a.543.543,0,0,1-.761,0,.538.538,0,1,1,.761-.761A.543.543,0,0,1,58.727,13.013Z" transform="translate(131.95 36.799)"/><path class="e" d="M65.245,17.434a.857.857,0,1,1,0-1.212A.855.855,0,0,1,65.245,17.434Z" transform="translate(146.256 46.082)"/><circle class="a" cx="0.296" cy="0.296" r="0.296" transform="translate(187.352 71.102)"/><circle class="a" cx="0.515" cy="0.515" r="0.515" transform="translate(169.779 105.6)"/><path class="a" d="M65.249,38.557a.7.7,0,1,1,0-.985A.7.7,0,0,1,65.249,38.557Z" transform="translate(146.927 97.334)"/><path class="a" d="M69.036,43.606a.254.254,0,0,1-.363,0,.258.258,0,1,1,.363,0Z" transform="translate(157.791 111.224)"/><path class="a" d="M65.082,48.72a.52.52,0,1,1,0-.733A.521.521,0,0,1,65.082,48.72Z" transform="translate(147.248 122.408)"/><circle class="a" cx="1.084" cy="1.084" r="1.084" transform="translate(213.937 174.743)"/><path class="d" d="M67.92,51.419a.384.384,0,1,1,0-.543A.385.385,0,0,1,67.92,51.419Z" transform="translate(154.602 129.426)"/><path class="e" d="M72.62,58.344a1.157,1.157,0,1,1,0-1.637A1.158,1.158,0,0,1,72.62,58.344Z" transform="translate(162.699 142.852)"/><path class="d" d="M57.315,58.462a.5.5,0,1,1,0-.706A.5.5,0,0,1,57.315,58.462Z" transform="translate(128.728 145.825)"/><path class="e" d="M128.8,44.9a.586.586,0,1,1-.828-.828.586.586,0,0,1,.828.828Z" transform="translate(299.602 112.998)"/><circle class="d" cx="0.425" cy="0.425" r="0.425" transform="translate(428.378 173.988)"/><circle class="e" cx="0.544" cy="0.544" r="0.544" transform="translate(403.026 172.725)"/><path class="e" d="M86.306,109.488a.389.389,0,1,1,0-.55A.387.387,0,0,1,86.306,109.488Z" transform="translate(198.619 268.498)"/><circle class="e" cx="0.956" cy="0.956" r="0.956" transform="translate(495.787 175.529)"/><circle class="a" cx="0.634" cy="0.634" r="0.634" transform="translate(147.658 42.775)"/><circle class="a" cx="1.236" cy="1.236" r="1.236" transform="translate(102.92 19.353)"/><path class="d" d="M30.689,12.6a.615.615,0,1,1,0-.869A.619.619,0,0,1,30.689,12.6Z" transform="translate(64.474 35.506)"/><circle class="a" cx="0.471" cy="0.471" r="0.471" transform="translate(79.566 60.678)"/><path class="e" d="M26.385,20.225a.78.78,0,1,1,0-1.1A.779.779,0,0,1,26.385,20.225Z" transform="translate(53.495 53.089)"/><path class="a" d="M14.2,23.949a.246.246,0,0,1-.346,0,.25.25,0,0,1,0-.35.246.246,0,1,1,.346.35Z" transform="translate(26.497 64.186)"/><path class="a" d="M3.793,29.59a1.1,1.1,0,1,1,0-1.552A1.1,1.1,0,0,1,3.793,29.59Z" transform="translate(-1.921 74.222)"/><circle class="a" cx="0.44" cy="0.44" r="0.44" transform="translate(24.072 132.943)"/><path class="d" d="M131.232,3.574a.813.813,0,1,1,0-1.151A.814.814,0,0,1,131.232,3.574Z" transform="translate(304.501 13.066)"/><path class="a" d="M129.815,2.643a.79.79,0,1,1,0-1.117A.789.789,0,0,1,129.815,2.643Z" transform="translate(301.199 10.928)"/><path class="a" d="M120.133,12.007a.893.893,0,1,1,0-1.263A.891.891,0,0,1,120.133,12.007Z" transform="translate(277.585 32.936)"/><path class="d" d="M102.907-.675a.869.869,0,0,1-1.229,0,.865.865,0,0,1,0-1.226.869.869,0,0,1,1.229,0A.871.871,0,0,1,102.907-.675Z" transform="translate(236.422 2.667)"/><circle class="a" cx="1.165" cy="1.165" r="1.165" transform="translate(298.089 55.542)"/><path class="e" d="M83.2.886a.326.326,0,0,1-.458,0,.324.324,0,1,1,.458,0Z" transform="translate(191.453 8.62)"/><path class="d" d="M77.973,11.027a.749.749,0,1,1,0-1.059A.75.75,0,0,1,77.973,11.027Z" transform="translate(177.189 31.18)"/><path class="d" d="M72.366,12.2a1.133,1.133,0,1,1,0-1.6A1.135,1.135,0,0,1,72.366,12.2Z" transform="translate(162.183 32.419)"/></g><g class="c" transform="translate(273.291)"><circle class="a" cx="1.126" cy="1.126" r="1.126" transform="translate(341.338 134.943)"/><circle class="e" cx="0.578" cy="0.578" r="0.578" transform="translate(362.353 133.664)"/><circle class="a" cx="0.446" cy="0.446" r="0.446" transform="translate(369.91 106.025)"/><circle class="a" cx="1.191" cy="1.191" r="1.191" transform="translate(387.869 24.942)"/><path class="d" d="M175.516,2.011a.591.591,0,0,1-.835-.835.591.591,0,0,1,.835.835Z" transform="translate(138.195 10.236)"/><path class="e" d="M172.48,10.916a.316.316,0,0,1-.445,0,.311.311,0,0,1,0-.441.316.316,0,0,1,.445,0A.312.312,0,0,1,172.48,10.916Z" transform="translate(132.053 32.7)"/><path class="a" d="M171.092,21.644a1.133,1.133,0,1,1,0-1.6A1.129,1.129,0,0,1,171.092,21.644Z" transform="translate(125.374 55.036)"/><path class="e" d="M166.668,21.54a.762.762,0,1,1,0-1.08A.764.764,0,0,1,166.668,21.54Z" transform="translate(116.301 56.308)"/><path class="e" d="M167.537,28.449a.489.489,0,1,1,0-.689A.492.492,0,0,1,167.537,28.449Z" transform="translate(119.496 73.981)"/><path class="d" d="M155.715,18.046a.947.947,0,1,1,0-1.338A.949.949,0,0,1,155.715,18.046Z" transform="translate(89.301 47.185)"/><path class="a" d="M153.41,21.7a.527.527,0,1,1,0-.744A.527.527,0,0,1,153.41,21.7Z" transform="translate(85.502 57.662)"/><path class="a" d="M150.5,24.163a1.012,1.012,0,1,1,0-1.433A1.012,1.012,0,0,1,150.5,24.163Z" transform="translate(76.562 61.568)"/><path class="a" d="M140.13,21.514a.314.314,0,0,1-.438,0,.309.309,0,1,1,.438,0Z" transform="translate(54.585 58.102)"/><path class="e" d="M133.76,25.121a1.126,1.126,0,1,1,0-1.592A1.129,1.129,0,0,1,133.76,25.121Z" transform="translate(35.988 63.395)"/><path class="e" d="M129.459,37.082a.918.918,0,1,1,0-1.3A.918.918,0,0,1,129.459,37.082Z" transform="translate(26.531 92.901)"/><path class="a" d="M133,26.718a1.24,1.24,0,1,1,0-1.755A1.242,1.242,0,0,1,133,26.718Z" transform="translate(33.704 66.751)"/><path class="d" d="M137.441,14.549a.543.543,0,1,1,0-.767A.545.545,0,0,1,137.441,14.549Z" transform="translate(47.19 40.462)"/><path class="a" d="M142.4,6.045a.34.34,0,0,1-.475,0,.336.336,0,0,1,.475-.475A.34.34,0,0,1,142.4,6.045Z" transform="translate(59.912 20.933)"/><path class="a" d="M155.1,16.277a.267.267,0,0,1-.384,0,.271.271,0,0,1,.384-.384A.267.267,0,0,1,155.1,16.277Z" transform="translate(90.596 45.711)"/><path class="a" d="M152.105,5.128a.631.631,0,1,1,0-.893A.629.629,0,0,1,152.105,5.128Z" transform="translate(81.948 17.528)"/><path class="a" d="M153.1,2.843a.255.255,0,1,1,0-.36A.25.25,0,0,1,153.1,2.843Z" transform="translate(85.877 13.593)"/><path class="e" d="M166.144,10.689a.891.891,0,1,1,0-1.26A.894.894,0,0,1,166.144,10.689Z" transform="translate(114.514 29.786)"/><circle class="e" cx="0.387" cy="0.387" r="0.387" transform="translate(292.742 10.253)"/><path class="e" d="M134.767-1.319a.428.428,0,0,1-.6,0,.424.424,0,0,1,0-.6.428.428,0,0,1,.6,0A.424.424,0,0,1,134.767-1.319Z" transform="translate(41.256 2.931)"/><path class="e" d="M135.059,8.837a.557.557,0,0,1-.788-.788.551.551,0,0,1,.788,0A.557.557,0,0,1,135.059,8.837Z" transform="translate(41.423 26.714)"/><path class="e" d="M127.831,10.736a.427.427,0,1,1,0-.6A.428.428,0,0,1,127.831,10.736Z" transform="translate(24.642 31.8)"/><path class="a" d="M120.1,18.4a.7.7,0,1,1,0-.991A.7.7,0,0,1,120.1,18.4Z" transform="translate(5.011 49.036)"/><path class="a" d="M102.007,16.954a.469.469,0,0,1-.659,0,.463.463,0,0,1,0-.659.466.466,0,0,1,.659.659Z" transform="translate(-37.378 46.538)"/><circle class="a" cx="0.887" cy="0.887" r="0.887" transform="translate(63.984 64.233)"/><path class="e" d="M185.949-1.937a.215.215,0,0,1-.306,0,.215.215,0,0,1,0-.306.215.215,0,0,1,.306,0A.215.215,0,0,1,185.949-1.937Z" transform="translate(164.714 2.306)"/><path class="a" d="M189.422-1.119a.353.353,0,0,1-.5,0,.352.352,0,0,1,0-.5.353.353,0,0,1,.5,0A.353.353,0,0,1,189.422-1.119Z" transform="translate(172.486 3.716)"/><path class="a" d="M135.763,2.194a1.073,1.073,0,1,1,0-1.518A1.076,1.076,0,0,1,135.763,2.194Z" transform="translate(40.996 8.694)"/><path class="a" d="M131.236,12.436a.577.577,0,1,1,0-.815A.576.576,0,0,1,131.236,12.436Z" transform="translate(32.18 35.257)"/><path class="d" d="M140.438,17.923a1.059,1.059,0,1,1,0-1.5A1.057,1.057,0,0,1,140.438,17.923Z" transform="translate(52.26 46.435)"/><circle class="e" cx="0.749" cy="0.749" r="0.749" transform="translate(366.695 155.871)"/><path class="a" d="M199.641,36.725a.612.612,0,1,1,0-.866A.615.615,0,0,1,199.641,36.725Z" transform="translate(195.895 93.296)"/><path class="d" d="M114.346,16.915a.447.447,0,0,1-.635,0,.449.449,0,1,1,.635,0Z" transform="translate(-7.747 46.513)"/><path class="a" d="M127.7,12.651a.639.639,0,1,1,0-.9A.635.635,0,0,1,127.7,12.651Z" transform="translate(23.456 35.524)"/><path class="a" d="M134.684,16.438a.372.372,0,1,1,0-.526A.371.371,0,0,1,134.684,16.438Z" transform="translate(41.278 45.679)"/><path class="a" d="M135.811,31.256a.675.675,0,1,1,0-.954A.672.672,0,0,1,135.811,31.256Z" transform="translate(42.741 79.937)"/><circle class="a" cx="0.367" cy="0.367" r="0.367" transform="translate(193.56 107.461)"/><path class="a" d="M143,29.584a.238.238,0,0,1-.34,0,.24.24,0,1,1,.34-.34A.238.238,0,0,1,143,29.584Z" transform="translate(61.735 77.715)"/><circle class="e" cx="1.057" cy="1.057" r="1.057" transform="translate(213.91 133.079)"/><path class="a" d="M157.369,35.127a.963.963,0,1,1,0-1.362A.961.961,0,0,1,157.369,35.127Z" transform="translate(93.202 88.031)"/><path class="a" d="M159.44,36.13a.854.854,0,1,1,0-1.209A.852.852,0,0,1,159.44,36.13Z" transform="translate(98.611 90.879)"/><path class="a" d="M159.214,44.163a.381.381,0,0,1-.536-.54.377.377,0,0,1,.536,0A.381.381,0,0,1,159.214,44.163Z" transform="translate(100.006 112.053)"/><path class="a" d="M150.988,50.439a.718.718,0,1,1,0-1.015A.721.721,0,0,1,150.988,50.439Z" transform="translate(78.919 125.71)"/><path class="a" d="M162.079,54.949a.783.783,0,1,1,0-1.107A.777.777,0,0,1,162.079,54.949Z" transform="translate(105.221 136.249)"/><path class="e" d="M170.294,55.978a.93.93,0,1,1,0-1.317A.928.928,0,0,1,170.294,55.978Z" transform="translate(124.294 138.106)"/><circle class="a" cx="0.488" cy="0.488" r="0.488" transform="translate(302.264 199.727)"/><path class="a" d="M194.217,2.709a.714.714,0,1,1,0-1.008A.711.711,0,0,1,194.217,2.709Z" transform="translate(182.481 11.401)"/><path class="a" d="M169.288-1.427a.268.268,0,0,1-.38,0,.268.268,0,0,1,0-.38.268.268,0,0,1,.38,0A.263.263,0,0,1,169.288-1.427Z" transform="translate(124.591 3.311)"/><path class="a" d="M141.3,1.627a.977.977,0,1,1,0-1.382A.973.973,0,0,1,141.3,1.627Z" transform="translate(54.653 7.733)"/><circle class="a" cx="0.962" cy="0.962" r="0.962" transform="translate(223.902 26.606)"/><circle class="a" cx="0.54" cy="0.54" r="0.54" transform="translate(397.627 86.405)"/><path class="a" d="M189.989,18.956a.346.346,0,1,1-.489-.489.346.346,0,0,1,.489.489Z" transform="translate(173.861 51.826)"/><path class="a" d="M183.255,8.187a.946.946,0,1,1,0-1.338A.951.951,0,0,1,183.255,8.187Z" transform="translate(155.283 23.569)"/><circle class="e" cx="0.617" cy="0.617" r="0.617" transform="translate(318.535 58.714)"/><circle class="e" cx="0.379" cy="0.379" r="0.379" transform="translate(312.987 80.435)"/><path class="a" d="M166.5,20.37a.9.9,0,1,1,0-1.266A.9.9,0,0,1,166.5,20.37Z" transform="translate(115.354 52.959)"/><circle class="a" cx="1.183" cy="1.183" r="1.183" transform="translate(251.27 64.687)"/><path class="a" d="M156.582,28.253a.258.258,0,0,1-.363-.367.254.254,0,0,1,.363,0A.258.258,0,0,1,156.582,28.253Z" transform="translate(94.203 74.442)"/><path class="a" d="M144.55,12.088a.321.321,0,1,1,0-.455A.324.324,0,0,1,144.55,12.088Z" transform="translate(65.128 35.473)"/><path class="d" d="M139.85,22.024a.463.463,0,1,1,0-.655A.459.459,0,0,1,139.85,22.024Z" transform="translate(53.279 58.686)"/><path class="a" d="M135.469,24.364a.361.361,0,0,1-.513,0,.357.357,0,0,1,0-.509.361.361,0,0,1,.513.509Z" transform="translate(43.199 64.712)"/><path class="a" d="M188.562,31.537a.743.743,0,1,1,0-1.049A.742.742,0,0,1,188.562,31.537Z" transform="translate(168.82 80.339)"/><path class="a" d="M179.762,30.812a.822.822,0,1,1,0-1.165A.824.824,0,0,1,179.762,30.812Z" transform="translate(147.418 78.266)"/><path class="d" d="M170.2,32.754a.843.843,0,1,1,0-1.192A.842.842,0,0,1,170.2,32.754Z" transform="translate(124.417 82.84)"/><path class="e" d="M159.385,34.4a.795.795,0,1,1,0-1.124A.8.8,0,0,1,159.385,34.4Z" transform="translate(98.724 86.978)"/><path class="a" d="M146.93,40.419a.66.66,0,1,1,0-.934A.66.66,0,0,1,146.93,40.419Z" transform="translate(69.436 101.947)"/><path class="e" d="M141.671,25.612a.648.648,0,1,1,0-.917A.652.652,0,0,1,141.671,25.612Z" transform="translate(56.891 66.53)"/><path class="e" d="M140.291,23.084a.773.773,0,1,1,0-1.093A.779.779,0,0,1,140.291,23.084Z" transform="translate(53.072 59.968)"/><path class="a" d="M133.771,28.986a1.065,1.065,0,1,1,0-1.5A1.07,1.07,0,0,1,133.771,28.986Z" transform="translate(36.26 72.907)"/><path class="e" d="M124.826,34.538a.749.749,0,1,1,0-1.059A.75.75,0,0,1,124.826,34.538Z" transform="translate(16.127 87.497)"/><path class="a" d="M119.726,29.718a.406.406,0,0,1-.581,0,.411.411,0,1,1,.581,0Z" transform="translate(5.296 77.336)"/><path class="a" d="M117.592,32.16a.317.317,0,1,1-.448-.448.314.314,0,0,1,.448,0A.32.32,0,0,1,117.592,32.16Z" transform="translate(0.568 83.563)"/><path class="a" d="M112.36,30.782a1.083,1.083,0,1,1,0-1.531A1.086,1.086,0,0,1,112.36,30.782Z" transform="translate(-15.095 77.131)"/><circle class="a" cx="0.626" cy="0.626" r="0.626" transform="translate(65.855 94.528)"/><path class="a" d="M157.271,51.582a.976.976,0,1,1,0-1.382A.975.975,0,0,1,157.271,51.582Z" transform="translate(92.92 127.392)"/><circle class="e" cx="1.198" cy="1.198" r="1.198" transform="translate(283.704 180.314)"/><path class="a" d="M167.3,40.384a.7.7,0,1,1,0-.995A.7.7,0,0,1,167.3,40.384Z" transform="translate(118.067 101.69)"/><path class="d" d="M175.357,28.927a1.2,1.2,0,1,1,0-1.694A1.2,1.2,0,0,1,175.357,28.927Z" transform="translate(135.336 72.226)"/><path class="d" d="M172.241,22.773a1.212,1.212,0,1,1,0-1.715A1.209,1.209,0,0,1,172.241,22.773Z" transform="translate(127.81 57.424)"/><path class="a" d="M155.1,28.017a.268.268,0,0,1-.38,0,.264.264,0,0,1,0-.377.268.268,0,0,1,.38,0A.264.264,0,0,1,155.1,28.017Z" transform="translate(90.613 73.846)"/><path class="a" d="M148.274,18.229a.559.559,0,0,1-.791-.791.555.555,0,0,1,.791,0A.561.561,0,0,1,148.274,18.229Z" transform="translate(73.07 49.202)"/><path class="a" d="M169.7,12.117a1.061,1.061,0,1,1,0-1.5A1.062,1.062,0,0,1,169.7,12.117Z" transform="translate(122.346 32.514)"/><path class="a" d="M168.262,6.874a.254.254,0,0,1-.353,0,.25.25,0,1,1,.353,0Z" transform="translate(122.211 23.272)"/><path class="a" d="M156.9,4.472a.377.377,0,1,1-.533-.533.377.377,0,0,1,.533.533Z" transform="translate(94.474 16.996)"/><path class="d" d="M144.21,43.609a.216.216,0,1,1,0-.306A.215.215,0,0,1,144.21,43.609Z" transform="translate(64.735 111.404)"/><path class="a" d="M144.422,38.824a.3.3,0,0,1-.431,0,.3.3,0,0,1,.431-.431A.3.3,0,0,1,144.422,38.824Z" transform="translate(64.882 99.579)"/><circle class="a" cx="1.091" cy="1.091" r="1.091" transform="translate(131.107 159.894)"/><path class="a" d="M122.885,44.495a1.2,1.2,0,1,1,0-1.691A1.193,1.193,0,0,1,122.885,44.495Z" transform="translate(9.654 109.517)"/><path class="e" d="M146.536,8.282a1.1,1.1,0,1,1,0-1.555A1.1,1.1,0,0,1,146.536,8.282Z" transform="translate(66.7 23.168)"/><path class="e" d="M139.217,13.013a.543.543,0,0,1-.761,0,.538.538,0,1,1,.761-.761A.543.543,0,0,1,139.217,13.013Z" transform="translate(51.46 36.799)"/><path class="e" d="M145.735,17.434a.857.857,0,1,1,0-1.212A.855.855,0,0,1,145.735,17.434Z" transform="translate(65.766 46.082)"/><circle class="a" cx="0.296" cy="0.296" r="0.296" transform="translate(187.352 71.102)"/><path class="a" d="M133.293,29.676a.515.515,0,1,1,0-.73A.514.514,0,0,1,133.293,29.676Z" transform="translate(37.365 76.804)"/><path class="a" d="M145.739,38.557a.7.7,0,1,1,0-.985A.7.7,0,0,1,145.739,38.557Z" transform="translate(66.437 97.334)"/><path class="a" d="M149.526,43.606a.254.254,0,0,1-.363,0,.258.258,0,1,1,.363,0Z" transform="translate(77.301 111.224)"/><path class="a" d="M145.572,48.72a.52.52,0,1,1,0-.733A.521.521,0,0,1,145.572,48.72Z" transform="translate(66.758 122.408)"/><path class="a" d="M147.272,51.01a1.085,1.085,0,1,1,0-1.535A1.084,1.084,0,0,1,147.272,51.01Z" transform="translate(68.517 125.584)"/><circle class="a" cx="0.634" cy="0.634" r="0.634" transform="translate(147.658 42.775)"/><circle class="a" cx="1.236" cy="1.236" r="1.236" transform="translate(102.92 19.353)"/><path class="d" d="M111.179,12.6a.615.615,0,1,1,0-.869A.619.619,0,0,1,111.179,12.6Z" transform="translate(-16.016 35.506)"/><circle class="a" cx="0.471" cy="0.471" r="0.471" transform="translate(79.566 60.678)"/><path class="e" d="M106.875,20.225a.78.78,0,1,1,0-1.1A.779.779,0,0,1,106.875,20.225Z" transform="translate(-26.995 53.089)"/><path class="a" d="M94.692,23.949a.246.246,0,0,1-.346,0,.25.25,0,0,1,0-.35.246.246,0,0,1,.346.35Z" transform="translate(-53.993 64.186)"/><path class="a" d="M84.283,29.59a1.1,1.1,0,1,1,0-1.552A1.1,1.1,0,0,1,84.283,29.59Z" transform="translate(-82.41 74.222)"/><path class="a" d="M90.251,37.6a.443.443,0,0,1-.621,0,.439.439,0,1,1,.621,0Z" transform="translate(-65.429 96.094)"/><path class="a" d="M200.623,12.007a.893.893,0,1,1,0-1.263A.891.891,0,0,1,200.623,12.007Z" transform="translate(197.095 32.936)"/><path class="d" d="M183.393-.675a.865.865,0,0,1-1.226,0,.865.865,0,0,1,0-1.226.865.865,0,0,1,1.226,0A.865.865,0,0,1,183.393-.675Z" transform="translate(155.932 2.667)"/><path class="a" d="M172.195,16.04a1.166,1.166,0,1,1,0-1.647A1.168,1.168,0,0,1,172.195,16.04Z" transform="translate(127.884 41.489)"/><path class="e" d="M163.695.886a.326.326,0,0,1-.458,0,.324.324,0,0,1,.458-.458A.326.326,0,0,1,163.695.886Z" transform="translate(110.963 8.62)"/><path class="d" d="M158.463,11.027a.749.749,0,1,1,0-1.059A.75.75,0,0,1,158.463,11.027Z" transform="translate(96.699 31.18)"/><path class="d" d="M152.856,12.2a1.133,1.133,0,1,1,0-1.6A1.135,1.135,0,0,1,152.856,12.2Z" transform="translate(81.693 32.419)"/></g><g transform="translate(140.273 0.332)"><path class="d" d="M61.457-1.885Z" transform="translate(0.416 2.982)"/><path class="a" d="M62.088,1.8a.37.37,0,1,1-.37-.37A.372.372,0,0,1,62.088,1.8Z" transform="translate(0.155 10.913)"/><path class="d" d="M165.477.608a.932.932,0,1,1-.934-.93A.932.932,0,0,1,165.477.608Z" transform="translate(245.115 6.726)"/><path class="e" d="M165.839,9.961a.778.778,0,1,1-.778-.781A.777.777,0,0,1,165.839,9.961Z" transform="translate(246.722 29.486)"/><path class="a" d="M167.852,14.37a.448.448,0,1,1-.448-.448A.448.448,0,0,1,167.852,14.37Z" transform="translate(253.123 40.845)"/><path class="a" d="M171.454,16.754a1.2,1.2,0,1,1-1.205-1.2A1.2,1.2,0,0,1,171.454,16.754Z" transform="translate(258.131 44.749)"/><circle class="e" cx="0.916" cy="0.916" r="0.916" transform="translate(378.58 74.794)"/><path class="e" d="M171.412,32.576a.806.806,0,1,1-.808-.8A.806.806,0,0,1,171.412,32.576Z" transform="translate(259.933 83.599)"/><path class="e" d="M169.45,41.938a.672.672,0,1,1-.672-.672A.672.672,0,0,1,169.45,41.938Z" transform="translate(255.875 106.343)"/><path class="d" d="M168.213,43.153a.547.547,0,1,1-.547-.547A.546.546,0,0,1,168.213,43.153Z" transform="translate(253.515 109.553)"/><path class="d" d="M162.012,51.464a1.083,1.083,0,1,1-1.083-1.083A1.084,1.084,0,0,1,162.012,51.464Z" transform="translate(236.092 128.177)"/><circle class="a" cx="1.193" cy="1.193" r="1.193" transform="translate(323.103 172.797)"/><path class="a" d="M138.744,48.918a.265.265,0,0,1-.265.265.265.265,0,0,1,0-.53A.265.265,0,0,1,138.744,48.918Z" transform="translate(184.285 124.038)"/><path class="a" d="M154.419,46.775a1.081,1.081,0,1,1-1.08-1.08A1.08,1.08,0,0,1,154.419,46.775Z" transform="translate(217.911 116.952)"/><path class="a" d="M133.456,41.264a1.329,1.329,0,1,1-1.328-1.331A1.327,1.327,0,0,1,133.456,41.264Z" transform="translate(166.509 103.15)"/><path class="e" d="M136.932,35.325a.681.681,0,1,1-.682-.682A.683.683,0,0,1,136.932,35.325Z" transform="translate(177.942 90.479)"/><path class="a" d="M131.667,26.566a.526.526,0,1,1-.526-.53A.527.527,0,0,1,131.667,26.566Z" transform="translate(166.071 69.862)"/><path class="d" d="M136.141,6.472a.981.981,0,1,1-.981-.981A.984.984,0,0,1,136.141,6.472Z" transform="translate(174.608 20.65)"/><path class="e" d="M120.354-.918a1.29,1.29,0,0,1-1.29,1.29,1.29,1.29,0,0,1-1.29-1.29,1.29,1.29,0,0,1,1.29-1.29A1.29,1.29,0,0,1,120.354-.918Z" transform="translate(135.315 2.208)"/><path class="a" d="M118.014,2.835a1.406,1.406,0,1,1-1.406-1.406A1.407,1.407,0,0,1,118.014,2.835Z" transform="translate(129.156 10.92)"/><path class="a" d="M94.671,5.639A1.378,1.378,0,1,1,93.293,4.26,1.379,1.379,0,0,1,94.671,5.639Z" transform="translate(73.371 17.701)"/><path class="d" d="M94.659,17.444a.694.694,0,1,1-.693-.7A.694.694,0,0,1,94.659,17.444Z" transform="translate(76.619 47.614)"/><path class="e" d="M99.658,27.183a.37.37,0,1,1-.37-.37A.368.368,0,0,1,99.658,27.183Z" transform="translate(90.148 71.723)"/><path class="a" d="M107.171,37.976a1.339,1.339,0,1,1-1.341-1.338A1.342,1.342,0,0,1,107.171,37.976Z" transform="translate(103.5 95.257)"/><path class="e" d="M103.52,41.272a.9.9,0,1,1-.9-.9A.9.9,0,0,1,103.52,41.272Z" transform="translate(96.86 104.202)"/><path class="e" d="M110.106,46.089a.577.577,0,1,1-.577-.577A.577.577,0,0,1,110.106,46.089Z" transform="translate(114.183 116.514)"/><path class="d" d="M91.4,47.657a1.119,1.119,0,1,1-1.12-1.12A1.119,1.119,0,0,1,91.4,47.657Z" transform="translate(66.772 118.969)"/><path class="a" d="M92.671,52.28a.623.623,0,1,1-.621-.621A.622.622,0,0,1,92.671,52.28Z" transform="translate(72.2 131.238)"/><path class="a" d="M92.131,57.159a1.2,1.2,0,1,1-1.2-1.192A1.2,1.2,0,0,1,92.131,57.159Z" transform="translate(68.166 141.557)"/><path class="d" d="M73.363,59.649a.64.64,0,1,1-.642-.638A.64.64,0,0,1,73.363,59.649Z" transform="translate(25.869 148.848)"/><path class="a" d="M70.477,48.241a.4.4,0,1,1-.4-.4A.4.4,0,0,1,70.477,48.241Z" transform="translate(20.118 122.1)"/><path class="a" d="M89.641,46.127a.321.321,0,1,1-.642,0,.321.321,0,0,1,.642,0Z" transform="translate(66.389 117.223)"/><circle class="a" cx="0.746" cy="0.746" r="0.746" transform="translate(111.987 139.494)"/><path class="a" d="M76.762,36.568a.3.3,0,1,1-.3-.3A.3.3,0,0,1,76.762,36.568Z" transform="translate(35.637 94.366)"/><path class="e" d="M93.976,32.762a1.051,1.051,0,1,1-1.049-1.053A1.048,1.048,0,0,1,93.976,32.762Z" transform="translate(73.275 83.451)"/><path class="a" d="M77.122,26.488a.35.35,0,1,1-.35-.35A.349.349,0,0,1,77.122,26.488Z" transform="translate(36.265 70.106)"/><path class="e" d="M89,21.939a.455.455,0,1,1-.455-.455A.455.455,0,0,1,89,21.939Z" transform="translate(64.214 58.958)"/><path class="d" d="M91.976,6.052a.254.254,0,0,1-.251.255.256.256,0,0,1-.255-.255.254.254,0,0,1,.255-.251A.251.251,0,0,1,91.976,6.052Z" transform="translate(72.308 21.392)"/><path class="e" d="M69.841,6.361a.469.469,0,1,1-.469-.472A.469.469,0,0,1,69.841,6.361Z" transform="translate(18.254 21.603)"/><path class="a" d="M60.653,2.154A1.321,1.321,0,1,1,59.332.833,1.319,1.319,0,0,1,60.653,2.154Z" transform="translate(-7.838 9.492)"/><path class="a" d="M67.176,11.91a.682.682,0,1,1-.682-.682A.683.683,0,0,1,67.176,11.91Z" transform="translate(10.846 34.392)"/><path class="d" d="M65.124,20.126a.255.255,0,1,1-.255-.255A.256.256,0,0,1,65.124,20.126Z" transform="translate(7.981 55.095)"/><path class="d" d="M53.366,21.533A1.368,1.368,0,1,1,52,20.165,1.366,1.366,0,0,1,53.366,21.533Z" transform="translate(-25.52 55.799)"/><path class="a" d="M65.6,36.241a.864.864,0,1,1-.866-.862A.865.865,0,0,1,65.6,36.241Z" transform="translate(6.206 92.242)"/><path class="e" d="M50.551,40.714a1.462,1.462,0,1,1-1.46-1.46A1.463,1.463,0,0,1,50.551,40.714Z" transform="translate(-32.709 101.524)"/><path class="e" d="M57.926,48.543a.5.5,0,1,1-.5-.5A.5.5,0,0,1,57.926,48.543Z" transform="translate(-10.449 122.569)"/><path class="a" d="M89.856,2.612A1.042,1.042,0,1,1,88.813,1.57,1.043,1.043,0,0,1,89.856,2.612Z" transform="translate(63.447 11.258)"/><circle class="e" cx="0.255" cy="0.255" r="0.255" transform="translate(191.699 24.045)"/><path class="a" d="M103.74,3.022a.414.414,0,1,1-.414-.411A.414.414,0,0,1,103.74,3.022Z" transform="translate(99.715 13.751)"/><path class="a" d="M127.278,1.576a.686.686,0,1,1-.686-.686A.684.684,0,0,1,127.278,1.576Z" transform="translate(154.794 9.629)"/><path class="d" d="M165.934,6.6a.368.368,0,1,1-.37-.37A.371.371,0,0,1,165.934,6.6Z" transform="translate(248.909 22.425)"/><path class="e" d="M175.951,3.189a.837.837,0,1,1-.835-.835A.838.838,0,0,1,175.951,3.189Z" transform="translate(270.659 13.136)"/><path class="e" d="M182.762-1.539a.356.356,0,0,1-.356.357.356.356,0,0,1-.353-.357.356.356,0,0,1,.353-.357A.356.356,0,0,1,182.762-1.539Z" transform="translate(289.283 2.955)"/><path class="a" d="M90.651,2.176a.665.665,0,1,1-.665-.665A.667.667,0,0,1,90.651,2.176Z" transform="translate(67.158 11.116)"/><path class="d" d="M84.864,15.115a1.426,1.426,0,1,1-1.426-1.426A1.426,1.426,0,0,1,84.864,15.115Z" transform="translate(49.653 40.287)"/><path class="e" d="M65.105,5.936a.625.625,0,1,1-.625-.628A.623.623,0,0,1,65.105,5.936Z" transform="translate(6.163 20.211)"/><path class="a" d="M67.138,19.764a.36.36,0,1,1-.36-.36A.361.361,0,0,1,67.138,19.764Z" transform="translate(12.3 53.976)"/><circle class="a" cx="0.95" cy="0.95" r="0.95" transform="translate(47.311 80.263)"/><path class="a" d="M48.412,25.963A1.01,1.01,0,1,1,47.4,24.955,1.009,1.009,0,0,1,48.412,25.963Z" transform="translate(-35.67 67.273)"/><circle class="a" cx="1.001" cy="1.001" r="1.001" transform="translate(23.286 113.62)"/><circle class="d" cx="0.991" cy="0.991" r="0.991" transform="translate(77.257 119.007)"/><path class="a" d="M61.465,51.183a1.266,1.266,0,1,1-1.266-1.27A1.266,1.266,0,0,1,61.465,51.183Z" transform="translate(-5.632 127.056)"/><path class="d" d="M78.5,60.394a1.248,1.248,0,1,1-1.246-1.249A1.248,1.248,0,0,1,78.5,60.394Z" transform="translate(35.266 149.169)"/><circle class="e" cx="0.869" cy="0.869" r="0.869" transform="translate(415.415 192.136)"/><path class="e" d="M143.89,39.859a.884.884,0,1,1-.883-.883A.881.881,0,0,1,143.89,39.859Z" transform="translate(193.634 100.858)"/><path class="e" d="M158.6,31.562a.519.519,0,1,1-.519-.519A.522.522,0,0,1,158.6,31.562Z" transform="translate(230.609 81.856)"/><path class="d" d="M153.46,25.429a1.27,1.27,0,1,1-1.27-1.27A1.268,1.268,0,0,1,153.46,25.429Z" transform="translate(214.711 65.366)"/><path class="e" d="M155.455,22.368a.676.676,0,1,1-.676-.676A.675.675,0,0,1,155.455,22.368Z" transform="translate(222.338 59.457)"/><path class="e" d="M146.317,20.617a.336.336,0,1,1-.336-.336A.337.337,0,0,1,146.317,20.617Z" transform="translate(202.075 56.077)"/><path class="a" d="M136.575,14.207a.635.635,0,1,1-.635-.635A.636.636,0,0,1,136.575,14.207Z" transform="translate(177.308 40.007)"/><path class="d" d="M153.555,6.372a1.319,1.319,0,1,1-1.317-1.317A1.319,1.319,0,0,1,153.555,6.372Z" transform="translate(214.704 19.605)"/><circle class="a" cx="0.527" cy="0.527" r="0.527" transform="translate(357.586 4.729)"/><path class="d" d="M162.018-.94a.941.941,0,0,1-.944.941.94.94,0,0,1-.94-.941.941.941,0,0,1,.94-.944A.942.942,0,0,1,162.018-.94Z" transform="translate(236.782 2.984)"/><path class="a" d="M161.949,6.283a.808.808,0,1,1-.808-.8A.808.808,0,0,1,161.949,6.283Z" transform="translate(237.258 20.619)"/><path class="e" d="M164.937,17.75a1.014,1.014,0,1,1-1.012-1.015A1.014,1.014,0,0,1,164.937,17.75Z" transform="translate(243.431 47.583)"/><path class="a" d="M162.287,27.169a.39.39,0,1,1-.39-.394A.39.39,0,0,1,162.287,27.169Z" transform="translate(240.068 71.632)"/><path class="a" d="M186.623,28.252a.754.754,0,1,1-.754-.754A.752.752,0,0,1,186.623,28.252Z" transform="translate(296.62 73.364)"/><path class="a" d="M174.514,30.861a1.027,1.027,0,1,1-1.029-1.025A1.027,1.027,0,0,1,174.514,30.861Z" transform="translate(266.307 78.964)"/><path class="e" d="M188.594,36.157a1.236,1.236,0,1,1-1.236-1.236A1.236,1.236,0,0,1,188.594,36.157Z" transform="translate(299.032 91.145)"/><path class="d" d="M166.182,43.282a1.173,1.173,0,1,1-1.175-1.175A1.172,1.172,0,0,1,166.182,43.282Z" transform="translate(245.649 108.358)"/><path class="a" d="M110.813,2.521a.844.844,0,1,1-.845-.842A.843.843,0,0,1,110.813,2.521Z" transform="translate(114.6 11.519)"/><circle class="a" cx="0.319" cy="0.319" r="0.319" transform="translate(145.442 72.643)"/><path class="a" d="M64.313,15.258a.46.46,0,1,1-.462-.458A.462.462,0,0,1,64.313,15.258Z" transform="translate(5.054 42.948)"/><path class="d" d="M59.663,28.095a1.17,1.17,0,1,1-1.171-1.168A1.169,1.169,0,0,1,59.663,28.095Z" transform="translate(-9.484 71.996)"/><circle class="d" cx="0.649" cy="0.649" r="0.649" transform="translate(54.82 131.278)"/><path class="a" d="M55.611,48a.289.289,0,1,1-.289-.289A.288.288,0,0,1,55.611,48Z" transform="translate(-14.969 121.772)"/><path class="a" d="M65.647,46.007A1.153,1.153,0,1,1,64.5,44.853,1.153,1.153,0,0,1,65.647,46.007Z" transform="translate(4.932 114.935)"/><path class="a" d="M77.545,43.361a1.137,1.137,0,1,1-1.137-1.134A1.138,1.138,0,0,1,77.545,43.361Z" transform="translate(33.503 108.645)"/><circle class="a" cx="1.369" cy="1.369" r="1.369" transform="translate(336.722 9.725) rotate(-89.788)"/><path class="d" d="M135.1,2.3a.261.261,0,1,1-.523,0,.261.261,0,1,1,.523,0Z" transform="translate(175.576 12.364)"/><circle class="a" cx="0.638" cy="0.638" r="0.638" transform="translate(303.489 56.275)"/><path class="a" d="M120.971,19.3a.407.407,0,1,1-.407-.4A.406.406,0,0,1,120.971,19.3Z" transform="translate(141.021 52.764)"/><circle class="a" cx="1.115" cy="1.115" r="1.115" transform="translate(206.056 59.504)"/><path class="e" d="M107.835,27.706a.728.728,0,1,1-.727-.73A.727.727,0,0,1,107.835,27.706Z" transform="translate(108.018 72.114)"/><path class="e" d="M111.213,34.208a.446.446,0,1,1-.448-.445A.448.448,0,0,1,111.213,34.208Z" transform="translate(117.46 88.371)"/><path class="a" d="M102.355,40.548a1.056,1.056,0,1,1-1.056-1.059A1.057,1.057,0,0,1,102.355,40.548Z" transform="translate(93.322 102.087)"/><path class="a" d="M94.186,46.179a1.4,1.4,0,1,1-1.4-1.4A1.4,1.4,0,0,1,94.186,46.179Z" transform="translate(72.121 114.77)"/><path class="a" d="M100.877,54.873a.306.306,0,1,1-.306-.306A.3.3,0,0,1,100.877,54.873Z" transform="translate(93.377 138.204)"/><path class="a" d="M77.318,51.475a.377.377,0,1,1-.377-.377A.379.379,0,0,1,77.318,51.475Z" transform="translate(36.603 129.894)"/><path class="e" d="M47.334,11.285a1.443,1.443,0,1,1-1.443-1.443A1.444,1.444,0,0,1,47.334,11.285Z" transform="translate(-40.326 31.072)"/><circle class="a" cx="0.859" cy="0.859" r="0.859" transform="translate(44.385 30.208)"/><path class="a" d="M76.83,10.722a.9.9,0,1,1-.9-.9A.9.9,0,0,1,76.83,10.722Z" transform="translate(32.938 31.034)"/><path class="e" d="M70.737,1.8a.594.594,0,1,1-.594-.594A.592.592,0,0,1,70.737,1.8Z" transform="translate(19.799 10.388)"/><path class="e" d="M68.357-1.005a.878.878,0,0,1-.876.876.876.876,0,0,1-.876-.876.876.876,0,0,1,.876-.876A.878.878,0,0,1,68.357-1.005Z" transform="translate(12.748 2.991)"/><path class="a" d="M84.04-.7a.888.888,0,0,1-.89.89.888.888,0,0,1-.89-.89.888.888,0,0,1,.89-.89A.888.888,0,0,1,84.04-.7Z" transform="translate(50.249 3.698)"/><path class="a" d="M130.144,31.328a.876.876,0,1,1-.876-.876A.877.877,0,0,1,130.144,31.328Z" transform="translate(160.749 80.44)"/><path class="a" d="M122.166,38.131a.971.971,0,1,1-.971-.971A.971.971,0,0,1,122.166,38.131Z" transform="translate(141.183 96.508)"/><path class="d" d="M115.795,47.757a.995.995,0,1,1-.995-.995A.994.994,0,0,1,115.795,47.757Z" transform="translate(125.808 119.508)"/><path class="a" d="M119.8,56.42a.83.83,0,1,1-.832-.828A.833.833,0,0,1,119.8,56.42Z" transform="translate(136.192 140.659)"/><circle class="d" cx="1.412" cy="1.412" r="1.412" transform="translate(240.146 140.374)"/><path class="d" d="M109.046,38.027a1.431,1.431,0,1,1-1.433-1.433A1.43,1.43,0,0,1,109.046,38.027Z" transform="translate(107.553 95.152)"/><path class="a" d="M99.443,55.923a.317.317,0,1,1-.316-.316A.318.318,0,0,1,99.443,55.923Z" transform="translate(89.885 140.695)"/><path class="a" d="M85.471,53.691a.66.66,0,1,1-.662-.659A.661.661,0,0,1,85.471,53.691Z" transform="translate(54.774 134.527)"/><path class="a" d="M98.084,31.124a1.253,1.253,0,1,1-1.253-1.253A1.252,1.252,0,0,1,98.084,31.124Z" transform="translate(82.148 79.048)"/><path class="a" d="M92.781,27.274a.294.294,0,1,1-.292-.3A.295.295,0,0,1,92.781,27.274Z" transform="translate(74.042 72.121)"/><path class="a" d="M81.25,34.861a.445.445,0,1,1-.445-.448A.444.444,0,0,1,81.25,34.861Z" transform="translate(45.695 89.928)"/><path class="a" d="M69.873,35.588a.557.557,0,1,1-.557-.557A.557.557,0,0,1,69.873,35.588Z" transform="translate(17.907 91.408)"/><path class="e" d="M66.035,32.693a1.015,1.015,0,1,1-1.015-1.015A1.014,1.014,0,0,1,66.035,32.693Z" transform="translate(6.52 83.377)"/><path class="e" d="M76.109,19.715a.413.413,0,1,1-.414-.411A.413.413,0,0,1,76.109,19.715Z" transform="translate(33.537 53.737)"/><path class="a" d="M71.125,15.421a.728.728,0,1,1-.727-.727A.728.728,0,0,1,71.125,15.421Z" transform="translate(20.084 42.694)"/><path class="e" d="M66.971,15.536a.942.942,0,1,1-.944-.944A.942.942,0,0,1,66.971,15.536Z" transform="translate(9.111 42.45)"/><path class="a" d="M67.535,4.989a.8.8,0,1,1-.8-.8A.8.8,0,0,1,67.535,4.989Z" transform="translate(11.135 17.529)"/><path class="e" d="M75.533,47.291a1.3,1.3,0,1,1-1.3-1.3A1.3,1.3,0,0,1,75.533,47.291Z" transform="translate(27.912 117.661)"/><path class="e" d="M73.561,56.882a.633.633,0,1,1-.635-.635A.634.634,0,0,1,73.561,56.882Z" transform="translate(26.377 142.228)"/><path class="e" d="M82.585,55.4a1.012,1.012,0,1,1-1.012-1.015A1.01,1.01,0,0,1,82.585,55.4Z" transform="translate(46.177 137.768)"/><path class="e" d="M158.657,25.052a.691.691,0,1,1-.689-.689A.69.69,0,0,1,158.657,25.052Z" transform="translate(229.933 65.855)"/><circle class="d" cx="0.502" cy="0.502" r="0.502" transform="translate(402.205 103.85)"/><path class="e" d="M156.449,34.9a.642.642,0,1,1-.642-.642A.641.641,0,0,1,156.449,34.9Z" transform="translate(224.882 89.559)"/><path class="e" d="M171.747,39.209a.375.375,0,1,1-.373-.373A.373.373,0,0,1,171.747,39.209Z" transform="translate(262.802 100.522)"/><circle class="e" cx="0.336" cy="0.336" r="0.336" transform="translate(450.628 180.536)"/><path class="a" d="M179.612,44.95a.983.983,0,1,1-.981-.985A.98.98,0,0,1,179.612,44.95Z" transform="translate(278.729 112.808)"/><path class="e" d="M171.384,42.574a1.345,1.345,0,1,1-1.345-1.345A1.343,1.343,0,0,1,171.384,42.574Z" transform="translate(257.288 106.255)"/><path class="a" d="M189,31.313a.694.694,0,1,1-.693-.693A.693.693,0,0,1,189,31.313Z" transform="translate(302.606 80.842)"/><circle class="a" cx="0.682" cy="0.682" r="0.682" transform="translate(460.327 71.424)"/><circle class="e" cx="1.128" cy="1.128" r="1.128" transform="translate(460.018 48.243)"/><path class="a" d="M54.062,19.387a.83.83,0,1,1-.828-.832A.83.83,0,0,1,54.062,19.387Z" transform="translate(-21.274 51.943)"/><path class="a" d="M46.822,25.787a1.117,1.117,0,1,1-1.117-1.117A1.117,1.117,0,0,1,46.822,25.787Z" transform="translate(-39.991 66.59)"/><path class="d" d="M47.725,38.586A1.224,1.224,0,1,1,46.5,37.364,1.224,1.224,0,0,1,47.725,38.586Z" transform="translate(-38.34 96.996)"/><path class="a" d="M46.135,43.478a1.316,1.316,0,1,1-1.317-1.317A1.316,1.316,0,0,1,46.135,43.478Z" transform="translate(-42.587 108.487)"/><path class="a" d="M50.407,47.231a.971.971,0,1,1-.971-.971A.971.971,0,0,1,50.407,47.231Z" transform="translate(-30.704 118.305)"/><path class="e" d="M57.781,45.712a.918.918,0,1,1-.917-.917A.918.918,0,0,1,57.781,45.712Z" transform="translate(-12.789 114.796)"/><circle class="a" cx="1.111" cy="1.111" r="1.111" transform="translate(71.786 126.226)"/><path class="e" d="M45.308,30.864A.311.311,0,1,1,45,30.552.31.31,0,0,1,45.308,30.864Z" transform="translate(-39.754 80.679)"/><path class="a" d="M45.96,27.694A1.363,1.363,0,1,1,44.6,26.332,1.365,1.365,0,0,1,45.96,27.694Z" transform="translate(-43.234 70.571)"/><path class="e" d="M68.26,22.431A1.061,1.061,0,1,1,67.2,21.368,1.061,1.061,0,0,1,68.26,22.431Z" transform="translate(11.629 58.681)"/><path class="a" d="M68.658,8.322a.453.453,0,1,1-.452-.452A.454.454,0,0,1,68.658,8.322Z" transform="translate(15.493 26.348)"/><circle class="a" cx="1.056" cy="1.056" r="1.056" transform="translate(266.585 21.174)"/><circle class="d" cx="1.025" cy="1.025" r="1.025" transform="translate(182.055 34.094)"/><path class="a" d="M103.4,32.407a1.375,1.375,0,1,1-1.375-1.375A1.376,1.376,0,0,1,103.4,32.407Z" transform="translate(94.299 81.829)"/><circle class="e" cx="0.384" cy="0.384" r="0.384" transform="translate(135.629 94.985)"/><path class="a" d="M79.7,23.577a.317.317,0,1,1-.319-.319A.319.319,0,0,1,79.7,23.577Z" transform="translate(42.589 63.208)"/><path class="d" d="M87.9,39.335a.885.885,0,1,1-.886-.883A.884.884,0,0,1,87.9,39.335Z" transform="translate(59.519 99.603)"/><path class="d" d="M84.065,45.317a1.338,1.338,0,1,1-1.338-1.338A1.338,1.338,0,0,1,84.065,45.317Z" transform="translate(48.16 112.842)"/></g></g><g transform="translate(0 0)"><g class="c" transform="translate(3.215)"><path class="d" d="M57.258,34.286a.787.787,0,1,1,0-1.114A.785.785,0,0,1,57.258,34.286Z" transform="translate(130.385 86.733)"/><path class="e" d="M51.787,40.143a.659.659,0,1,1,0-.93A.66.66,0,0,1,51.787,40.143Z" transform="translate(117.803 101.293)"/><path class="a" d="M50.152,44.072a.379.379,0,0,1-.536-.536.379.379,0,1,1,.536.536Z" transform="translate(115.032 111.848)"/><path class="a" d="M51.329,47.473a1.018,1.018,0,1,1,0-1.44A1.019,1.019,0,0,1,51.329,47.473Z" transform="translate(115.243 117.374)"/><path class="e" d="M39.855,41.01a.775.775,0,1,1,0-1.1A.771.771,0,0,1,39.855,41.01Z" transform="translate(88.751 102.891)"/><circle class="a" cx="1.01" cy="1.01" r="1.01" transform="translate(35.11 168.147)"/><path class="a" d="M11.91,47.378a.223.223,0,1,1,0-.316A.221.221,0,0,1,11.91,47.378Z" transform="translate(24.07 120.402)"/><path class="a" d="M23.068,55.279a.915.915,0,1,1,0-1.294A.916.916,0,0,1,23.068,55.279Z" transform="translate(47.972 136.502)"/><path class="a" d="M13.965,39.359a1.126,1.126,0,1,1,0-1.592A1.123,1.123,0,0,1,13.965,39.359Z" transform="translate(25.299 97.506)"/><path class="e" d="M19.216,38.048a.577.577,0,1,1,0-.818A.578.578,0,0,1,19.216,38.048Z" transform="translate(40.124 96.604)"/><path class="a" d="M21.218,29.682a.443.443,0,0,1-.632,0,.447.447,0,1,1,.632,0Z" transform="translate(45.456 77.104)"/><path class="a" d="M36.723,24.984a.944.944,0,1,1,0-1.334A.941.941,0,0,1,36.723,24.984Z" transform="translate(80.559 63.813)"/><path class="d" d="M36.2,20.214a.831.831,0,1,1,0-1.175A.828.828,0,0,1,36.2,20.214Z" transform="translate(79.777 52.849)"/><path class="a" d="M47.423,8.866a.762.762,0,1,1,0-1.08A.758.758,0,0,1,47.423,8.866Z" transform="translate(106.936 25.949)"/><path class="e" d="M31.359,6.255a1.092,1.092,0,1,1,0-1.545A1.09,1.09,0,0,1,31.359,6.255Z" transform="translate(67.102 18.343)"/><path class="a" d="M27.779,7.073a1.191,1.191,0,1,1,0-1.684A1.191,1.191,0,0,1,27.779,7.073Z" transform="translate(58.126 19.902)"/><circle class="e" cx="1.154" cy="1.154" r="1.154" transform="translate(96.012 6.171)"/><path class="d" d="M4.613,2.011a.589.589,0,0,1-.832-.835.589.589,0,1,1,.832.835Z" transform="translate(5.098 10.236)"/><path class="e" d="M1.577,10.916a.312.312,0,1,1,0-.441A.311.311,0,0,1,1.577,10.916Z" transform="translate(-1.044 32.7)"/><path class="e" d="M15.048-1.937a.215.215,0,0,1-.306,0,.215.215,0,0,1,0-.306.215.215,0,0,1,.306,0A.215.215,0,0,1,15.048-1.937Z" transform="translate(31.617 2.306)"/><path class="a" d="M18.522-1.119a.352.352,0,0,1-.5,0,.352.352,0,0,1,0-.5.352.352,0,0,1,.5,0A.352.352,0,0,1,18.522-1.119Z" transform="translate(39.389 3.716)"/><path class="a" d="M33.652,12.046a.581.581,0,1,1,0-.822A.58.58,0,0,1,33.652,12.046Z" transform="translate(74.687 34.306)"/><path class="e" d="M44.5,14.881a.732.732,0,1,1,0-1.036A.728.728,0,0,1,44.5,14.881Z" transform="translate(100.04 40.482)"/><path class="a" d="M49.36,12.392a.523.523,0,0,1-.74-.74.523.523,0,1,1,.74.74Z" transform="translate(112.55 35.366)"/><path class="a" d="M49.466,24.09a1.121,1.121,0,1,1,0-1.586A1.121,1.121,0,0,1,49.466,24.09Z" transform="translate(110.359 60.953)"/><circle class="e" cx="0.505" cy="0.505" r="0.505" transform="translate(198.429 65.692)"/><path class="d" d="M58.734,22.885a.715.715,0,1,1,0-1.012A.717.717,0,0,1,58.734,22.885Z" transform="translate(134.213 59.716)"/><circle class="d" cx="0.313" cy="0.313" r="0.313" transform="translate(176.662 136.028)"/><circle class="e" cx="0.708" cy="0.708" r="0.708" transform="translate(202.623 146.773)"/><path class="e" d="M68.557,43.5a.3.3,0,0,1-.424,0,.3.3,0,1,1,.424,0Z" transform="translate(159.443 110.789)"/><path class="e" d="M15.6,53.027a.675.675,0,1,1,0-.954A.672.672,0,0,1,15.6,53.027Z" transform="translate(31.062 132.086)"/><path class="e" d="M20.788,44.88a.749.749,0,1,1,0-1.059A.744.744,0,0,1,20.788,44.88Z" transform="translate(43.187 112.269)"/><path class="e" d="M34.348,48.81a.439.439,0,0,1-.621-.621.439.439,0,1,1,.621.621Z" transform="translate(76.938 122.946)"/><circle class="d" cx="1.076" cy="1.076" r="1.076" transform="translate(110.4 143.767)"/><path class="a" d="M28.737,36.725a.611.611,0,1,1,0-.866A.611.611,0,0,1,28.737,36.725Z" transform="translate(62.798 93.296)"/><path class="e" d="M38.067,41.382a.571.571,0,0,1-.808-.808.571.571,0,1,1,.808.808Z" transform="translate(85.306 104.614)"/><path class="e" d="M33.441,34.945a.285.285,0,1,1-.4-.4.281.281,0,0,1,.4,0A.285.285,0,0,1,33.441,34.945Z" transform="translate(75.397 90.366)"/><path class="a" d="M31.627,25.194a.539.539,0,1,1,0-.761A.541.541,0,0,1,31.627,25.194Z" transform="translate(70.005 65.977)"/><circle class="d" cx="1.117" cy="1.117" r="1.117" transform="translate(149.209 104.924)"/><path class="e" d="M53.072,27.32a.935.935,0,1,1,0-1.321A.934.934,0,0,1,53.072,27.32Z" transform="translate(119.757 69.447)"/><path class="a" d="M48.047,24.342a.447.447,0,1,1,0-.632A.449.449,0,0,1,48.047,24.342Z" transform="translate(109.721 64.313)"/><path class="a" d="M48.292,16.217a.361.361,0,1,1,0-.509A.357.357,0,0,1,48.292,16.217Z" transform="translate(110.654 45.197)"/><path class="d" d="M56.123,31.284a.8.8,0,1,1,0-1.127A.8.8,0,0,1,56.123,31.284Z" transform="translate(127.627 79.502)"/><path class="a" d="M51.671,35.6a.684.684,0,1,1,0-.968A.682.682,0,0,1,51.671,35.6Z" transform="translate(117.431 90.318)"/><path class="e" d="M46.72,44.21a.858.858,0,1,1,0-1.212A.859.859,0,0,1,46.72,44.21Z" transform="translate(104.851 110.22)"/><path class="a" d="M39.118,48.42a.331.331,0,1,1,0-.469A.332.332,0,0,1,39.118,48.42Z" transform="translate(88.802 122.457)"/><path class="a" d="M23.317,2.709a.714.714,0,1,1,0-1.008A.711.711,0,0,1,23.317,2.709Z" transform="translate(49.384 11.401)"/><path class="a" d="M44.978,22.368a1.16,1.16,0,1,1,0-1.64A1.162,1.162,0,0,1,44.978,22.368Z" transform="translate(99.447 56.661)"/><path class="a" d="M44.158,16.069a.5.5,0,1,1,0-.7A.5.5,0,0,1,44.158,16.069Z" transform="translate(100.184 44.282)"/><circle class="d" cx="0.222" cy="0.222" r="0.222" transform="translate(123.028 65.181)"/><circle class="a" cx="0.541" cy="0.541" r="0.541" transform="translate(93.63 86.405)"/><path class="a" d="M19.089,18.956a.346.346,0,0,1-.489-.489.346.346,0,1,1,.489.489Z" transform="translate(40.764 51.826)"/><path class="a" d="M12.357,8.187a.946.946,0,1,1,0-1.338A.951.951,0,0,1,12.357,8.187Z" transform="translate(22.184 23.569)"/><circle class="e" cx="0.617" cy="0.617" r="0.617" transform="translate(14.537 58.714)"/><circle class="e" cx="0.379" cy="0.379" r="0.379" transform="translate(8.989 80.435)"/><circle class="e" cx="1.179" cy="1.179" r="1.179" transform="translate(119.849 36.655)"/><path class="e" d="M45.387,4.264a.762.762,0,1,1,0-1.08A.764.764,0,0,1,45.387,4.264Z" transform="translate(102.059 14.919)"/><path class="a" d="M52.634,6.175a1.053,1.053,0,1,1,0-1.487A1.055,1.055,0,0,1,52.634,6.175Z" transform="translate(118.223 18.319)"/><path class="a" d="M45.855,16.042a.43.43,0,1,1,0-.608A.432.432,0,0,1,45.855,16.042Z" transform="translate(104.539 44.5)"/><circle class="d" cx="0.683" cy="0.683" r="0.683" transform="translate(172.049 83.252)"/><path class="e" d="M69.857,18.44a1.025,1.025,0,1,1,0-1.45A1.025,1.025,0,0,1,69.857,18.44Z" transform="translate(159.594 47.806)"/><path class="a" d="M71.4,28.527a1.059,1.059,0,1,1,0-1.5A1.057,1.057,0,0,1,71.4,28.527Z" transform="translate(163.144 71.829)"/><path class="a" d="M65.933,30.918a1.163,1.163,0,1,1,0-1.643A1.164,1.164,0,0,1,65.933,30.918Z" transform="translate(149.631 77.134)"/><path class="a" d="M17.662,31.537a.743.743,0,1,1,0-1.049A.742.742,0,0,1,17.662,31.537Z" transform="translate(35.723 80.339)"/><path class="a" d="M8.862,30.812a.822.822,0,1,1,0-1.165A.824.824,0,0,1,8.862,30.812Z" transform="translate(14.322 78.266)"/><circle class="d" cx="1.196" cy="1.196" r="1.196" transform="translate(4.653 99.109)"/><path class="e" d="M38.388,44.9a.582.582,0,0,1-.828,0,.586.586,0,0,1,.828-.828A.582.582,0,0,1,38.388,44.9Z" transform="translate(86.014 112.998)"/><path class="d" d="M38.4,49.663a.425.425,0,1,1,0-.6A.424.424,0,0,1,38.4,49.663Z" transform="translate(86.703 125.05)"/><circle class="e" cx="0.544" cy="0.544" r="0.544" transform="translate(99.028 172.725)"/><path class="a" d="M54.593,54.476a.579.579,0,1,1,0-.818A.582.582,0,0,1,54.593,54.476Z" transform="translate(124.861 135.954)"/><circle class="e" cx="0.956" cy="0.956" r="0.956" transform="translate(191.789 175.529)"/><path class="d" d="M40.819,3.574a.813.813,0,1,1,0-1.151A.814.814,0,0,1,40.819,3.574Z" transform="translate(90.914 13.066)"/><path class="a" d="M39.405,2.643a.791.791,0,1,1,0-1.117A.793.793,0,0,1,39.405,2.643Z" transform="translate(87.611 10.928)"/><path class="a" d="M29.723,12.007a.893.893,0,1,1,0-1.263A.891.891,0,0,1,29.723,12.007Z" transform="translate(63.999 32.936)"/><path class="d" d="M12.493-.675a.865.865,0,0,1-1.226,0,.865.865,0,0,1,0-1.226.865.865,0,0,1,1.226,0A.865.865,0,0,1,12.493-.675Z" transform="translate(22.835 2.667)"/></g><g transform="translate(0 1.391)"><path class="e" d="M5.051,3.189a.837.837,0,1,1-.839-.835A.84.84,0,0,1,5.051,3.189Z" transform="translate(7.76 12.076)"/><path class="e" d="M11.864-1.539a.356.356,0,0,1-.357.357.356.356,0,0,1-.357-.357.356.356,0,0,1,.357-.357A.356.356,0,0,1,11.864-1.539Z" transform="translate(26.381 1.896)"/><circle class="a" cx="0.753" cy="0.753" r="0.753" transform="translate(47.935 99.803)"/><path class="a" d="M3.614,30.861a1.027,1.027,0,1,1-1.029-1.025A1.027,1.027,0,0,1,3.614,30.861Z" transform="translate(3.407 77.905)"/><path class="e" d="M17.694,36.157a1.236,1.236,0,1,1-1.236-1.236A1.236,1.236,0,0,1,17.694,36.157Z" transform="translate(36.133 90.085)"/><path class="d" d="M10.115,51.835a.45.45,0,1,1-.448-.452A.448.448,0,0,1,10.115,51.835Z" transform="translate(21.744 129.517)"/><path class="d" d="M13.278,52.509a1.129,1.129,0,1,1-1.131-1.131A1.13,1.13,0,0,1,13.278,52.509Z" transform="translate(26.067 129.505)"/><path class="e" d="M.847,39.209a.375.375,0,1,1-.377-.373A.374.374,0,0,1,.847,39.209Z" transform="translate(-0.097 99.463)"/><path class="e" d="M5.729,51.3a.338.338,0,1,1-.34-.336A.338.338,0,0,1,5.729,51.3Z" transform="translate(11.774 128.514)"/><path class="a" d="M19.245,57.214a.3.3,0,1,1-.6,0,.3.3,0,1,1,.6,0Z" transform="translate(44.337 142.769)"/><path class="a" d="M8.712,44.95a.983.983,0,1,1-.981-.985A.982.982,0,0,1,8.712,44.95Z" transform="translate(15.83 111.749)"/><path class="a" d="M18.1,31.313a.694.694,0,1,1-.7-.693A.694.694,0,0,1,18.1,31.313Z" transform="translate(39.706 79.783)"/><path class="a" d="M9.272,19.51a.681.681,0,1,1-.679-.682A.682.682,0,0,1,9.272,19.51Z" transform="translate(18.618 51.537)"/><path class="e" d="M10.074,13.128A1.127,1.127,0,1,1,8.946,12,1.124,1.124,0,0,1,10.074,13.128Z" transform="translate(18.4 35.184)"/></g></g></g></g></svg>