<svg xmlns="http://www.w3.org/2000/svg" viewBox="0 0 258.22 362.15"><defs><style>.cls-1,.cls-2{fill:#7b79ef;}.cls-1{opacity:0.3;}.cls-2{opacity:0.5;}</style></defs><title>Asset 3</title><g id="Layer_2" data-name="Layer 2"><g id="Layer_19" data-name="Layer 19"><polygon class="cls-1" points="28.96 184.99 32.47 188.2 37.11 187.13 35.14 191.46 37.59 195.53 32.86 195 29.75 198.59 28.79 193.93 24.41 192.07 28.55 189.73 28.96 184.99"/><polygon class="cls-1" points="251.03 294.28 251.04 299.03 254.97 301.72 250.45 303.2 249.1 307.76 246.3 303.92 241.54 304.05 244.33 300.2 242.74 295.72 247.27 297.18 251.03 294.28"/><polygon class="cls-1" points="32.22 340.59 36.83 346.61 44.4 346.23 40.1 352.47 42.8 359.55 35.54 357.39 29.64 362.15 29.45 354.57 23.1 350.43 30.25 347.91 32.22 340.59"/><polygon class="cls-1" points="232.85 209.65 233.98 217.1 240.77 220.39 234.03 223.77 233 231.23 227.7 225.87 220.28 227.2 223.75 220.5 220.19 213.86 227.63 215.08 232.85 209.65"/><polygon class="cls-2" points="244.05 154.47 248.85 162.55 258.22 163.18 252.02 170.23 254.31 179.34 245.69 175.62 237.73 180.62 238.6 171.27 231.39 165.25 240.56 163.19 244.05 154.47"/><polygon class="cls-2" points="51.02 11.67 51.27 15.8 54.81 17.94 50.95 19.45 50.01 23.48 47.38 20.28 43.26 20.62 45.49 17.14 43.89 13.32 47.89 14.37 51.02 11.67"/><polygon class="cls-2" points="239.72 32.26 243.56 33.81 247.01 31.54 246.72 35.66 249.95 38.24 245.94 39.24 244.48 43.12 242.29 39.6 238.15 39.42 240.82 36.25 239.72 32.26"/><polygon class="cls-2" points="32.74 257.99 35.77 259.21 38.5 257.41 38.27 260.67 40.83 262.71 37.65 263.5 36.5 266.56 34.77 263.79 31.5 263.64 33.61 261.14 32.74 257.99"/><polygon class="cls-2" points="1.54 155.21 5.33 156.74 8.73 154.49 8.45 158.56 11.64 161.11 7.68 162.1 6.24 165.92 4.08 162.45 0 162.27 2.63 159.14 1.54 155.21"/><polygon class="cls-2" points="178.52 0 180.56 6.39 186.98 8.34 181.54 12.25 181.67 18.96 176.26 14.99 169.92 17.19 172.03 10.82 167.98 5.47 174.69 5.51 178.52 0"/></g></g></svg>